<svg width="64" height="64" viewBox="0 0 64 64" fill="none" xmlns="http://www.w3.org/2000/svg">
<path d="M51.4001 21.1904C49.0319 19.7589 46.3067 19.0273 43.5401 19.0804C43.1049 18.6424 42.6017 18.2777 42.05 18.0004C41.0473 17.5295 39.9472 17.3033 38.8401 17.3404C38.3701 12.9204 35.6501 9.06044 33.2801 6.15044C32.4355 5.00625 31.4242 3.99503 30.2801 3.15044C28.9796 2.21485 27.3624 1.83032 25.7801 2.08044C25.1989 2.18028 24.6485 2.41262 24.1716 2.75946C23.6947 3.1063 23.3041 3.55831 23.0301 4.08044C22.7808 4.66178 22.6658 5.2918 22.6935 5.9237C22.7212 6.55561 22.8909 7.17315 23.1901 7.73044C23.5018 8.33905 23.863 8.92101 24.2701 9.47044C24.4601 9.73044 24.6401 9.98044 24.8101 10.2504C26.1467 12.3741 26.6224 14.9279 26.1401 17.3904C24.7301 17.1969 23.2942 17.4084 22.0001 18.0004C21.4476 18.2807 20.9444 18.6488 20.5101 19.0904C17.7426 19.0313 15.0158 19.7633 12.6501 21.2004C11.2571 22.0525 10.0579 23.1866 9.12956 24.53C8.20126 25.8734 7.56444 27.3962 7.26005 29.0004C6.77005 31.8304 7.45005 34.6404 8.06005 37.1304L8.71005 39.8004C9.09005 41.4004 9.48005 43.0004 9.88005 44.5704C10.5301 47.3104 11.2701 50.4104 13.0001 52.9904C15.3201 56.5104 20.5001 58.9304 24.2701 60.7004L24.7101 60.9004C26.1201 61.6404 28.1201 62.0004 31.0001 62.0004H32.5901C35.6901 62.0004 37.82 61.6804 39.2701 60.8604L39.7201 60.6504C43.4901 58.8804 48.7201 56.4604 50.9901 52.9504C52.7201 50.3604 53.46 47.2604 54.1101 44.5304C54.5101 42.9504 54.9 41.3504 55.28 39.7504L55.93 37.0804C56.5401 34.5904 57.2201 31.7804 56.73 28.9604C56.4294 27.3664 55.8002 25.8523 54.8826 24.5147C53.9649 23.177 52.779 22.0449 51.4001 21.1904ZM25.8901 8.31044C25.557 7.84691 25.2595 7.35885 25.0001 6.85044C24.8391 6.57325 24.7381 6.26535 24.7037 5.94667C24.6692 5.62799 24.7021 5.30563 24.8001 5.00044C24.9431 4.7608 25.1374 4.5558 25.3691 4.40019C25.6008 4.24458 25.8641 4.14221 26.1401 4.10044C27.2019 3.96035 28.2769 4.23625 29.1401 4.87044C30.1179 5.58803 30.9897 6.43972 31.7301 7.40044C33.9201 10.0904 36.43 13.6404 36.85 17.5404C35.2809 17.866 33.7635 18.4043 32.3401 19.1404H31.6601C30.5186 18.5558 29.3186 18.0932 28.0801 17.7604C28.6595 14.7966 28.0835 11.7233 26.4701 9.17044C26.2901 8.87044 26.0901 8.59044 25.8901 8.31044ZM14.6601 51.8304C13.1301 49.5504 12.4401 46.6304 11.8201 44.0504C11.4201 42.4604 11.0401 40.8704 10.6501 39.2804L10.0001 36.6004C9.44005 34.3104 8.81005 31.7104 9.24005 29.2804C9.49021 27.9659 10.0127 26.7183 10.7739 25.6178C11.5352 24.5173 12.5183 23.5882 13.6601 22.8904C15.3135 21.8764 17.1857 21.2729 19.1201 21.1304C18.75 22.0191 18.5043 22.9546 18.39 23.9104C17.59 29.9604 19.1301 35.9104 20.4901 41.1104C21.39 44.6004 22.25 47.9004 22.21 50.5904C22.21 51.2904 22.2101 51.9504 22.1501 52.5904C22.0206 54.2359 22.0877 55.8909 22.3501 57.5204C19.3501 56.0004 16.1901 54.1504 14.6601 51.8304ZM39.85 52.6504C39.94 55.4904 40.0101 57.5404 38.9501 58.6504C38.7546 58.8417 38.5322 59.0034 38.2901 59.1304L38.1 59.2204L37.8401 59.3504C36.1504 59.8975 34.3721 60.1181 32.6 60.0004H31.4001C29.6338 60.1165 27.8618 59.8925 26.1801 59.3404L25.9201 59.2104L25.7101 59.1104C25.4775 58.9818 25.2624 58.8238 25.0701 58.6404C24.0101 57.5504 24.0701 55.5004 24.1701 52.6404C24.1701 52.0004 24.2201 51.3204 24.2301 50.6404C24.2301 47.6404 23.3801 44.2404 22.4401 40.6404C21.1301 35.6404 19.64 29.8804 20.39 24.2104C20.6901 21.9704 21.5201 20.4904 22.8601 19.8204C24.0155 19.3303 25.2956 19.2149 26.5201 19.4904H26.6101C26.7028 19.505 26.7973 19.505 26.8901 19.4904H26.9401C28.333 19.8045 29.6781 20.3022 30.9401 20.9704C31.0903 21.0531 31.2586 21.0978 31.4301 21.1004H32.6101C32.7816 21.0978 32.9498 21.0531 33.1 20.9704C34.48 20.1904 38.6 18.4604 41.18 19.7404C42.5201 20.4104 43.3501 21.8904 43.6501 24.1304C44.4001 29.8004 42.91 35.5204 41.6 40.5604C40.66 44.1904 39.7701 47.6204 39.8101 50.5604C39.8001 51.3304 39.83 52.0004 39.85 52.6504ZM54 36.6004L53.35 39.2804C52.96 40.8704 52.5801 42.4604 52.18 44.0604C51.5601 46.6304 50.87 49.5504 49.34 51.8404C47.8101 54.1304 44.6501 56.0004 41.6501 57.5104C41.9124 55.8809 41.9795 54.2259 41.85 52.5804C41.85 51.9504 41.8 51.2904 41.7901 50.5804C41.7901 47.8904 42.61 44.5804 43.51 41.1004C44.87 35.8704 46.41 29.9504 45.6101 23.9004C45.4958 22.9446 45.2501 22.0091 44.8801 21.1204C46.8141 21.2644 48.686 21.8678 50.34 22.8804C51.4829 23.5793 52.4667 24.5099 53.228 25.6122C53.9893 26.7145 54.5112 27.9641 54.76 29.2804C55.19 31.7104 54.5601 34.3104 54 36.6004ZM28.2401 35.6804C28.3226 35.7833 28.3839 35.9016 28.4205 36.0283C28.4572 36.155 28.4684 36.2877 28.4535 36.4187C28.4386 36.5498 28.398 36.6766 28.3339 36.7919C28.2698 36.9072 28.1835 37.0086 28.0801 37.0904C27.9041 37.2316 27.6856 37.3091 27.4601 37.3104C27.3098 37.3097 27.1617 37.2752 27.0267 37.2094C26.8917 37.1437 26.7732 37.0483 26.6801 36.9304C25.2671 35.1382 24.3166 33.0261 23.912 30.7801C23.5074 28.5341 23.6613 26.223 24.3601 24.0504C24.4424 23.7986 24.6214 23.5897 24.8576 23.4697C25.0939 23.3497 25.3681 23.3284 25.6201 23.4104C25.8719 23.4928 26.0808 23.6718 26.2007 23.908C26.3207 24.1443 26.3421 24.4185 26.2601 24.6704C25.6711 26.5284 25.5436 28.5019 25.8886 30.4203C26.2336 32.3386 27.0407 34.144 28.2401 35.6804Z" fill="black"/>
</svg>
