<svg width="64" height="64" viewBox="0 0 64 64" fill="none" xmlns="http://www.w3.org/2000/svg">
<path d="M61.94 28.7204L61.85 28.5504C61.8226 28.4967 61.789 28.4464 61.75 28.4004C61.7041 28.3459 61.6502 28.2987 61.59 28.2604C61.565 28.2286 61.5345 28.2015 61.5 28.1804L42.19 17.0004L27 9.05043C25.8662 8.44726 24.6243 8.07403 23.3458 7.95218C22.0673 7.83034 20.7774 7.96228 19.55 8.34043C15.526 9.59736 11.8793 11.8384 8.94 14.8604C5.22118 18.7036 2.79498 23.612 2 28.9004C2 28.9004 2 29.0004 2 29.0004V47.7804C2 49.9853 2.87519 52.1 4.43333 53.66C5.99148 55.22 8.10513 56.0978 10.31 56.1004H10.48C11.2607 56.0861 12.0214 55.8512 12.6743 55.423C13.3272 54.9948 13.8457 54.3907 14.17 53.6804C14.4348 53.1425 14.8449 52.6895 15.3539 52.3728C15.8629 52.056 16.4505 51.8881 17.05 51.8881C17.6495 51.8881 18.2371 52.056 18.7461 52.3728C19.2551 52.6895 19.6652 53.1425 19.93 53.6804C20.2547 54.3896 20.7736 54.9923 21.4267 55.4188C22.0797 55.8453 22.8401 56.0782 23.62 56.0904H53.69C55.8243 56.1031 57.8809 55.2902 59.4296 53.8216C60.9784 52.3529 61.8994 50.3424 62 48.2104V40.3004C62.0127 40.2008 62.0127 40.1 62 40.0004C62.0105 39.9174 62.0105 39.8334 62 39.7504V29.0004C62 29.0004 62 28.9204 62 28.8804C61.9832 28.8259 61.9632 28.7725 61.94 28.7204ZM18.54 12.4504C19.161 12.4504 19.7681 12.6346 20.2845 12.9796C20.8009 13.3246 21.2033 13.815 21.441 14.3888C21.6786 14.9626 21.7408 15.5939 21.6197 16.203C21.4985 16.8121 21.1995 17.3716 20.7603 17.8108C20.3212 18.2499 19.7617 18.5489 19.1526 18.6701C18.5435 18.7913 17.9121 18.7291 17.3384 18.4914C16.7646 18.2538 16.2742 17.8513 15.9292 17.3349C15.5842 16.8186 15.4 16.2115 15.4 15.5904C15.4 14.7577 15.7308 13.959 16.3197 13.3701C16.9085 12.7813 17.7072 12.4504 18.54 12.4504ZM10.37 16.2504C11.4819 15.1333 12.7011 14.1285 14.01 13.2504C13.6146 13.9818 13.4051 14.7991 13.4 15.6304C13.3964 16.6141 13.6751 17.5781 14.203 18.4081C14.731 19.238 15.486 19.8991 16.3784 20.3127C17.2708 20.7264 18.2632 20.8753 19.2378 20.7418C20.2123 20.6082 21.1281 20.1979 21.8763 19.5594C22.6246 18.9209 23.1739 18.0811 23.4592 17.1397C23.7444 16.1983 23.7535 15.1949 23.4854 14.2484C23.2173 13.302 22.6833 12.4524 21.9467 11.8005C21.2101 11.1485 20.302 10.7216 19.33 10.5704L20.14 10.2804C22.1093 9.68586 24.2339 9.89436 26.05 10.8604L41.23 18.7804L57.28 28.0004H37.62C37.3816 25.9038 36.3798 23.9682 34.8056 22.5629C33.2315 21.1577 31.1952 20.3809 29.085 20.3809C26.9748 20.3809 24.9385 21.1577 23.3644 22.5629C21.7902 23.9682 20.7884 25.9038 20.55 28.0004H4.19C5.08747 23.5746 7.23175 19.4977 10.37 16.2504ZM22.57 28.0004C22.8269 26.4621 23.621 25.0648 24.8112 24.0569C26.0013 23.049 27.5104 22.4958 29.07 22.4958C30.6296 22.4958 32.1387 23.049 33.3288 24.0569C34.519 25.0648 35.3131 26.4621 35.57 28.0004H22.57ZM35.57 30.0004C35.3131 31.5387 34.519 32.9361 33.3288 33.944C32.1387 34.9519 30.6296 35.505 29.07 35.505C27.5104 35.505 26.0013 34.9519 24.8112 33.944C23.621 32.9361 22.8269 31.5387 22.57 30.0004H35.57ZM60 40.2504V48.1304C59.9327 49.7487 59.2409 51.2779 58.0698 52.3967C56.8988 53.5156 55.3396 54.137 53.72 54.1304H23.62C23.2152 54.1163 22.8227 53.9876 22.4881 53.7593C22.1535 53.5309 21.8906 53.2123 21.73 52.8404C21.3014 51.9644 20.6356 51.2262 19.8083 50.7099C18.9809 50.1936 18.0252 49.9199 17.05 49.9199C16.0748 49.9199 15.1191 50.1936 14.2917 50.7099C13.4644 51.2262 12.7986 51.9644 12.37 52.8404C12.2074 53.2109 11.944 53.5282 11.6099 53.7563C11.2757 53.9843 10.8842 54.114 10.48 54.1304H10.31C9.47836 54.1291 8.65515 53.9637 7.88757 53.6436C7.11998 53.3236 6.42312 52.8551 5.83692 52.2652C5.25072 51.6753 4.78671 50.9755 4.47149 50.2059C4.15628 49.4363 3.99605 48.6121 4 47.7804V30.0004H20.55C20.7884 32.0971 21.7902 34.0326 23.3644 35.4379C24.9385 36.8432 26.9748 37.6199 29.085 37.6199C31.1952 37.6199 33.2315 36.8432 34.8056 35.4379C36.3798 34.0326 37.3816 32.0971 37.62 30.0004H60V39.7104C59.9895 39.7934 59.9895 39.8774 60 39.9604C59.9886 40.0568 59.9886 40.1541 60 40.2504ZM14.92 35.6604C13.9722 35.6585 13.0451 35.9377 12.2561 36.4628C11.4671 36.988 10.8516 37.7354 10.4875 38.6104C10.1234 39.4855 10.0271 40.4489 10.2108 41.3788C10.3945 42.3086 10.8499 43.163 11.5194 43.8339C12.1889 44.5048 13.0424 44.962 13.9718 45.1477C14.9013 45.3333 15.8649 45.239 16.7407 44.8768C17.6166 44.5145 18.3653 43.9006 18.892 43.1127C19.4188 42.3247 19.7 41.3982 19.7 40.4504C19.6974 39.1826 19.1932 37.9673 18.2977 37.0698C17.4021 36.1724 16.1878 35.6657 14.92 35.6604ZM14.92 43.2304C14.3673 43.2324 13.8265 43.0702 13.3662 42.7644C12.9059 42.4586 12.5467 42.023 12.3343 41.5127C12.1219 41.0025 12.0658 40.4407 12.1731 39.8986C12.2805 39.3565 12.5464 38.8584 12.9372 38.4676C13.328 38.0768 13.826 37.8109 14.3682 37.7036C14.9103 37.5962 15.4721 37.6523 15.9823 37.8647C16.4925 38.0771 16.9282 38.4363 17.234 38.8966C17.5398 39.357 17.702 39.8978 17.7 40.4504C17.6974 41.1869 17.4036 41.8925 16.8828 42.4133C16.3621 42.9341 15.6565 43.2278 14.92 43.2304ZM29.56 46.7504V47.6904C29.56 47.9557 29.4546 48.21 29.2671 48.3975C29.0796 48.5851 28.8252 48.6904 28.56 48.6904C28.2948 48.6904 28.0404 48.5851 27.8529 48.3975C27.6654 48.21 27.56 47.9557 27.56 47.6904V46.7504C27.56 46.4852 27.6654 46.2309 27.8529 46.0433C28.0404 45.8558 28.2948 45.7504 28.56 45.7504C28.8252 45.7504 29.0796 45.8558 29.2671 46.0433C29.4546 46.2309 29.56 46.4852 29.56 46.7504ZM39.06 23.2604L39.38 22.3204C39.4151 22.188 39.477 22.0641 39.5619 21.9566C39.6468 21.8491 39.7529 21.7601 39.8737 21.6953C39.9944 21.6305 40.1271 21.5912 40.2637 21.5798C40.4002 21.5684 40.5376 21.5853 40.6674 21.6292C40.7972 21.6731 40.9166 21.7433 41.0181 21.8353C41.1197 21.9273 41.2012 22.0392 41.2577 22.164C41.3142 22.2888 41.3445 22.4239 41.3466 22.5609C41.3487 22.6979 41.3226 22.8339 41.27 22.9604L41 23.9004C40.9335 24.0974 40.8072 24.2688 40.6387 24.3907C40.4702 24.5126 40.2679 24.5789 40.06 24.5804C39.9539 24.5956 39.8461 24.5956 39.74 24.5804C39.6047 24.5447 39.4784 24.4809 39.3693 24.3932C39.2602 24.3056 39.1707 24.196 39.1066 24.0716C39.0425 23.9472 39.0052 23.8107 38.9972 23.671C38.9892 23.5312 39.0106 23.3914 39.06 23.2604ZM9.44 36.0004C9.33051 36.0007 9.22194 35.9804 9.12 35.9404C8.86999 35.856 8.66348 35.6762 8.54547 35.4402C8.42747 35.2042 8.40753 34.9311 8.49 34.6804L8.81 33.7404C8.89441 33.4904 9.07422 33.2839 9.31024 33.1659C9.54625 33.0479 9.81935 33.028 10.07 33.1104C10.1949 33.1522 10.3104 33.2182 10.4098 33.3047C10.5091 33.3912 10.5904 33.4965 10.6489 33.6145C10.7075 33.7325 10.7421 33.8609 10.7509 33.9924C10.7597 34.1238 10.7424 34.2557 10.7 34.3804L10.38 35.3204C10.3135 35.5174 10.1872 35.6888 10.0187 35.8107C9.85021 35.9326 9.64793 35.9989 9.44 36.0004ZM14 24.8504L13.69 25.7904C13.6204 25.9974 13.485 26.1759 13.3044 26.2987C13.1239 26.4215 12.9081 26.4818 12.69 26.4704C12.5839 26.4856 12.4761 26.4856 12.37 26.4704C12.2451 26.4287 12.1296 26.3627 12.0302 26.2762C11.9309 26.1897 11.8496 26.0844 11.7911 25.9664C11.7325 25.8484 11.6979 25.7199 11.6891 25.5885C11.6803 25.4571 11.6976 25.3252 11.74 25.2004L12.06 24.2604C12.0951 24.128 12.157 24.0041 12.2419 23.8966C12.3268 23.7891 12.4329 23.7001 12.5537 23.6353C12.6744 23.5705 12.8071 23.5312 12.9437 23.5198C13.0802 23.5084 13.2176 23.5253 13.3474 23.5692C13.4772 23.6131 13.5966 23.6833 13.6981 23.7753C13.7997 23.8673 13.8812 23.9792 13.9377 24.104C13.9942 24.2288 14.0245 24.3639 14.0266 24.5009C14.0287 24.6379 14.0026 24.7739 13.95 24.9004L14 24.8504ZM38 44.0804L37.68 45.0204C37.6104 45.2274 37.475 45.4059 37.2944 45.5287C37.1139 45.6515 36.8981 45.7118 36.68 45.7004C36.5712 45.7026 36.4629 45.6857 36.36 45.6504C36.1095 45.5641 35.9035 45.3818 35.7872 45.1437C35.671 44.9056 35.654 44.6311 35.74 44.3804L36.05 43.4404C36.1349 43.1885 36.3164 42.9806 36.5545 42.8624C36.7927 42.7443 37.068 42.7256 37.32 42.8104C37.572 42.8953 37.7799 43.0768 37.898 43.315C38.0162 43.5531 38.0349 43.8285 37.95 44.0804H38ZM50 42.2004C49.0111 42.2004 48.0444 42.4937 47.2221 43.0431C46.3999 43.5925 45.759 44.3734 45.3806 45.287C45.0022 46.2006 44.9031 47.206 45.0961 48.1759C45.289 49.1458 45.7652 50.0367 46.4645 50.736C47.1637 51.4352 48.0546 51.9114 49.0245 52.1044C49.9945 52.2973 50.9998 52.1983 51.9134 51.8198C52.827 51.4414 53.6079 50.8005 54.1573 49.9783C54.7068 49.156 55 48.1893 55 47.2004C55 45.8744 54.4732 44.6026 53.5355 43.6649C52.5979 42.7272 51.3261 42.2004 50 42.2004ZM50 50.2004C49.4067 50.2004 48.8266 50.0245 48.3333 49.6948C47.8399 49.3652 47.4554 48.8967 47.2284 48.3485C47.0013 47.8003 46.9419 47.1971 47.0576 46.6152C47.1734 46.0332 47.4591 45.4987 47.8787 45.0791C48.2982 44.6596 48.8328 44.3738 49.4147 44.2581C49.9967 44.1423 50.5999 44.2017 51.148 44.4288C51.6962 44.6559 52.1648 45.0404 52.4944 45.5337C52.8241 46.0271 53 46.6071 53 47.2004C53.0066 47.5986 52.9339 47.9941 52.7862 48.3638C52.6384 48.7336 52.4184 49.0703 52.1392 49.3542C51.86 49.638 51.527 49.8635 51.1597 50.0174C50.7924 50.1713 50.3982 50.2505 50 50.2504V50.2004ZM47.26 36.2004C47.256 35.4537 47.031 34.7248 46.6133 34.1059C46.1955 33.4869 45.6038 33.0055 44.9127 32.7225C44.2217 32.4394 43.4623 32.3674 42.7304 32.5155C41.9984 32.6636 41.3268 33.0252 40.8001 33.5546C40.2735 34.0841 39.9155 34.7576 39.7712 35.4903C39.627 36.223 39.703 36.982 39.9897 37.6716C40.2764 38.3611 40.7609 38.9503 41.382 39.3648C42.0032 39.7792 42.7332 40.0004 43.48 40.0004C44.4748 39.9979 45.4288 39.6043 46.136 38.9046C46.8432 38.2049 47.2469 37.2552 47.26 36.2604V36.2004ZM43.48 38.0004C43.1279 38.0004 42.7838 37.896 42.4911 37.7005C42.1984 37.5049 41.9702 37.2269 41.8355 36.9016C41.7008 36.5764 41.6655 36.2185 41.7342 35.8732C41.8029 35.5279 41.9724 35.2107 42.2214 34.9618C42.4703 34.7128 42.7875 34.5433 43.1327 34.4746C43.478 34.406 43.8359 34.4412 44.1612 34.5759C44.4864 34.7107 44.7644 34.9388 44.96 35.2315C45.1556 35.5242 45.26 35.8684 45.26 36.2204C45.26 36.6925 45.0725 37.1453 44.7387 37.4791C44.4048 37.8129 43.9521 38.0004 43.48 38.0004ZM52.75 35.5004V34.6004C52.75 34.3352 52.8554 34.0809 53.0429 33.8933C53.2304 33.7058 53.4848 33.6004 53.75 33.6004C54.0152 33.6004 54.2696 33.7058 54.4571 33.8933C54.6446 34.0809 54.75 34.3352 54.75 34.6004V35.5404C54.75 35.8057 54.6446 36.06 54.4571 36.2475C54.2696 36.4351 54.0152 36.5404 53.75 36.5404C53.4848 36.5404 53.2304 36.4351 53.0429 36.2475C52.8554 36.06 52.75 35.8057 52.75 35.5404V35.5004Z" fill="black"/>
</svg>
