<svg width="64" height="64" viewBox="0 0 64 64" fill="none" xmlns="http://www.w3.org/2000/svg">
<path d="M37.5799 25.2997C38.4148 23.9717 38.7679 22.3971 38.5799 20.8397C38.3749 18.7393 37.7564 16.7001 36.7599 14.8397L36.3599 13.9997C35.6142 12.2526 34.5184 10.6768 33.1399 9.36975C29.8599 6.36975 25.2299 4.92975 19.9999 5.36975L14.3499 6.36975C12.0604 6.92217 9.91372 7.95262 8.05067 9.39342C6.18762 10.8342 4.6504 12.6528 3.53992 14.7297C2.7135 16.4365 2.24716 18.295 2.16992 20.1897L2.10992 21.1197C1.83275 23.2202 1.97551 25.3549 2.52992 27.3997C2.88838 28.9252 3.76046 30.281 4.99992 31.2397C5.82339 31.6778 6.73995 31.9119 7.67262 31.9223C8.60529 31.9327 9.52685 31.7192 10.3599 31.2997C10.8999 31.0797 11.4199 30.8197 11.9399 30.5597C12.7446 30.1359 13.5929 29.8006 14.4699 29.5597C14.615 29.527 14.7653 29.5243 14.9115 29.5518C15.0577 29.5793 15.1967 29.6365 15.3199 29.7197C15.6103 29.9192 15.8113 30.2242 15.8799 30.5697L17.4499 38.9997C17.6815 40.3485 18.3747 41.5748 19.4109 42.4687C20.4471 43.3626 21.7618 43.8685 23.1299 43.8997H23.5799C24.3762 43.8346 25.15 43.6033 25.8514 43.2208C26.5529 42.8384 27.1664 42.3132 27.6526 41.6792C28.1387 41.0452 28.4866 40.3163 28.6739 39.5396C28.8612 38.763 28.8837 37.9557 28.7399 37.1697L27.1599 28.4697C27.1233 28.297 27.1239 28.1184 27.1619 27.946C27.1998 27.7735 27.2742 27.6112 27.3799 27.4697C27.5629 27.2225 27.836 27.0572 28.1399 27.0097C29.0433 26.9326 29.9526 26.9595 30.8499 27.0897C31.4299 27.1497 32.0099 27.1997 32.5899 27.2197C34.8199 27.2997 36.5899 26.6197 37.5799 25.2997ZM14.7299 27.5097C14.4843 27.5072 14.2392 27.5341 13.9999 27.5897C12.983 27.8653 12.0028 28.2615 11.0799 28.7697C10.5999 28.9997 10.0799 29.2397 9.61992 29.4497C8.77992 29.7897 7.20992 30.2497 6.08992 29.5497C5.79468 29.3406 5.54328 29.0756 5.34992 28.7697C5.2094 28.2054 5.1848 27.6185 5.27762 27.0444C5.37044 26.4703 5.57874 25.921 5.88992 25.4297C6.3626 24.7068 7.01451 24.1186 7.78211 23.7226C8.54971 23.3265 9.40682 23.136 10.2699 23.1697C10.7996 23.121 11.3337 23.1849 11.8369 23.3572C12.3402 23.5296 12.8013 23.8065 13.1899 24.1697C14.0552 25.1004 14.6167 26.2723 14.7999 27.5297L14.7299 27.5097ZM26.0699 40.5097C25.7514 40.9227 25.3504 41.2649 24.8924 41.5145C24.4345 41.7641 23.9296 41.9158 23.4099 41.9597C22.4604 42.0038 21.5279 41.6969 20.7902 41.0975C20.0525 40.4981 19.5612 39.6482 19.4099 38.7097L17.8599 30.2097C17.739 29.544 17.414 28.9324 16.9299 28.4597C16.8391 26.337 16.0077 24.3132 14.5799 22.7397C13.9973 22.1893 13.3052 21.7677 12.5489 21.5024C11.7925 21.237 10.9888 21.1339 10.1899 21.1997C8.99978 21.1889 7.8261 21.4782 6.77739 22.041C5.72867 22.6039 4.83876 23.422 4.18992 24.4197C4.18992 24.5097 4.09992 24.6097 4.04992 24.6997C3.99518 23.5597 4.01522 22.4172 4.10992 21.2797L4.16992 20.3297C4.2366 18.7063 4.63477 17.1136 5.33992 15.6497C6.31949 13.8429 7.66781 12.262 9.29748 11.0096C10.9271 9.75722 12.8018 8.86124 14.7999 8.37975L20.2799 7.37975C22.3294 7.11099 24.4126 7.27661 26.3939 7.86584C28.3752 8.45506 30.2103 9.4547 31.7799 10.7997C32.9626 11.9292 33.8988 13.2911 34.5299 14.7997L34.9199 15.6697C35.446 16.7724 35.8905 17.9121 36.2499 19.0797C36.0999 18.9397 35.9499 18.7897 35.7899 18.6597C34.8281 17.9451 33.7008 17.4859 32.5134 17.325C31.326 17.1641 30.1172 17.3068 28.9999 17.7397C28.2278 17.9616 27.511 18.3433 26.8959 18.8602C26.2809 19.377 25.7814 20.0174 25.4299 20.7397C24.2099 23.2697 25.0499 26.3097 25.3199 27.1497C25.1123 27.6946 25.0569 28.2858 25.1599 28.8597L26.7399 37.5597C26.838 38.0663 26.8291 38.5877 26.7137 39.0906C26.5983 39.5935 26.379 40.0666 26.0699 40.4797V40.5097ZM35.9999 24.0997C35.1999 25.1597 33.5799 25.2797 32.6599 25.2497C32.1299 25.2497 31.5999 25.1797 31.0599 25.1297C30.006 24.9857 28.9391 24.9622 27.8799 25.0597C27.5686 25.112 27.2659 25.2061 26.9799 25.3397C26.6949 24.0876 26.8032 22.7781 27.2899 21.5897C27.5288 21.115 27.8651 20.6959 28.277 20.3599C28.6888 20.0239 29.1668 19.7785 29.6799 19.6397C30.4749 19.3048 31.3431 19.1813 32.1999 19.2812C33.0568 19.3811 33.8733 19.701 34.5699 20.2097C35.055 20.566 35.4573 21.0231 35.749 21.5496C36.0407 22.0761 36.215 22.6595 36.2599 23.2597C36.249 23.3494 36.249 23.4401 36.2599 23.5297C36.201 23.7312 36.1135 23.9232 35.9999 24.0997ZM16.1399 11.6597C16.2146 11.913 16.186 12.1855 16.0605 12.4178C15.935 12.6502 15.7227 12.8234 15.4699 12.8997C13.4709 13.5159 11.7848 14.8762 10.7599 16.6997C10.6731 16.8542 10.5468 16.9828 10.3939 17.0724C10.2411 17.1621 10.0671 17.2094 9.88992 17.2097C9.71813 17.2092 9.54938 17.1644 9.39992 17.0797C9.28413 17.0169 9.18189 16.9319 9.09906 16.8295C9.01624 16.727 8.95447 16.6092 8.9173 16.4829C8.88013 16.3565 8.8683 16.224 8.88248 16.0931C8.89666 15.9621 8.93657 15.8352 8.99992 15.7197C10.2851 13.4451 12.3986 11.7543 14.8999 10.9997C15.1519 10.9247 15.4232 10.9518 15.6553 11.0754C15.8874 11.1989 16.0615 11.4088 16.1399 11.6597ZM54.1399 30.2397L49.8699 28.6697C48.0668 28.1122 46.166 27.9425 44.2926 28.1717C42.4192 28.401 40.6155 29.0239 38.9999 29.9997C37.7236 30.8429 36.6371 31.943 35.8099 33.2297L35.3999 33.8297C34.3531 35.1686 33.5816 36.7014 33.1299 38.3397C32.7567 39.5725 32.8167 40.8958 33.2999 42.0897C33.6996 42.7458 34.2502 43.2968 34.906 43.6969C35.5618 44.097 36.3037 44.3345 37.0699 44.3897C37.5299 44.4597 37.9899 44.4897 38.4599 44.5297C39.1625 44.5495 39.8604 44.6502 40.5399 44.8298C40.6248 44.8594 40.703 44.9056 40.77 44.9657C40.8369 45.0257 40.8913 45.0985 40.9299 45.1797C40.972 45.2794 40.9937 45.3865 40.9937 45.4947C40.9937 45.603 40.972 45.7101 40.9299 45.8097L38.5699 52.2097C38.1567 53.3206 38.1646 54.5443 38.592 55.6497C39.0195 56.7552 39.8369 57.6658 40.8899 58.2097C41.4841 58.4976 42.1322 58.6571 42.7921 58.6778C43.452 58.6985 44.1089 58.5799 44.7199 58.3298C45.3304 58.0846 45.8825 57.7141 46.3407 57.2421C46.799 56.7701 47.153 56.2072 47.3799 55.5897L49.7999 49.0397C49.8373 48.9383 49.8945 48.8453 49.9684 48.7663C50.0422 48.6873 50.1312 48.6238 50.2299 48.5798C50.3138 48.5443 50.4039 48.526 50.4949 48.526C50.586 48.526 50.6761 48.5443 50.7599 48.5798C51.39 48.8816 51.9838 49.254 52.5299 49.6897C52.9099 49.9697 53.2799 50.2397 53.6699 50.4897C54.2888 50.9484 55.0094 51.2506 55.7703 51.3708C56.5312 51.4909 57.3098 51.4254 58.0399 51.1797C59.1856 50.5963 60.0912 49.6306 60.5999 48.4497C61.3195 46.9111 61.7306 45.2464 61.8099 43.5497L61.8899 42.8197C62.0885 41.3063 61.9762 39.7683 61.5599 38.2997C60.9523 36.5092 59.9751 34.8664 58.6917 33.4778C57.4082 32.0893 55.8472 30.9861 54.1099 30.2397H54.1399ZM38.5999 42.5397C38.1799 42.5397 37.7599 42.4797 37.3499 42.4197C36.9058 42.388 36.4736 42.2618 36.0822 42.0497C35.6907 41.8376 35.3491 41.5444 35.0799 41.1897C34.9791 40.9724 34.9181 40.7387 34.8999 40.4997C35.0243 40.0901 35.2301 39.7097 35.5051 39.3815C35.78 39.0533 36.1184 38.784 36.4999 38.5897C37.0836 38.3121 37.728 38.1866 38.3732 38.2251C39.0184 38.2636 39.6434 38.4647 40.1899 38.8097C40.5413 38.9772 40.8541 39.2156 41.1088 39.5099C41.3636 39.8042 41.5546 40.148 41.6699 40.5197C41.8652 41.3754 41.8026 42.2697 41.4899 43.0897C41.3678 43.0262 41.2407 42.9727 41.1099 42.9297C40.2906 42.7055 39.4486 42.5747 38.5999 42.5397ZM57.7099 48.9997C57.7099 48.9997 57.7099 49.1097 57.6399 49.1597C57.5336 49.2511 57.416 49.3284 57.2899 49.3897C56.8534 49.4832 56.4019 49.4825 55.9656 49.3876C55.5293 49.2928 55.1183 49.106 54.7599 48.8397C54.4099 48.6197 54.0699 48.3698 53.7599 48.1297C53.0899 47.5941 52.358 47.1408 51.5799 46.7797C51.4184 46.7115 51.2511 46.6579 51.0799 46.6197C51.3764 45.7949 51.9084 45.0752 52.6099 44.5497C52.9388 44.3396 53.308 44.2007 53.6939 44.1421C54.0797 44.0836 54.4735 44.1066 54.8499 44.2097C55.4994 44.2923 56.1167 44.5409 56.6422 44.9315C57.1677 45.3222 57.5836 45.8416 57.8499 46.4397C58.0118 46.8515 58.0831 47.2933 58.059 47.735C58.0348 48.1768 57.9157 48.6081 57.7099 48.9997ZM59.9199 42.6297L59.8399 43.3797C59.7599 44.0998 59.6799 44.8197 59.5399 45.5197C59.1419 44.6698 58.5437 43.9292 57.7965 43.3614C57.0492 42.7935 56.1754 42.4155 55.2499 42.2597C54.6107 42.0959 53.9443 42.0672 53.2934 42.1757C52.6425 42.2842 52.0214 42.5274 51.4699 42.8897C50.0756 43.9812 49.1093 45.528 48.7399 47.2597C48.3809 47.5657 48.1055 47.958 47.9399 48.3997L45.5199 54.9997C45.3881 55.3569 45.1828 55.6824 44.9172 55.9552C44.6517 56.228 44.3318 56.442 43.9784 56.5834C43.6249 56.7248 43.2457 56.7904 42.8653 56.776C42.4848 56.7616 42.1117 56.6675 41.7699 56.4997C41.1558 56.1726 40.6832 55.6314 40.4417 54.9789C40.2002 54.3263 40.2067 53.6078 40.4599 52.9597L42.8299 46.5597C43.0143 46.0429 43.0455 45.4839 42.9199 44.9497C43.7128 43.4282 43.9532 41.6787 43.5999 39.9997C43.415 39.365 43.0998 38.7758 42.6745 38.2696C42.2493 37.7635 41.7232 37.3514 41.1299 37.0597C40.3566 36.6009 39.4881 36.3261 38.5916 36.2568C37.6951 36.1874 36.7946 36.3253 35.9599 36.6597C36.2899 36.0897 36.6699 35.5297 37.0399 34.9697L37.4599 34.3497C38.1397 33.3001 39.0281 32.4015 40.0699 31.7097C41.7722 30.6379 43.7485 30.0821 45.7599 30.1097C46.9328 30.1148 48.0997 30.2762 49.2299 30.5897L53.3399 32.0997C54.8145 32.7297 56.1395 33.6636 57.2285 34.8405C58.3176 36.0174 59.1461 37.4109 59.6599 38.9297C59.9961 40.1328 60.0845 41.3915 59.9199 42.6297ZM49.0999 33.2097C49.0694 33.338 49.0139 33.4589 48.9364 33.5656C48.859 33.6723 48.7613 33.7626 48.6488 33.8314C48.5364 33.9002 48.4114 33.946 48.2812 33.9663C48.1509 33.9866 48.018 33.981 47.8899 33.9497C46.3383 33.5763 44.7025 33.8125 43.3199 34.6097C43.0914 34.7293 42.8255 34.7559 42.5778 34.6841C42.3301 34.6122 42.1197 34.4474 41.9906 34.2241C41.8616 34.0008 41.8237 33.7363 41.8851 33.4858C41.9465 33.2352 42.1023 33.0181 42.3199 32.8797C44.1367 31.8378 46.282 31.5267 48.3199 32.0097C48.4507 32.0358 48.5749 32.0878 48.6853 32.1626C48.7957 32.2375 48.89 32.3336 48.9627 32.4454C49.0354 32.5572 49.085 32.6825 49.1085 32.8137C49.1321 32.945 49.1292 33.0796 49.0999 33.2097Z" fill="black"/>
</svg>
