<svg width="64" height="64" viewBox="0 0 64 64" fill="none" xmlns="http://www.w3.org/2000/svg">
<path d="M9.69011 62C10.9812 61.9805 12.2467 61.6366 13.3701 61L53.0001 39.8C53.0388 39.7839 53.0756 39.7638 53.1101 39.74L57.8901 37.18C59.1532 36.5081 60.2035 35.4967 60.9226 34.2599C61.6417 33.0231 62.001 31.61 61.9601 30.18C61.9265 22.6919 58.9656 15.514 53.7101 10.18C48.3829 4.97207 41.2399 2.03886 33.7901 1.99997C32.3592 1.95437 30.9442 2.31175 29.7066 3.03136C28.4689 3.75096 27.4584 4.80385 26.7901 6.06997L3.00011 50.63C2.19484 52.0804 1.88973 53.7557 2.13193 55.397C2.37414 57.0382 3.15018 58.554 4.34011 59.71C5.03704 60.4253 5.86846 60.9959 6.78659 61.3889C7.70472 61.7818 8.69146 61.9895 9.69011 62ZM40.5601 42.37C40.0636 42.8761 39.4276 43.2229 38.7333 43.3663C38.0389 43.5096 37.3176 43.4429 36.6613 43.1747C36.005 42.9066 35.4433 42.449 35.048 41.8605C34.6527 41.2719 34.4416 40.579 34.4416 39.87C34.4416 39.161 34.6527 38.468 35.048 37.8795C35.4433 37.2909 36.005 36.8334 36.6613 36.5652C37.3176 36.297 38.0389 36.2304 38.7333 36.3737C39.4276 36.517 40.0636 36.8638 40.5601 37.37C41.2148 38.0374 41.5816 38.935 41.5816 39.87C41.5816 40.8049 41.2148 41.7025 40.5601 42.37ZM28.5801 6.99997C29.0654 6.0954 29.7864 5.33896 30.6666 4.81082C31.5469 4.28267 32.5536 4.0025 33.5801 3.99997H33.7101C40.674 4.0383 47.3478 6.79393 52.3101 11.68C57.195 16.6357 59.9539 23.3016 60.0001 30.26C60.027 31.3135 59.7607 32.3538 59.231 33.2649C58.7013 34.176 57.929 34.9221 57.0001 35.42L53.6501 37.2C53.3395 31.1492 51.1278 25.3507 47.3301 20.63C46.7634 19.93 46.1434 19.24 45.4701 18.56C44.2656 17.3551 42.9497 16.2669 41.5401 15.31C41.4984 15.2702 41.4513 15.2365 41.4001 15.21C37.0462 12.3343 32.0093 10.6611 26.8001 10.36L28.5801 6.99997ZM45.4301 21.48C45.2654 22.0532 44.9594 22.5759 44.5401 23C44.2239 23.3804 43.8321 23.6909 43.3896 23.9119C42.947 24.1329 42.4634 24.2596 41.9693 24.2838C41.4753 24.308 40.9815 24.2293 40.5195 24.0526C40.0575 23.8759 39.6372 23.6051 39.2853 23.2574C38.9335 22.9097 38.6577 22.4927 38.4755 22.0328C38.2934 21.5729 38.2087 21.0802 38.2271 20.5859C38.2454 20.0916 38.3662 19.6064 38.5819 19.1613C38.7976 18.7161 39.1035 18.3207 39.4801 18C39.8349 17.6399 40.2653 17.3632 40.7401 17.19C41.8996 18.0387 42.9897 18.9784 44.0001 20C44.5401 20.46 45.0001 21 45.4301 21.48ZM16.8001 29C17.549 29.3096 18.2289 29.7651 18.8001 30.34C19.3851 30.9222 19.8496 31.614 20.167 32.3758C20.4845 33.1377 20.6486 33.9546 20.6501 34.78C20.6525 35.6011 20.4919 36.4146 20.1778 37.1733C19.8637 37.9319 19.4022 38.6208 18.8201 39.2C17.793 40.2184 16.4454 40.8505 15.0057 40.989C13.5659 41.1275 12.1225 40.764 10.9201 39.96L16.8001 29ZM7.11011 47.87C7.69371 47.2897 8.4603 46.9296 9.27947 46.8509C10.0986 46.7721 10.9198 46.9796 11.6032 47.4381C12.2867 47.8965 12.7902 48.5776 13.0281 49.3654C13.266 50.1532 13.2236 50.9991 12.9082 51.7592C12.5927 52.5193 12.0237 53.1466 11.2979 53.5344C10.572 53.9223 9.73424 54.0466 8.92704 53.8864C8.11983 53.7262 7.39307 53.2913 6.87038 52.6557C6.34769 52.02 6.06136 51.2229 6.06011 50.4C6.05884 49.9297 6.15101 49.4639 6.33126 49.0296C6.51151 48.5953 6.77625 48.2011 7.11011 47.87ZM4.40011 52.25C4.76323 53.2696 5.41559 54.1614 6.27742 54.8163C7.13925 55.4712 8.17321 55.8607 9.2529 55.9374C10.3326 56.014 11.4112 55.7744 12.3569 55.2479C13.3026 54.7213 14.0744 53.9306 14.5779 52.9725C15.0815 52.0143 15.2949 50.9302 15.1922 49.8527C15.0894 48.7752 14.675 47.7509 13.9995 46.9052C13.324 46.0595 12.4167 45.4289 11.3885 45.0905C10.3603 44.7521 9.25586 44.7207 8.21011 45L10.0001 41.75C11.718 42.8118 13.7655 43.2074 15.7553 42.862C17.7451 42.5167 19.5395 41.4543 20.7992 39.8757C22.0588 38.2971 22.6965 36.3117 22.5917 34.2948C22.4868 32.278 21.6467 30.3694 20.2301 28.93C19.5152 28.218 18.6743 27.6449 17.7501 27.24L25.7501 12.3C30.3453 12.4044 34.8415 13.6557 38.8301 15.94C38.558 16.1303 38.3006 16.3409 38.0601 16.57C37.0165 17.6229 36.4339 19.0472 36.4404 20.5297C36.447 22.0122 37.0422 23.4313 38.0951 24.475C39.148 25.5186 40.5724 26.1012 42.0549 26.0947C43.5373 26.0881 44.9565 25.4929 46.0001 24.44C46.3441 24.0908 46.64 23.6973 46.8801 23.27C49.9443 27.6817 51.6384 32.8997 51.7501 38.27L42.5001 43.27C43.2575 42.2868 43.6614 41.077 43.6467 39.836C43.632 38.595 43.1995 37.3952 42.419 36.4302C41.6386 35.4652 40.5557 34.7914 39.3452 34.5175C38.1347 34.2436 36.8672 34.3857 35.7474 34.9207C34.6276 35.4557 33.7207 36.3526 33.1732 37.4664C32.6257 38.5802 32.4696 39.846 32.7299 41.0594C32.9903 42.2729 33.652 43.3632 34.6082 44.1544C35.5644 44.9456 36.7593 45.3914 38.0001 45.42C38.1201 45.42 38.2301 45.42 38.3501 45.42L12.3501 59.33C11.3315 59.8633 10.1754 60.0762 9.03368 59.9405C7.89192 59.8049 6.81788 59.3271 5.95258 58.57C5.08728 57.8129 4.47118 56.8117 4.18519 55.6981C3.8992 54.5845 3.95669 53.4104 4.35011 52.33L4.40011 52.25ZM28.1001 30.06C28.0722 29.9313 28.07 29.7983 28.0937 29.6687C28.1173 29.5392 28.1663 29.4156 28.2379 29.305C28.3094 29.1944 28.4021 29.0991 28.5106 29.0244C28.6191 28.9498 28.7413 28.8973 28.8701 28.87C29.5338 28.7253 30.119 28.3368 30.5097 27.7812C30.9005 27.2256 31.0684 26.5435 30.9801 25.87C30.9624 25.7387 30.9707 25.6051 31.0046 25.477C31.0384 25.3489 31.0972 25.2287 31.1775 25.1233C31.2579 25.0179 31.3582 24.9294 31.4727 24.8628C31.5872 24.7961 31.7138 24.7527 31.8451 24.735C31.9764 24.7172 32.11 24.7256 32.2381 24.7594C32.3662 24.7933 32.4864 24.8521 32.5918 24.9324C32.6972 25.0127 32.7857 25.113 32.8523 25.2276C32.919 25.3421 32.9624 25.4687 32.9801 25.6C33.1398 26.7726 32.8503 27.9622 32.1697 28.9303C31.489 29.8984 30.4676 30.5734 29.3101 30.82C29.2404 30.8297 29.1698 30.8297 29.1001 30.82C28.8717 30.8266 28.6479 30.7548 28.4659 30.6166C28.284 30.4783 28.1549 30.2818 28.1001 30.06ZM28.3001 41.16C28.6224 42.0318 28.7487 42.9638 28.6701 43.89C28.65 44.1411 28.5358 44.3753 28.3504 44.5459C28.165 44.7165 27.922 44.8108 27.6701 44.81H27.5901C27.3264 44.7871 27.0825 44.6605 26.9119 44.4581C26.7413 44.2556 26.6579 43.9938 26.6801 43.73C26.7298 43.0952 26.6411 42.4571 26.4201 41.86C26.3286 41.6107 26.3399 41.3352 26.4515 41.0942C26.5631 40.8533 26.7658 40.6665 27.0151 40.575C27.2644 40.4835 27.5399 40.4948 27.7808 40.6063C28.0218 40.7179 28.2086 40.9207 28.3001 41.17V41.16ZM25.5001 15.87C25.4073 15.6207 25.4173 15.3447 25.5279 15.1028C25.6386 14.8609 25.8408 14.6728 26.0901 14.58C26.3394 14.4871 26.6154 14.4972 26.8573 14.6078C27.0992 14.7184 27.2873 14.9207 27.3801 15.17C27.7017 16.0419 27.828 16.9739 27.7501 17.9C27.73 18.1511 27.6158 18.3853 27.4304 18.5559C27.245 18.7265 27.002 18.8208 26.7501 18.82H26.6601C26.3964 18.7971 26.1525 18.6705 25.9819 18.4681C25.8113 18.2656 25.7279 18.0038 25.7501 17.74C25.803 17.1059 25.7177 16.4679 25.5001 15.87ZM18.0001 49C18.0575 48.7416 18.215 48.5165 18.4381 48.3741C18.6611 48.2316 18.9316 48.1834 19.1901 48.24C20.2858 48.4834 21.3995 48.6373 22.5201 48.7C22.6514 48.7033 22.7808 48.7324 22.9009 48.7857C23.021 48.8389 23.1294 48.9154 23.2199 49.0105C23.3104 49.1057 23.3813 49.2178 23.4286 49.3404C23.4758 49.463 23.4984 49.5936 23.4951 49.725C23.4918 49.8563 23.4627 49.9857 23.4094 50.1058C23.3561 50.2258 23.2797 50.3342 23.1845 50.4248C23.0894 50.5153 22.9773 50.5862 22.8547 50.6334C22.7321 50.6806 22.6014 50.7033 22.4701 50.7H22.4101C21.1814 50.638 19.9602 50.4708 18.7601 50.2C18.6311 50.1716 18.509 50.118 18.4009 50.0422C18.2928 49.9664 18.2007 49.8699 18.13 49.7584C18.0594 49.6468 18.0115 49.5223 17.9892 49.3922C17.9669 49.262 17.9706 49.1287 18.0001 49ZM41.7101 32C41.6521 31.8818 41.618 31.7534 41.6097 31.622C41.6014 31.4907 41.6191 31.359 41.6619 31.2345C41.7046 31.11 41.7715 30.9951 41.8587 30.8965C41.9459 30.798 42.0518 30.7176 42.1701 30.66C43.1787 30.1664 44.1453 29.5912 45.0601 28.94C45.2753 28.7871 45.5421 28.7255 45.8025 28.7686C46.0629 28.8117 46.2957 28.956 46.4501 29.17C46.5273 29.2768 46.5827 29.3979 46.6129 29.5263C46.6432 29.6546 46.6478 29.7877 46.6264 29.9178C46.605 30.0479 46.5581 30.1726 46.4884 30.2845C46.4187 30.3964 46.3275 30.4934 46.2201 30.57C45.2156 31.2837 44.1556 31.9157 43.0501 32.46C42.913 32.5264 42.7625 32.5606 42.6101 32.56C42.4227 32.5603 42.2389 32.508 42.0798 32.409C41.9207 32.31 41.7926 32.1683 41.7101 32Z" fill="black"/>
</svg>
