<svg width="64" height="64" viewBox="0 0 64 64" fill="none" xmlns="http://www.w3.org/2000/svg">
<path d="M59.0001 26.0004C58.6198 25.6974 58.2151 25.4265 57.7901 25.1904C56.3501 23.0604 44.3801 6.78038 17.4401 8.89038C15.2994 8.91137 13.2529 9.77381 11.7428 11.2913C10.2328 12.8089 9.3805 14.8596 9.37009 17.0004C9.3684 18.869 10.0393 20.6757 11.2601 22.0904C11.1991 22.1468 11.1453 22.2106 11.1001 22.2804L2.10009 39.2804C2.02575 39.4073 1.99094 39.5536 2.00009 39.7004C1.99476 39.7436 1.99476 39.7872 2.00009 39.8304V44.8304C2.01366 45.5838 2.31024 46.3045 2.83088 46.8492C3.35152 47.3939 4.05808 47.7228 4.81009 47.7704C5.15422 47.8023 5.49145 47.8866 5.81009 48.0204C6.10933 48.1453 6.37611 48.3368 6.5901 48.5804C7.01762 49.0563 7.57317 49.3989 8.19031 49.5674C8.80746 49.7359 9.46007 49.723 10.0701 49.5304C10.6605 49.3564 11.2928 49.3917 11.8601 49.6304C12.3768 49.8626 12.8047 50.2554 13.0801 50.7504C13.439 51.4116 14.015 51.9288 14.7109 52.2148C15.4067 52.5008 16.1799 52.5381 16.9001 52.3204C18.0495 51.9225 19.2897 51.8669 20.4701 52.1604C21.4278 52.4243 22.2693 53.0017 22.8601 53.8004C23.1933 54.2551 23.6281 54.6256 24.1299 54.8826C24.6316 55.1395 25.1864 55.2757 25.7501 55.2804C26.2888 55.2816 26.82 55.1548 27.3001 54.9104L57.6601 39.5104C58.8473 38.8808 59.8604 37.9674 60.6092 36.8515C61.358 35.7356 61.8193 34.4519 61.9519 33.1146C62.0846 31.7773 61.8845 30.428 61.3695 29.1868C60.8545 27.9456 60.0405 26.8509 59.0001 26.0004ZM17.5201 10.8904H17.6001C39.0001 9.21038 50.4201 19.4904 54.4901 24.2004C53.7079 24.1286 52.9195 24.1724 52.1501 24.3304C50.3049 24.7246 48.6543 25.7484 47.4811 27.2262C46.308 28.704 45.6854 30.5439 45.7201 32.4304C41.7201 29.2804 33.0101 24.2904 17.5901 23.1804C15.9599 23.1403 14.407 22.4775 13.2503 21.3282C12.0935 20.1789 11.4207 18.6302 11.3701 17.0004C11.3807 15.3762 12.0333 13.8222 13.1855 12.6775C14.3377 11.5328 15.8959 10.8903 17.5201 10.8904ZM38.4601 30.3604C37.5618 31.4952 36.3381 32.3285 34.9531 32.7484C33.568 33.1683 32.0876 33.1549 30.7104 32.71C29.3331 32.265 28.1247 31.4098 27.2471 30.2589C26.3695 29.1079 25.8646 27.7163 25.8001 26.2704C30.1787 27.0826 34.4339 28.4573 38.4601 30.3604ZM12.7401 23.4904C14.1199 24.4841 15.7529 25.0666 17.4501 25.1704C19.7101 25.3404 21.8101 25.5904 23.7801 25.9104C23.779 27.8346 24.3873 29.7098 25.5177 31.2671C26.6481 32.8243 28.2425 33.9836 30.0724 34.5788C31.9023 35.1739 33.8737 35.1744 35.7039 34.58C37.534 33.9857 39.129 32.8271 40.2601 31.2704C42.3707 32.3993 44.3324 33.7866 46.1001 35.4004L26.4101 45.6404C26.0784 45.8023 25.6993 45.8388 25.3428 45.7433C24.9863 45.6477 24.6763 45.4265 24.4701 45.1204C23.6046 43.9754 22.3845 43.1491 21.0001 42.7704C19.4458 42.3728 17.8095 42.4354 16.2901 42.9504C16.0051 43.0261 15.7028 43.0019 15.4335 42.8818C15.1642 42.7617 14.9442 42.553 14.8101 42.2904C14.3199 41.4276 13.5665 40.7443 12.6601 40.3404C11.6712 39.9124 10.5635 39.8452 9.53009 40.1504C9.28178 40.2363 9.014 40.2489 8.75869 40.1869C8.50337 40.1248 8.27128 39.9907 8.0901 39.8004C7.67492 39.324 7.15451 38.9508 6.5701 38.7104C6.0375 38.4931 5.47385 38.3614 4.90009 38.3204L12.7401 23.4904ZM56.7401 37.7304L26.4101 53.1504C26.0802 53.3101 25.7036 53.3444 25.3503 53.2468C24.9971 53.1493 24.6913 52.9267 24.4901 52.6204C23.62 51.4671 22.393 50.6339 21.0001 50.2504C20.3482 50.0739 19.6754 49.9865 19.0001 49.9904C18.0689 49.9966 17.1444 50.1484 16.2601 50.4404C15.974 50.5115 15.6723 50.4841 15.4037 50.3625C15.1351 50.2409 14.9154 50.0323 14.7801 49.7704C14.2983 48.889 13.544 48.1873 12.6301 47.7704C11.6412 47.3424 10.5335 47.2752 9.50009 47.5804C9.25178 47.6663 8.984 47.679 8.72869 47.6169C8.47337 47.5548 8.24128 47.4207 8.0601 47.2304C7.64492 46.754 7.12451 46.3808 6.54009 46.1404C6.04659 45.9509 5.52751 45.8363 5.00009 45.8004C4.74332 45.8007 4.49626 45.7022 4.31009 45.5254C4.12393 45.3485 4.01293 45.1068 4.00009 44.8504V40.4004C4.61098 40.2495 5.25466 40.3058 5.83009 40.5604C6.12933 40.6852 6.39611 40.8768 6.6101 41.1204C7.03187 41.605 7.58483 41.9573 8.2023 42.1347C8.81977 42.3121 9.47539 42.3072 10.0901 42.1204C10.6805 41.9464 11.3128 41.9817 11.8801 42.2204C12.3968 42.4526 12.8247 42.8454 13.1001 43.3404C13.459 44.0016 14.035 44.5188 14.7309 44.8048C15.4267 45.0908 16.1999 45.1281 16.9201 44.9104C18.0695 44.5125 19.3097 44.4569 20.4901 44.7504C21.4391 45.0159 22.2751 45.5849 22.8701 46.3704C23.3614 47.0541 24.0808 47.5397 24.8987 47.7395C25.7165 47.9394 26.5788 47.8404 27.3301 47.4604L48.2101 36.5504L48.3401 36.4804L48.4401 36.3604L48.5201 36.2604C48.5846 36.1734 48.6321 36.075 48.6601 35.9704C48.6601 35.9704 48.6601 35.9704 48.6601 35.9104C48.6902 35.7889 48.6902 35.6619 48.6601 35.5404V35.4904C48.6303 35.3436 48.5651 35.2063 48.4701 35.0904V35.0004C48.0348 34.4563 47.7859 33.7867 47.7601 33.0904C47.575 31.5697 47.9632 30.0347 48.8489 28.7848C49.7345 27.5349 51.0541 26.6599 52.5501 26.3304C53.9031 26.0522 55.3102 26.2317 56.5501 26.8404C56.9486 27.0387 57.3242 27.2802 57.6701 27.5604C58.3859 28.1303 58.9662 28.852 59.3691 29.6734C59.772 30.4949 59.9876 31.3955 60.0001 32.3104C60.004 33.4255 59.7022 34.5203 59.1274 35.4759C58.5527 36.4315 57.727 37.2112 56.7401 37.7304ZM14.7401 37.7304C15.6622 37.7324 16.5641 37.4607 17.3318 36.9499C18.0994 36.4391 18.6983 35.712 19.0525 34.8606C19.4067 34.0093 19.5004 33.072 19.3218 32.1674C19.1431 31.2628 18.7001 30.4315 18.0487 29.7788C17.3974 29.1261 16.5671 28.6813 15.6629 28.5007C14.7587 28.3201 13.8212 28.4117 12.9691 28.7642C12.117 29.1166 11.3886 29.7138 10.8761 30.4804C10.3637 31.2469 10.0901 32.1483 10.0901 33.0704C10.0953 34.2959 10.5831 35.4701 11.4478 36.3385C12.3125 37.207 13.4846 37.6999 14.7101 37.7104L14.7401 37.7304ZM14.7401 30.4204C15.267 30.4184 15.7827 30.573 16.2217 30.8645C16.6606 31.156 17.0031 31.5714 17.2057 32.0578C17.4082 32.5443 17.4618 33.0799 17.3595 33.5969C17.2571 34.1138 17.0036 34.5887 16.631 34.9613C16.2584 35.3339 15.7835 35.5874 15.2666 35.6897C14.7496 35.7921 14.214 35.7385 13.7275 35.536C13.2411 35.3334 12.8257 34.9909 12.5342 34.552C12.2427 34.113 12.0881 33.5973 12.0901 33.0704C12.0874 32.3701 12.361 31.6969 12.8515 31.197C13.342 30.6972 14.0098 30.4109 14.7101 30.4004L14.7401 30.4204ZM24.1201 36.0004C24.1347 35.7352 24.254 35.4866 24.4519 35.3094C24.6497 35.1322 24.9099 35.0408 25.1751 35.0554C25.4403 35.07 25.6889 35.1893 25.8661 35.3872C26.0433 35.585 26.1347 35.8452 26.1201 36.1104C26.1094 36.4068 26.1702 36.7014 26.2972 36.9694C26.4242 37.2375 26.6139 37.471 26.8501 37.6504C27.0208 37.774 27.1481 37.9484 27.2139 38.1486C27.2796 38.3489 27.2803 38.5648 27.216 38.7656C27.1517 38.9663 27.0256 39.1416 26.8557 39.2663C26.6858 39.3911 26.4809 39.459 26.2701 39.4604C26.0617 39.459 25.8589 39.3926 25.6901 39.2704C25.1766 38.8994 24.7639 38.4059 24.4897 37.8348C24.2155 37.2637 24.0885 36.6331 24.1201 36.0004Z" fill="black"/>
</svg>
