<svg width="64" height="64" viewBox="0 0 64 64" fill="none" xmlns="http://www.w3.org/2000/svg">
<path d="M8.50991 22C7.79681 21.9989 7.10028 22.215 6.51304 22.6196C5.92581 23.0242 5.47573 23.598 5.22273 24.2647C4.96972 24.9314 4.92579 25.6594 5.09679 26.3517C5.26778 27.044 5.64559 27.6678 6.17991 28.14V31.96C6.19038 33.0402 6.54021 34.0897 7.17991 34.96V55.15C6.5496 55.649 6.09179 56.3333 5.87101 57.1063C5.65024 57.8793 5.67765 58.7021 5.94936 59.4587C6.22108 60.2153 6.7234 60.8675 7.38552 61.3235C8.04764 61.7794 8.83615 62.0161 9.63991 62H54.2599C55.0359 62.0002 55.7939 61.7658 56.4343 61.3276C57.0748 60.8895 57.5679 60.268 57.849 59.5447C58.1301 58.8214 58.1861 58.03 58.0096 57.2743C57.8331 56.5187 57.4323 55.834 56.8599 55.31V34.84C57.4406 33.9919 57.7508 32.9879 57.7499 31.96V28.19C58.1546 27.8657 58.4814 27.4549 58.7064 26.9876C58.9314 26.5204 59.0487 26.0086 59.0499 25.49C59.0394 24.5556 58.6587 23.6634 57.9913 23.0092C57.324 22.3549 56.4244 21.992 55.4899 22H47.2799V18.66C48.6301 18.4374 49.8502 17.7228 50.7049 16.6542C51.5597 15.5855 51.9886 14.2382 51.9091 12.8721C51.8296 11.5059 51.2473 10.2175 50.2744 9.25519C49.3015 8.29283 48.0068 7.72462 46.6399 7.66004H42.5399C42.0668 6.67126 41.4313 5.76876 40.6599 4.99004C38.7652 3.12445 36.2284 2.05463 33.5699 2.00004C32.9758 1.99715 32.3917 2.15326 31.8783 2.45219C31.3648 2.75111 30.9407 3.18196 30.6499 3.70004L28.5599 7.61004H17.0799C15.6069 7.61531 14.1958 8.20279 13.1542 9.24435C12.1127 10.2859 11.5252 11.6971 11.5199 13.17C11.5222 14.56 12.045 15.8986 12.9853 16.9222C13.9256 17.9458 15.2152 18.58 16.5999 18.7V22H8.50991ZM54.2599 60H9.63991C9.14661 60 8.67351 59.8041 8.32469 59.4553C7.97588 59.1064 7.77991 58.6333 7.77991 58.14C7.77991 57.6467 7.97588 57.1736 8.32469 56.8248C8.67351 56.476 9.14661 56.28 9.63991 56.28H54.2599C54.7532 56.28 55.2263 56.476 55.5751 56.8248C55.9239 57.1736 56.1199 57.6467 56.1199 58.14C56.1199 58.6333 55.9239 59.1064 55.5751 59.4553C55.2263 59.8041 54.7532 60 54.2599 60ZM19.5599 37C20.3658 36.9982 21.1599 36.8061 21.8775 36.4395C22.5952 36.0728 23.2161 35.542 23.6899 34.89C24.1628 35.5427 24.7836 36.0741 25.5015 36.4404C26.2194 36.8068 27.0139 36.9979 27.8199 36.9979C28.6259 36.9979 29.4204 36.8068 30.1383 36.4404C30.8562 36.0741 31.477 35.5427 31.9499 34.89C32.4228 35.5427 33.0436 36.0741 33.7615 36.4404C34.4794 36.8068 35.2739 36.9979 36.0799 36.9979C36.8859 36.9979 37.6804 36.8068 38.3983 36.4404C39.1162 36.0741 39.737 35.5427 40.2099 34.89C40.6817 35.5427 41.3016 36.074 42.0187 36.4405C42.7358 36.8069 43.5296 36.998 44.3349 36.998C45.1402 36.998 45.934 36.8069 46.6511 36.4405C47.3682 36.074 47.9881 35.5427 48.4599 34.89C49.162 35.8658 50.188 36.5604 51.3548 36.8498C52.5215 37.1392 53.7532 37.0046 54.8299 36.47V54.3C54.6327 54.257 54.4317 54.2336 54.2299 54.23H51.0299V43.35C51.03 42.2756 50.6074 41.2443 49.8533 40.479C49.0992 39.7137 48.0742 39.2758 46.9999 39.26H41.8999C40.816 39.2627 39.7772 39.6944 39.0108 40.4609C38.2443 41.2273 37.8126 42.2661 37.8099 43.35V54.28H9.63991C9.50342 54.2703 9.3664 54.2703 9.22991 54.28V36.54C10.3004 37.0287 11.5072 37.1314 12.6449 36.8306C13.7826 36.5297 14.7809 35.844 15.4699 34.89C15.9338 35.5463 16.5459 36.084 17.2565 36.4593C17.9672 36.8346 18.7563 37.037 19.5599 37.05V37ZM16.4399 31.88V29H22.6899V31.92C22.6447 32.7183 22.2958 33.469 21.7147 34.0181C21.1336 34.5672 20.3644 34.8732 19.5649 34.8732C18.7654 34.8732 17.9962 34.5672 17.4151 34.0181C16.834 33.469 16.4851 32.7183 16.4399 31.92V31.88ZM24.6899 31.88V29H30.9999V31.92C30.9999 32.7502 30.6701 33.5463 30.0832 34.1333C29.4962 34.7203 28.7 35.05 27.8699 35.05C27.0398 35.05 26.2437 34.7203 25.6567 34.1333C25.0697 33.5463 24.7399 32.7502 24.7399 31.92L24.6899 31.88ZM32.9499 31.88V29H39.2099V31.92C39.2099 32.7502 38.8801 33.5463 38.2932 34.1333C37.7062 34.7203 36.91 35.05 36.0799 35.05C35.2498 35.05 34.4537 34.7203 33.8667 34.1333C33.2797 33.5463 32.9499 32.7502 32.9499 31.92V31.88ZM41.2099 31.88V29H47.4599V31.92C47.4147 32.7183 47.0658 33.469 46.4847 34.0181C45.9036 34.5672 45.1344 34.8732 44.3349 34.8732C43.5354 34.8732 42.7662 34.5672 42.1851 34.0181C41.604 33.469 41.2551 32.7183 41.2099 31.92V31.88ZM49.4599 31.88V29H55.4599H55.6799V31.94C55.6347 32.7383 55.2858 33.489 54.7047 34.0381C54.1236 34.5872 53.3544 34.8932 52.5549 34.8932C51.7554 34.8932 50.9862 34.5872 50.4051 34.0381C49.824 33.489 49.4751 32.7383 49.4299 31.94L49.4599 31.88ZM49.0599 43.3V54.28H39.8099V43.35C39.8125 42.7965 40.0336 42.2665 40.425 41.8751C40.8163 41.4837 41.3464 41.2627 41.8999 41.26H46.9999C47.549 41.2679 48.0729 41.4916 48.4584 41.8827C48.8439 42.2738 49.06 42.8009 49.0599 43.35V43.3ZM14.4399 31.93C14.4399 32.7602 14.1101 33.5563 13.5232 34.1433C12.9362 34.7303 12.14 35.06 11.3099 35.06C10.4798 35.06 9.68366 34.7303 9.09667 34.1433C8.50968 33.5563 8.17991 32.7602 8.17991 31.93V29C8.28991 29 8.39991 29 8.50991 29H14.4399V31.93ZM43.5899 12C43.5728 11.1867 43.462 10.378 43.2599 9.59004H46.6399C47.1226 9.56443 47.6055 9.63739 48.0591 9.80448C48.5127 9.97157 48.9275 10.2293 49.2782 10.5619C49.629 10.8945 49.9083 11.2951 50.0992 11.7392C50.2901 12.1833 50.3885 12.6617 50.3885 13.145C50.3885 13.6284 50.2901 14.1068 50.0992 14.5509C49.9083 14.995 49.629 15.3955 49.2782 15.7282C48.9275 16.0608 48.5127 16.3185 48.0591 16.4856C47.6055 16.6527 47.1226 16.7257 46.6399 16.7H38.5599L41.8899 14.92C42.4175 14.6404 42.8563 14.2187 43.1567 13.7027C43.4571 13.1867 43.6072 12.5969 43.5899 12ZM45.2799 18.7V22H28.7799L34.7799 18.75L45.2799 18.7ZM32.4099 4.65004C32.5146 4.45435 32.6702 4.29061 32.8603 4.17618C33.0504 4.06174 33.268 4.00088 33.4899 4.00004C35.6294 4.01108 37.6806 4.85383 39.2099 6.35004C40.7106 7.87635 41.5542 9.92954 41.5599 12.07C41.5646 12.297 41.5063 12.5209 41.3916 12.7168C41.2769 12.9127 41.1101 13.073 40.9099 13.18L39.3099 14.04C38.9255 12.1176 37.9806 10.352 36.5943 8.96568C35.208 7.57939 33.4424 6.63448 31.5199 6.25004L32.4099 4.65004ZM30.0799 9.00004L30.5599 8.11004C32.3122 8.33335 33.9413 9.13036 35.1931 10.3767C36.4449 11.6231 37.249 13.2487 37.4799 15L26.1399 21.11C25.9099 21.2398 25.643 21.2887 25.3819 21.2488C25.1208 21.2089 24.8807 21.0826 24.6999 20.89C24.5089 20.7083 24.3836 20.4683 24.3438 20.2076C24.304 19.947 24.3519 19.6805 24.4799 19.45L30.0799 9.00004ZM13.5199 13.17C13.5278 12.2283 13.9053 11.3273 14.5713 10.6614C15.2372 9.99546 16.1382 9.61788 17.0799 9.61004H27.4899L23.6699 16.72H17.0799C16.1375 16.72 15.2335 16.3463 14.5661 15.6809C13.8988 15.0154 13.5226 14.1125 13.5199 13.17ZM22.9999 22H18.5999V18.72H22.5999C22.3563 19.2502 22.2647 19.8376 22.3353 20.4167C22.4059 20.9958 22.636 21.544 22.9999 22ZM55.4999 24C55.8557 24.0583 56.1792 24.2412 56.4126 24.516C56.646 24.7907 56.7741 25.1395 56.7741 25.5C56.7741 25.8606 56.646 26.2094 56.4126 26.4841C56.1792 26.7589 55.8557 26.9417 55.4999 27H8.49991C8.28241 27.0357 8.05976 27.0236 7.8474 26.9646C7.63504 26.9056 7.43804 26.8012 7.27007 26.6585C7.10209 26.5158 6.96716 26.3383 6.87462 26.1382C6.78208 25.9382 6.73415 25.7204 6.73415 25.5C6.73415 25.2796 6.78208 25.0619 6.87462 24.8618C6.96716 24.6618 7.10209 24.4843 7.27007 24.3416C7.43804 24.1989 7.63504 24.0945 7.8474 24.0355C8.05976 23.9765 8.28241 23.9644 8.49991 24H55.4999ZM11.9999 44V48.69C11.9999 49.4857 12.316 50.2487 12.8786 50.8114C13.4412 51.374 14.2043 51.69 14.9999 51.69H18.5999C19.3956 51.69 20.1586 51.374 20.7212 50.8114C21.2838 50.2487 21.5999 49.4857 21.5999 48.69V44C21.5999 43.2044 21.2838 42.4413 20.7212 41.8787C20.1586 41.3161 19.3956 41 18.5999 41H14.9999C14.2043 41 13.4412 41.3161 12.8786 41.8787C12.316 42.4413 11.9999 43.2044 11.9999 44ZM19.6099 44V48.69C19.6099 48.9553 19.5046 49.2096 19.317 49.3971C19.1295 49.5847 18.8751 49.69 18.6099 49.69H14.9999C14.7347 49.69 14.4803 49.5847 14.2928 49.3971C14.1053 49.2096 13.9999 48.9553 13.9999 48.69V44C13.9999 43.7348 14.1053 43.4805 14.2928 43.2929C14.4803 43.1054 14.7347 43 14.9999 43H18.5999C18.8616 43.0053 19.1109 43.1129 19.2941 43.2999C19.4774 43.4869 19.58 43.7383 19.5799 44H19.6099ZM27.1299 51.69H30.7699C31.5656 51.69 32.3286 51.374 32.8912 50.8114C33.4538 50.2487 33.7699 49.4857 33.7699 48.69V44C33.7699 43.2044 33.4538 42.4413 32.8912 41.8787C32.3286 41.3161 31.5656 41 30.7699 41H27.0999C26.3043 41 25.5412 41.3161 24.9786 41.8787C24.416 42.4413 24.0999 43.2044 24.0999 44V48.69C24.0959 49.0865 24.1706 49.4799 24.3196 49.8473C24.4686 50.2148 24.6889 50.549 24.9679 50.8308C25.2469 51.1125 25.5789 51.3362 25.9449 51.4888C26.3108 51.6415 26.7034 51.7201 27.0999 51.72L27.1299 51.69ZM26.1299 44.01C26.1299 43.7448 26.2353 43.4905 26.4228 43.3029C26.6103 43.1154 26.8647 43.01 27.1299 43.01H30.7699C31.0351 43.01 31.2895 43.1154 31.477 43.3029C31.6646 43.4905 31.7699 43.7448 31.7699 44.01V48.7C31.7699 48.9653 31.6646 49.2196 31.477 49.4071C31.2895 49.5947 31.0351 49.7 30.7699 49.7H27.0999C26.8347 49.7 26.5803 49.5947 26.3928 49.4071C26.2053 49.2196 26.0999 48.9653 26.0999 48.7L26.1299 44.01ZM31.1999 11.44C31.1808 11.2603 31.1994 11.0785 31.2545 10.9063C31.3096 10.7341 31.4 10.5753 31.5199 10.44C31.6608 10.2825 31.848 10.1737 32.0546 10.1291C32.2613 10.0846 32.4767 10.1067 32.6699 10.1922C32.8632 10.2778 33.0244 10.4224 33.1304 10.6052C33.2364 10.7881 33.2817 10.9998 33.2599 11.21C33.3164 11.366 33.3332 11.5336 33.3087 11.6977C33.2843 11.8618 33.2194 12.0173 33.1199 12.15C33.0257 12.2724 32.9045 12.3713 32.7657 12.4389C32.6269 12.5066 32.4743 12.5412 32.3199 12.54C32.1001 12.5422 31.8857 12.4719 31.7099 12.34C31.4294 12.1293 31.2427 11.8169 31.1899 11.47L31.1999 11.44ZM30.7399 16.3C30.6404 16.0559 30.6413 15.7824 30.7424 15.5389C30.8436 15.2955 31.0367 15.1018 31.2799 15C31.3228 14.9832 31.3607 14.9557 31.3899 14.92C31.4829 14.8263 31.5935 14.7519 31.7153 14.7011C31.8372 14.6504 31.9679 14.6242 32.0999 14.6242C32.2319 14.6242 32.3626 14.6504 32.4845 14.7011C32.6063 14.7519 32.717 14.8263 32.8099 14.92C32.9962 15.1074 33.1007 15.3609 33.1007 15.625C33.1007 15.8892 32.9962 16.1427 32.8099 16.33C32.5899 16.5523 32.3283 16.729 32.0399 16.85C31.9191 16.8994 31.7904 16.9266 31.6599 16.93C31.463 16.9327 31.2698 16.8772 31.1043 16.7704C30.9389 16.6637 30.8086 16.5105 30.7299 16.33L30.7399 16.3ZM27.2999 18.63C27.1439 18.4516 27.0401 18.2336 26.9999 18C26.9661 17.7816 27.0057 17.558 27.1125 17.3644C27.2192 17.1709 27.3871 17.0181 27.5899 16.93C27.8231 16.8319 28.0849 16.8258 28.3224 16.913C28.56 17.0003 28.7556 17.1743 28.8699 17.4C28.9117 17.4832 28.9452 17.5703 28.9699 17.66C29.0965 17.8797 29.1348 18.1393 29.0773 18.3862C29.0197 18.6331 28.8706 18.8489 28.6599 18.99C28.4944 19.1013 28.2994 19.1605 28.0999 19.16C27.934 19.1506 27.773 19.0999 27.6316 19.0126C27.4902 18.9253 27.3727 18.8041 27.2899 18.66L27.2999 18.63Z" fill="black"/>
</svg>
