<svg width="64" height="64" viewBox="0 0 64 64" fill="none" xmlns="http://www.w3.org/2000/svg">
<path d="M55.76 20.4398C55.7122 20.3688 55.6587 20.3019 55.6 20.2398L36.12 4.87977C35.7059 4.11784 35.0939 3.48174 34.3486 3.03851C33.6033 2.59527 32.7521 2.36133 31.885 2.36133C31.0178 2.36133 30.1667 2.59527 29.4213 3.03851C28.676 3.48174 28.064 4.11784 27.65 4.87977L8.16997 20.2398C8.09279 20.3104 8.02551 20.3911 7.96997 20.4798C6.28979 20.7818 4.7689 21.664 3.67244 22.9725C2.57597 24.2809 1.97347 25.9326 1.96997 27.6398V54.3498C1.97262 56.2824 2.74152 58.1351 4.10808 59.5017C5.47465 60.8682 7.32735 61.6371 9.25997 61.6398H54.71C56.6426 61.6371 58.4953 60.8682 59.8619 59.5017C61.2284 58.1351 61.9973 56.2824 62 54.3498V27.6398C61.9987 25.8901 61.3673 24.1994 60.2214 22.8772C59.0755 21.555 57.4917 20.6897 55.76 20.4398ZM31.88 4.35977C32.45 4.35977 33.0072 4.52894 33.481 4.84584C33.9549 5.16274 34.324 5.61313 34.5417 6.13996C34.7594 6.6668 34.8158 7.24638 34.7039 7.80532C34.5919 8.36425 34.3167 8.8774 33.9129 9.27978C33.5091 9.68215 32.995 9.95565 32.4357 10.0656C31.8764 10.1756 31.297 10.1172 30.7709 9.89766C30.2448 9.67815 29.7957 9.30745 29.4805 8.83253C29.1652 8.3576 28.998 7.7998 29 7.22977C29.0026 6.46768 29.3072 5.73771 29.847 5.19976C30.3868 4.66182 31.1179 4.35976 31.88 4.35977ZM27.08 7.86977C27.222 9.04425 27.7892 10.126 28.6746 10.9108C29.5599 11.6955 30.7019 12.1288 31.885 12.1288C33.068 12.1288 34.2101 11.6955 35.0954 10.9108C35.9807 10.126 36.548 9.04425 36.69 7.86977L52.5 20.3498H11.26L27.08 7.86977ZM60 54.3498C60 55.7528 59.4426 57.0983 58.4506 58.0904C57.4585 59.0824 56.113 59.6398 54.71 59.6398H9.28997C7.88698 59.6398 6.54144 59.0824 5.54938 58.0904C4.55731 57.0983 3.99997 55.7528 3.99997 54.3498V27.6398C3.99997 26.2368 4.55731 24.8912 5.54938 23.8992C6.54144 22.9071 7.88698 22.3498 9.28997 22.3498H54.71C56.113 22.3498 57.4585 22.9071 58.4506 23.8992C59.4426 24.8912 60 26.2368 60 27.6398V54.3498ZM57.29 28.3498C57.2628 27.4814 56.9373 26.6488 56.3682 25.9923C55.7991 25.3358 55.0213 24.8953 54.1655 24.745C53.3098 24.5948 52.4284 24.7439 51.6697 25.1673C50.911 25.5907 50.3214 26.2626 50 27.0698C49.6701 27.0109 49.3348 26.9874 49 26.9998H15C14.5141 27.0004 14.0315 27.0781 13.57 27.2298C13.3456 26.5718 12.9442 25.9885 12.4098 25.544C11.8755 25.0994 11.2289 24.8108 10.5411 24.7098C9.85335 24.6089 9.15109 24.6996 8.51152 24.9719C7.87196 25.2442 7.31986 25.6876 6.91594 26.2533C6.51201 26.819 6.27191 27.4851 6.22201 28.1785C6.17212 28.8718 6.31438 29.5655 6.63314 30.1832C6.9519 30.8009 7.43483 31.3188 8.02881 31.6798C8.6228 32.0409 9.30485 32.2312 9.99997 32.2298H10.3V50.7998H9.99997C9.28353 50.7966 8.58087 50.9966 7.97346 51.3765C7.36604 51.7564 6.87875 52.3007 6.56808 52.9463C6.25741 53.5919 6.1361 54.3123 6.21819 55.024C6.30029 55.7357 6.58244 56.4096 7.03193 56.9675C7.48141 57.5254 8.07983 57.9445 8.75779 58.1761C9.43575 58.4078 10.1655 58.4425 10.8624 58.2764C11.5593 58.1102 12.1948 57.7498 12.6953 57.2372C13.1957 56.7245 13.5406 56.0805 13.69 55.3798C14.1143 55.511 14.5558 55.5784 15 55.5798H49C49.2917 55.5779 49.5828 55.5512 49.87 55.4998C50.0377 56.1815 50.392 56.803 50.8932 57.2946C51.3943 57.7863 52.0224 58.1287 52.7072 58.2834C53.392 58.4382 54.1063 58.3992 54.7701 58.1708C55.434 57.9424 56.0211 57.5337 56.4657 56.9904C56.9103 56.4471 57.1949 55.7907 57.2874 55.0948C57.38 54.3989 57.2769 53.691 56.9898 53.0504C56.7027 52.4097 56.2428 51.8617 55.6617 51.4677C55.0807 51.0738 54.4014 50.8494 53.7 50.8198V32.1498C54.6666 32.0987 55.5771 31.6797 56.2447 30.9787C56.9122 30.2776 57.2862 29.3478 57.29 28.3798V28.3498ZM9.99997 56.3398C9.75433 56.3582 9.50753 56.3257 9.27502 56.2443C9.04252 56.1629 8.82931 56.0345 8.64874 55.8669C8.46817 55.6994 8.32412 55.4963 8.22562 55.2706C8.12712 55.0448 8.07627 54.8011 8.07627 54.5548C8.07627 54.3084 8.12712 54.0648 8.22562 53.839C8.32412 53.6132 8.46817 53.4102 8.64874 53.2426C8.82931 53.0751 9.04252 52.9466 9.27502 52.8652C9.50753 52.7839 9.75433 52.7514 9.99997 52.7698C10.3543 52.7681 10.7015 52.8688 11 53.0598C11.3183 53.2724 11.5595 53.5821 11.688 53.9427C11.8164 54.3034 11.8251 54.6958 11.7128 55.0618C11.6006 55.4278 11.3733 55.7478 11.0647 55.9745C10.7562 56.2011 10.3828 56.3222 9.99997 56.3198V56.3398ZM9.99997 30.1598C9.6451 30.1617 9.29765 30.0582 9.00175 29.8623C8.70586 29.6663 8.47489 29.3869 8.33817 29.0594C8.20145 28.7319 8.16516 28.3712 8.23391 28.023C8.30266 27.6749 8.47334 27.355 8.72428 27.1041C8.97521 26.8531 9.29508 26.6825 9.64323 26.6137C9.99139 26.545 10.3521 26.5812 10.6796 26.718C11.0071 26.8547 11.2865 27.0857 11.4825 27.3816C11.6784 27.6774 11.7819 28.0249 11.78 28.3798C11.7773 28.851 11.589 29.3023 11.2557 29.6355C10.9225 29.9688 10.4712 30.1571 9.99997 30.1598ZM51.65 50.8598C51.6592 50.9996 51.6592 51.1399 51.65 51.2798C50.8453 51.7365 50.2366 52.4733 49.94 53.3498C49.6227 53.4803 49.2831 53.5482 48.94 53.5498H15C14.4572 53.5518 13.9268 53.3878 13.48 53.0798C13.2582 52.5484 12.9159 52.0759 12.48 51.6998C12.3875 51.429 12.3369 51.1458 12.33 50.8598V31.6498C12.3202 31.5433 12.3202 31.4362 12.33 31.3298C12.971 30.8219 13.4305 30.1203 13.64 29.3298C14.0559 29.1008 14.5254 28.9869 15 28.9998H49C49.2796 29.005 49.5566 29.0557 49.82 29.1498C49.9249 29.6901 50.1478 30.2006 50.4728 30.6448C50.7978 31.0891 51.2168 31.4561 51.7 31.7198L51.65 50.8598ZM55.27 54.5498C55.2713 54.8735 55.1848 55.1916 55.0197 55.4701C54.8546 55.7486 54.617 55.9771 54.3323 56.1313C54.0476 56.2854 53.7264 56.3595 53.4029 56.3456C53.0794 56.3316 52.7658 56.2302 52.4954 56.0521C52.225 55.874 52.008 55.6259 51.8674 55.3342C51.7269 55.0426 51.6681 54.7182 51.6973 54.3958C51.7265 54.0733 51.8426 53.7648 52.0333 53.5031C52.2239 53.2415 52.482 53.0364 52.78 52.9098H52.83C53.0364 52.8254 53.257 52.7813 53.48 52.7798C53.715 52.7771 53.9483 52.8208 54.1665 52.9083C54.3847 52.9959 54.5835 53.1255 54.7516 53.2899C54.9197 53.4542 55.0537 53.6501 55.1461 53.8663C55.2385 54.0824 55.2874 54.3147 55.29 54.5498H55.27ZM53.5 30.1598C53.1455 30.1598 52.799 30.0545 52.5045 29.8574C52.2099 29.6603 51.9805 29.3801 51.8453 29.0524C51.7101 28.7248 51.6753 28.3644 51.7451 28.0169C51.815 27.6694 51.9865 27.3504 52.2378 27.1005C52.4892 26.8506 52.809 26.6809 53.1569 26.613C53.5048 26.545 53.865 26.5819 54.1919 26.7189C54.5188 26.8559 54.7977 27.0869 54.9932 27.3826C55.1887 27.6783 55.292 28.0253 55.29 28.3798C55.2873 28.8528 55.0976 29.3055 54.7622 29.639C54.4268 29.9726 53.973 30.1598 53.5 30.1598ZM37.8 31.2798C37.1902 31.0311 36.5234 30.9565 35.8737 31.0642C35.224 31.1719 34.6169 31.4577 34.12 31.8898L19.54 44.5798C18.993 45.0539 18.6036 45.6835 18.4236 46.3846C18.2436 47.0857 18.2816 47.825 18.5325 48.504C18.7835 49.183 19.2354 49.7693 19.8281 50.1848C20.4208 50.6004 21.1261 50.8253 21.85 50.8298C22.0098 50.8397 22.1701 50.8397 22.33 50.8298L41.5 48.3198C42.15 48.2374 42.7648 47.9772 43.2765 47.5679C43.7882 47.1585 44.1769 46.6159 44.4 45.9998C44.9336 44.6021 45.1861 43.1128 45.143 41.6173C45.1 40.1218 44.7622 38.6496 44.149 37.2849C43.5359 35.9202 42.6595 34.6899 41.57 33.6646C40.4805 32.6393 39.1993 31.839 37.8 31.3098V31.2798ZM36.87 46.8998L29.37 47.8998C29.4023 47.8638 29.4292 47.8234 29.45 47.7798C29.6448 47.3775 29.7473 46.9367 29.75 46.4898C29.75 46.2246 29.6446 45.9702 29.4571 45.7827C29.2695 45.5951 29.0152 45.4898 28.75 45.4898C28.4848 45.4898 28.2304 45.5951 28.0429 45.7827C27.8553 45.9702 27.75 46.2246 27.75 46.4898C27.7466 46.6417 27.7125 46.7913 27.65 46.9298C27.5599 47.1257 27.5356 47.3454 27.5807 47.5563C27.6258 47.7671 27.7377 47.9578 27.9 48.0998L22.08 48.8598C21.7459 48.9063 21.4058 48.8434 21.1106 48.6804C20.8153 48.5173 20.5809 48.263 20.4423 47.9555C20.3038 47.648 20.2686 47.3039 20.3421 46.9748C20.4156 46.6456 20.5938 46.3491 20.85 46.1298L23.74 43.6198C24.0016 43.7723 24.2721 43.9092 24.55 44.0298C24.6787 44.0884 24.8185 44.1191 24.96 44.1198C25.1912 44.1217 25.4159 44.0434 25.5959 43.8982C25.7758 43.7531 25.9 43.5501 25.9471 43.3238C25.9943 43.0974 25.9615 42.8617 25.8545 42.6568C25.7474 42.4519 25.5727 42.2904 25.36 42.1998L32.1 36.2998C33.9771 37.2662 35.471 38.8408 36.3374 40.7662C37.2038 42.6916 37.3916 44.8539 36.87 46.8998ZM42.52 45.2998C42.4208 45.5672 42.2497 45.802 42.0256 45.9784C41.8016 46.1549 41.5332 46.2661 41.25 46.2998L38.96 46.5998C39.3811 44.3434 39.1019 42.0121 38.1598 39.919C37.2178 37.8258 35.6581 36.0709 33.69 34.8898L35.43 33.3698C35.709 33.1307 36.0626 32.9963 36.43 32.9898C36.632 32.9866 36.8326 33.024 37.02 33.0998C38.1873 33.5327 39.257 34.1932 40.167 35.043C41.0769 35.8928 41.809 36.9148 42.3207 38.0499C42.8324 39.1849 43.1135 40.4103 43.1477 41.6548C43.1819 42.8994 42.9685 44.1383 42.52 45.2998ZM34.72 41.6298C34.6738 41.9442 34.5661 42.2464 34.4031 42.5192C34.2401 42.7921 34.025 43.0301 33.77 43.2198C33.3932 43.4961 32.9372 43.6434 32.47 43.6398C32.2916 43.6396 32.1138 43.6195 31.94 43.5798C31.6814 43.5201 31.4571 43.3601 31.3164 43.1351C31.1758 42.9101 31.1303 42.6384 31.19 42.3798C31.2496 42.1212 31.4096 41.8969 31.6346 41.7562C31.8597 41.6156 32.1314 41.5701 32.39 41.6298C32.4229 41.645 32.4587 41.6529 32.495 41.6529C32.5312 41.6529 32.5671 41.645 32.6 41.6298C32.6802 41.5573 32.7301 41.4574 32.74 41.3498C32.7818 41.0889 32.9252 40.8551 33.1388 40.6996C33.3524 40.5441 33.6188 40.4794 33.88 40.5198C34.1368 40.5594 34.368 40.6974 34.5248 40.9046C34.6816 41.1118 34.7516 41.3719 34.72 41.6298Z" fill="black"/>
</svg>
