<svg width="64" height="64" viewBox="0 0 64 64" fill="none" xmlns="http://www.w3.org/2000/svg">
<path d="M61.9999 41.1296C61.9999 41.1296 61.9999 41.0496 61.9999 41.0196L53.7099 15.1296C53.3391 13.9484 52.6008 12.9165 51.6024 12.1844C50.6041 11.4522 49.3979 11.0582 48.1599 11.0596H15.8399C14.6019 11.0582 13.3958 11.4522 12.3974 12.1844C11.3991 12.9165 10.6607 13.9484 10.2899 15.1296L2.04992 40.9996C2.04992 40.9996 2.04992 41.0696 2.04992 41.1096C2.04423 41.1728 2.04423 41.2364 2.04992 41.2996V47.9196C2.04992 49.2457 2.5767 50.5174 3.51439 51.4551C3.97868 51.9194 4.52987 52.2877 5.1365 52.539C5.74313 52.7902 6.39331 52.9196 7.04992 52.9196H56.9999C58.326 52.9196 59.5978 52.3928 60.5355 51.4551C61.4731 50.5174 61.9999 49.2457 61.9999 47.9196V41.3196C62.0056 41.2564 62.0056 41.1928 61.9999 41.1296ZM12.1899 15.7296C12.4362 14.9547 12.9226 14.2784 13.5788 13.7984C14.235 13.3183 15.0269 13.0596 15.8399 13.0596H48.1599C48.9729 13.0596 49.7649 13.3183 50.4211 13.7984C51.0773 14.2784 51.5637 14.9547 51.8099 15.7296L59.6299 40.3196H4.36992L12.1899 15.7296ZM37.1899 42.3196C36.9639 43.5255 36.3235 44.6145 35.3793 45.3982C34.4352 46.1818 33.2469 46.6107 32.0199 46.6107C30.793 46.6107 29.6046 46.1818 28.6605 45.3982C27.7164 44.6145 27.0759 43.5255 26.8499 42.3196H37.1899ZM59.9999 47.9396C59.9999 48.7352 59.6838 49.4983 59.1212 50.0609C58.5586 50.6235 57.7956 50.9396 56.9999 50.9396H6.99992C6.20427 50.9396 5.44121 50.6235 4.8786 50.0609C4.31599 49.4983 3.99992 48.7352 3.99992 47.9396V42.3196H24.8099C25.0525 44.0539 25.9139 45.6421 27.2352 46.7915C28.5565 47.9408 30.2487 48.5738 31.9999 48.5738C33.7512 48.5738 35.4434 47.9408 36.7647 46.7915C38.086 45.6421 38.9473 44.0539 39.1899 42.3196H59.9999V47.9396ZM41.3499 28.7796C41.8928 28.4921 42.3449 28.0592 42.6557 27.5294C42.9666 26.9996 43.1238 26.3937 43.1099 25.7796C43.1112 24.4033 42.8415 23.0403 42.316 21.7683C41.7906 20.4963 41.0197 19.3403 40.0475 18.3662C39.0752 17.3921 37.9207 16.619 36.6497 16.0911C35.3787 15.5633 34.0162 15.2909 32.6399 15.2896C32.0256 15.2745 31.4193 15.4313 30.8892 15.7423C30.3592 16.0532 29.9265 16.506 29.6399 17.0496L21.2899 32.5896C21.0209 33.0986 20.8871 33.6682 20.9015 34.2437C20.9159 34.8193 21.0779 35.3815 21.372 35.8764C21.6662 36.3714 22.0826 36.7824 22.5813 37.0702C23.08 37.3579 23.6442 37.5126 24.2199 37.5196C24.7754 37.5141 25.3211 37.3733 25.8099 37.1096L41.3499 28.7796ZM31.3799 17.9996C31.4939 17.7855 31.6639 17.6064 31.8717 17.4814C32.0795 17.3564 32.3174 17.2901 32.5599 17.2896C33.6803 17.2843 34.7906 17.501 35.8266 17.9273C36.8627 18.3536 37.8041 18.981 38.5963 19.7732C39.3885 20.5654 40.0159 21.5068 40.4422 22.5429C40.8685 23.5789 41.0852 24.6892 41.0799 25.8096C41.0853 26.051 41.0248 26.2893 40.905 26.4989C40.7852 26.7086 40.6106 26.8816 40.3999 26.9996L38.6599 27.9996C38.2654 25.9688 37.273 24.1022 35.8102 22.6393C34.3473 21.1765 32.4807 20.1841 30.4499 19.7896L31.3799 17.9996ZM23.2899 35.1096C23.0806 34.9119 22.944 34.6494 22.9023 34.3645C22.8606 34.0796 22.9161 33.789 23.0599 33.5396L24.6799 30.5396C24.9348 30.5816 25.1919 30.6083 25.4499 30.6196H25.5099C25.7751 30.6196 26.0295 30.5142 26.217 30.3267C26.4046 30.1391 26.5099 29.8848 26.5099 29.6196C26.5142 29.3842 26.4353 29.1549 26.2871 28.972C26.139 28.789 25.931 28.6643 25.6999 28.6196L29.4599 21.6196C31.3335 21.8489 33.0758 22.7012 34.4069 24.0396C35.738 25.3779 36.5808 27.1247 36.7999 28.9996L30.9399 32.1396C30.9685 31.7353 30.9105 31.3296 30.7699 30.9496C30.7329 30.8164 30.6686 30.6923 30.5812 30.5852C30.4938 30.4781 30.3851 30.3903 30.2621 30.3273C30.139 30.2643 30.0042 30.2275 29.8662 30.2193C29.7282 30.211 29.59 30.2315 29.4603 30.2793C29.3306 30.3272 29.2122 30.4014 29.1127 30.4973C29.0131 30.5932 28.9345 30.7088 28.8819 30.8366C28.8292 30.9644 28.8036 31.1018 28.8067 31.24C28.8098 31.3782 28.8416 31.5142 28.8999 31.6396C28.9556 31.7522 28.9895 31.8744 28.9999 31.9996C28.9862 32.1838 29.0238 32.3682 29.1085 32.5324C29.1933 32.6965 29.3218 32.834 29.4799 32.9296L24.9199 35.3696C24.6601 35.5217 24.3556 35.5789 24.0584 35.5315C23.7611 35.484 23.4895 35.3349 23.2899 35.1096ZM30.5099 26.9996C30.4728 26.737 30.5415 26.4705 30.7009 26.2586C30.8603 26.0467 31.0974 25.9067 31.3599 25.8696C31.3813 25.8675 31.4021 25.8611 31.421 25.8508C31.4399 25.8405 31.4566 25.8265 31.4699 25.8096C31.4845 25.7765 31.4921 25.7407 31.4921 25.7046C31.4921 25.6684 31.4845 25.6327 31.4699 25.5996C31.4142 25.3344 31.4662 25.0579 31.6143 24.831C31.7625 24.604 31.9947 24.4453 32.2599 24.3896C32.5251 24.3339 32.8016 24.3858 33.0285 24.534C33.2555 24.6821 33.4142 24.9144 33.4699 25.1796C33.5364 25.474 33.5432 25.7788 33.49 26.0759C33.4367 26.3731 33.3245 26.6565 33.1599 26.9096C32.9944 27.1669 32.7742 27.3846 32.5149 27.5471C32.2556 27.7096 31.9637 27.8129 31.6599 27.8496H31.4999C31.2605 27.8499 31.0289 27.7643 30.8472 27.6083C30.6655 27.4523 30.5458 27.2363 30.5099 26.9996Z" fill="black"/>
</svg>
