<svg width="64" height="64" viewBox="0 0 64 64" fill="none" xmlns="http://www.w3.org/2000/svg">
<path d="M5.43003 48.51C4.66074 49.318 4.23734 50.3944 4.25003 51.51C4.24209 52.474 4.5474 53.4145 5.12003 54.19C5.39324 54.5672 5.75055 54.8757 6.16365 55.0909C6.57675 55.3062 7.03429 55.4222 7.50003 55.43H11.61C11.9529 57.2788 12.9322 58.9492 14.378 60.1514C15.8237 61.3537 17.6447 62.0119 19.525 62.0119C21.4053 62.0119 23.2263 61.3537 24.6721 60.1514C26.1178 58.9492 27.0971 57.2788 27.44 55.43H36.44C36.7264 57.3228 37.682 59.0502 39.1334 60.2985C40.5848 61.5469 42.4357 62.2334 44.35 62.2334C46.2644 62.2334 48.1153 61.5469 49.5667 60.2985C51.0181 59.0502 51.9737 57.3228 52.26 55.43H56.48C58.28 55.43 59.74 53.67 59.74 51.52C59.7524 50.5584 59.4466 49.6197 58.87 48.85C58.5089 48.3627 58.0112 47.9938 57.44 47.79V29.43C57.4296 28.7838 57.292 28.1461 57.0351 27.5532C56.7781 26.9602 56.4069 26.4237 55.9426 25.9742C55.4783 25.5248 54.93 25.1712 54.329 24.9337C53.728 24.6962 53.0862 24.5794 52.44 24.59H48.63V20.59L53.19 19C53.8372 18.7728 54.4101 18.3734 54.8471 17.8448C55.2841 17.3161 55.5687 16.6783 55.67 16C55.926 14.4159 55.8653 12.7968 55.4916 11.2363C55.1179 9.67579 54.4386 8.20486 53.4929 6.90856C52.5471 5.61225 51.3538 4.51629 49.9819 3.68405C48.6099 2.85182 47.0866 2.29982 45.5 2.05997C44.8179 1.93719 44.1151 2.00689 43.4704 2.26124C42.8257 2.51559 42.2646 2.94454 41.85 3.49997L29.39 20.08C28.8994 20.7218 28.6336 21.5071 28.6336 22.315C28.6336 23.1228 28.8994 23.9082 29.39 24.55H26.11C25.4639 24.5394 24.822 24.6562 24.221 24.8937C23.6201 25.1312 23.0718 25.4848 22.6075 25.9342C22.1431 26.3837 21.7719 26.9202 21.515 27.5132C21.2581 28.1061 21.1205 28.7438 21.11 29.39V31H15.35C14.6472 31.0084 13.9564 31.1831 13.3342 31.5099C12.7119 31.8366 12.1759 32.3062 11.77 32.88L6.42003 40.52C5.95778 41.1574 5.6497 41.8933 5.52003 42.67C5.46772 42.7969 5.44055 42.9327 5.44003 43.07C5.44003 43.07 5.44003 43.16 5.44003 43.21C5.44003 43.26 5.44003 43.46 5.44003 43.59L5.43003 48.51ZM36.33 53.43H27.55C27.4738 52.0617 27.0393 50.7375 26.29 49.59H37.59C36.8483 50.741 36.4145 52.0632 36.33 53.43ZM50.4 54.25C50.3946 54.3099 50.3946 54.3701 50.4 54.43C50.3955 54.4665 50.3955 54.5034 50.4 54.54C50.3218 56.1033 49.6356 57.5742 48.4881 58.6388C47.3405 59.7033 45.8223 60.2772 44.2575 60.2381C42.6927 60.199 41.2051 59.5498 40.1122 58.4292C39.0193 57.3086 38.4075 55.8053 38.4075 54.24C38.4075 52.6747 39.0193 51.1713 40.1122 50.0507C41.2051 48.9301 42.6927 48.281 44.2575 48.2418C45.8223 48.2027 47.3405 48.7766 48.4881 49.8412C49.6356 50.9057 50.3218 52.3766 50.4 53.94C50.4054 54.0432 50.4054 54.1467 50.4 54.25ZM56.49 49.59C56.6527 49.6029 56.8103 49.6529 56.9507 49.7361C57.0911 49.8193 57.2106 49.9335 57.3 50.07C57.6043 50.4912 57.7624 51.0005 57.75 51.52C57.75 52.52 57.16 53.43 56.49 53.43H52.39C52.3056 52.0632 51.8718 50.741 51.13 49.59H56.49ZM37.26 24.59L46.63 21.28V24.59H37.26ZM43.43 26.59L45.66 33C45.0223 33.5336 44.2214 33.8335 43.39 33.85C42.4036 33.8348 41.4626 33.4326 40.77 32.73V26.59H43.43ZM38.75 26.59V32.78C38.4288 33.1229 38.042 33.3979 37.6126 33.5885C37.1832 33.7792 36.7198 33.8817 36.25 33.89C35.3822 33.8565 34.5583 33.4999 33.94 32.89L36.14 26.56L38.75 26.59ZM36.16 35.89H36.25C37.5454 35.8857 38.7955 35.4133 39.77 34.56C40.7712 35.4098 42.0418 35.8763 43.355 35.8763C44.6683 35.8763 45.9388 35.4098 46.94 34.56L47.25 34.81C47.9261 35.3218 48.7146 35.6647 49.55 35.81V40.9C49.5501 41.2254 49.4222 41.5378 49.1939 41.7698C48.9657 42.0018 48.6554 42.1347 48.33 42.14H30.76C30.4329 42.1373 30.1201 42.0055 29.8897 41.7733C29.6593 41.541 29.53 41.2271 29.53 40.9V35.87C30.4851 35.8247 31.4105 35.5242 32.21 35C32.3933 34.8756 32.5702 34.7421 32.74 34.6C33.6988 35.4087 34.906 35.864 36.16 35.89ZM48.46 33.22C48.1928 33.0275 47.9538 32.7986 47.75 32.54C47.6926 32.476 47.6251 32.4219 47.55 32.38L45.55 26.59H47.55C47.597 26.5873 47.6439 26.597 47.686 26.618C47.7281 26.6391 47.764 26.6708 47.79 26.71L52 32.45C52.063 32.5408 52.1062 32.6437 52.1268 32.7522C52.1475 32.8608 52.1452 32.9724 52.12 33.08C52.1011 33.1784 52.0597 33.2712 51.999 33.351C51.9383 33.4308 51.8599 33.4955 51.77 33.54C51.3718 33.7522 50.9309 33.8718 50.48 33.89C49.7474 33.921 49.0289 33.6827 48.46 33.22ZM43.46 4.69997C43.6225 4.48205 43.8338 4.30522 44.0769 4.18366C44.32 4.0621 44.5882 3.99919 44.86 3.99997H45.17C46.495 4.19989 47.7674 4.65995 48.9139 5.35365C50.0604 6.04736 51.0583 6.961 51.8502 8.04198C52.6421 9.12295 53.2124 10.3499 53.5281 11.6522C53.8439 12.9545 53.8989 14.3063 53.69 15.63C53.6489 15.95 53.5195 16.2523 53.3164 16.5031C53.1134 16.7538 52.8445 16.9432 52.54 17.05L50.11 17.91C50.0612 15.431 49.2456 13.028 47.7754 11.0314C46.3053 9.03478 44.2528 7.54259 41.9 6.75997L43.46 4.69997ZM31 21.28L33.49 18C33.8175 18.1106 34.1514 18.2007 34.49 18.27C34.5597 18.2798 34.6304 18.2798 34.7 18.27C34.9653 18.2978 35.2307 18.2192 35.4379 18.0513C35.6451 17.8835 35.7772 17.6402 35.805 17.375C35.8329 17.1098 35.7542 16.8443 35.5864 16.6371C35.4185 16.4299 35.1753 16.2978 34.91 16.27C34.8735 16.2745 34.8366 16.2745 34.8 16.27L40.65 8.48997C42.873 9.07908 44.8273 10.4113 46.1881 12.2651C47.5489 14.1189 48.2342 16.3827 48.13 18.68L40.27 21.45C40.3285 21.3609 40.3724 21.2629 40.4 21.16C40.4949 20.7049 40.4949 20.2351 40.4 19.78C40.347 19.5148 40.1908 19.2815 39.9657 19.1314C39.7407 18.9814 39.4653 18.9269 39.2 18.98C38.9348 19.033 38.7015 19.1892 38.5515 19.4143C38.4015 19.6393 38.347 19.9148 38.4 20.18C38.4401 20.351 38.4401 20.529 38.4 20.7C38.3474 20.9394 38.3845 21.1898 38.5043 21.4037C38.6241 21.6175 38.8183 21.7799 39.05 21.86L33 24C32.6448 24.1312 32.2566 24.1436 31.8938 24.0354C31.5309 23.9273 31.2129 23.7043 30.9875 23.4C30.7621 23.0957 30.6415 22.7266 30.6437 22.3479C30.646 21.9692 30.771 21.6015 31 21.3V21.28ZM31.7 26.71C31.7274 26.6721 31.7635 26.6414 31.8053 26.6205C31.8471 26.5997 31.8933 26.5892 31.94 26.59H33.94L31.83 32.66C31.6049 32.9076 31.3496 33.126 31.07 33.31C30.481 33.709 29.7811 33.9119 29.07 33.89C28.5942 33.8686 28.1278 33.7494 27.7 33.54C27.608 33.4906 27.5274 33.4223 27.4636 33.3396C27.3999 33.2569 27.3543 33.1616 27.33 33.06C27.3036 32.9519 27.3016 32.8393 27.3241 32.7303C27.3465 32.6214 27.393 32.5188 27.46 32.43L31.7 26.71ZM23.12 29.43C23.1436 28.6563 23.4723 27.9234 24.0344 27.3913C24.5965 26.8592 25.3463 26.5711 26.12 26.59H29.3L25.9 31.25C25.664 31.5726 25.5014 31.943 25.4236 32.3351C25.3459 32.7273 25.3549 33.1317 25.45 33.52C25.5378 33.9054 25.7097 34.2667 25.9534 34.5779C26.1972 34.8891 26.5068 35.1425 26.86 35.32C27.0771 35.4278 27.3009 35.5213 27.53 35.6V40.92C27.53 41.7775 27.87 42.6001 28.4755 43.2075C29.0809 43.8148 29.9025 44.1573 30.76 44.16H48.34C49.1959 44.1547 50.0148 43.811 50.6181 43.204C51.2214 42.5969 51.5601 41.7758 51.56 40.92V35.75C51.9555 35.6515 52.338 35.5071 52.7 35.32C53.0454 35.1412 53.3478 34.8894 53.5861 34.582C53.8244 34.2746 53.993 33.919 54.08 33.54C54.1716 33.1524 54.1778 32.7496 54.0984 32.3594C54.019 31.9692 53.8558 31.6009 53.62 31.28L50.2 26.59H52.45C53.2238 26.5711 53.9736 26.8592 54.5357 27.3913C55.0978 27.9234 55.4265 28.6563 55.45 29.43V47.59H49.29C47.8818 46.4863 46.1442 45.8865 44.355 45.8865C42.5658 45.8865 40.8283 46.4863 39.42 47.59H24.42C23.9976 47.2651 23.5456 46.9805 23.07 46.74L23.12 29.43ZM25.59 53.94C25.6019 55.141 25.2566 56.3185 24.598 57.3229C23.9394 58.3273 22.9972 59.1134 21.891 59.5813C20.7848 60.0492 19.5644 60.1778 18.385 59.9508C17.2055 59.7238 16.1202 59.1514 15.2666 58.3063C14.4131 57.4612 13.83 56.3816 13.5912 55.2045C13.3525 54.0273 13.469 52.8058 13.9258 51.695C14.3827 50.5842 15.1593 49.6342 16.1571 48.9656C17.1549 48.297 18.3289 47.94 19.53 47.94C21.1244 47.9451 22.6527 48.5773 23.7847 49.7C24.9168 50.8227 25.5617 52.3457 25.58 53.94H25.59ZM8.05003 41.69L13.39 34.08C13.6213 33.7677 13.9229 33.5144 14.2704 33.3407C14.6179 33.1669 15.0015 33.0776 15.39 33.08H16.88V41C16.8999 41.2574 16.8194 41.5126 16.6553 41.712C16.4913 41.9115 16.2565 42.0397 16 42.07H7.81003C7.88042 41.9375 7.96064 41.8105 8.05003 41.69ZM7.43003 44.07H16C16.7799 44.0286 17.5128 43.6847 18.0432 43.1114C18.5735 42.5381 18.8594 41.7807 18.84 41V33H21.11V46C20.5872 45.8903 20.0542 45.8367 19.52 45.84C17.733 45.8401 15.9974 46.4386 14.59 47.54H7.43003V44.07ZM7.50003 49.59H12.76C12.0119 50.7387 11.5743 52.0617 11.49 53.43H7.49003C7.33677 53.4185 7.18776 53.3742 7.05317 53.3C6.91857 53.2258 6.80154 53.1235 6.71003 53C6.40277 52.5759 6.24135 52.0636 6.25003 51.54C6.25003 50.38 6.91003 49.59 7.50003 49.59ZM41.14 15.12C41.14 14.8548 41.2454 14.6004 41.4329 14.4129C41.6205 14.2253 41.8748 14.12 42.14 14.12C42.1894 14.1222 42.2388 14.1145 42.2852 14.0973C42.3315 14.0801 42.374 14.0538 42.41 14.02C42.4908 13.9108 42.5266 13.7748 42.51 13.64C42.4954 13.3748 42.5868 13.1146 42.764 12.9168C42.9413 12.7189 43.1898 12.5996 43.455 12.585C43.7203 12.5704 43.9804 12.6618 44.1782 12.839C44.3761 13.0162 44.4954 13.2648 44.51 13.53C44.5322 13.8608 44.4888 14.1927 44.3824 14.5068C44.276 14.8208 44.1087 15.1107 43.89 15.36C43.67 15.6022 43.4012 15.7951 43.1013 15.9261C42.8015 16.0571 42.4773 16.1232 42.15 16.12H42.1C41.8418 16.1096 41.5976 15.9997 41.4186 15.8133C41.2397 15.6269 41.1398 15.3784 41.14 15.12Z" fill="black"/>
</svg>
