<svg width="64" height="64" viewBox="0 0 64 64" fill="none" xmlns="http://www.w3.org/2000/svg">
<path d="M58.9999 3.06981C58.6665 2.74527 58.2722 2.48985 57.8397 2.31823C57.4072 2.14662 56.9451 2.06219 56.4799 2.06981C56.016 2.07332 55.5575 2.16982 55.1315 2.35361C54.7055 2.53739 54.3207 2.80473 53.9999 3.13981L41.3899 16.7798C38.2499 14.7098 34.1899 13.0998 30.3899 13.2698C29.8207 13.2959 29.2624 13.4349 28.7474 13.6787C28.2323 13.9225 27.7709 14.2662 27.3899 14.6898C26.7997 15.3232 26.4119 16.1184 26.2762 16.9735C26.1405 17.8286 26.2631 18.7047 26.6282 19.4898C26.9933 20.2748 27.5844 20.933 28.3258 21.3802C29.0672 21.8273 29.9252 22.0431 30.7899 21.9998C32.3708 22.0303 33.9172 22.4677 35.2799 23.2698L31.1099 27.6798C28.1581 25.7126 24.7082 24.6246 21.1619 24.5424C17.6157 24.4603 14.1191 25.3873 11.0794 27.2157C8.03967 29.044 5.58199 31.6984 3.99261 34.8696C2.40323 38.0408 1.74757 41.5983 2.10199 45.1278C2.4564 48.6573 3.80632 52.0134 5.99449 54.8053C8.18266 57.5971 11.119 59.7098 14.4616 60.8973C17.8041 62.0848 21.4153 62.2981 24.8744 61.5125C28.3335 60.7269 31.4982 58.9746 33.9999 56.4598C37.0446 53.4264 38.9469 49.4335 39.3843 45.1579C39.8217 40.8823 38.7673 36.5869 36.3999 32.9998L40.7799 28.8498C41.5645 30.2245 41.9845 31.777 41.9999 33.3598V33.4898C41.9858 33.6896 41.9858 33.8901 41.9999 34.0898V34.3698C42.0393 34.5765 42.0928 34.7803 42.1599 34.9798C42.1786 35.0611 42.202 35.1412 42.2299 35.2198C42.3137 35.4275 42.4141 35.6281 42.5299 35.8198C42.5628 35.8853 42.5995 35.9487 42.6399 36.0098C42.8078 36.2693 43.0021 36.5106 43.2199 36.7298C44.0356 37.545 45.1416 38.003 46.2949 38.003C47.4481 38.003 48.5542 37.545 49.3699 36.7298C49.5745 36.5249 49.7587 36.3005 49.9199 36.0598C49.982 35.9596 50.0388 35.8561 50.0899 35.7498C50.1731 35.6083 50.2466 35.4613 50.3099 35.3098C50.3488 35.223 50.3789 35.1326 50.3999 35.0398V34.9098C50.3999 34.7798 50.4799 34.6498 50.5099 34.5198C50.5147 34.4232 50.5147 34.3264 50.5099 34.2298L49.5099 34.0498H50.5099C50.5099 33.9298 50.5099 33.8198 50.5099 33.6598C50.5041 29.7338 49.3158 25.9006 47.0999 22.6598L60.9199 10.0898C61.2587 9.76711 61.529 9.37939 61.7146 8.94984C61.9002 8.52029 61.9972 8.05772 61.9999 7.58981C62.0095 7.13031 61.9258 6.67363 61.7539 6.24737C61.5821 5.82112 61.3255 5.43414 60.9999 5.10981L58.9999 3.06981ZM32.6199 55.0698C30.391 57.3048 27.5757 58.864 24.4987 59.5677C21.4218 60.2714 18.2086 60.0908 15.2298 59.0468C12.2511 58.0028 9.6282 56.1379 7.6638 53.6672C5.69939 51.1966 4.47352 48.2209 4.12761 45.0835C3.7817 41.9462 4.32985 38.7749 5.70881 35.9356C7.08778 33.0964 9.24136 30.7049 11.9211 29.037C14.6008 27.3691 17.6975 26.4928 20.8539 26.5092C24.0103 26.5257 27.0977 27.4341 29.7599 29.1298L24.3599 34.8398C22.4196 34.0125 20.2524 33.8834 18.2276 34.4745C16.2028 35.0655 14.4454 36.3402 13.2548 38.0813C12.0642 39.8225 11.514 41.9226 11.6978 44.0239C11.8816 46.1252 12.7881 48.0978 14.2629 49.6058C15.7378 51.1138 17.6898 52.064 19.7865 52.2945C21.8831 52.525 23.9949 52.0216 25.7622 50.87C27.5294 49.7184 28.8428 47.9899 29.4787 45.9787C30.1147 43.9675 30.0338 41.7981 29.2499 39.8398L34.9799 34.4298C36.9694 37.6328 37.8143 41.4157 37.3766 45.1608C36.9389 48.9059 35.2444 52.3919 32.5699 55.0498L32.6199 55.0698ZM25.7799 38.1698C26.3138 38.704 26.7563 39.3222 27.0899 39.9998C27.9023 41.6016 28.0812 43.4507 27.5909 45.1786C27.1007 46.9064 25.9772 48.386 24.4446 49.3224C22.9119 50.2587 21.0827 50.5831 19.3216 50.2308C17.5604 49.8785 15.9967 48.8754 14.9422 47.4215C13.8878 45.9676 13.42 44.1697 13.6321 42.3862C13.8442 40.6028 14.7207 38.9647 16.0868 37.7987C17.4529 36.6327 19.2082 36.0244 21.0029 36.095C22.7975 36.1657 24.4997 36.9101 25.7699 38.1798L25.7799 38.1698ZM28.1999 37.9998C27.6292 37.173 26.9185 36.4522 26.0999 35.8698L36.9999 24.3098C37.51 24.6682 37.9884 25.0697 38.4299 25.5098C38.9026 25.9894 39.3341 26.5079 39.7199 27.0598L28.1999 37.9998ZM48.6799 33.5798V33.8298V33.9598V34.1598C48.6582 34.2414 48.6314 34.3215 48.5999 34.3998C48.5999 34.3998 48.5999 34.5698 48.5999 34.5798C48.5585 34.6692 48.5117 34.756 48.4599 34.8398L48.3799 34.9998C48.1844 35.2869 47.928 35.5272 47.629 35.7038C47.3299 35.8803 46.9956 35.9887 46.6499 36.0212C46.3041 36.0537 45.9554 36.0094 45.6287 35.8917C45.302 35.7739 45.0054 35.5854 44.7599 35.3398C44.6545 35.2306 44.5576 35.1136 44.4699 34.9898C44.4505 34.9445 44.427 34.901 44.3999 34.8598C44.3334 34.7447 44.2766 34.6243 44.2299 34.4998V34.3798C44.1357 34.2646 44.0583 34.1367 43.9999 33.9998V33.8198C43.9999 33.7198 43.9999 33.6198 43.9999 33.5298C44.0049 33.4833 44.0049 33.4363 43.9999 33.3898C44.1899 30.1998 41.9999 26.2098 39.8799 24.0598C39.1791 23.3825 38.4157 22.7731 37.5999 22.2398C37.5006 22.1493 37.3853 22.0781 37.2599 22.0298C35.3113 20.7341 33.0298 20.0291 30.6899 19.9998C30.2114 20.0373 29.733 19.9275 29.3188 19.685C28.9046 19.4425 28.5746 19.0791 28.3732 18.6435C28.1717 18.2079 28.1084 17.7211 28.1919 17.2484C28.2753 16.7758 28.5014 16.3401 28.8399 15.9998C29.0466 15.7701 29.2975 15.5845 29.5775 15.4539C29.8576 15.3233 30.1611 15.2505 30.4699 15.2398C34.5199 15.0298 39.7499 17.3098 43.1799 20.7398C46.6099 24.1698 48.8999 29.4898 48.6799 33.5398V33.5798ZM46.0899 20.9998C45.625 20.4092 45.1276 19.845 44.5999 19.3098C44.0891 18.8463 43.5551 18.409 42.9999 17.9998L51.5699 8.69981L55.3699 12.5098L46.0899 20.9998ZM59.5499 8.62981L56.8599 11.1098L52.9399 7.18981L55.4099 4.50981C55.5445 4.3658 55.707 4.25073 55.8875 4.17164C56.068 4.09255 56.2628 4.0511 56.4599 4.04981C56.8588 4.04916 57.2424 4.20331 57.5299 4.47981L59.5299 6.47981C59.68 6.62074 59.7992 6.79125 59.8801 6.98057C59.961 7.1699 60.0018 7.37393 59.9999 7.57981C59.9987 7.776 59.9583 7.96998 59.8811 8.15031C59.8038 8.33064 59.6912 8.49368 59.5499 8.62981Z" fill="black"/>
</svg>
