<svg width="64" height="64" viewBox="0 0 64 64" fill="none" xmlns="http://www.w3.org/2000/svg">
<path d="M58.76 3.18C58.3879 2.80566 57.9454 2.50868 57.458 2.30616C56.9705 2.10363 56.4478 1.99958 55.92 2H55.85C55.3134 2.01123 54.7845 2.13034 54.2949 2.35024C53.8053 2.57015 53.3649 2.88634 53 3.28L49.6 6.92V7L45.49 11.41L27 31.17L25.1 29.25C24.805 28.9581 24.4679 28.7121 24.1 28.52C23.9806 28.4226 23.8403 28.3542 23.69 28.32C23.0625 28.0341 22.3795 27.8906 21.69 27.9L17.32 28C16.1267 28.0328 14.9916 28.5233 14.15 29.37L4.93002 38.59C3.64271 39.8607 2.73098 41.462 2.29518 43.2175C1.85938 44.973 1.91642 46.8148 2.46002 48.54C3.42739 51.587 5.1111 54.3578 7.37002 56.62C9.62815 58.8374 12.3651 60.5069 15.37 61.5C16.3373 61.823 17.3502 61.9884 18.37 61.99C21.0136 61.9868 23.5484 60.9369 25.42 59.07L34.64 49.84C35.483 48.9968 35.9699 47.8619 36 46.67L36.11 42.32C36.1179 41.6296 35.971 40.9462 35.68 40.32C35.6482 40.1749 35.5793 40.0405 35.48 39.93C35.2814 39.5662 35.0359 39.2301 34.75 38.93L32.82 37L52.57 18.6L57 14.43L60.72 11C61.1168 10.6334 61.4352 10.1902 61.656 9.69717C61.8768 9.20414 61.9955 8.6715 62.0048 8.13136C62.0141 7.59123 61.914 7.0548 61.7104 6.55443C61.5067 6.05406 61.2039 5.60013 60.82 5.22L58.76 3.18ZM34 46.62C33.9787 47.3024 33.6959 47.9504 33.21 48.43L24 57.65C22.9814 58.6897 21.6946 59.427 20.2825 59.78C18.8704 60.133 17.3881 60.088 16 59.65C13.3034 58.748 10.8479 57.2432 8.82002 55.25C6.78181 53.2148 5.26547 50.7173 4.40002 47.97C3.97132 46.5922 3.93121 45.1227 4.28409 43.7236C4.63697 42.3244 5.36916 41.0497 6.40002 40.04L15.62 30.82C16.0822 30.3401 16.7055 30.0481 17.37 30L21.58 29.89L18.69 33.2C16.93 35.2 18.11 39.2 21.42 42.57C23.7 44.85 26.32 46.12 28.42 46.12C29.2963 46.1484 30.1529 45.8569 30.83 45.3L34.13 42.42L34 46.62ZM33.33 40.3C33.33 40.3 33.33 40.36 33.39 40.38L29.48 43.79C28.48 44.68 25.48 43.79 22.84 41.16C20.2 38.53 19.32 35.52 20.2 34.51L23.61 30.6L23.69 30.66L25.69 32.66L25.43 32.94C24.6768 33.6932 24.2537 34.7148 24.2537 35.78C24.2537 36.8452 24.6768 37.8668 25.43 38.62C26.1832 39.3732 27.2048 39.7964 28.27 39.7964C29.3352 39.7964 30.3568 39.3732 31.11 38.62L31.39 38.35L33.33 40.3ZM29.71 37.13C29.3321 37.5079 28.8195 37.7203 28.285 37.7203C27.7505 37.7203 27.238 37.5079 26.86 37.13C26.4821 36.7521 26.2698 36.2395 26.2698 35.705C26.2698 35.1705 26.4821 34.6579 26.86 34.28L46.17 13.54L50.46 17.83L29.71 37.13ZM51.92 16.46L47.53 12.07L50.32 9.07L54.92 13.66L51.92 16.46ZM59.35 9.55L56.35 12.31L51.65 7.61L54.42 4.61C54.6102 4.41313 54.8389 4.25741 55.0917 4.15248C55.3446 4.04756 55.6163 3.99566 55.89 4C56.1616 3.98626 56.433 4.03193 56.6852 4.13383C56.9373 4.23573 57.1642 4.3914 57.35 4.59L59.35 6.65C59.5467 6.83684 59.7033 7.06174 59.8103 7.31101C59.9173 7.56029 59.9725 7.82873 59.9725 8.1C59.9725 8.37128 59.9173 8.63972 59.8103 8.88899C59.7033 9.13826 59.5467 9.36316 59.35 9.55ZM12.42 40.85C12.5137 40.943 12.5881 41.0536 12.6389 41.1754C12.6897 41.2973 12.7158 41.428 12.7158 41.56C12.7158 41.692 12.6897 41.8227 12.6389 41.9446C12.5881 42.0664 12.5137 42.177 12.42 42.27C11.6618 43.0804 11.1398 44.0828 10.9106 45.1686C10.6815 46.2545 10.7539 47.3824 11.12 48.43C11.2101 48.6793 11.1975 48.9542 11.085 49.1942C10.9725 49.4342 10.7693 49.6197 10.52 49.71C10.411 49.7496 10.296 49.7699 10.18 49.77C9.9757 49.7707 9.77608 49.7087 9.60802 49.5925C9.43996 49.4763 9.31153 49.3114 9.24002 49.12C8.74498 47.7162 8.64736 46.2029 8.95793 44.7471C9.2685 43.2913 9.97519 41.9496 11 40.87C11.0917 40.7749 11.2012 40.699 11.3224 40.6465C11.4435 40.594 11.5738 40.566 11.7059 40.5642C11.8379 40.5623 11.9689 40.5866 12.0915 40.6357C12.2141 40.6847 12.3257 40.7576 12.42 40.85Z" fill="black"/>
</svg>
