<svg width="64" height="64" viewBox="0 0 64 64" fill="none" xmlns="http://www.w3.org/2000/svg">
<path d="M48.16 2H15.84C13.7615 2.00265 11.7689 2.82949 10.2992 4.29921C8.82949 5.76892 8.00265 7.76152 8 9.84V54.16C8.00265 56.2385 8.82949 58.2311 10.2992 59.7008C11.7689 61.1705 13.7615 61.9974 15.84 62H48.16C50.2385 61.9974 52.2311 61.1705 53.7008 59.7008C55.1705 58.2311 55.9974 56.2385 56 54.16V9.84C55.9974 7.76152 55.1705 5.76892 53.7008 4.29921C52.2311 2.82949 50.2385 2.00265 48.16 2ZM54 54.16C53.9974 55.7081 53.3812 57.1919 52.2866 58.2866C51.1919 59.3812 49.7081 59.9974 48.16 60H15.84C14.2919 59.9974 12.8081 59.3812 11.7134 58.2866C10.6188 57.1919 10.0026 55.7081 10 54.16V9.84C10.0026 8.29195 10.6188 6.80806 11.7134 5.71342C12.8081 4.61878 14.2919 4.00264 15.84 4H48.16C49.7081 4.00264 51.1919 4.61878 52.2866 5.71342C53.3812 6.80806 53.9974 8.29195 54 9.84V54.16ZM46.79 32.16H17.25C16.3987 32.16 15.5822 32.4982 14.9802 33.1002C14.3782 33.7022 14.04 34.5187 14.04 35.37C14.04 36.2213 14.3782 37.0378 14.9802 37.6398C15.5822 38.2418 16.3987 38.58 17.25 38.58H46.79C47.6413 38.58 48.4578 38.2418 49.0598 37.6398C49.6618 37.0378 50 36.2213 50 35.37C50 34.5187 49.6618 33.7022 49.0598 33.1002C48.4578 32.4982 47.6413 32.16 46.79 32.16ZM46.79 36.58H17.25C16.9291 36.58 16.6213 36.4525 16.3944 36.2256C16.1675 35.9987 16.04 35.6909 16.04 35.37C16.04 35.0491 16.1675 34.7413 16.3944 34.5144C16.6213 34.2875 16.9291 34.16 17.25 34.16H46.79C47.1109 34.16 47.4187 34.2875 47.6456 34.5144C47.8725 34.7413 48 35.0491 48 35.37C48 35.6909 47.8725 35.9987 47.6456 36.2256C47.4187 36.4525 47.1109 36.58 46.79 36.58ZM18.38 43C18.38 42.7348 18.4854 42.4804 18.6729 42.2929C18.8604 42.1054 19.1148 42 19.38 42H44.62C44.8852 42 45.1396 42.1054 45.3271 42.2929C45.5146 42.4804 45.62 42.7348 45.62 43C45.62 43.2652 45.5146 43.5196 45.3271 43.7071C45.1396 43.8946 44.8852 44 44.62 44H19.38C19.1148 44 18.8604 43.8946 18.6729 43.7071C18.4854 43.5196 18.38 43.2652 18.38 43ZM18.38 48.44C18.38 48.1748 18.4854 47.9204 18.6729 47.7329C18.8604 47.5454 19.1148 47.44 19.38 47.44H44.63C44.8952 47.44 45.1496 47.5454 45.3371 47.7329C45.5246 47.9204 45.63 48.1748 45.63 48.44C45.63 48.7052 45.5246 48.9596 45.3371 49.1471C45.1496 49.3346 44.8952 49.44 44.63 49.44H19.4C19.1348 49.44 18.8804 49.3346 18.6929 49.1471C18.5054 48.9596 18.4 48.7052 18.4 48.44H18.38ZM45.63 53.88C45.63 54.1452 45.5246 54.3996 45.3371 54.5871C45.1496 54.7746 44.8952 54.88 44.63 54.88H19.42C19.1548 54.88 18.9004 54.7746 18.7129 54.5871C18.5254 54.3996 18.42 54.1452 18.42 53.88C18.42 53.6148 18.5254 53.3604 18.7129 53.1729C18.9004 52.9854 19.1548 52.88 19.42 52.88H44.65C44.7813 52.88 44.9114 52.9059 45.0327 52.9561C45.154 53.0064 45.2642 53.08 45.3571 53.1729C45.45 53.2658 45.5236 53.376 45.5739 53.4973C45.6241 53.6186 45.65 53.7487 45.65 53.88H45.63ZM22.21 29.54C22.4825 29.5398 22.7541 29.5096 23.02 29.45L43.31 25.16C43.9908 25.0197 44.6187 24.6914 45.1224 24.2124C45.6261 23.7334 45.9856 23.1229 46.16 22.45C46.6071 20.9181 46.7477 19.3132 46.574 17.7269C46.4002 16.1406 45.9154 14.6042 45.1473 13.2054C44.3792 11.8067 43.3429 10.5731 42.0976 9.57523C40.8523 8.57736 39.4225 7.83479 37.89 7.39C37.2247 7.1869 36.516 7.17286 35.8431 7.34946C35.1703 7.52606 34.5598 7.88634 34.08 8.39L19.57 23.16C19.0536 23.6848 18.7031 24.3501 18.5622 25.0728C18.4214 25.7954 18.4964 26.5436 18.7779 27.224C19.0594 27.9043 19.535 28.4867 20.1453 28.8986C20.7557 29.3104 21.4737 29.5335 22.21 29.54ZM35.51 9.74C35.6732 9.57373 35.8677 9.44133 36.0822 9.35038C36.2967 9.25943 36.527 9.21172 36.76 9.21C36.9405 9.20989 37.1197 9.24032 37.29 9.3C38.5797 9.66767 39.7837 10.2875 40.8323 11.1237C41.8808 11.9599 42.753 12.9957 43.3985 14.1713C44.044 15.3469 44.4498 16.6389 44.5925 17.9724C44.7353 19.3059 44.612 20.6544 44.23 21.94C44.1474 22.2529 43.9792 22.5366 43.7443 22.7592C43.5093 22.9818 43.2169 23.1345 42.9 23.2L40.38 23.73C40.6615 21.2636 40.1711 18.7707 38.9765 16.5946C37.782 14.4186 35.9419 12.6666 33.71 11.58L35.51 9.74ZM21 24.56L23.91 21.56C24.2151 21.7119 24.529 21.8455 24.85 21.96C24.9558 21.9984 25.0674 22.0187 25.18 22.02C25.4203 22.027 25.6551 21.9471 25.8414 21.7951C26.0276 21.6431 26.1529 21.429 26.1942 21.1922C26.2355 20.9553 26.1901 20.7115 26.0662 20.5054C25.9424 20.2994 25.7485 20.1448 25.52 20.07H25.42L32.23 13.07C34.3512 13.9565 36.1124 15.531 37.23 17.54C38.3283 19.5574 38.7091 21.8879 38.31 24.15L30.17 25.87C30.2382 25.7934 30.2924 25.7054 30.33 25.61C30.4905 25.172 30.5586 24.7056 30.53 24.24C30.5114 23.9748 30.3883 23.7278 30.1876 23.5534C29.9869 23.379 29.7252 23.2914 29.46 23.31C29.1948 23.3286 28.9478 23.4517 28.7734 23.6524C28.599 23.8531 28.5114 24.1148 28.53 24.38C28.5385 24.5537 28.5113 24.7273 28.45 24.89C28.3632 25.1305 28.3718 25.3952 28.4741 25.6295C28.5764 25.8639 28.7646 26.0501 29 26.15L22.66 27.49C22.2879 27.5892 21.8934 27.5622 21.5383 27.4132C21.1832 27.2641 20.8876 27.0015 20.6978 26.6665C20.508 26.3314 20.4347 25.9428 20.4893 25.5616C20.544 25.1805 20.7236 24.8282 21 24.56ZM31.87 19.77C31.9095 19.5093 32.0505 19.2747 32.2621 19.1174C32.4737 18.9601 32.7389 18.8927 33 18.93C33.0474 18.9395 33.0963 18.9381 33.143 18.926C33.1898 18.9138 33.2332 18.8913 33.27 18.86C33.366 18.7639 33.4229 18.6356 33.43 18.5C33.4499 18.2348 33.5743 17.9883 33.7759 17.8149C33.9775 17.6414 34.2398 17.5551 34.505 17.575C34.7702 17.5949 35.0167 17.7193 35.1901 17.9209C35.3636 18.1225 35.4499 18.3848 35.43 18.65C35.4093 18.9801 35.3236 19.3029 35.1777 19.5998C35.0318 19.8967 34.8287 20.1619 34.58 20.38C34.1583 20.7374 33.6228 20.9324 33.07 20.93H32.71C32.5779 20.9106 32.4511 20.865 32.337 20.7958C32.2228 20.7266 32.1237 20.6352 32.0454 20.5271C31.9671 20.419 31.9113 20.2963 31.8811 20.1663C31.851 20.0363 31.8472 19.9015 31.87 19.77Z" fill="black"/>
</svg>
