<svg width="64" height="64" viewBox="0 0 64 64" fill="none" xmlns="http://www.w3.org/2000/svg">
<path d="M58.9201 18.4001C59.415 18.136 59.8489 17.7706 60.1935 17.3279C60.538 16.8851 60.7856 16.3748 60.9201 15.8301C61.0527 15.2782 61.0679 14.7045 60.9645 14.1463C60.8611 13.5882 60.6416 13.058 60.3201 12.5901C58.0553 9.30862 55.2406 6.44313 52.0001 4.12011C51.538 3.78974 51.012 3.55949 50.4558 3.44412C49.8996 3.32875 49.3255 3.33079 48.7701 3.45011C48.226 3.56924 47.7129 3.80066 47.2634 4.12956C46.814 4.45846 46.4382 4.87759 46.1601 5.36011L46.0701 5.51011C39.7477 2.15158 32.4328 1.16467 25.4464 2.72766C18.4601 4.29065 12.263 8.30049 7.97445 14.0329C3.68593 19.7653 1.58873 26.8423 2.06166 33.9858C2.53459 41.1292 5.54646 47.868 10.5533 52.985C15.5601 58.102 22.2317 61.2599 29.3631 61.8882C36.4945 62.5165 43.6156 60.5739 49.44 56.4112C55.2644 52.2485 59.4082 46.1401 61.1229 39.1895C62.8376 32.2388 62.0102 24.9041 58.7901 18.5101L58.9201 18.4001ZM47.8701 6.40011C48.0049 6.14993 48.1914 5.93134 48.4173 5.75891C48.6432 5.58647 48.9032 5.46416 49.1801 5.40011C49.3194 5.38055 49.4608 5.38055 49.6001 5.40011C50.0351 5.39505 50.4599 5.53197 50.8101 5.79011C53.8633 7.98038 56.5099 10.6879 58.6301 13.7901C58.7928 14.027 58.9043 14.2951 58.9577 14.5775C59.0111 14.8598 59.0051 15.1502 58.9401 15.4301C58.8722 15.7015 58.7481 15.9557 58.5759 16.1762C58.4036 16.3967 58.187 16.5786 57.9401 16.7101L55.3701 18.1101C53.2677 14.2836 50.2254 11.0555 46.5301 8.73011L47.8701 6.40011ZM50.4501 14.5701C51.6764 15.9223 52.7465 17.4083 53.6401 19.0001L34.6401 29.4101L44.3201 12.5401L45.5501 10.4101C47.3587 11.5603 49.0065 12.9458 50.4501 14.5301V14.5701ZM31.2901 32.7001C31.3827 32.7946 31.4931 32.8698 31.615 32.9213C31.7369 32.9728 31.8678 32.9996 32.0001 33.0001C32.1676 33.0009 32.3327 32.9597 32.4801 32.8801L51.7601 22.3201C54.0608 27.0139 54.615 32.3735 53.3234 37.4388C52.0318 42.504 48.9789 46.9439 44.7115 49.9629C40.4441 52.9819 35.2412 54.3828 30.0349 53.9145C24.8286 53.4463 19.9591 51.1395 16.2989 47.4075C12.6387 43.6756 10.4269 38.7622 10.0598 33.5478C9.69277 28.3334 11.1944 23.1586 14.2957 18.9507C17.397 14.7427 21.8953 11.7765 26.9846 10.5836C32.074 9.39056 37.4219 10.0487 42.0701 12.4401L31.1301 31.5001C31.0219 31.6901 30.979 31.9103 31.0079 32.1271C31.0368 32.3438 31.1359 32.5451 31.2901 32.7001ZM60.0001 32.0001C60.0039 38.1187 58.0035 44.0701 54.3048 48.9441C50.606 53.8181 45.4126 57.3464 39.5187 58.9894C33.6249 60.6324 27.3551 60.2996 21.6683 58.0419C15.9815 55.7842 11.1908 51.7259 8.02883 46.4877C4.86686 41.2495 3.50773 35.1198 4.15931 29.036C4.81089 22.9522 7.43731 17.2493 11.6369 12.7996C15.8364 8.34979 21.3779 5.39809 27.4139 4.39591C33.4498 3.39373 39.6479 4.39624 45.0601 7.25011L43.0601 10.7101C37.9917 8.07924 32.1514 7.34178 26.5881 8.63021C21.0248 9.91864 16.1033 13.1485 12.7075 17.7397C9.31175 22.3308 7.66429 27.9823 8.0611 33.679C8.4579 39.3757 10.873 44.7443 14.8724 48.8203C18.8719 52.8963 24.1937 55.4127 29.8819 55.9174C35.57 56.4221 41.2518 54.8821 45.9065 51.574C50.5611 48.2658 53.8837 43.4064 55.2774 37.8686C56.671 32.3307 56.0444 26.4774 53.5101 21.3601L57.0001 19.4501C58.9601 23.3441 59.9871 27.6407 60.0001 32.0001ZM20.7201 23.3801C21.3958 23.3801 22.0563 23.1793 22.6177 22.8033C23.1791 22.4272 23.6161 21.8929 23.8733 21.268C24.1305 20.6432 24.1962 19.956 24.0622 19.2937C23.9282 18.6315 23.6004 18.0239 23.1205 17.5482C22.6406 17.0726 22.0302 16.7502 21.3668 16.622C20.7033 16.4939 20.0168 16.5657 19.3942 16.8284C18.7717 17.0911 18.2412 17.5328 17.8701 18.0975C17.4991 18.6622 17.3041 19.3244 17.3101 20.0001C17.318 20.8993 17.6808 21.759 18.3194 22.392C18.958 23.025 19.8209 23.3801 20.7201 23.3801ZM20.7201 18.5601C20.9977 18.5602 21.2691 18.6422 21.5002 18.7958C21.7314 18.9495 21.9121 19.1679 22.0196 19.4238C22.1272 19.6797 22.1568 19.9617 22.1048 20.2343C22.0528 20.507 21.9214 20.7582 21.7272 20.9566C21.533 21.1549 21.2846 21.2915 21.0131 21.3493C20.7416 21.407 20.4591 21.3833 20.201 21.2812C19.9429 21.1791 19.7206 21.003 19.5622 20.7751C19.4037 20.5472 19.316 20.2776 19.3101 20.0001C19.3061 19.8124 19.3396 19.6259 19.4087 19.4513C19.4778 19.2768 19.581 19.1178 19.7123 18.9836C19.8436 18.8495 20.0004 18.743 20.1735 18.6702C20.3465 18.5975 20.5324 18.5601 20.7201 18.5601ZM43.1201 39.1101C43.9626 39.1101 44.7863 38.8603 45.4868 38.3922C46.1874 37.9241 46.7334 37.2588 47.0558 36.4803C47.3782 35.7019 47.4626 34.8454 47.2982 34.019C47.1339 33.1927 46.7281 32.4336 46.1324 31.8378C45.5366 31.2421 44.7775 30.8363 43.9512 30.672C43.1248 30.5076 42.2683 30.592 41.4899 30.9144C40.7114 31.2368 40.0461 31.7828 39.578 32.4834C39.1099 33.1839 38.8601 34.0076 38.8601 34.8501C38.8601 35.9799 39.3089 37.0635 40.1078 37.8624C40.9067 38.6613 41.9903 39.1101 43.1201 39.1101ZM43.1201 32.5901C43.5671 32.5901 44.004 32.7227 44.3757 32.971C44.7473 33.2193 45.037 33.5723 45.2081 33.9852C45.3791 34.3982 45.4239 34.8526 45.3367 35.291C45.2495 35.7294 45.0342 36.1321 44.7181 36.4482C44.4021 36.7642 43.9994 36.9795 43.561 37.0667C43.1226 37.1539 42.6682 37.1091 42.2552 36.9381C41.8423 36.767 41.4893 36.4774 41.241 36.1057C40.9926 35.734 40.8601 35.2971 40.8601 34.8501C40.8601 34.2507 41.0982 33.6759 41.522 33.2521C41.9459 32.8282 42.5207 32.5901 43.1201 32.5901ZM23.2201 41.1301C22.5457 41.1301 21.8864 41.3301 21.3256 41.7048C20.7648 42.0795 20.3278 42.6121 20.0697 43.2352C19.8116 43.8583 19.744 44.5439 19.8756 45.2054C20.0072 45.8668 20.332 46.4744 20.8089 46.9513C21.2857 47.4282 21.8934 47.753 22.5548 47.8846C23.2163 48.0162 23.9019 47.9486 24.525 47.6905C25.1481 47.4324 25.6807 46.9954 26.0554 46.4346C26.4301 45.8738 26.6301 45.2146 26.6301 44.5401C26.6301 43.6357 26.2708 42.7684 25.6313 42.1289C24.9918 41.4894 24.1245 41.1301 23.2201 41.1301ZM23.2201 45.9501C22.9412 45.9501 22.6686 45.8674 22.4367 45.7125C22.2049 45.5576 22.0241 45.3373 21.9174 45.0797C21.8107 44.8221 21.7828 44.5386 21.8372 44.265C21.8916 43.9915 22.0259 43.7403 22.2231 43.5431C22.4203 43.3459 22.6715 43.2116 22.945 43.1572C23.2185 43.1028 23.502 43.1307 23.7597 43.2374C24.0173 43.3442 24.2375 43.5249 24.3925 43.7568C24.5474 43.9886 24.6301 44.2612 24.6301 44.5401C24.6368 44.7294 24.6053 44.9182 24.5375 45.0951C24.4696 45.2719 24.3668 45.4333 24.2352 45.5696C24.1036 45.7059 23.9459 45.8142 23.7715 45.8882C23.5971 45.9622 23.4095 46.0002 23.2201 46.0001V45.9501ZM26.4401 29.3501C26.4401 28.5036 26.1891 27.6761 25.7188 26.9723C25.2485 26.2684 24.58 25.7199 23.798 25.3959C23.0159 25.072 22.1553 24.9872 21.3251 25.1524C20.4949 25.3175 19.7322 25.7251 19.1337 26.3237C18.5351 26.9223 18.1275 27.6849 17.9623 28.5151C17.7972 29.3454 17.8819 30.2059 18.2059 30.988C18.5298 31.7701 19.0784 32.4385 19.7822 32.9088C20.4861 33.3791 21.3136 33.6301 22.1601 33.6301C23.2952 33.6301 24.3838 33.1792 25.1865 32.3765C25.9892 31.5739 26.4401 30.4852 26.4401 29.3501ZM19.8801 29.3501C19.8801 28.8992 20.0138 28.4584 20.2643 28.0834C20.5149 27.7085 20.871 27.4162 21.2876 27.2437C21.7042 27.0711 22.1626 27.0259 22.6049 27.1139C23.0472 27.2019 23.4534 27.419 23.7723 27.7379C24.0912 28.0568 24.3083 28.463 24.3963 28.9053C24.4843 29.3476 24.4391 29.806 24.2665 30.2226C24.094 30.6392 23.8017 30.9953 23.4268 31.2459C23.0518 31.4964 22.611 31.6301 22.1601 31.6301C21.5554 31.6301 20.9755 31.3899 20.5479 30.9623C20.1203 30.5347 19.8801 29.9548 19.8801 29.3501ZM38.7101 49.7101C39.699 49.7101 40.6657 49.4169 41.4879 48.8675C42.3102 48.3181 42.951 47.5372 43.3295 46.6235C43.7079 45.7099 43.8069 44.7046 43.614 43.7347C43.4211 42.7648 42.9449 41.8738 42.2456 41.1746C41.5464 40.4753 40.6554 39.9991 39.6855 39.8062C38.7156 39.6133 37.7103 39.7123 36.7967 40.0907C35.883 40.4692 35.1021 41.11 34.5527 41.9323C34.0033 42.7545 33.7101 43.7212 33.7101 44.7101C33.7101 46.0362 34.2369 47.308 35.1746 48.2456C36.1122 49.1833 37.384 49.7101 38.7101 49.7101ZM38.7101 41.6401C39.3034 41.6401 39.8834 41.8161 40.3768 42.1457C40.8701 42.4753 41.2547 42.9439 41.4817 43.4921C41.7088 44.0402 41.7682 44.6434 41.6524 45.2254C41.5367 45.8073 41.251 46.3419 40.8314 46.7614C40.4119 47.181 39.8773 47.4667 39.2954 47.5825C38.7134 47.6982 38.1102 47.6388 37.562 47.4118C37.0139 47.1847 36.5453 46.8002 36.2157 46.3068C35.886 45.8135 35.7101 45.2335 35.7101 44.6401C35.7101 43.8445 36.0262 43.0814 36.5888 42.5188C37.1514 41.9562 37.9144 41.6401 38.7101 41.6401ZM17.3001 36.3101C17.2198 36.4837 17.0913 36.6306 16.93 36.7334C16.7687 36.8362 16.5814 36.8906 16.3901 36.8901C16.2411 36.8892 16.0942 36.8551 15.9601 36.7901C15.4 36.5242 14.92 36.115 14.5688 35.604C14.2176 35.093 14.0076 34.4983 13.9601 33.8801C13.9428 33.6149 14.0317 33.3537 14.207 33.154C14.3824 32.9542 14.6299 32.8323 14.8951 32.8151C15.1603 32.7979 15.4215 32.8867 15.6212 33.062C15.821 33.2374 15.9428 33.4849 15.9601 33.7501C15.9804 34.0158 16.0706 34.2714 16.2217 34.491C16.3727 34.7105 16.5792 34.8862 16.8201 35.0001C17.055 35.1129 17.2366 35.3129 17.3263 35.5576C17.4159 35.8023 17.4065 36.0723 17.3001 36.3101ZM31.6401 18.1101C31.4602 18.1106 31.2835 18.0626 31.1286 17.971C30.9738 17.8795 30.8464 17.7479 30.7601 17.5901C30.6906 17.4646 30.5931 17.3569 30.4752 17.2754C30.3572 17.1939 30.222 17.1407 30.0801 17.1201C29.8149 17.087 29.5737 16.9498 29.4096 16.7388C29.2455 16.5279 29.1719 16.2603 29.2051 15.9951C29.2382 15.7299 29.3754 15.4887 29.5864 15.3246C29.7973 15.1605 30.0649 15.087 30.3301 15.1201C30.7865 15.179 31.2226 15.3446 31.6031 15.6035C31.9836 15.8624 32.2977 16.2072 32.5201 16.6101C32.6449 16.8424 32.6729 17.1146 32.598 17.3674C32.523 17.6203 32.3513 17.8333 32.1201 17.9601C31.9774 18.0542 31.811 18.1062 31.6401 18.1101ZM33.2601 21.2401C33.3628 21.3226 33.4482 21.4246 33.5114 21.5403C33.5746 21.6559 33.6143 21.7829 33.6282 21.9139C33.6421 22.045 33.63 22.1775 33.5926 22.3038C33.5552 22.4301 33.4932 22.5478 33.4101 22.6501C33.4101 22.6501 33.4101 22.6501 33.4101 22.7001C33.4101 22.9653 33.3047 23.2197 33.1172 23.4072C32.9297 23.5948 32.6753 23.7001 32.4101 23.7001C32.1449 23.7001 31.8905 23.5948 31.703 23.4072C31.5154 23.2197 31.4101 22.9653 31.4101 22.7001C31.3822 22.1953 31.5466 21.6986 31.8701 21.3101C32.0473 21.1202 32.2915 21.0067 32.5509 20.9936C32.8103 20.9806 33.0647 21.069 33.2601 21.2401ZM47.5101 28.6601C47.5101 28.3949 47.6154 28.1405 47.803 27.953C47.9905 27.7655 48.2449 27.6601 48.5101 27.6601C49.1105 27.6937 49.6736 27.9622 50.0778 28.4075C50.4819 28.8528 50.6947 29.4393 50.6701 30.0401C50.6548 30.2948 50.5427 30.534 50.3568 30.7087C50.1709 30.8835 49.9252 30.9806 49.6701 30.9801H49.6001C49.3365 30.9621 49.0907 30.8406 48.9164 30.6419C48.7422 30.4433 48.6536 30.1838 48.6701 29.9201C48.6632 29.859 48.6348 29.8023 48.5901 29.7601C48.5515 29.7143 48.4987 29.6826 48.4401 29.6701C48.1854 29.6523 47.9473 29.5377 47.7744 29.3499C47.6015 29.1621 47.5069 28.9154 47.5101 28.6601ZM30.6401 47.0001C30.7717 47.0138 30.8993 47.0535 31.0155 47.1168C31.1317 47.1802 31.2342 47.266 31.3169 47.3692C31.3997 47.4725 31.4612 47.5911 31.4978 47.7183C31.5344 47.8455 31.5454 47.9787 31.5301 48.1101C31.4831 48.5194 31.5229 48.934 31.6469 49.3269C31.771 49.7198 31.9765 50.0821 32.2501 50.3901C32.4237 50.5904 32.5107 50.8514 32.4919 51.1158C32.4732 51.3802 32.3502 51.6263 32.1501 51.8001C31.9678 51.9609 31.7332 52.0498 31.4901 52.0501C31.3481 52.0499 31.2078 52.0195 31.0785 51.9609C30.9491 51.9023 30.8338 51.8168 30.7401 51.7101C30.2907 51.1885 29.9525 50.5807 29.7462 49.9239C29.5398 49.267 29.4697 48.575 29.5401 47.8901C29.5538 47.7594 29.5932 47.6327 29.6559 47.5172C29.7186 47.4018 29.8035 47.2998 29.9056 47.2171C30.0078 47.1345 30.1252 47.0728 30.2513 47.0355C30.3773 46.9983 30.5094 46.9863 30.6401 47.0001ZM29.5401 37.7101C29.379 37.8229 29.1867 37.8824 28.9901 37.8801C28.8246 37.882 28.6612 37.8428 28.5146 37.766C28.368 37.6892 28.2428 37.5772 28.1501 37.4401C28.0471 37.286 27.9112 37.1566 27.752 37.0615C27.5929 36.9664 27.4146 36.9078 27.2301 36.8901C26.9649 36.8702 26.7184 36.7458 26.5449 36.5442C26.3715 36.3426 26.2852 36.0803 26.3051 35.8151C26.325 35.5499 26.4494 35.3034 26.651 35.13C26.8526 34.9565 27.1149 34.8702 27.3801 34.8901C27.8677 34.9314 28.3399 35.0812 28.7621 35.3286C29.1843 35.5761 29.5458 35.9148 29.8201 36.3201C29.9648 36.5406 30.0166 36.8093 29.9642 37.0678C29.9117 37.3262 29.7593 37.5535 29.5401 37.7001V37.7101Z" fill="black"/>
</svg>
