<svg width="64" height="64" viewBox="0 0 64 64" fill="none" xmlns="http://www.w3.org/2000/svg">
<path d="M59.52 16.8898C59.208 16.6449 58.8732 16.4305 58.52 16.2498C57.28 14.2998 47.9 1.42984 26.05 3.12984C24.2807 3.15605 22.5923 3.87603 21.3486 5.13476C20.1048 6.39348 19.4051 8.09029 19.4 9.85984C19.3848 11.3669 19.8979 12.8316 20.85 13.9998V14.0498L4.14003 45.6198C2.5439 48.5499 1.80243 51.8691 2.00003 55.1998C2.19003 57.7598 2.90003 59.5098 4.11003 60.3798C4.6912 60.8014 5.39211 61.0257 6.11003 61.0198C6.49803 61.0167 6.88421 60.9663 7.26003 60.8698C11.35 59.8698 11.32 57.3298 11.26 55.8098C11.26 54.5598 11.32 54.5398 11.83 54.4398C13.0509 54.2308 14.1797 53.6562 15.0671 52.7921C15.9545 51.9279 16.5587 50.8148 16.8 49.5998L58.41 28.0598C59.3934 27.541 60.2329 26.7866 60.8535 25.864C61.4741 24.9415 61.8565 23.8795 61.9664 22.7731C62.0764 21.6667 61.9105 20.5503 61.4836 19.5236C61.0567 18.497 60.3821 17.5921 59.52 16.8898ZM26.12 5.12984H26.2C42.72 3.82984 51.82 11.4998 55.31 15.3798C54.8232 15.3769 54.3373 15.4238 53.86 15.5198C52.4015 15.8304 51.0882 16.6186 50.1282 17.7598C49.1682 18.9009 48.6164 20.3297 48.56 21.8198C45.18 19.2698 38.23 15.4598 26.2 14.5998C24.9411 14.5848 23.7368 14.0827 22.84 13.1989C21.9432 12.3152 21.4236 11.1185 21.39 9.85984C21.3927 8.60618 21.8919 7.40462 22.7783 6.51815C23.6648 5.63167 24.8664 5.13249 26.12 5.12984ZM42.6 20.6198C41.8909 21.4241 40.9622 22.0035 39.9281 22.2868C38.894 22.5702 37.7997 22.5451 36.7796 22.2146C35.7596 21.8842 34.8584 21.2628 34.1869 20.4269C33.5154 19.591 33.1029 18.5771 33 17.5098C36.3155 18.1488 39.5397 19.1933 42.6 20.6198ZM15.22 28.8998C15.7329 29.1226 16.1942 29.4489 16.5751 29.8582C16.956 30.2676 17.2482 30.7512 17.4335 31.2788C17.6187 31.8064 17.693 32.3665 17.6516 32.9241C17.6103 33.4818 17.4542 34.0248 17.1931 34.5193C16.9321 35.0138 16.5717 35.449 16.1346 35.7977C15.6975 36.1464 15.193 36.401 14.6529 36.5456C14.1128 36.6903 13.5486 36.7218 12.9958 36.6382C12.4429 36.5546 11.9132 36.3577 11.44 36.0598L15.22 28.8998ZM16.87 40.8998C16.8375 40.6376 16.7025 40.3989 16.4945 40.2358C16.2865 40.0728 16.0225 39.9988 15.76 40.0298C15.4978 40.0624 15.2591 40.1974 15.096 40.4054C14.933 40.6133 14.859 40.8774 14.89 41.1398C14.89 41.1398 14.95 41.7298 15.02 42.7198C15.08 43.7198 15.14 44.9998 15.14 46.6098C15.14 50.0198 13.96 51.9298 11.52 52.4498C9.32003 52.9198 9.35003 54.7298 9.36003 55.8098C9.36003 57.2398 9.36003 58.2698 6.85003 58.8998C6.60059 58.9899 6.33378 59.0214 6.07023 58.9919C5.80667 58.9625 5.55341 58.8728 5.33003 58.7298C4.64003 58.2298 4.18003 56.9098 4.04003 55.0198C3.85016 52.0701 4.49844 49.1268 5.91003 46.5298L10.51 37.7998C11.4525 38.3757 12.5356 38.6802 13.64 38.6798C15.025 38.6797 16.3681 38.2052 17.4458 37.3352C18.5235 36.4653 19.2707 35.2525 19.5629 33.8987C19.8552 32.5449 19.6749 31.1318 19.0521 29.8948C18.4293 28.6577 17.4016 27.6713 16.14 27.0998L22.36 15.3098C23.4611 16.0388 24.7326 16.4695 26.05 16.5598C27.8 16.6898 29.43 16.8798 30.96 17.1198C30.9893 18.6762 31.5021 20.1848 32.4273 21.4366C33.3526 22.6884 34.6443 23.6213 36.1236 24.1059C37.6028 24.5906 39.1962 24.603 40.6828 24.1414C42.1693 23.6798 43.4755 22.7671 44.42 21.5298C45.9551 22.3704 47.3937 23.3764 48.71 24.5298L33 32.7098C33.305 32.1518 33.7341 31.6713 34.2543 31.3054C34.7745 30.9396 35.3717 30.6982 36 30.5998C36.2653 30.5667 36.5064 30.4295 36.6705 30.2186C36.8346 30.0076 36.9082 29.7401 36.875 29.4748C36.8419 29.2096 36.7047 28.9684 36.4938 28.8043C36.2828 28.6403 36.0153 28.5667 35.75 28.5998C34.6443 28.7543 33.602 29.2088 32.7363 29.914C31.8707 30.6192 31.2149 31.5481 30.84 32.5998C30.5922 33.3964 30.4346 34.2182 30.37 35.0498C30.3913 36.1023 30.0799 37.1347 29.48 37.9998C28.75 38.7398 27.42 38.9098 25.48 38.4998L24.87 38.3698C23.2503 37.8434 21.5114 37.8052 19.87 38.2598C19.7472 38.3064 19.6348 38.3768 19.5392 38.4668C19.4436 38.5569 19.3667 38.6649 19.3128 38.7847C19.259 38.9045 19.2292 39.0337 19.2253 39.165C19.2214 39.2963 19.2434 39.4271 19.29 39.5498C19.3266 39.6375 19.3773 39.7186 19.44 39.7898L16.88 41.1198L16.87 40.8998ZM57.49 26.2898L17.13 47.1798C17.13 46.9998 17.13 46.8298 17.13 46.6398C17.13 45.3098 17.13 44.1698 17.05 43.2598L23.26 39.9998C23.65 40.0798 24.06 40.1598 24.47 40.2598L25.1 40.3998C25.826 40.5598 26.5667 40.6436 27.31 40.6498C27.9662 40.6884 28.6233 40.592 29.2407 40.3667C29.8582 40.1414 30.4229 39.7919 30.9 39.3398C31.8427 38.1914 32.3648 36.7555 32.38 35.2698L50.83 25.6998C50.83 25.6998 50.83 25.6998 50.89 25.6498L51 25.5898C51.0353 25.5578 51.0657 25.5208 51.09 25.4798C51.1319 25.4412 51.1689 25.3976 51.2 25.3498C51.2486 25.2758 51.2856 25.1949 51.31 25.1098V25.0198C51.3251 24.9137 51.3251 24.806 51.31 24.6998C51.31 24.6998 51.31 24.6398 51.31 24.6098C51.2798 24.4662 51.2146 24.3322 51.12 24.2198C50.7806 23.8111 50.5871 23.3009 50.57 22.7698C50.4279 21.5982 50.7271 20.4156 51.4092 19.4525C52.0914 18.4893 53.1076 17.8146 54.26 17.5598C55.307 17.3405 56.3971 17.4741 57.36 17.9398C57.6642 18.0887 57.9496 18.2734 58.21 18.4898C58.8166 18.9819 59.2919 19.6165 59.5934 20.337C59.895 21.0575 60.0134 21.8415 59.9381 22.6189C59.8628 23.3964 59.5962 24.1431 59.1621 24.7923C58.7279 25.4416 58.1397 25.9733 57.45 26.3398L57.49 26.2898ZM25.15 29.7498C26.0326 29.7498 26.8953 29.488 27.6289 28.9975C28.3626 28.507 28.9342 27.8098 29.2715 26.9943C29.6088 26.1788 29.6965 25.2815 29.5236 24.4161C29.3507 23.5506 28.9249 22.756 28.3002 22.1326C27.6754 21.5093 26.8798 21.0853 26.014 20.9143C25.1482 20.7434 24.2511 20.8331 23.4363 21.1722C22.6215 21.5113 21.9257 22.0845 21.4368 22.8193C20.9479 23.554 20.6881 24.4173 20.69 25.2998C20.6927 26.481 21.1637 27.6128 21.9999 28.4471C22.836 29.2813 23.9689 29.7498 25.15 29.7498ZM25.15 22.8398C25.6366 22.8398 26.1122 22.9841 26.5167 23.2544C26.9213 23.5247 27.2366 23.9089 27.4228 24.3584C27.609 24.8079 27.6577 25.3026 27.5628 25.7798C27.4678 26.257 27.2336 26.6953 26.8895 27.0393C26.5455 27.3834 26.1071 27.6177 25.63 27.7126C25.1528 27.8075 24.6581 27.7588 24.2086 27.5726C23.7591 27.3864 23.3749 27.0711 23.1046 26.6665C22.8343 26.262 22.69 25.7864 22.69 25.2998C22.69 24.6474 22.9492 24.0217 23.4105 23.5604C23.8719 23.099 24.4976 22.8398 25.15 22.8398Z" fill="black"/>
</svg>
