<svg width="64" height="64" viewBox="0 0 64 64" fill="none" xmlns="http://www.w3.org/2000/svg">
<path d="M39.2899 13.5499H36.8099L34.6699 4.12992C34.5545 3.52295 34.2282 2.97632 33.7488 2.58657C33.2694 2.19682 32.6677 1.98904 32.0499 1.99992C31.433 1.99381 30.8335 2.20482 30.3564 2.59602C29.8792 2.98722 29.5549 3.53372 29.4399 4.13992L27.4399 13.5499H24.7399C23.9761 13.5499 23.2436 13.8533 22.7035 14.3935C22.1634 14.9336 21.8599 15.6661 21.8599 16.4299V21.9399C21.0689 22.2856 20.3948 22.8529 19.9193 23.5734C19.4437 24.2939 19.1869 25.1367 19.1799 25.9999V56.1399C19.1825 57.6864 19.7953 59.1694 20.885 60.2666C21.9748 61.3639 23.4535 61.9867 24.9999 61.9999H38.9999C40.5533 61.9973 42.0423 61.379 43.1407 60.2806C44.239 59.1823 44.8573 57.6933 44.8599 56.1399V25.9999C44.8575 25.1383 44.606 24.2957 44.1359 23.5736C43.6658 22.8515 42.9969 22.2807 42.2099 21.9299V16.4299C42.21 16.0483 42.1342 15.6705 41.9869 15.3185C41.8397 14.9664 41.624 14.6471 41.3523 14.3792C41.0806 14.1112 40.7584 13.8999 40.4043 13.7576C40.0503 13.6152 39.6715 13.5446 39.2899 13.5499ZM31.3799 4.54992C31.4031 4.40042 31.4777 4.26368 31.5909 4.16329C31.7041 4.06289 31.8487 4.00511 31.9999 3.99992C32.1604 3.99494 32.3172 4.04772 32.442 4.14866C32.5668 4.2496 32.6513 4.39199 32.6799 4.54992L34.6799 13.5499H29.3799L31.3799 4.54992ZM23.8299 16.4299C23.8299 16.1965 23.9226 15.9727 24.0877 15.8077C24.2527 15.6426 24.4765 15.5499 24.7099 15.5499H39.2899C39.4055 15.5499 39.5199 15.5727 39.6267 15.6169C39.7335 15.6611 39.8305 15.7259 39.9122 15.8077C39.9939 15.8894 40.0587 15.9864 40.1029 16.0932C40.1472 16.1999 40.1699 16.3144 40.1699 16.4299V21.5499H37.7799V18.5999C37.7799 18.3347 37.6746 18.0803 37.487 17.8928C37.2995 17.7053 37.0451 17.5999 36.7799 17.5999C36.5147 17.5999 36.2604 17.7053 36.0728 17.8928C35.8853 18.0803 35.7799 18.3347 35.7799 18.5999V21.5499H32.9999V18.5999C32.9999 18.3347 32.8946 18.0803 32.707 17.8928C32.5195 17.7053 32.2651 17.5999 31.9999 17.5999C31.7347 17.5999 31.4804 17.7053 31.2928 17.8928C31.1053 18.0803 30.9999 18.3347 30.9999 18.5999V21.5499H28.2199V18.5999C28.2199 18.3347 28.1146 18.0803 27.927 17.8928C27.7395 17.7053 27.4851 17.5999 27.2199 17.5999C26.9547 17.5999 26.7004 17.7053 26.5128 17.8928C26.3253 18.0803 26.2199 18.3347 26.2199 18.5999V21.5499H23.8299V16.4299ZM42.8299 56.1399C42.8274 57.1577 42.424 58.1335 41.7071 58.8559C40.9902 59.5784 40.0176 59.9894 38.9999 59.9999H24.9999C23.977 59.9973 22.9967 59.5898 22.2734 58.8664C21.5501 58.1431 21.1426 57.1628 21.1399 56.1399V51.0499H23.4399C24.7938 51.0225 26.1141 51.472 27.1699 52.3199C28.4368 53.4598 30.0807 54.0904 31.7849 54.0904C33.4891 54.0904 35.133 53.4598 36.3999 52.3199C37.4557 51.472 38.7761 51.0225 40.1299 51.0499H42.7799L42.8299 56.1399ZM42.8299 49.0499H40.1699C38.351 49.0267 36.5815 49.6425 35.1699 50.7899C34.2543 51.6052 33.071 52.0557 31.8449 52.0557C30.6189 52.0557 29.4356 51.6052 28.5199 50.7899C27.1067 49.6455 25.3383 49.0301 23.5199 49.0499H21.2199V33.8199H23.7899C25.5516 33.8475 27.2698 33.2724 28.6599 32.1899C29.5584 31.4416 30.6907 31.0318 31.8599 31.0318C33.0292 31.0318 34.1615 31.4416 35.0599 32.1899C36.4547 33.271 38.1755 33.8457 39.9399 33.8199H42.8599L42.8299 49.0499ZM42.8299 26.0499V31.8599H39.8999C38.5903 31.8845 37.3108 31.4651 36.2699 30.6699C35.0166 29.6378 33.4435 29.0734 31.8199 29.0734C30.1963 29.0734 28.6232 29.6378 27.3699 30.6699C26.3321 31.4637 25.0563 31.8831 23.7499 31.8599H21.1799V25.9999C21.1838 25.4629 21.364 24.942 21.6929 24.5174C22.0217 24.0928 22.4809 23.788 22.9999 23.6499H40.9999C41.5189 23.788 41.9782 24.0928 42.307 24.5174C42.6359 24.942 42.8161 25.4629 42.8199 25.9999L42.8299 26.0499ZM35.1999 38.0499C35.4207 37.8633 35.6546 37.6928 35.8999 37.5399C36.1001 37.3943 36.2392 37.1796 36.2903 36.9374C36.3413 36.6951 36.3007 36.4426 36.1763 36.2286C36.0518 36.0145 35.8525 35.8543 35.6167 35.7788C35.3809 35.7033 35.1255 35.718 34.8999 35.8199C34.1492 36.2639 33.4907 36.8478 32.9599 37.5399C32.9599 36.7199 33.0199 35.8999 33.1099 35.0899C33.1244 34.9586 33.1128 34.8257 33.0759 34.6989C33.039 34.572 32.9775 34.4537 32.8948 34.3506C32.8122 34.2475 32.71 34.1617 32.5942 34.0981C32.4784 34.0345 32.3513 33.9944 32.2199 33.9799C32.0886 33.9655 31.9557 33.977 31.8289 34.0139C31.702 34.0509 31.5837 34.1124 31.4806 34.195C31.3775 34.2777 31.2917 34.3798 31.2281 34.4956C31.1645 34.6114 31.1244 34.7386 31.1099 34.8699C31.0299 35.6099 30.9799 36.3699 30.9599 37.1199C30.7215 36.8474 30.5198 36.5448 30.3599 36.2199C30.3108 36.092 30.2359 35.9756 30.1399 35.8778C30.0439 35.7801 29.9288 35.7031 29.8018 35.6517C29.6748 35.6002 29.5386 35.5755 29.4016 35.5789C29.2646 35.5823 29.1298 35.6138 29.0055 35.6715C28.8812 35.7292 28.7701 35.8118 28.6791 35.9142C28.588 36.0166 28.519 36.1366 28.4763 36.2668C28.4336 36.397 28.4181 36.5346 28.4307 36.671C28.4434 36.8074 28.484 36.9398 28.5499 37.0599C28.6707 37.3864 28.8213 37.7011 28.9999 37.9999C27.959 38.317 27.0522 38.9696 26.4209 39.8559C25.7896 40.7422 25.4693 41.8125 25.5099 42.8999C25.5099 44.6106 26.1895 46.2511 27.3991 47.4608C28.6087 48.6704 30.2493 49.3499 31.9599 49.3499C33.6706 49.3499 35.3112 48.6704 36.5208 47.4608C37.7304 46.2511 38.4099 44.6106 38.4099 42.8999C38.4575 41.8544 38.1711 40.8208 37.5922 39.9489C37.0133 39.0769 36.172 38.4119 35.1899 38.0499H35.1999ZM31.9999 47.3199C30.8205 47.3173 29.6902 46.8476 28.8562 46.0136C28.0223 45.1797 27.5526 44.0493 27.5499 42.8699C27.5499 39.9199 30.4699 39.5199 31.8699 39.4999H31.9999C33.3399 39.4999 36.4499 39.8299 36.4499 42.8699C36.4473 44.0493 35.9776 45.1797 35.1436 46.0136C34.3097 46.8476 33.1793 47.3173 31.9999 47.3199Z" fill="black"/>
</svg>
