<svg width="64" height="64" viewBox="0 0 64 64" fill="none" xmlns="http://www.w3.org/2000/svg">
<path d="M32 2C26.0666 2 20.2664 3.75947 15.3329 7.05591C10.3994 10.3524 6.55426 15.0377 4.28363 20.5195C2.013 26.0013 1.4189 32.0333 2.57646 37.8527C3.73401 43.6721 6.59123 49.0176 10.7868 53.2132C14.9824 57.4088 20.3279 60.266 26.1473 61.4236C31.9667 62.5811 37.9987 61.987 43.4805 59.7164C48.9623 57.4458 53.6477 53.6006 56.9441 48.6671C60.2405 43.7336 62 37.9334 62 32C62 24.0435 58.8393 16.4129 53.2132 10.7868C47.5871 5.16071 39.9565 2 32 2ZM32 60C26.4621 60 21.0486 58.3578 16.444 55.2812C11.8395 52.2045 8.25064 47.8315 6.13139 42.7151C4.01213 37.5988 3.45764 31.9689 4.53803 26.5375C5.61841 21.106 8.28515 16.1169 12.201 12.201C16.1169 8.28514 21.106 5.6184 26.5375 4.53801C31.969 3.45763 37.5988 4.01212 42.7152 6.13137C47.8315 8.25063 52.2045 11.8395 55.2812 16.444C58.3578 21.0486 60 26.4621 60 32C60 39.4261 57.05 46.548 51.799 51.799C46.548 57.05 39.4261 60 32 60ZM32 8C27.2533 8 22.6131 9.40758 18.6663 12.0447C14.7195 14.6819 11.6434 18.4302 9.8269 22.8156C8.0104 27.201 7.53512 32.0266 8.46117 36.6822C9.38721 41.3377 11.673 45.6141 15.0295 48.9706C18.3859 52.327 22.6623 54.6128 27.3178 55.5388C31.9734 56.4649 36.799 55.9896 41.1844 54.1731C45.5698 52.3566 49.3181 49.2805 51.9553 45.3337C54.5924 41.3869 56 36.7467 56 32C56 25.6348 53.4715 19.5303 48.9706 15.0294C44.4697 10.5286 38.3652 8 32 8ZM32 54C27.6488 54 23.3953 52.7097 19.7775 50.2923C16.1596 47.8749 13.3398 44.439 11.6747 40.419C10.0095 36.3991 9.57386 31.9756 10.4227 27.708C11.2716 23.4404 13.3669 19.5204 16.4437 16.4437C19.5204 13.3669 23.4404 11.2716 27.708 10.4227C31.9756 9.57385 36.3991 10.0095 40.4191 11.6747C44.439 13.3398 47.875 16.1596 50.2923 19.7775C52.7097 23.3953 54 27.6488 54 32C54 37.8348 51.6822 43.4305 47.5564 47.5564C43.4306 51.6822 37.8348 54 32 54ZM24.13 20C24.13 19.3236 23.9294 18.6624 23.5536 18.0999C23.1778 17.5375 22.6437 17.0992 22.0188 16.8403C21.3939 16.5815 20.7062 16.5138 20.0428 16.6457C19.3794 16.7777 18.77 17.1034 18.2917 17.5817C17.8134 18.06 17.4877 18.6694 17.3557 19.3328C17.2238 19.9962 17.2915 20.6839 17.5503 21.3088C17.8092 21.9337 18.2475 22.4678 18.81 22.8436C19.3724 23.2194 20.0336 23.42 20.71 23.42C21.6171 23.42 22.4869 23.0597 23.1283 22.4183C23.7697 21.7769 24.13 20.907 24.13 20ZM20.71 21.42C20.4292 21.42 20.1546 21.3367 19.9211 21.1807C19.6876 21.0247 19.5056 20.8029 19.3981 20.5434C19.2906 20.2839 19.2625 19.9984 19.3173 19.723C19.3721 19.4475 19.5073 19.1945 19.7059 18.9959C19.9045 18.7973 20.1575 18.6621 20.433 18.6073C20.7084 18.5525 20.994 18.5806 21.2534 18.6881C21.5129 18.7956 21.7347 18.9776 21.8907 19.2111C22.0467 19.4446 22.13 19.7192 22.13 20C22.1196 20.3696 21.9654 20.7206 21.7002 20.9783C21.435 21.236 21.0798 21.3801 20.71 21.38V21.42ZM42.19 33.53C42.19 32.8556 41.99 32.1963 41.6153 31.6355C41.2406 31.0747 40.7081 30.6377 40.085 30.3796C39.4619 30.1215 38.7762 30.0539 38.1148 30.1855C37.4533 30.3171 36.8457 30.6419 36.3688 31.1188C35.8919 31.5957 35.5671 32.2033 35.4355 32.8647C35.304 33.5262 35.3715 34.2119 35.6296 34.8349C35.8877 35.458 36.3247 35.9906 36.8855 36.3653C37.4463 36.74 38.1056 36.94 38.78 36.94C39.6844 36.94 40.5518 36.5807 41.1912 35.9412C41.8307 35.3017 42.19 34.4344 42.19 33.53ZM37.37 33.53C37.37 33.2511 37.4527 32.9785 37.6076 32.7466C37.7626 32.5148 37.9828 32.334 38.2404 32.2273C38.4981 32.1206 38.7816 32.0927 39.0551 32.1471C39.3286 32.2015 39.5798 32.3358 39.777 32.533C39.9742 32.7302 40.1085 32.9814 40.1629 33.2549C40.2173 33.5284 40.1894 33.8119 40.0827 34.0696C39.976 34.3272 39.7952 34.5474 39.5634 34.7024C39.3315 34.8573 39.0589 34.94 38.78 34.94C38.4061 34.94 38.0474 34.7914 37.783 34.527C37.5186 34.2626 37.37 33.904 37.37 33.53ZM24.56 41.14C23.8869 41.1459 23.2306 41.3509 22.6738 41.7292C22.117 42.1075 21.6846 42.6421 21.4311 43.2657C21.1776 43.8893 21.1143 44.574 21.2492 45.2335C21.3842 45.8929 21.7113 46.4977 22.1894 46.9716C22.6674 47.4455 23.2751 47.7673 23.9357 47.8965C24.5964 48.0257 25.2804 47.9564 25.9018 47.6975C26.5231 47.4385 27.054 47.0014 27.4273 46.4413C27.8007 45.8812 28 45.2232 28 44.55C28 44.0997 27.9108 43.6538 27.7376 43.2381C27.5644 42.8224 27.3105 42.4451 26.9907 42.1281C26.6708 41.8111 26.2914 41.5605 25.8742 41.3909C25.457 41.2213 25.0103 41.136 24.56 41.14ZM24.56 45.96C24.2825 45.9541 24.0129 45.8664 23.785 45.7079C23.5571 45.5494 23.3811 45.3272 23.2789 45.0691C23.1768 44.811 23.1531 44.5285 23.2109 44.257C23.2686 43.9855 23.4052 43.7371 23.6035 43.5429C23.8019 43.3487 24.0531 43.2173 24.3258 43.1653C24.5984 43.1133 24.8804 43.1429 25.1363 43.2504C25.3922 43.358 25.6107 43.5387 25.7643 43.7699C25.918 44.001 26 44.2724 26 44.55C26.0055 44.7411 25.972 44.9312 25.9017 45.109C25.8314 45.2867 25.7257 45.4483 25.5911 45.5839C25.4564 45.7195 25.2955 45.8263 25.1183 45.8979C24.941 45.9694 24.7511 46.0041 24.56 46V45.96ZM22.22 30.25C22.2141 31.0978 22.46 31.9282 22.9267 32.636C23.3934 33.3437 24.0597 33.897 24.8412 34.2255C25.6228 34.5541 26.4843 34.6431 27.3165 34.4814C28.1487 34.3196 28.9141 33.9144 29.5157 33.317C30.1172 32.7197 30.5279 31.9571 30.6954 31.1261C30.863 30.295 30.78 29.4329 30.457 28.6491C30.134 27.8653 29.5854 27.1951 28.8809 26.7234C28.1765 26.2518 27.3478 26 26.5 26C25.3701 26 24.286 26.4468 23.4842 27.243C22.6824 28.0391 22.2279 29.1201 22.22 30.25ZM26.5 28C26.951 28 27.3918 28.1337 27.7667 28.3842C28.1417 28.6348 28.4339 28.9909 28.6065 29.4075C28.779 29.8241 28.8242 30.2825 28.7362 30.7248C28.6482 31.1671 28.4311 31.5733 28.1122 31.8922C27.7934 32.2111 27.3871 32.4282 26.9448 32.5162C26.5025 32.6042 26.0441 32.559 25.6275 32.3864C25.2109 32.2139 24.8548 31.9216 24.6043 31.5467C24.3537 31.1718 24.22 30.7309 24.22 30.28C24.22 29.6753 24.4602 29.0954 24.8878 28.6678C25.3154 28.2402 25.8953 28 26.5 28ZM40.7 39.4C39.8544 39.404 39.0289 39.6583 38.3276 40.131C37.6264 40.6037 37.081 41.2735 36.7601 42.0559C36.4392 42.8383 36.3573 43.6983 36.5247 44.5272C36.6921 45.3561 37.1013 46.1168 37.7007 46.7134C38.3 47.31 39.0627 47.7156 39.8924 47.8792C40.722 48.0427 41.5816 47.9568 42.3625 47.6323C43.1434 47.3077 43.8107 46.7592 44.2801 46.0557C44.7495 45.3523 45 44.5257 45 43.68C45 43.1163 44.8887 42.5581 44.6723 42.0375C44.456 41.5169 44.1389 41.0442 43.7394 40.6465C43.3398 40.2488 42.8656 39.9339 42.344 39.72C41.8225 39.5061 41.2638 39.3974 40.7 39.4ZM40.7 45.96C40.2499 45.9561 39.8111 45.819 39.4388 45.5661C39.0665 45.3131 38.7774 44.9557 38.6079 44.5387C38.4384 44.1218 38.3961 43.664 38.4863 43.2231C38.5765 42.7821 38.7952 42.3777 39.1149 42.0609C39.4345 41.744 39.8408 41.5288 40.2825 41.4425C40.7242 41.3561 41.1816 41.4024 41.5971 41.5755C42.0125 41.7487 42.3675 42.0409 42.6171 42.4154C42.8668 42.7899 43 43.2299 43 43.68C43.004 43.9841 42.9474 44.2859 42.8335 44.5679C42.7195 44.8499 42.5506 45.1063 42.3365 45.3223C42.1224 45.5382 41.8674 45.7094 41.5864 45.8258C41.3055 45.9421 41.0041 46.0014 40.7 46V45.96ZM41 17.53C40.1539 17.532 39.3274 17.7847 38.6249 18.2562C37.9224 18.7277 37.3754 19.3968 37.0529 20.179C36.7305 20.9613 36.6472 21.8215 36.8135 22.6511C36.9797 23.4807 37.3882 24.2424 37.9871 24.8399C38.5861 25.4375 39.3487 25.8441 40.1787 26.0085C41.0087 26.1728 41.8687 26.0875 42.6502 25.7632C43.4317 25.439 44.0995 24.8904 44.5694 24.1868C45.0392 23.4832 45.29 22.6561 45.29 21.81C45.29 21.2471 45.179 20.6897 44.9633 20.1698C44.7476 19.6499 44.4314 19.1776 44.0329 18.78C43.6344 18.3825 43.1614 18.0674 42.641 17.8529C42.1205 17.6384 41.5629 17.5287 41 17.53ZM41 24.09C40.5495 24.088 40.1097 23.9526 39.736 23.7009C39.3624 23.4492 39.0718 23.0924 38.9007 22.6756C38.7297 22.2588 38.686 21.8007 38.7751 21.3591C38.8642 20.9175 39.0821 20.5122 39.4013 20.1943C39.7206 19.8764 40.1269 19.6603 40.5689 19.5731C41.0109 19.4859 41.4688 19.5317 41.8848 19.7045C42.3009 19.8774 42.6564 20.1696 42.9064 20.5443C43.1565 20.9191 43.29 21.3595 43.29 21.81C43.2874 22.4156 43.0449 22.9955 42.6158 23.4228C42.1866 23.8501 41.6056 24.09 41 24.09ZM17.29 36.32C17.2082 36.4917 17.0792 36.6365 16.918 36.7375C16.7568 36.8385 16.5702 36.8914 16.38 36.89C16.231 36.8891 16.0841 36.855 15.95 36.79C15.3893 36.5249 14.9088 36.116 14.5574 35.6048C14.2061 35.0936 13.9965 34.4985 13.95 33.88C13.9328 33.6148 14.0216 33.3536 14.1969 33.1539C14.3723 32.9541 14.6198 32.8322 14.885 32.815C15.1502 32.7978 15.4114 32.8866 15.6112 33.0619C15.8109 33.2373 15.9328 33.4848 15.95 33.75C15.9693 34.016 16.0591 34.272 16.2103 34.4918C16.3615 34.7115 16.5685 34.8869 16.81 35C17.0475 35.1128 17.2309 35.3145 17.3208 35.5615C17.4106 35.8086 17.3996 36.0811 17.29 36.32ZM31.64 18.1C31.4601 18.1005 31.2834 18.0524 31.1286 17.9609C30.9737 17.8694 30.8464 17.7378 30.76 17.58C30.6906 17.4554 30.593 17.3489 30.4748 17.269C30.3567 17.1891 30.2215 17.138 30.08 17.12C29.9487 17.1042 29.8218 17.0628 29.7065 16.998C29.5912 16.9331 29.4898 16.8463 29.4081 16.7423C29.3263 16.6383 29.2659 16.5192 29.2302 16.3918C29.1945 16.2645 29.1843 16.1313 29.2 16C29.2158 15.8687 29.2572 15.7417 29.3221 15.6265C29.3869 15.5112 29.4738 15.4098 29.5778 15.328C29.6818 15.2463 29.8008 15.1859 29.9282 15.1502C30.0556 15.1145 30.1887 15.1042 30.32 15.12C30.7764 15.1789 31.2125 15.3445 31.593 15.6034C31.9735 15.8623 32.2876 16.2071 32.51 16.61C32.5785 16.7262 32.6228 16.855 32.6403 16.9887C32.6577 17.1225 32.6479 17.2583 32.6115 17.3882C32.5751 17.518 32.5127 17.6392 32.4283 17.7443C32.3438 17.8495 32.239 17.9364 32.12 18C31.9699 18.07 31.8056 18.1043 31.64 18.1ZM35.5 28C35.2348 28 34.9804 27.8946 34.7929 27.7071C34.6054 27.5196 34.5 27.2652 34.5 27C34.4994 26.4986 34.6766 26.0132 35 25.63C35.0827 25.5276 35.1848 25.4424 35.3005 25.3795C35.4161 25.3165 35.543 25.2769 35.674 25.263C35.8049 25.2491 35.9373 25.261 36.0636 25.2983C36.1899 25.3355 36.3076 25.3973 36.41 25.48C36.5124 25.5627 36.5976 25.6648 36.6606 25.7805C36.7235 25.8961 36.7631 26.023 36.777 26.1539C36.791 26.2849 36.779 26.4173 36.7417 26.5436C36.7045 26.6698 36.6427 26.7876 36.56 26.89C36.5562 26.9064 36.5562 26.9236 36.56 26.94C36.56 27.2052 36.4547 27.4596 36.2671 27.6471C36.0796 27.8346 35.8252 27.94 35.56 27.94L35.5 28ZM47.35 29C47.9486 29.0336 48.5102 29.3007 48.9141 29.7438C49.3179 30.187 49.5319 30.7708 49.51 31.37C49.4947 31.6247 49.3826 31.8639 49.1967 32.0386C49.0108 32.2134 48.7652 32.3105 48.51 32.31H48.45C48.3186 32.3024 48.19 32.2688 48.0716 32.2114C47.9532 32.1539 47.8473 32.0737 47.7599 31.9752C47.6726 31.8767 47.6056 31.7619 47.5627 31.6375C47.5198 31.5131 47.5019 31.3814 47.51 31.25C47.505 31.1884 47.4763 31.131 47.43 31.09C47.3925 31.0429 47.3392 31.011 47.28 31C47.0148 31 46.7604 30.8946 46.5729 30.7071C46.3854 30.5196 46.28 30.2652 46.28 30C46.2797 29.8626 46.3077 29.7266 46.3622 29.6004C46.4168 29.4743 46.4968 29.3608 46.5972 29.2669C46.6976 29.1731 46.8163 29.101 46.9458 29.055C47.0753 29.0091 47.2129 28.9904 47.35 29ZM34.24 49.39C34.4148 49.589 34.5035 49.8493 34.4866 50.1136C34.4698 50.378 34.3487 50.6248 34.15 50.8C33.951 50.9748 33.6907 51.0635 33.4264 51.0466C33.162 51.0298 32.9152 50.9087 32.74 50.71C32.2845 50.1899 31.9418 49.5811 31.7335 48.9218C31.5253 48.2626 31.456 47.5674 31.53 46.88C31.5592 46.6148 31.6925 46.372 31.9007 46.2051C32.1089 46.0382 32.3748 45.9608 32.64 45.99C32.9052 46.0192 33.148 46.1525 33.3149 46.3607C33.4818 46.5688 33.5592 46.8348 33.53 47.1C33.4846 47.51 33.5241 47.925 33.6463 48.319C33.7685 48.713 33.9706 49.0776 34.24 49.39ZM30.7 38.56C30.7818 38.6706 30.8398 38.7968 30.8706 38.9308C30.9014 39.0648 30.9042 39.2037 30.8788 39.3388C30.8535 39.474 30.8006 39.6024 30.7233 39.7162C30.6461 39.83 30.5463 39.9266 30.43 40C30.2628 40.1076 30.0689 40.1665 29.87 40.17C29.7062 40.1702 29.5449 40.1303 29.4001 40.0535C29.2554 39.9768 29.1317 39.8657 29.04 39.73C28.935 39.5756 28.7972 39.4462 28.6364 39.3512C28.4757 39.2561 28.2959 39.1977 28.11 39.18C27.8463 39.1595 27.6015 39.0355 27.4291 38.835C27.2567 38.6344 27.1707 38.3738 27.19 38.11C27.2001 37.9785 27.2361 37.8503 27.2959 37.7328C27.3558 37.6153 27.4382 37.5108 27.5386 37.4253C27.639 37.3398 27.7553 37.275 27.8808 37.2346C28.0063 37.1942 28.1386 37.1791 28.27 37.19C28.7517 37.2222 29.22 37.3621 29.6405 37.5991C30.0611 37.8362 30.4231 38.1646 30.7 38.56Z" fill="black"/>
</svg>
