<svg width="16" height="16" viewBox="0 0 16 16" xmlns="http://www.w3.org/2000/svg">
  <title>
    arrows-up-down-icon
  </title>
  <path d="M12.998 12.753l1.295-1.48c.39-.396 1.023-.396 1.414 0 .39.396.39 1.037 0 1.432l-2.647 2.85c-.284.287-.66.445-1.06.445-.402 0-.78-.158-1.06-.444l-2.648-2.85c-.39-.396-.39-1.037 0-1.433.39-.396 1.023-.396 1.414 0l1.292 1.478V1c0-.552.448-1 1-1s1 .448 1 1v11.753zm-8-9.506l1.296 1.48c.39.396 1.023.396 1.414 0 .39-.396.39-1.037 0-1.432L5.06.445C4.778.157 4.403 0 4 0c-.4 0-.778.158-1.06.444L.293 3.294c-.39.396-.39 1.037 0 1.433.39.396 1.023.396 1.414 0L3 3.25V15c0 .552.447 1 1 1 .55 0 1-.448 1-1V3.246z" fill="#000" fill-rule="evenodd"/>
</svg>
