<svg width="16" height="16" viewBox="0 0 16 16" xmlns="http://www.w3.org/2000/svg">
  <title>
    arrows-left-right-icon
  </title>
  <path d="M3.247 12.998l1.48 1.295c.396.39.396 1.023 0 1.414-.396.39-1.037.39-1.432 0L.445 13.06C.157 12.776 0 12.4 0 12c0-.402.158-.78.444-1.06l2.85-2.648c.396-.39 1.037-.39 1.433 0 .396.39.396 1.023 0 1.414L3.25 10.998H15c.552 0 1 .448 1 1s-.448 1-1 1H3.246zm9.506-8l-1.48 1.296c-.396.39-.396 1.023 0 1.414.396.39 1.037.39 1.432 0l2.85-2.647C15.843 4.778 16 4.403 16 4c0-.4-.158-.778-.444-1.06L12.706.293c-.396-.39-1.037-.39-1.433 0-.396.39-.396 1.023 0 1.414L12.75 3H1C.45 3 0 3.446 0 4c0 .55.448 1 1 1h11.753z" fill="#000" fill-rule="evenodd"/>
</svg>
