<svg width="16" height="16" viewBox="0 0 16 16" xmlns="http://www.w3.org/2000/svg">
  <title>
    backward-filled-icon
  </title>
  <path d="M7.016 12.785c.225.13.48.2.738.2.216 0 .43-.053.617-.158.415-.24.664-.686.65-1.164V9.887l5 2.895c.224.13.478.2.737.2.216 0 .43-.053.617-.158.414-.24.663-.686.648-1.164V4.32c.014-.476-.234-.923-.648-1.162-.427-.226-.943-.21-1.355.046l-5 2.894V4.32c.013-.476-.235-.923-.65-1.162-.426-.226-.942-.21-1.354.046L.704 6.86C.274 7.073 0 7.513 0 7.994c0 .48.273.92.704 1.134l6.312 3.657z" fill="#000" fill-rule="evenodd"/>
</svg>
