<svg width="16" height="16" viewBox="0 0 16 16" xmlns="http://www.w3.org/2000/svg">
  <title>
    bubble-icon
  </title>
  <path d="M7.993 13.995c-2.724-.002-5.105-1.838-5.8-4.47-.696-2.635.468-5.407 2.835-6.754 2.367-1.346 5.345-.93 7.254 1.012 1.91 1.943 2.27 4.927.88 7.27-.14.238-.175.522-.1.787l.502 1.702-1.718-.49c-.265-.077-.55-.04-.787.1-.928.552-1.988.844-3.067.843zm6.73 1.96c.35.1.726.004.984-.254.257-.256.354-.632.255-.982-.1-.35-.867-3.026-.866-3.035 1.818-3.502.81-7.807-2.373-10.138C9.54-.785 5.13-.447 2.343 2.343c-2.79 2.79-3.13 7.2-.797 10.382 2.332 3.182 6.637 4.19 10.14 2.37l3.04.862h-.003z" fill="#000" fill-rule="evenodd"/>
</svg>
