<svg width="16" height="16" viewBox="0 0 16 16" xmlns="http://www.w3.org/2000/svg">
  <title>
    camera-icon
  </title>
  <path d="M13.993 15H2.007c-.532.002-1.042-.208-1.42-.583C.213 14.04 0 13.532 0 13V4c0-1.1.89-1.995 1.99-2h1.596L5.122.463C5.43.173 5.835.01 6.258 0h3.484c.423.01.828.174 1.136.463L12.414 2h1.595c1.1.005 1.99.9 1.99 2v9.01c-.006 1.103-.904 1.994-2.007 1.99zM14 4h-1.742c-.424-.004-.83-.17-1.136-.463L9.586 2H6.414L4.878 3.537c-.306.293-.712.46-1.136.463H2v9h12V4zM8 4c2.21 0 4 1.79 4 4s-1.79 4-4 4-4-1.79-4-4 1.79-4 4-4zm0 6c1.105 0 2-.895 2-2s-.895-2-2-2-2 .895-2 2 .895 2 2 2z" fill="#000" fill-rule="evenodd"/>
</svg>
