<svg width="16" height="16" viewBox="0 0 16 16" xmlns="http://www.w3.org/2000/svg">
  <title>
    cart-icon
  </title>
  <path d="M15.953 6.178l-1.62 8.046c-.215 1.018-1.102 1.754-2.14 1.776H3.807c-1.04-.022-1.927-.757-2.142-1.776L.046 6.178c-.124-.533.003-1.094.347-1.52.343-.426.864-.67 1.41-.658H4.01c0-2.21 1.79-4 3.995-4 2.206 0 3.995 1.79 3.995 4h2.197c.547-.01 1.068.232 1.412.658.343.426.47.987.346 1.52zM3.59 13.822c.036.095.12.163.22.178h8.382c.1-.016.183-.084.218-.178L12.78 12H3.225l.366 1.822zM8.004 2C6.9 2 6.006 2.895 6.006 4H10c0-1.105-.894-2-1.997-2zM2.018 6l.805 4h10.362l.81-4.006H2.01L2.02 6z" fill="#000" fill-rule="evenodd"/>
</svg>
