<svg width="16" height="16" viewBox="0 0 16 16" xmlns="http://www.w3.org/2000/svg">
  <title>
    close-circle-filled-icon
  </title>
  <path d="M8 16c-4.418 0-8-3.582-8-8s3.582-8 8-8 8 3.582 8 8-3.582 8-8 8zm2.829-4.172c-.267 0-.52-.105-.71-.293L8 9.415l-2.12 2.12c-.39.39-1.025.39-1.415 0-.39-.39-.39-1.023 0-1.414L6.584 8l-2.12-2.12c-.254-.254-.352-.622-.26-.967.093-.345.363-.615.708-.707.345-.093.713.006.966.26L8 6.585l2.12-2.12c.254-.254.622-.353.967-.26.345.092.615.362.708.707.092.345-.006.713-.26.966L9.416 8l2.12 2.12c.19.19.294.443.294.71 0 .264-.106.518-.294.706-.188.187-.442.292-.707.292h-.002z" fill="#000" fill-rule="evenodd"/>
</svg>
