<svg width="16" height="16" viewBox="0 0 16 16" xmlns="http://www.w3.org/2000/svg">
  <title>
    cloud-icon
  </title>
  <path d="M16.002 9.64c.02 1.136-.412 2.234-1.2 3.05-.79.82-1.873 1.29-3.01 1.31h-7c-2.43-.09-4.44-1.923-4.75-4.334-.312-2.412 1.164-4.695 3.49-5.4C4.445 2.294 6.41 1.022 8.583 1c2.88.054 5.273 2.237 5.59 5.1 1.144.816 1.826 2.133 1.83 3.54zm-3.23-2.1l-.5-.27-.03-.567c-.033-2.014-1.646-3.645-3.66-3.7-1.538.026-2.896 1.01-3.4 2.463l-.21.55-.58.09c-1.47.29-2.497 1.63-2.396 3.125.102 1.497 1.3 2.685 2.796 2.775h7c1.262-.043 2.25-1.1 2.21-2.36.012-.877-.46-1.688-1.23-2.108v.002z" fill="#000" fill-rule="evenodd"/>
</svg>
