<svg width="16" height="16" viewBox="0 0 16 16" xmlns="http://www.w3.org/2000/svg">
  <title>
    document-plus-icon
  </title>
  <path d="M15 13h-2v2c0 .552-.448 1-1 1s-1-.448-1-1v-2H9c-.552 0-1-.448-1-1s.448-1 1-1h2V9c0-.552.448-1 1-1s1 .448 1 1v2h2c.552 0 1 .448 1 1s-.448 1-1 1zm-3-6c-.552 0-1-.448-1-1H9c-1.105 0-2-.895-2-2V2c-1.92 0-5 0-5 .006V14h7c.552 0 1 .448 1 1s-.448 1-1 1H2c-.532 0-1.04-.212-1.417-.588-.375-.377-.585-.887-.583-1.42V2.008C0 .9.894.003 2 0h6.5c.583.018 1.14.248 1.563.65l2.288 2.287c.4.424.63.98.65 1.563V6c0 .552-.448 1-1 1zM9 2.414V4h1.587L9 2.414z" fill="#000" fill-rule="evenodd"/>
</svg>
