<svg width="16" height="16" viewBox="0 0 16 16" xmlns="http://www.w3.org/2000/svg">
  <title>
    download-icon
  </title>
  <path d="M2 14.005C2 14.003 14 14 14 14c-.004 0 0-5 0-5 0-.552.448-1 1-1s1 .448 1 1v5.005C16 15.1 15.1 16 14 16H2c-1.106 0-2-.89-2-1.995V9c0-.552.448-1 1-1s1 .448 1 1v5.005zm5-7.258l-2.294-2.48c-.39-.395-1.023-.395-1.414 0-.39.396-.39 1.037 0 1.432L6.94 9.547c.283.286.658.444 1.06.444.4 0 .778-.158 1.06-.444l3.647-3.85c.39-.394.39-1.035 0-1.43-.39-.396-1.023-.396-1.414 0L9 6.744V1c0-.552-.447-1-1-1-.55 0-1 .448-1 1v5.747z" fill="#000" fill-rule="evenodd"/>
</svg>
