<svg width="16" height="16" viewBox="0 0 16 16" xmlns="http://www.w3.org/2000/svg">
  <title>
    enter-right-icon
  </title>
  <path d="M14.005 14C14.003 14 14 2 14 2c0 .004-5 0-5 0-.552 0-1-.448-1-1s.448-1 1-1h5.005C15.1 0 16 .9 16 2v12c0 1.106-.89 2-1.995 2H9c-.552 0-1-.448-1-1s.448-1 1-1h5.005zM6.752 8.998L4.27 11.293c-.395.39-.395 1.023 0 1.414.397.39 1.038.39 1.434 0L9.556 9.06C9.842 8.776 10 8.4 10 8s-.158-.778-.444-1.06L5.704 3.293c-.396-.39-1.037-.39-1.434 0-.395.39-.395 1.023 0 1.414L6.75 7H1C.45 7 0 7.446 0 8c0 .55.448.998 1 .998h5.752z" fill="#000" fill-rule="evenodd"/>
</svg>
