<svg width="16" height="16" viewBox="0 0 16 16" xmlns="http://www.w3.org/2000/svg">
  <title>
    exit-left-icon
  </title>
  <path d="M14.004 14C14.002 14 14 2 14 2c0 .004-5.004 0-5.004 0-.552 0-1-.448-1-1s.448-1 1-1h5.008C15.1 0 16 .9 16 2v12c0 1.106-.892 2-1.996 2H8.996c-.552 0-1-.448-1-1s.448-1 1-1h5.008zM3.247 9l2.48 2.294c.396.39.396 1.023 0 1.414-.395.39-1.037.39-1.432 0L.445 9.06C.157 8.778 0 8.403 0 8c0-.4.158-.778.444-1.06l3.85-3.647c.396-.39 1.038-.39 1.434 0 .395.39.395 1.023 0 1.414L3.248 7h5.748c.553 0 1 .447 1 1 0 .55-.447 1-1 1h-5.75z" fill="#000" fill-rule="evenodd"/>
</svg>
