<svg width="16" height="16" viewBox="0 0 16 16" xmlns="http://www.w3.org/2000/svg">
  <title>
    exit-right-icon
  </title>
  <path d="M1.995 14C1.997 14 2 2 2 2c0 .004 5 0 5 0 .552 0 1-.448 1-1s-.448-1-1-1H1.995C.9 0 0 .9 0 2v12c0 1.106.89 2 1.995 2H7c.552 0 1-.448 1-1s-.448-1-1-1H1.995zm10.752-5l-2.48 2.294c-.395.39-.395 1.023 0 1.414.396.39 1.037.39 1.432 0l3.848-3.647c.286-.283.444-.658.444-1.06 0-.4-.158-.778-.444-1.06l-3.85-3.647c-.394-.39-1.035-.39-1.43 0-.396.39-.396 1.023 0 1.414L12.744 7H7c-.552 0-1 .447-1 1 0 .55.448 1 1 1h5.747z" fill="#000" fill-rule="evenodd"/>
</svg>
