<svg width="16" height="16" viewBox="0 0 16 16" xmlns="http://www.w3.org/2000/svg">
  <title>
    heart-icon
  </title>
  <path d="M14.46 10.05c-.608.864-1.276 1.682-2 2.45-.7.75-1.437 1.477-2.178 2.154-.447.407-.8.71-1.01.885-.74.612-1.81.612-2.552 0-.21-.175-.563-.48-1.01-.886-.742-.677-1.484-1.4-2.182-2.154-.72-.767-1.387-1.583-1.993-2.443C.63 8.905.095 7.505.003 6.043c-.05-1.36.47-2.68 1.44-3.635C3.232.655 6.055.525 8 2.108c1.944-1.585 4.768-1.456 6.558.3.964.953 1.484 2.266 1.436 3.62-.09 1.466-.625 2.87-1.535 4.023zm-1.317-6.218c-1.14-1.123-2.97-1.123-4.113 0L7.997 4.854 6.964 3.832c-1.144-1.12-2.973-1.12-4.118 0-.58.57-.89 1.363-.85 2.178-.04 2.983 6 7.987 6 7.987s6.037-5 6-7.99c.04-.813-.27-1.605-.853-2.175z" fill="#000" fill-rule="evenodd"/>
</svg>
