<svg width="16" height="16" viewBox="0 0 16 16" xmlns="http://www.w3.org/2000/svg">
  <title>
    heart-filled-icon
  </title>
  <path d="M10.283 14.654c-.447.407-.8.71-1.01.885-.74.612-1.81.612-2.552 0-.21-.175-.562-.48-1.01-.886-.74-.677-1.483-1.4-2.18-2.154-.722-.767-1.388-1.583-1.994-2.443C.63 8.905.096 7.505.003 6.043c-.05-1.36.47-2.68 1.44-3.635C3.232.655 6.055.525 8 2.108c1.944-1.585 4.768-1.456 6.558.3.964.953 1.484 2.266 1.436 3.62-.088 1.466-.623 2.87-1.532 4.023-.607.864-1.275 1.682-2 2.45-.698.75-1.438 1.477-2.18 2.154z" fill="#000" fill-rule="evenodd"/>
</svg>
