<svg width="16" height="16" viewBox="0 0 16 16" xmlns="http://www.w3.org/2000/svg">
  <title>
    inbox-icon
  </title>
  <path d="M13.993 15H2.007C.903 15.004.005 14.113 0 13.01V8c0-.107.017-.214.05-.316l1.844-5.53C2.14 1.47 2.784 1.01 3.51 1h8.98c.727.01 1.37.47 1.616 1.155l1.843 5.53c.033.1.05.208.05.315v5.01c-.005 1.103-.903 1.994-2.007 1.99zM2.007 13h11.986C14 13 14 13 14 13.01V9h-2.543c-.712 1.237-2.03 2-3.457 2s-2.745-.763-3.457-2H2v4.01C2 13 2 13 2.007 13zM12.28 3H3.72L2.388 7H5.17c.122.002.24.026.353.07.034.015.068.032.1.05.072.037.14.083.2.136.03.025.06.053.085.082.055.063.102.132.14.207.018.03.034.06.05.092 0 .01.012.02.016.03C6.396 8.467 7.152 9 8 9c.848 0 1.604-.533 1.886-1.333 0-.01.012-.02.017-.03.015-.03.03-.062.05-.092.037-.075.084-.144.14-.207.025-.03.054-.057.084-.082.06-.053.128-.1.2-.135l.1-.05c.112-.044.23-.068.352-.07h2.783L12.28 3z" fill="#000" fill-rule="evenodd"/>
</svg>
