<svg width="16" height="16" viewBox="0 0 16 16" xmlns="http://www.w3.org/2000/svg">
  <title>
    list-icon
  </title>
  <path d="M16 13c0-.552-.448-1-1-1H6c-.552 0-1 .448-1 1s.448 1 1 1h9c.552 0 1-.448 1-1zm0-5c0-.552-.448-1-1-1H6c-.552 0-1 .448-1 1s.448 1 1 1h9c.552 0 1-.448 1-1zm0-5c0-.552-.448-1-1-1H6c-.552 0-1 .448-1 1s.448 1 1 1h9c.552 0 1-.448 1-1zM2 15c1.105 0 2-.895 2-2s-.895-2-2-2-2 .895-2 2 .895 2 2 2zm0-5c1.105 0 2-.895 2-2s-.895-2-2-2-2 .895-2 2 .895 2 2 2zm0-5c1.105 0 2-.895 2-2s-.895-2-2-2-2 .895-2 2 .895 2 2 2z" fill="#000" fill-rule="evenodd"/>
</svg>
