<svg width="16" height="16" viewBox="0 0 16 16" xmlns="http://www.w3.org/2000/svg">
  <title>
    mic-off-icon
  </title>
  <path d="M15.686 1.736l-4.693 4.688V7.99c.002 1.655-1.337 3-2.993 3.003-.442-.002-.878-.105-1.275-.3l-.73.732c.605.366 1.298.56 2.005.566 2.204 0 3.99-1.786 3.99-3.99 0-.55.447-.997.998-.997.55 0 .997.447.997.998 0 2.922-2.107 5.416-4.987 5.903v1.072c0 .55-.447.997-.998.997-.55 0-.998-.446-.998-.997v-1.072c-.884-.153-1.72-.508-2.445-1.037l-2.82 2.82c-.253.266-.63.375-.983.283-.354-.092-.63-.37-.722-.723-.09-.354.017-.73.282-.982L14.264.315c.252-.266.628-.374.982-.283.354.09.63.368.722.722.09.354-.017.73-.282.982zM5.006 3.02C5.004 1.71 5.85.55 7.1.157c1.247-.393 2.606.073 3.35 1.15L5.008 6.75V3.02zM2.017 8c0-.55.445-.997.996-.997.465.004.863.332.955.787L2.234 9.524c-.138-.496-.212-1.008-.22-1.523z" fill="#000" fill-rule="evenodd"/>
</svg>
