<svg width="16" height="16" viewBox="0 0 16 16" xmlns="http://www.w3.org/2000/svg">
  <title>
    mic-icon
  </title>
  <path d="M9 13.925V15c0 .553-.448 1-1 1s-1-.447-1-1v-1.075c-2.887-.49-5-2.992-5-5.923 0-.553.448-1 1-1s1 .447 1 1c0 2.21 1.79 4.004 4 4.004s4-1.793 4-4.004c0-.553.448-1 1-1s1 .447 1 1c0 2.93-2.113 5.434-5 5.923zm-1-2.92c-.797 0-1.56-.317-2.123-.882-.563-.564-.88-1.33-.877-2.127V3.003C5 1.343 6.343 0 8 0s3 1.344 3 3.003v4.993c0 1.66-1.342 3.006-3 3.01z" fill="#000" fill-rule="evenodd"/>
</svg>
