<svg width="16" height="16" viewBox="0 0 16 16" xmlns="http://www.w3.org/2000/svg">
  <title>
    monitor-icon
  </title>
  <path d="M13.994 13h-4.99c0 .267.107.523.296.71.19.19.447.293.714.29h1.98c.357-.002.688.187.87.496.18.308.18.69.004 1-.178.31-.507.502-.864.504h-8c-.552 0-1-.448-1-1 .003-.55.45-.997 1-1H5.97c.267.003.524-.1.714-.29.19-.187.296-.443.296-.71H2.007C.902 13 .004 12.105 0 11V3c0-.532.212-1.04.588-1.417.377-.375.887-.585 1.42-.583H13.99c1.107-.002 2.007.893 2.01 2v8.01c-.006 1.103-.903 1.993-2.006 1.99zm0-10H2.004l.007 8h11.994l-.01-8z" fill="#000" fill-rule="evenodd"/>
</svg>
