<svg width="16" height="16" viewBox="0 0 16 16" xmlns="http://www.w3.org/2000/svg">
  <title>
    music-icon
  </title>
  <path d="M12.017 13.93c-1.648 0-2.983-1.336-2.983-2.984 0-1.65 1.335-2.986 2.983-2.986.34.003.676.065.994.183v-1.99L7.046 7.646v5.29c.017 1.324-.828 2.505-2.086 2.915-1.26.41-2.637-.045-3.402-1.125-.766-1.08-.74-2.532.06-3.585.803-1.053 2.196-1.46 3.44-1.008v-6.75c.006-.742.506-1.39 1.222-1.583L13.29.044c.413-.11.854-.018 1.19.247.336.264.53.672.52 1.1v9.554c0 1.648-1.336 2.985-2.983 2.985zm-7.955-1.99c-.55 0-.994.446-.994.996s.445.995.994.995c.55 0 .995-.444.995-.994s-.446-.995-.995-.995zm8.95-9.77L7.044 3.66v1.925l5.966-1.493V2.167v.002zm-.995 7.78c-.55 0-.995.446-.995.996s.446.995.995.995c.55 0 .994-.445.994-.994 0-.55-.444-.996-.993-.996z" fill="#000" fill-rule="evenodd"/>
</svg>
