<svg width="16" height="16" viewBox="0 0 16 16" xmlns="http://www.w3.org/2000/svg">
  <title>
    notifications-icon
  </title>
  <path d="M15.95 13.315c-.137.41-.523.688-.956.685H9.996c0 1.105-.895 2-2 2C6.894 16 6 15.105 6 14H1c-.43 0-.813-.275-.95-.684-.135-.408.006-.858.35-1.116 1.01-.753 1.606-1.94 1.605-3.2V6c0-3.314 2.686-6 5.998-6C11.315 0 14 2.686 14 6v3c-.003 1.26.59 2.447 1.6 3.2.344.258.484.707.35 1.115zm-3.784-4.31v-3c-.085-2.24-1.924-4.01-4.164-4.01-2.24 0-4.08 1.77-4.164 4.01v3c0 1.057-.288 2.094-.833 3H13c-.545-.905-.833-1.943-.834-3z" fill="#000" fill-rule="evenodd"/>
</svg>
