<svg width="16" height="16" viewBox="0 0 16 16" xmlns="http://www.w3.org/2000/svg">
  <title>
    notifications-off-icon
  </title>
  <path d="M15.678 1.743l-2.123 2.122c.275.682.42 1.41.423 2.145V9c-.004 1.258.588 2.442 1.595 3.192.344.258.484.708.347 1.116-.137.408-.52.682-.95.68H9.983c0 1.1-.893 1.993-1.995 1.993s-1.995-.892-1.995-1.993H3.43l-1.695 1.7c-.252.266-.627.374-.98.282-.355-.092-.632-.37-.723-.723-.09-.354.017-.73.282-.98L14.258.32c.25-.27.628-.382.985-.29.357.09.635.37.726.726.09.356-.022.734-.292.985zM2.018 9V6.01C2.018 2.706 4.696.027 8 .027c1.03.006 2.042.28 2.934.798L1.922 9.837c.062-.274.094-.554.096-.836z" fill="#000" fill-rule="evenodd"/>
</svg>
