<svg width="16" height="16" viewBox="0 0 16 16" xmlns="http://www.w3.org/2000/svg">
  <title>
    ok-circle-icon
  </title>
  <path d="M8 16c4.418 0 8-3.582 8-8s-3.582-8-8-8-8 3.582-8 8 3.582 8 8 8zm0-2c3.314 0 6-2.686 6-6s-2.686-6-6-6-6 2.686-6 6 2.686 6 6 6zm-1-3c.4 0 .778-.158 1.06-.443l3.648-3.833c.39-.395.39-1.033 0-1.428s-1.024-.395-1.414 0L7 8.772 5.707 7.296c-.39-.395-1.023-.395-1.414 0-.39.395-.39 1.033 0 1.428l1.646 1.833c.283.285.658.443 1.06.443z" fill="#000" fill-rule="evenodd"/>
</svg>
