<svg width="16" height="16" viewBox="0 0 16 16" xmlns="http://www.w3.org/2000/svg">
  <title>
    pencil-filled-icon
  </title>
  <path d="M15.09 5.306l-.437.436-4.398-4.393.438-.438c.785-.786 1.93-1.093 3-.807 1.074.287 1.912 1.125 2.2 2.197.29 1.073-.017 2.218-.802 3.004zm-1.85 1.85l-2.917 2.916-3.934 3.933c-.5.457-1.094.794-1.74.985l-3.846.96c-.216.097-.47.05-.636-.118-.167-.167-.215-.42-.12-.636l.962-3.843c.19-.648.528-1.244.985-1.74L5.93 5.677l2.917-2.916 4.394 4.393z" fill="#000" fill-rule="evenodd"/>
</svg>
