<svg width="16" height="16" viewBox="0 0 16 16" xmlns="http://www.w3.org/2000/svg">
  <title>
    pin-icon
  </title>
  <path d="M8 16C6.01 16 2 9.514 2 5.982 2 2.678 4.686 0 8 0s6 2.678 6 5.982C14 9.514 9.99 16 8 16zM8 2.028C5.802 2.022 4.013 3.79 4 5.982c.203 1.91.88 3.737 1.972 5.32.46.754.982 1.47 1.564 2.134.236.25.464.456.464.456s.23-.2.465-.456c.582-.665 1.105-1.38 1.563-2.135 1.09-1.58 1.77-3.41 1.972-5.318-.013-2.192-1.802-3.96-4-3.954zm0 5.996c-1.095-.007-1.977-.897-1.972-1.99.005-1.09.896-1.972 1.99-1.97 1.096.004 1.983.89 1.982 1.98-.002.528-.214 1.033-.59 1.404-.374.37-.882.58-1.41.576z" fill="#000" fill-rule="evenodd"/>
</svg>
