<svg width="16" height="16" viewBox="0 0 16 16" xmlns="http://www.w3.org/2000/svg">
  <title>
    power-icon
  </title>
  <path d="M8.002 16c-3.485 0-6.57-2.255-7.625-5.576-1.056-3.32.16-6.944 3.005-8.956.29-.207.67-.243.996-.094.326.15.547.46.58.816.034.356-.125.703-.416.91-2.136 1.508-3.05 4.225-2.26 6.717.792 2.492 3.105 4.185 5.72 4.185 2.614 0 4.928-1.693 5.72-4.185.79-2.492-.124-5.21-2.26-6.717-.292-.207-.45-.554-.417-.91.034-.356.255-.667.58-.816.325-.15.705-.113.997.094 2.845 2.012 4.06 5.635 3.005 8.956C14.57 13.744 11.487 16 8.002 16zm0-8c-.552 0-1-.448-1-1V1c0-.552.448-1 1-1s1 .448 1 1v6c0 .552-.448 1-1 1z" fill="#000" fill-rule="evenodd"/>
</svg>
