<svg width="16" height="16" viewBox="0 0 16 16" xmlns="http://www.w3.org/2000/svg">
  <title>
    reload-2-icon
  </title>
  <path d="M15.507 6H10.97c-.55 0-.683-.312-.283-.71l1.54-1.533C11.103 2.637 9.584 2.007 8 2V0c2.117.005 4.147.846 5.647 2.34L15.294.7c.39-.387.706-.25.706.29v4.517c-.004.27-.222.49-.493.493zM0 8c0-4.418 3.582-8 8-8v2C4.686 2 2 4.686 2 8s2.686 6 6 6v2c-4.418 0-8-3.582-8-8zm14.01.765c.09-.47.514-.797.99-.765.304 0 .593.137.783.374.19.238.263.55.196.846-.615 3.908-3.985 6.786-7.94 6.78H8v-2h.035c3.025.005 5.583-2.236 5.976-5.235z" fill="#000" fill-rule="evenodd"/>
</svg>
