<svg width="16" height="16" viewBox="0 0 16 16" xmlns="http://www.w3.org/2000/svg">
  <title>
    reload-1-icon
  </title>
  <path d="M10.97 6c-.55 0-.683-.312-.283-.71l1.54-1.533C11.134 2.672 9.628 2 7.964 2 4.897 2 2.367 4.283 1.99 7.235c0 0-.116.765-.986.765C.45 8 0 7.552 0 7c0-.075.01-.15.025-.22C.615 2.94 3.945 0 7.965 0c2.22 0 4.228.895 5.682 2.343l1.647-1.64C15.684.315 16 .45 16 .99v4.52c0 .27-.23.49-.493.49H10.97zm-5.94 4c.55 0 .683.312.283.71l-1.54 1.533C4.864 13.33 6.372 14 8.036 14c3.068 0 5.598-2.283 5.976-5.235 0 0 .116-.765.986-.765C15.55 8 16 8.448 16 9c0 .076-.01.15-.025.22-.59 3.84-3.92 6.78-7.94 6.78-2.22 0-4.228-.895-5.682-2.343l-1.647 1.64c-.39.388-.706.252-.706-.288v-4.52c0-.27.23-.49.493-.49H5.03z" fill="#000" fill-rule="evenodd"/>
</svg>
