<svg width="16" height="16" viewBox="0 0 16 16" xmlns="http://www.w3.org/2000/svg">
  <title>
    repeat-icon
  </title>
  <path d="M15.556 5.058l-2.85 2.645c-.4.39-1.036.39-1.434 0-.19-.186-.296-.44-.296-.706 0-.266.107-.52.296-.707l1.473-1.287H2v2c0 .553-.448 1-1 1s-1-.447-1-1v-2c0-1.104.896-2 2-2l10.75-.006-1.478-1.29c-.19-.187-.296-.442-.296-.707 0-.266.107-.52.296-.707.398-.39 1.035-.39 1.433 0l2.85 2.645c.285.28.445.662.445 1.06 0 .4-.16.78-.444 1.06zM3.3 8.293c.398-.39 1.035-.39 1.433 0 .19.187.296.44.296.707 0 .265-.107.52-.297.706l-1.48 1.29L14 11.004v-2c0-.552.448-1 1-1s1 .448 1 1v2c0 1.105-.895 2-2 2H3.255l1.473 1.287c.19.187.296.44.296.707 0 .265-.106.52-.296.706-.398.39-1.035.39-1.433 0l-2.85-2.645c-.285-.28-.445-.66-.445-1.06 0-.398.16-.78.444-1.06L3.3 8.293z" fill="#000" fill-rule="evenodd"/>
</svg>
