<svg width="16" height="16" viewBox="0 0 16 16" xmlns="http://www.w3.org/2000/svg">
  <title>
    resize-plus-1-icon
  </title>
  <path d="M15 6.02c-.552 0-1-.447-1-1v-1.6l-3.29 3.294c-.398.392-1.038.392-1.436 0-.19-.187-.297-.443-.297-.71 0-.266.107-.52.297-.708l3.28-3.286h-1.57c-.554 0-1.004-.45-1.004-1.005C9.98.45 10.43 0 10.985 0H14c1.102 0 1.995.89 2 1.992v3.022c.002.266-.103.523-.29.712-.188.19-.444.295-.71.295zM3.44 13.99H5c.555 0 1.004.45 1.004 1.005C6.004 15.55 5.554 16 5 16H2c-1.105 0-2-.896-2-2v-3.023c0-.552.448-1 1-1s1 .448 1 1v1.6l3.275-3.293c.396-.392 1.033-.392 1.43 0 .187.188.293.443.293.71 0 .265-.106.52-.294.708L3.44 13.99z" fill="#000" fill-rule="evenodd"/>
</svg>
