<svg width="16" height="16" viewBox="0 0 16 16" xmlns="http://www.w3.org/2000/svg">
  <title>
    resize-plus-2-icon
  </title>
  <path d="M15 6.027c-.552 0-1-.448-1-1v-1.6L10.71 6.72c-.398.39-1.038.39-1.436 0-.19-.188-.297-.443-.297-.71 0-.266.107-.52.297-.708l3.28-3.284h-1.57c-.554 0-1.003-.45-1.003-1.004 0-.555.45-1.005 1.005-1.005H14c1.102 0 1.995.89 2 1.99v3.02c.002.266-.103.523-.29.712-.188.19-.444.295-.71.295zm-9.7.676L2.016 3.437V5c0 .557-.45 1.008-1.008 1.008C.45 6.008 0 5.558 0 5V2C0 .895.895 0 2 0h3.02c.552 0 1 .448 1 1s-.448 1-1 1h-1.6l3.292 3.275c.392.396.392 1.033 0 1.43-.188.187-.444.293-.71.292-.267 0-.522-.107-.71-.297l.008.003zM1 9.973c.552 0 1 .448 1 1v1.6L5.275 9.28c.396-.39 1.033-.39 1.43 0 .187.19.293.444.293.71 0 .265-.106.52-.294.708l-3.266 3.284H5c.557 0 1.01.452 1.01 1.01C6.01 15.547 5.556 16 5 16H2c-1.105 0-2-.895-2-2v-3.02c-.002-.266.103-.523.29-.712.188-.19.444-.295.71-.295zm9.707-.706l3.284 3.28v-1.57c0-.554.45-1.004 1.006-1.004.554 0 1.004.45 1.004 1.005v3.016c.002.53-.208 1.042-.584 1.418-.375.376-.885.588-1.416.588h-3.02c-.555 0-1.004-.45-1.004-1.005 0-.554.45-1.004 1.004-1.004h1.6L9.288 10.7c-.392-.397-.392-1.037 0-1.435.187-.19.443-.297.71-.297.267 0 .522.108.71.3z" fill="#000" fill-rule="evenodd"/>
</svg>
