<svg width="16" height="16" viewBox="0 0 16 16" xmlns="http://www.w3.org/2000/svg">
  <title>
    resize-minus-1-icon
  </title>
  <path d="M15.703 1.71L12.44 4.99h1.565c.554 0 1.003.45 1.003 1.004 0 .555-.45 1.004-1.003 1.004H11.01c-1.104 0-2-.895-2-1.998V1.984c0-.552.45-1 1-1 .552 0 1 .448 1 1v1.598L14.28.294c.395-.392 1.032-.392 1.427 0 .188.188.294.443.293.71 0 .265-.108.52-.297.707zM6.015 15.016c-.55 0-.998-.447-.998-1V12.42L1.73 15.706c-.397.392-1.036.392-1.434 0C.106 15.52 0 15.266 0 15c0-.267.107-.522.296-.71l3.277-3.28H2.005c-.554 0-1.003-.448-1.003-1.002s.45-1.004 1.003-1.004h3.013c1.1 0 1.99.89 1.996 1.99v3.015c.002.266-.103.52-.29.71-.188.19-.443.295-.71.295z" fill="#000" fill-rule="evenodd"/>
</svg>
