<svg width="16" height="16" viewBox="0 0 16 16" xmlns="http://www.w3.org/2000/svg">
  <title>
    resize-plus-3-icon
  </title>
  <path d="M14.002 12.598L14 10c0-.552.448-1 1-1s1 .448 1 1v4.007c0 1.1-.895 1.993-1.997 1.993H10c-.552 0-1-.448-1-1s.448-1 1-1h4.002v-1.402zm-12.004 0L2 10c0-.552-.448-1-1-1s-1 .448-1 1v4.007C0 15.107.895 16 1.997 16H6c.552 0 1-.448 1-1s-.448-1-1-1H1.998v-1.402zm12.004-9.196L14 6c0 .552.448 1 1 1s1-.448 1-1V1.993C16 .893 15.105 0 14.003 0H10c-.552 0-1 .448-1 1s.448 1 1 1h4.002v1.402zm-12.004 0L2 6c0 .552-.448 1-1 1s-1-.448-1-1V1.993C0 .893.895 0 1.997 0H6c.552 0 1 .448 1 1s-.448 1-1 1H1.998v1.402z" fill="#000" fill-rule="evenodd"/>
</svg>
