<svg width="16" height="16" viewBox="0 0 16 16" xmlns="http://www.w3.org/2000/svg">
  <title>
    resize-minus-3-icon
  </title>
  <path d="M10.998 12.402L11 15c0 .552-.448 1-1 1s-1-.448-1-1v-4.007C9 9.893 9.895 9 10.997 9H15c.552 0 1 .448 1 1s-.448 1-1 1h-4.002v1.402zm-5.996 0L5 15c0 .552.448 1 1 1s1-.448 1-1v-4.007C7 9.893 6.105 9 5.003 9H1c-.552 0-1 .448-1 1s.448 1 1 1h4.002v1.402zm5.996-8.804L11 1c0-.552-.448-1-1-1S9 .448 9 1v4.007C9 6.107 9.895 7 10.997 7H15c.552 0 1-.448 1-1s-.448-1-1-1h-4.002V3.598zm-5.996 0L5 1c0-.552.448-1 1-1s1 .448 1 1v4.007C7 6.107 6.105 7 5.003 7H1c-.552 0-1-.448-1-1s.448-1 1-1h4.002V3.598z" fill="#000" fill-rule="evenodd"/>
</svg>
