<svg width="16" height="16" viewBox="0 0 16 16" xmlns="http://www.w3.org/2000/svg">
  <title>
    resize-minus-2-icon
  </title>
  <path d="M12.437 5.01h1.56c.554 0 1.003.447 1.003 1 0 .554-.45 1.002-1.002 1.002h-2.995c-1.103 0-1.996-.893-1.996-1.994V2.006c0-.55.446-.997.998-.997.55 0 .998.445.998.996v1.596L14.273.32c.394-.392 1.03-.392 1.425 0 .19.186.294.44.294.705 0 .266-.105.52-.294.707l-3.26 3.277zM6.012 15.016c-.55 0-.998-.447-.998-.997v-1.596L1.73 15.707c-.398.39-1.036.39-1.434 0C.106 15.52 0 15.267 0 15c0-.265.107-.52.296-.706L3.57 11.02H2.005c-.554 0-1.002-.45-1.002-1.003 0-.553.448-1 1.002-1h3.01c1.1 0 1.99.886 1.996 1.984v3.013c.002.265-.102.52-.29.71-.187.188-.442.294-.708.294zm-.998-8.005H2c-.555 0-1.003-.448-1.003-1 0-.555.448-1.003 1.002-1.003h1.596L.31 1.727C-.08 1.33-.08.693.31.296.497.106.752 0 1.017 0c.266 0 .52.107.708.296l3.278 3.272V2.002c0-.553.45-1 1.002-1 .554 0 1.003.447 1.003 1V5.01c.002.53-.207 1.04-.58 1.415-.375.375-.884.587-1.414.587zm5.99 1.995h3.013c.552 0 1 .446 1 .997 0 .55-.448.997-1 .997H12.42l3.286 3.267c.392.394.392 1.03 0 1.425-.187.188-.44.293-.707.293-.266 0-.52-.105-.708-.293l-3.278-3.257v1.558c0 .553-.45 1.002-1.004 1.002s-1.003-.45-1.003-1.002V11c0-1.1.893-1.993 1.996-1.993z" fill="#000" fill-rule="evenodd"/>
</svg>
