<svg width="16" height="16" viewBox="0 0 16 16" xmlns="http://www.w3.org/2000/svg">
  <title>
    ribbon-plus-icon
  </title>
  <path d="M11.005 5h-2c-.553 0-1-.448-1-1s.447-1 1-1h2V1c0-.552.447-1 1-1 .552 0 1 .448 1 1v2h2c.552 0 1 .448 1 1s-.448 1-1 1h-2v2c0 .552-.448 1-1 1-.553 0-1-.448-1-1V5zm.014 8.628l-3.5-2.083c-.317-.188-.71-.188-1.025 0l-3.49 2.08V2h6c.552 0 1-.448 1-1s-.448-1-1-1h-6c-1.105 0-2 .895-2 2v12.374c-.046.582.25 1.138.757 1.427.508.29 1.137.258 1.614-.08l3.63-2.16 3.628 2.16c.477.335 1.104.365 1.61.078.507-.288.803-.842.76-1.423V9.99c0-.55-.447-1-1-1-.552 0-1 .45-1 1l.015 3.634v.004z" fill="#000" fill-rule="evenodd"/>
</svg>
