<svg width="16" height="16" viewBox="0 0 16 16" xmlns="http://www.w3.org/2000/svg">
  <title>
    settings-1-icon
  </title>
  <path d="M15.96 10.176l-.793 1.91c-.108.262-.406.385-.665.278l-.902-.373c-.412-.17-1.007-.05-1.32.263-.343.344-.46.934-.29 1.347l.374.9c.108.26-.01.556-.276.666l-1.91.794c-.26.108-.558-.016-.665-.276l-.374-.903c-.172-.412-.68-.747-1.12-.747-.486 0-.987.334-1.16.748l-.373.904c-.107.26-.4.386-.666.276l-1.91-.79c-.26-.11-.385-.407-.277-.666l.373-.9c.17-.413.05-1.008-.264-1.32-.343-.344-.933-.462-1.346-.29l-.902.373c-.26.108-.555-.01-.665-.277l-.79-1.914c-.108-.26.016-.56.276-.667l.903-.374c.412-.172.747-.677.747-1.117 0-.485-.334-.984-.748-1.156L.315 6.49c-.26-.107-.386-.4-.276-.666l.793-1.91c.108-.262.406-.386.665-.28l.9.373c.413.17 1.008.05 1.32-.264.344-.343.462-.933.29-1.346l-.372-.9c-.108-.26.01-.556.276-.666l1.91-.79c.26-.108.558.016.665.276l.374.903c.172.412.68.747 1.12.747.486 0 .987-.334 1.16-.748l.373-.904c.107-.26.4-.386.666-.276l1.91.79c.26.11.385.407.277.666l-.37.895c-.172.417-.052 1.014.26 1.326.344.344.932.463 1.353.288l.896-.37c.26-.11.555.01.665.276l.79 1.914c.108.26-.016.56-.276.667l-.903.374c-.412.172-.747.677-.747 1.117 0 .485.334.984.748 1.156l.904.373c.26.107.386.4.276.666zM8 4C5.79 4 4 5.79 4 8s1.79 4 4 4 4-1.79 4-4c0-1.06-.42-2.078-1.172-2.828C10.078 4.422 9.06 4 8 4zm0 6c-1.105 0-2-.895-2-2s.895-2 2-2 2 .895 2 2c0 .53-.21 1.04-.586 1.414C9.04 9.79 8.53 10 8 10z" fill="#000" fill-rule="evenodd"/>
</svg>
