<svg width="16" height="16" viewBox="0 0 16 16" xmlns="http://www.w3.org/2000/svg">
  <title>
    settings-2-icon
  </title>
  <path d="M15 9h-1c-.552 0-1-.448-1-1s.448-1 1-1h1c.552 0 1 .448 1 1s-.448 1-1 1zm0-5H7.72C7.368 4.618 6.71 5 6 5c-1.105 0-2-.895-2-2s.895-2 2-2c.71 0 1.368.382 1.72 1H15c.552 0 1 .448 1 1s-.448 1-1 1zM2 4H1c-.552 0-1-.448-1-1s.448-1 1-1h1c.552 0 1 .448 1 1s-.448 1-1 1zM1 7h7.28c.352-.618 1.01-1 1.72-1 1.105 0 2 .895 2 2s-.895 2-2 2c-.71 0-1.368-.382-1.72-1H1c-.552 0-1-.448-1-1s.448-1 1-1zm0 5h1c.552 0 1 .448 1 1s-.448 1-1 1H1c-.552 0-1-.448-1-1s.448-1 1-1zm6.72 0H15c.552 0 1 .448 1 1s-.448 1-1 1H7.72c-.352.618-1.01 1-1.72 1-1.105 0-2-.895-2-2s.895-2 2-2c.71 0 1.368.382 1.72 1z" fill="#000" fill-rule="evenodd"/>
</svg>
