<svg width="16" height="16" viewBox="0 0 16 16" xmlns="http://www.w3.org/2000/svg">
  <title>
    settings-3-icon
  </title>
  <path d="M15 12h-2c-.552 0-1-.448-1-1s.448-1 1-1V1c0-.552.448-1 1-1s1 .448 1 1v9c.552 0 1 .448 1 1s-.448 1-1 1zm-4-6v9c0 .552-.448 1-1 1s-1-.448-1-1V6c-.552 0-1-.448-1-1s.448-1 1-1h2c.552 0 1 .448 1 1s-.448 1-1 1zm-1-3c-.552 0-1-.448-1-1V1c0-.552.448-1 1-1s1 .448 1 1v1c0 .552-.448 1-1 1zm-3 9H5c-.552 0-1-.448-1-1s.448-1 1-1V1c0-.552.448-1 1-1s1 .448 1 1v9c.552 0 1 .448 1 1s-.448 1-1 1zM3 6v9c0 .552-.448 1-1 1s-1-.448-1-1V6c-.552 0-1-.448-1-1s.448-1 1-1h2c.552 0 1 .448 1 1s-.448 1-1 1zM2 3c-.552 0-1-.448-1-1V1c0-.552.448-1 1-1s1 .448 1 1v1c0 .552-.448 1-1 1zm4 10c.552 0 1 .448 1 1v1c0 .552-.448 1-1 1s-1-.448-1-1v-1c0-.552.448-1 1-1zm8 0c.552 0 1 .448 1 1v1c0 .552-.448 1-1 1s-1-.448-1-1v-1c0-.552.448-1 1-1z" fill="#000" fill-rule="evenodd"/>
</svg>
