<svg width="16" height="16" viewBox="0 0 16 16" xmlns="http://www.w3.org/2000/svg">
  <title>
    share-1-icon
  </title>
  <path d="M2 14.004C2 14.002 14 14 14 14c-.004 0 0-5.004 0-5.004 0-.552.448-1 1-1s1 .448 1 1v5.008C16 15.1 15.1 16 14 16H2c-1.106 0-2-.892-2-1.996V8.996c0-.552.448-1 1-1s1 .448 1 1v5.008zm2.706-8.272c-.39.396-1.023.396-1.414 0-.39-.396-.39-1.038 0-1.433L6.94.444C7.222.158 7.597 0 8 0c.4 0 .778.158 1.06.445L12.707 4.3c.39.394.39 1.036 0 1.432-.39.396-1.023.396-1.414 0L9 3.252v5.752c0 .552-.447 1-1 1-.55 0-1-.448-1-1V3.25L4.707 5.73z" fill="#000" fill-rule="evenodd"/>
</svg>
