<svg width="16" height="16" viewBox="0 0 16 16" xmlns="http://www.w3.org/2000/svg">
  <title>
    share-2-icon
  </title>
  <path d="M14.002 3.402L14 6c0 .552.448 1 1 1s1-.448 1-1V1.993C16 .893 15.105 0 14.003 0H10c-.552 0-1 .448-1 1s.448 1 1 1h2.563L7.297 7.27c-.394.39-.394 1.02 0 1.41.395.39 1.034.39 1.43 0L14 3.402zM14 14.007L2.002 14C2 14 2 1.993 2 1.993 2 2 5.99 2 5.99 2c.552 0 1-.448 1-1s-.448-1-1-1H1.996C.9 0 0 .893 0 1.993v12.014C0 15.11.9 16 2.002 16h11.996c1.11 0 2.002-.89 2.002-1.993V10c0-.552-.448-1-1-1s-1 .448-1 1v4.007z" fill="#000" fill-rule="evenodd"/>
</svg>
