<svg width="16" height="16" viewBox="0 0 16 16" xmlns="http://www.w3.org/2000/svg">
  <title>
    signal-icon
  </title>
  <path d="M13.658 13.704c-.187.19-.443.296-.71.296-.266 0-.522-.107-.71-.296-.39-.395-.39-1.03 0-1.427 2.35-2.367 2.35-6.188 0-8.555-.39-.396-.39-1.03 0-1.426.188-.19.444-.296.71-.296.267 0 .523.107.71.296 3.12 3.162 3.12 8.246 0 11.408zm-2.12-2.14c-.187.19-.443.297-.71.297-.266 0-.522-.105-.71-.295-.39-.395-.39-1.03 0-1.427 1.17-1.185 1.17-3.092 0-4.277-.39-.395-.39-1.03 0-1.425.188-.19.444-.296.71-.296.267 0 .523.105.71.295 1.95 1.976 1.95 5.154 0 7.13zm-3.54-1.548c-.816.007-1.556-.48-1.874-1.234-.317-.753-.148-1.623.427-2.203.576-.58 1.445-.757 2.2-.445.755.31 1.248 1.047 1.248 1.864.003 1.108-.89 2.01-2 2.016zm-2.12.122c.39.395.39 1.032 0 1.427-.188.188-.443.294-.708.294-.266 0-.52-.107-.708-.295-1.952-1.975-1.952-5.155 0-7.13.188-.188.442-.294.708-.294.265 0 .52.107.707.295.39.395.39 1.03 0 1.426-1.17 1.186-1.17 3.093 0 4.278zm-2.123 2.14c.392.394.392 1.03 0 1.426-.39.39-1.023.39-1.414 0-3.12-3.16-3.12-8.245 0-11.405.188-.19.443-.296.708-.296.266 0 .52.106.707.295.39.394.39 1.03 0 1.425-2.34 2.37-2.34 6.183 0 8.552z" fill="#000" fill-rule="evenodd"/>
</svg>
