<svg width="16" height="16" viewBox="0 0 16 16" xmlns="http://www.w3.org/2000/svg">
  <title>
    sort-az-icon
  </title>
  <path d="M14.327 6.99l-.488-1.436h-2.724l-.5 1.435H8.998l2.64-6.98h1.746L16 6.99h-1.675.002zM12.497 1.6l-.96 2.746h1.894l-.933-2.746zm-6.21 9.667c.187-.19.44-.297.707-.297.265 0 .52.106.706.296.39.396.39 1.034 0 1.43l-2.644 2.852c-.28.284-.66.444-1.06.444-.398 0-.78-.16-1.06-.444l-2.643-2.85c-.39-.398-.39-1.036 0-1.433.186-.19.44-.297.706-.297.265 0 .52.106.705.296l1.29 1.477V3.25l-1.29 1.478c-.186.19-.44.296-.706.296-.266 0-.52-.107-.707-.296-.39-.398-.39-1.036 0-1.433L2.937.445C3.217.16 3.597 0 3.997 0c.398 0 .78.16 1.06.444l2.642 2.858c.39.397.39 1.035 0 1.433-.187.19-.442.296-.707.296-.266 0-.52-.106-.707-.295l-1.293-1.48v9.503l1.294-1.49zm3.8-1.03V9.007h4.896v1.17l-3.347 4.577h3.36v1.23H9.997v-1.23l3.305-4.512H10.08h.006z" fill="#000" fill-rule="evenodd"/>
</svg>
