<svg width="16" height="16" viewBox="0 0 16 16" xmlns="http://www.w3.org/2000/svg">
  <title>
    star-icon
  </title>
  <path d="M3.086 14.813c-.34-.24-.49-.666-.383-1.067l1.164-4.243L.38 6.74c-.33-.255-.46-.69-.33-1.084.132-.396.495-.67.913-.69l4.485-.227 1.6-4.1C7.206.252 7.58 0 8 0c.417 0 .792.253.948.64l1.607 4.1 4.484.227c.417.02.78.293.914.69.13.394 0 .827-.328 1.084L12.14 9.5l1.165 4.242c.108.4-.045.827-.384 1.067-.34.242-.795.254-1.15.03l-3.766-2.4-3.766 2.4c-.164.106-.356.163-.552.164-.215 0-.425-.066-.6-.19zm5.47-4.394l2.098 1.333-.647-2.354c-.105-.384.03-.792.342-1.038l1.933-1.53-2.487-.128c-.398-.018-.748-.268-.895-.638L8 3.78l-.896 2.286c-.147.372-.5.623-.9.64l-2.488.126 1.934 1.53c.312.247.447.655.343 1.038l-.647 2.36 2.096-1.335c.167-.11.363-.167.562-.167.196 0 .388.056.553.16z" fill="#000" fill-rule="evenodd"/>
</svg>
