<svg width="16" height="16" viewBox="0 0 16 16" xmlns="http://www.w3.org/2000/svg">
  <title>
    star-filled-icon
  </title>
  <path d="M3.686 15.004c-.215 0-.425-.066-.6-.19-.34-.24-.49-.667-.383-1.068l1.164-4.243L.38 6.74c-.33-.255-.46-.69-.33-1.084.132-.396.495-.67.913-.69l4.485-.227 1.6-4.1C7.206.252 7.58 0 8 0c.417 0 .792.253.948.64l1.607 4.1 4.484.227c.417.02.78.293.914.69.13.394 0 .827-.328 1.084L12.14 9.5l1.165 4.242c.108.4-.045.827-.384 1.067-.34.242-.795.254-1.15.03l-3.766-2.4-3.766 2.4c-.164.106-.356.163-.552.164z" fill="#000" fill-rule="evenodd"/>
</svg>
