<svg width="16" height="16" viewBox="0 0 16 16" xmlns="http://www.w3.org/2000/svg">
  <title>
    sun-icon
  </title>
  <path d="M8 4c2.21 0 4 1.79 4 4s-1.79 4-4 4-4-1.79-4-4 1.79-4 4-4zm0 2c1.105 0 2 .895 2 2s-.895 2-2 2-2-.895-2-2 .895-2 2-2zm0-6c.552 0 1 .448 1 1v1c0 .552-.448 1-1 1s-1-.448-1-1V1c0-.552.448-1 1-1zm0 13c.552 0 1 .448 1 1v1c0 .552-.448 1-1 1s-1-.448-1-1v-1c0-.552.448-1 1-1zM1 7h1c.552 0 1 .448 1 1s-.448 1-1 1H1c-.552 0-1-.448-1-1s.448-1 1-1zm13 0h1c.552 0 1 .448 1 1s-.448 1-1 1h-1c-.552 0-1-.448-1-1s.448-1 1-1zM2.343 2.34c.39-.39 1.024-.39 1.414 0l.707.71c.276.247.392.627.303.987-.09.36-.37.64-.73.73-.36.087-.74-.03-.987-.307l-.707-.7c-.39-.393-.39-1.027 0-1.42zm9.193 9.2c.39-.39 1.024-.39 1.414 0l.707.7c.392.39.393 1.025.003 1.417-.39.392-1.025.393-1.417.003l-.707-.71c-.188-.187-.293-.44-.293-.705 0-.265.105-.518.293-.705zm-9.193.7l.707-.7c.247-.277.626-.394.986-.306.36.09.64.37.73.73.09.36-.026.74-.302.986l-.707.71c-.392.39-1.027.39-1.417-.003-.39-.392-.39-1.027.003-1.417zm9.193-9.19l.707-.71c.254-.253.623-.35.968-.257.347.093.616.364.708.71.092.346-.007.714-.26.967l-.708.7c-.247.277-.626.394-.986.306-.36-.09-.64-.37-.73-.73-.09-.36.026-.74.302-.986z" fill="#000" fill-rule="evenodd"/>
</svg>
