<svg width="16" height="16" viewBox="0 0 16 16" xmlns="http://www.w3.org/2000/svg">
  <title>
    switches-icon
  </title>
  <path d="M12.5 7h-9C1.567 7 0 5.433 0 3.5S1.567 0 3.5 0h9C14.433 0 16 1.567 16 3.5S14.433 7 12.5 7zm0-5c-.828 0-1.5.672-1.5 1.5S11.672 5 12.5 5 14 4.328 14 3.5 13.328 2 12.5 2zm-9 7h9c1.933 0 3.5 1.567 3.5 3.5S14.433 16 12.5 16h-9C1.567 16 0 14.433 0 12.5S1.567 9 3.5 9zm0 5c.828 0 1.5-.672 1.5-1.5S4.328 11 3.5 11 2 11.672 2 12.5 2.672 14 3.5 14z" fill="#000" fill-rule="evenodd"/>
</svg>
