<svg width="16" height="16" viewBox="0 0 16 16" xmlns="http://www.w3.org/2000/svg">
  <title>
    tag-icon
  </title>
  <path d="M5 7c-1.105 0-2-.895-2-2s.895-2 2-2 2 .895 2 2-.895 2-2 2zm9.01 1.5c-.005.005-.005.002-.002.005l-6.07-6.07c-.2-.2-.72-.415-1-.417l-4.955-.024c.01 0 .01-.002.01-.012l.025 4.955c.002.284.218.8.417 1l6.07 6.07c0-.002 0-.002-.005.002l5.51-5.51zm-4.1 6.92c-.776.775-2.037.773-2.814-.004l-6.07-6.07c-.57-.57-.998-1.59-1.002-2.4L0 1.993C-.005.896.89-.005 1.992 0l4.956.024c.805.004 1.827.428 2.4 1l6.07 6.07c.772.773.78 2.04.003 2.815l-5.51 5.51z" fill="#000" fill-rule="evenodd"/>
</svg>
