<svg width="16" height="16" viewBox="0 0 16 16" xmlns="http://www.w3.org/2000/svg">
  <title>
    target 1-icon
  </title>
  <path d="M15 9h-1.09c-.428 2.512-2.398 4.477-4.91 4.9V15c0 .552-.448 1-1 1s-1-.448-1-1v-1.09C4.488 13.482 2.522 11.512 2.1 9H1c-.552 0-1-.448-1-1s.448-1 1-1h1.1C2.522 4.487 4.488 2.517 7 2.09V1c0-.552.448-1 1-1s1 .448 1 1v1.1c2.512.423 4.482 2.388 4.91 4.9H15c.552 0 1 .448 1 1s-.448 1-1 1zM9 4.14V5c0 .552-.448 1-1 1s-1-.448-1-1v-.86C5.598 4.505 4.504 5.6 4.14 7H5c.552 0 1 .448 1 1s-.448 1-1 1h-.86c.364 1.4 1.458 2.496 2.86 2.86V11c0-.552.448-1 1-1s1 .448 1 1v.86c1.4-.368 2.492-1.46 2.86-2.86H11c-.552 0-1-.448-1-1s.448-1 1-1h.86C11.492 5.6 10.4 4.508 9 4.14z" fill="#000" fill-rule="evenodd"/>
</svg>
