<svg width="16" height="16" viewBox="0 0 16 16" xmlns="http://www.w3.org/2000/svg">
  <title>
    target-2-icon
  </title>
  <path d="M8 16c-4.418 0-8-3.582-8-8s3.582-8 8-8 8 3.582 8 8-3.582 8-8 8zM9 2.09V4c0 .552-.448 1-1 1s-1-.448-1-1V2.09C4.488 2.518 2.522 4.488 2.1 7H4c.552 0 1 .448 1 1s-.448 1-1 1H2.1c.422 2.513 2.388 4.483 4.9 4.91V12c0-.552.448-1 1-1s1 .448 1 1v1.91c2.512-.427 4.478-2.397 4.9-4.91H12c-.552 0-1-.448-1-1s.448-1 1-1h1.9c-.422-2.513-2.388-4.483-4.9-4.91z" fill="#000" fill-rule="evenodd"/>
</svg>
