<svg width="16" height="16" viewBox="0 0 16 16" xmlns="http://www.w3.org/2000/svg">
  <title>
    tiles-filled-icon
  </title>
  <path d="M14 16h-3c-1.105 0-2-.895-2-2v-3c0-1.105.895-2 2-2h3c1.105 0 2 .895 2 2v3c0 1.105-.895 2-2 2zm0-9h-3c-1.105 0-2-.895-2-2V2c0-1.105.895-2 2-2h3c1.105 0 2 .895 2 2v3c0 1.105-.895 2-2 2zm-9 9H2c-1.105 0-2-.895-2-2v-3c0-1.105.895-2 2-2h3c1.105 0 2 .895 2 2v3c0 1.105-.895 2-2 2zm0-9H2C.895 7 0 6.105 0 5V2C0 .895.895 0 2 0h3c1.105 0 2 .895 2 2v3c0 1.105-.895 2-2 2z" fill="#000" fill-rule="evenodd"/>
</svg>
