<svg width="16" height="16" viewBox="0 0 16 16" xmlns="http://www.w3.org/2000/svg">
  <title>
    zoom-in-filled-icon
  </title>
  <path d="M11.206 12.617l3.09 3.086c.39.396 1.02.396 1.41 0 .392-.395.392-1.034 0-1.43l-3.08-3.08c.87-1.168 1.387-2.616 1.387-4.186C14.013 3.137 10.876 0 7.007 0 3.137 0 0 3.137 0 7.007c0 3.87 3.137 7.007 7.007 7.007 1.575 0 3.03-.52 4.2-1.397zM8 6h2c.552 0 1 .448 1 1s-.448 1-1 1H8v2c0 .552-.448 1-1 1s-1-.448-1-1V8H4c-.552 0-1-.448-1-1s.448-1 1-1h2V4c0-.552.448-1 1-1s1 .448 1 1v2z" fill="#000" fill-rule="evenodd"/>
</svg>
