<svg id="material-icon-spritesheet" style="display: none;">
    <!-- Home -->
    <symbol viewBox="0 -960 960 960" id="home--solid">
        <path d="M240-200h120v-240h240v240h120v-360L480-740 240-560v360Zm-80 80v-480l320-240 320 240v480H520v-240h-80v240H160Zm320-350Z"/>
    </symbol>
    <!-- Search -->
    <symbol viewBox="0 -960 960 960" id="search--solid">
        <path d="M784-120 532-372q-30 24-69 38t-83 14q-109 0-184.5-75.5T120-580q0-109 75.5-184.5T380-840q109 0 184.5 75.5T640-580q0 44-14 83t-38 69l252 252-56 56ZM380-400q75 0 127.5-52.5T560-580q0-75-52.5-127.5T380-760q-75 0-127.5 52.5T200-580q0 75 52.5 127.5T380-400Z"/>
    </symbol>
    <!-- Close -->
    <symbol viewBox="0 -960 960 960" id="close--solid">
        <path d="m256-200-56-56 224-224-224-224 56-56 224 224 224-224 56 56-224 224 224 224-56 56-224-224-224 224Z"/>
    </symbol>
    <!-- Menu -->
    <symbol viewBox="0 -960 960 960" id="menu--solid">
        <path d="M120-240v-80h720v80H120Zm0-200v-80h720v80H120Zm0-200v-80h720v80H120Z"/>
    </symbol>
</svg>