<?xml version="1.0" encoding="UTF-8"?>
<!DOCTYPE svg PUBLIC "-//W3C//DTD SVG 1.1//EN" "http://www.w3.org/Graphics/SVG/1.1/DTD/svg11.dtd">
<!-- Creator: CorelDRAW -->
<svg xmlns="http://www.w3.org/2000/svg" xml:space="preserve" width="6.82666in" height="6.82666in" style="shape-rendering:geometricPrecision; text-rendering:geometricPrecision; image-rendering:optimizeQuality; fill-rule:evenodd; clip-rule:evenodd"
viewBox="0 0 6.82666 6.82666"
 xmlns:xlink="http://www.w3.org/1999/xlink">
 <defs>
  <style type="text/css">
   <![CDATA[
    .fil1 {fill:none}
    .fil0 {fill:#212121;fill-rule:nonzero}
   ]]>
  </style>
 </defs>
 <g id="Layer_x0020_1">
  <metadata id="CorelCorpID_0Corel-Layer"/>
  <g id="_267725264">
   <path id="_267725312" class="fil0" d="M1.13685 1.79114l2.7472 0c0.0780748,0 0.148984,0.0318701 0.200319,0.0832047 0.0513346,0.0513346 0.0832047,0.122248 0.0832047,0.200319l0 2.16946c0,0.0780709 -0.0318701,0.148976 -0.0832047,0.200319 -0.0513425,0.0513346 -0.122248,0.0832047 -0.200319,0.0832047l-1.68676 0c-0.00566535,-0.0778504 -0.030185,-0.15048 -0.0689961,-0.213339l1.75576 0c0.019185,0 0.0367126,-0.00792913 0.0494843,-0.0207008 0.0127717,-0.0127717 0.0207008,-0.0302992 0.0207008,-0.0494843l0 -2.16946c0,-0.019185 -0.00792913,-0.0367126 -0.0207008,-0.0494843 -0.0127717,-0.0127717 -0.0302953,-0.0207008 -0.0494843,-0.0207008l-2.7472 0c-0.0191929,0 -0.0367205,0.00792913 -0.0494882,0.0206969 -0.0127677,0.0127677 -0.0206969,0.0302953 -0.0206969,0.0494882l0 2.16946c0,0.019189 0.00792913,0.0367126 0.0207008,0.0494843 0.0127717,0.0127717 0.0302992,0.0207008 0.0494843,0.0207008l0.185878 0c-0.038811,0.0628583 -0.0633268,0.135484 -0.0689921,0.213339l-0.116886 0c-0.0780709,0 -0.148984,-0.0318701 -0.200319,-0.0832047 -0.0513346,-0.0513346 -0.0832047,-0.122244 -0.0832047,-0.200319l0 -2.16946c0,-0.0780787 0.0318661,-0.148988 0.0832008,-0.200323 0.0513346,-0.0513346 0.122244,-0.0832008 0.200323,-0.0832008z"/>
   <path id="_267725192" class="fil0" d="M4.06091 3.33388l1.59943 0c0.086185,0 0.164461,0.0351929 0.221134,0.0918661 0.0566811,0.0566811 0.0918661,0.134969 0.0918661,0.221138l0 0.567768c0,0.0861654 -0.0351929,0.164445 -0.091874,0.221126 -0.0566811,0.0566811 -0.134961,0.091874 -0.221126,0.091874l-0.314091 0c-0.00566535,-0.0778543 -0.0301811,-0.15048 -0.0689921,-0.213339l0.383083 0c0.0272795,0 0.0521772,-0.0112559 0.0702913,-0.0293701 0.0181142,-0.0181142 0.0293701,-0.0430118 0.0293701,-0.0702913l0 -0.567768c0,-0.0272913 -0.011248,-0.052189 -0.0293622,-0.0703031 -0.0181142,-0.0181142 -0.0430079,-0.0293622 -0.0702992,-0.0293622l-1.59943 0 0 -0.213339zm0.34178 1.19377l-0.695488 0 0 -0.213339 0.76448 0c-0.038815,0.0628622 -0.0633268,0.135488 -0.0689921,0.213339z"/>
   <path id="_267725144" class="fil0" d="M4.06091 2.42783c-0.0589094,0 -0.106669,0.0477598 -0.106669,0.106669 0,0.0589094 0.0477598,0.106669 0.106669,0.106669l0.70939 0 0.540087 0.815142c0.0324449,0.0490157 0.0984882,0.0624449 0.147504,0.03 0.0490157,-0.0324449 0.0624449,-0.0984882 0.03,-0.147504l-0.567862 -0.857063c-0.0183583,-0.0322008 -0.0530039,-0.0539134 -0.0927244,-0.0539134l-0.766394 0z"/>
   <path id="_267725552" class="fil0" d="M4.87446 4.08943c0.130614,0 0.248882,0.0529567 0.334488,0.138563 0.0856063,0.0856063 0.138559,0.20387 0.138559,0.334484 0,0.130614 -0.0529528,0.248878 -0.138559,0.334484 -0.0856102,0.0856063 -0.203874,0.138559 -0.334488,0.138559 -0.130614,0 -0.248878,-0.0529528 -0.334484,-0.138559 -0.0856063,-0.0856063 -0.138559,-0.20387 -0.138559,-0.334484 0,-0.130614 0.0529528,-0.248878 0.138559,-0.334488 0.0856063,-0.0856063 0.20387,-0.138559 0.334484,-0.138559zm0.183654 0.289398c-0.0469882,-0.0469882 -0.111925,-0.0760591 -0.183654,-0.0760591 -0.0717283,0 -0.136661,0.0290669 -0.18365,0.0760551 -0.0469882,0.0469921 -0.0760551,0.111925 -0.0760551,0.183654 0,0.0717283 0.0290669,0.136661 0.0760551,0.18365 0.0469882,0.0469882 0.111921,0.0760551 0.18365,0.0760551 0.0717283,0 0.136661,-0.0290669 0.183654,-0.0760551 0.0469882,-0.0469882 0.0760551,-0.111921 0.0760551,-0.18365 0,-0.0717283 -0.0290669,-0.136661 -0.0760551,-0.18365z"/>
   <path id="_267725240" class="fil0" d="M1.72552 4.08943c0.130618,0 0.248882,0.0529567 0.334484,0.138563 0.0856063,0.0856024 0.138563,0.203866 0.138563,0.334484 0,0.130614 -0.0529528,0.248878 -0.138559,0.334484 -0.0856102,0.0856063 -0.203874,0.138559 -0.334488,0.138559 -0.130614,0 -0.248874,-0.0529528 -0.334484,-0.138559 -0.0856063,-0.0856063 -0.138559,-0.20387 -0.138559,-0.334484 0,-0.130614 0.0529528,-0.248878 0.138559,-0.334484 0.0856063,-0.0856063 0.20387,-0.138563 0.334484,-0.138563zm0.18365 0.289398c-0.0469843,-0.0469882 -0.111921,-0.0760591 -0.18365,-0.0760591 -0.0717283,0 -0.136661,0.0290709 -0.18365,0.0760591 -0.0469882,0.0469882 -0.0760551,0.111921 -0.0760551,0.18365 0,0.0717283 0.0290669,0.136661 0.0760551,0.18365 0.0469921,0.0469882 0.111925,0.0760551 0.18365,0.0760551 0.0717283,0 0.136661,-0.0290669 0.183654,-0.0760551 0.0469882,-0.0469882 0.0760551,-0.111921 0.0760551,-0.18365 0,-0.0717283 -0.0290709,-0.136665 -0.0760591,-0.18365z"/>
   <path id="_267725432" class="fil0" d="M5.86667 3.90373c0.0589094,0 0.106669,-0.0477598 0.106669,-0.106669 0,-0.0589094 -0.0477598,-0.106669 -0.106669,-0.106669l-0.473417 0c-0.0589094,0 -0.106669,0.0477598 -0.106669,0.106669 0,0.0589094 0.0477598,0.106669 0.106669,0.106669l0.473417 0z"/>
  </g>
 </g>
 <rect class="fil1" width="6.82666" height="6.82666"/>
</svg>
