<?xml version="1.0" encoding="UTF-8"?>
<!DOCTYPE svg PUBLIC "-//W3C//DTD SVG 1.1//EN" "http://www.w3.org/Graphics/SVG/1.1/DTD/svg11.dtd">
<!-- Creator: CorelDRAW -->
<svg xmlns="http://www.w3.org/2000/svg" xml:space="preserve" width="6.82666in" height="6.82666in" style="shape-rendering:geometricPrecision; text-rendering:geometricPrecision; image-rendering:optimizeQuality; fill-rule:evenodd; clip-rule:evenodd"
viewBox="0 0 6.82666 6.82666"
 xmlns:xlink="http://www.w3.org/1999/xlink">
 <defs>
  <style type="text/css">
   <![CDATA[
    .fil1 {fill:none}
    .fil0 {fill:#212121;fill-rule:nonzero}
   ]]>
  </style>
 </defs>
 <g id="Layer_x0020_1">
  <metadata id="CorelCorpID_0Corel-Layer"/>
  <g id="_267726272">
   <path id="_267725864" class="fil0" d="M2.06696 4.00575l-0.849248 -0.586272 -0.257717 -0.177909 0.313075 0 4.14455 0 0.0977362 0 0 0.0977362 0 0.966283 0 0.0977362 -0.0977362 0 -1.98125 0c-0.118055,0 -0.179406,0.000783465 -0.233654,0.00147244 -0.509882,0.00649213 -0.547634,0.00697244 -1.13576,-0.399047zm-0.480811 -0.568705l0.591531 0.408358c0.537201,0.370866 0.570673,0.370437 1.02274,0.364681 0.082437,-0.00104724 0.175772,-0.00223622 0.235949,-0.00223622l1.88351 0 0 -0.770803 -3.73373 0z"/>
   <path id="_267725888" class="fil0" d="M2.93759 3.3015l0.293449 -0.698823c0.0158898,-0.0378504 0.033126,-0.0756969 0.0605748,-0.108823 0.036622,-0.0442047 0.0841102,-0.0733898 0.151803,-0.0733898l1.04244 0c0.0594685,0 0.10648,0.0229567 0.143236,0.0597165 0.0358268,0.0358268 0.0589803,0.0840197 0.0729567,0.133949l0.195634 0.698827 -0.187835 0.052689 -0.195638 -0.698827c-0.00574803,-0.0205433 -0.0134567,-0.038563 -0.0233228,-0.0484291 -0.00150394,-0.00150394 -0.00319291,-0.00244882 -0.0050315,-0.00244882l-1.04244 0c-0.000437008,0 -0.000200787,0.000948819 -0.00138189,0.00237795 -0.0103622,0.0125 -0.0206535,0.0358031 -0.0307953,0.0599528l-0.293449 0.698827 -0.180201 -0.0755984z"/>
   <polygon id="_267726416" class="fil0" points="3.25847,2.83102 4.6355,2.83102 4.6355,3.0265 3.25847,3.0265 "/>
   <path id="_267725936" class="fil0" d="M5.41762 3.7247c-0.0539764,0 -0.0977402,0.0437638 -0.0977402,0.0977402 0,0.0539764 0.0437638,0.0977362 0.0977402,0.0977362l0.351299 0c0.0539803,0 0.0977402,-0.0437598 0.0977402,-0.0977362 0,-0.0539764 -0.0437598,-0.0977402 -0.0977402,-0.0977402l-0.351299 0z"/>
  </g>
 </g>
 <rect class="fil1" width="6.82666" height="6.82666"/>
</svg>
