<?xml version="1.0" encoding="UTF-8"?>
<!DOCTYPE svg PUBLIC "-//W3C//DTD SVG 1.1//EN" "http://www.w3.org/Graphics/SVG/1.1/DTD/svg11.dtd">
<!-- Creator: CorelDRAW -->
<svg xmlns="http://www.w3.org/2000/svg" xml:space="preserve" width="6.82666in" height="6.82666in" style="shape-rendering:geometricPrecision; text-rendering:geometricPrecision; image-rendering:optimizeQuality; fill-rule:evenodd; clip-rule:evenodd"
viewBox="0 0 6.82666 6.82666"
 xmlns:xlink="http://www.w3.org/1999/xlink">
 <defs>
  <style type="text/css">
   <![CDATA[
    .fil1 {fill:none}
    .fil0 {fill:#212121;fill-rule:nonzero}
   ]]>
  </style>
 </defs>
 <g id="Layer_x0020_1">
  <metadata id="CorelCorpID_0Corel-Layer"/>
  <path class="fil0" d="M4.44631 2.74437c0.421661,0 0.803417,0.170925 1.07976,0.447264 0.276339,0.276339 0.447264,0.658098 0.447264,1.07976 0,0.421661 -0.170921,0.803417 -0.447264,1.07976 -0.276339,0.276343 -0.658094,0.447264 -1.07976,0.447264 -0.421661,0 -0.803421,-0.170921 -1.07976,-0.447264 -0.276343,-0.276339 -0.447264,-0.658094 -0.447264,-1.07976 0,-0.421661 0.170925,-0.803421 0.447264,-1.07976 0.276339,-0.276339 0.658098,-0.447264 1.07976,-0.447264zm0.928921 0.598098c-0.23772,-0.23772 -0.566146,-0.38476 -0.928921,-0.38476 -0.362776,0 -0.691205,0.147039 -0.928925,0.38476 -0.23772,0.23772 -0.38476,0.56615 -0.38476,0.928925 0,0.362776 0.147035,0.691201 0.38476,0.928921 0.237717,0.23772 0.56615,0.38476 0.928925,0.38476 0.362776,0 0.691201,-0.147035 0.928921,-0.38476 0.237724,-0.23772 0.38476,-0.566146 0.38476,-0.928921 0,-0.362776 -0.147039,-0.691205 -0.38476,-0.928925z"/>
  <path class="fil0" d="M1.73474 4.03561c0.243378,0 0.463736,0.0986654 0.623236,0.258169 0.159504,0.1595 0.258169,0.379858 0.258169,0.623236 0,0.243378 -0.0986654,0.463736 -0.258165,0.62324 -0.159504,0.1595 -0.379862,0.258165 -0.62324,0.258165 -0.243378,0 -0.463736,-0.0986654 -0.62324,-0.258165 -0.1595,-0.159504 -0.258165,-0.379862 -0.258165,-0.62324 0,-0.243378 0.0986614,-0.463732 0.258165,-0.623236 0.159508,-0.159508 0.379862,-0.258169 0.62324,-0.258169zm0.472402 0.409004c-0.120882,-0.120886 -0.287909,-0.195665 -0.472402,-0.195665 -0.184492,0 -0.351516,0.0747756 -0.472406,0.195665 -0.120886,0.120886 -0.195661,0.287909 -0.195661,0.472402 0,0.184492 0.0747795,0.35152 0.195661,0.472406 0.120886,0.120882 0.287913,0.195661 0.472406,0.195661 0.184492,0 0.35152,-0.0747795 0.472406,-0.195661 0.120882,-0.120886 0.195661,-0.287913 0.195661,-0.472406 0,-0.184492 -0.0747795,-0.35152 -0.195665,-0.472402z"/>
  <path class="fil0" d="M4.33964 4.2714c0,0.0589094 0.0477598,0.106669 0.106669,0.106669 0.0589094,0 0.106669,-0.0477598 0.106669,-0.106669l0 -3.02384c0.0617087,-0.0138661 0.134894,-0.00505906 0.205949,0.0228071 0.0669724,0.0262638 0.130461,0.0691142 0.180146,0.125882 0.0485472,0.0554685 0.0839528,0.124681 0.0962441,0.205047 0.0197874,0.129406 -0.0197598,0.289693 -0.157516,0.47322 -0.0352087,0.0469409 -0.0256929,0.113543 0.021248,0.148752 0.0469409,0.0352087 0.113543,0.0256929 0.148752,-0.021248 0.176811,-0.235559 0.226012,-0.451504 0.19835,-0.632394 -0.0187913,-0.122846 -0.0728898,-0.22861 -0.147079,-0.313378 -0.0730512,-0.0834646 -0.165567,-0.146142 -0.262642,-0.184213 -0.146185,-0.0573307 -0.305799,-0.0598031 -0.43135,0.00448031 -0.038437,0.016126 -0.0654409,0.0541142 -0.0654409,0.0984055l0 3.09648z"/>
  <path class="fil0" d="M1.63015 4.89743c-0.010815,0.0577559 0.0272441,0.11335 0.085,0.124165 0.0577559,0.010815 0.11335,-0.0272441 0.124165,-0.085 0.189791,-1.01222 0.346063,-1.61132 0.697567,-1.96773 0.349039,-0.353917 0.911795,-0.486437 1.91818,-0.569543 0.0586811,-0.00483071 0.102331,-0.0563228 0.0975,-0.115004 -0.00483071,-0.0586811 -0.0563228,-0.102331 -0.115004,-0.0975 -1.05957,0.0874961 -1.65894,0.23398 -2.05234,0.632882 -0.390949,0.396406 -0.557488,1.024 -0.755063,2.07773z"/>
  <path class="fil0" d="M2.90204 2.54991c0,0.0589094 0.0477598,0.106669 0.106669,0.106669 0.0589094,0 0.106669,-0.0477598 0.106669,-0.106669l0 -0.602724c0,-0.0589094 -0.0477598,-0.106669 -0.106669,-0.106669l-0.499232 0c-0.0589094,0 -0.106669,0.0477598 -0.106669,0.106669 0,0.0589094 0.0477598,0.106669 0.106669,0.106669l0.392563 0 0 0.496055z"/>
 </g>
 <rect class="fil1" width="6.82666" height="6.82666"/>
</svg>
