<?xml version="1.0" encoding="UTF-8"?>
<!DOCTYPE svg PUBLIC "-//W3C//DTD SVG 1.1//EN" "http://www.w3.org/Graphics/SVG/1.1/DTD/svg11.dtd">
<!-- Creator: CorelDRAW -->
<svg xmlns="http://www.w3.org/2000/svg" xml:space="preserve" width="6.82666in" height="6.82666in" style="shape-rendering:geometricPrecision; text-rendering:geometricPrecision; image-rendering:optimizeQuality; fill-rule:evenodd; clip-rule:evenodd"
viewBox="0 0 6.82666 6.82666"
 xmlns:xlink="http://www.w3.org/1999/xlink">
 <defs>
  <style type="text/css">
   <![CDATA[
    .fil1 {fill:none}
    .fil0 {fill:#212121;fill-rule:nonzero}
   ]]>
  </style>
 </defs>
 <g id="Layer_x0020_1">
  <metadata id="CorelCorpID_0Corel-Layer"/>
  <g id="_267727928">
   <path id="_267728240" class="fil0" d="M0.96 2.73893l1.48282 0 0.071252 0.0275039 0.417055 0.374685 0.777004 0 0.161898 -0.340937 0.0290827 -0.061252 0.0671693 0 1.2971 0c0.0847441,0 0.161713,0.0345945 0.217441,0.0903228 0.0557283,0.0557244 0.0903228,0.132697 0.0903228,0.217437l0 1.08591 0 0.106669 -0.106669 0 -0.701213 0c-0.0265709,-0.0742913 -0.0693071,-0.140898 -0.123976,-0.195567 -0.0060748,-0.0060748 -0.0122953,-0.0119961 -0.0186575,-0.0177717l0.737177 0 0 -0.979236c0,-0.0258543 -0.0106575,-0.0494409 -0.0278189,-0.0666024 -0.0171614,-0.0171614 -0.040748,-0.0278189 -0.0666063,-0.0278189l-1.22994 0 -0.161898 0.340937 -0.0290866 0.061252 -0.0671654 0 -0.884807 0 -0.071252 -0.0275039 -0.417055 -0.374685 -1.33552 0 0 1.07366 0.503823 0c-0.0063622,0.00577559 -0.0125827,0.0116969 -0.0186575,0.0177717 -0.0546693,0.0546693 -0.0974055,0.121276 -0.123976,0.195567l-0.467858 0 -0.106669 0 0 -0.106669 0 -1.287 0 -0.106669 0.106669 0zm2.8085 1.50033l-1.34587 0c-0.0265709,-0.0742913 -0.0693071,-0.140898 -0.123976,-0.195567 -0.0060748,-0.0060748 -0.0122953,-0.0119961 -0.0186575,-0.0177717l1.63113 0c-0.0063622,0.00577559 -0.0125827,0.0116969 -0.0186575,0.0177717 -0.0546693,0.0546693 -0.0974055,0.121276 -0.123976,0.195567z"/>
   <path id="_267728768" class="fil0" d="M5.46448 3.5271l0.402185 0 0.106669 0 0 0.106669 0 0.296154c0,0.0851811 -0.0347717,0.162543 -0.0907874,0.218551 -0.0560079,0.0560157 -0.13337,0.0907874 -0.218551,0.0907874l-0.199516 0 -0.106669 0 0 -0.106669 0 -0.498823 0 -0.106669 0.106669 0zm0.295516 0.213339l-0.188846 0 0 0.285484 0.0928465 0c0.0262874,0 0.0502717,-0.0108346 0.0677165,-0.0282835 0.0174488,-0.0174449 0.0282835,-0.0414291 0.0282835,-0.0677165l0 -0.189484z"/>
   <path id="_267728408" class="fil0" d="M1.92524 3.88901c0.145815,0 0.277843,0.0591181 0.373409,0.154685 0.0955669,0.0955669 0.154685,0.227594 0.154685,0.373409 0,0.145815 -0.0591181,0.277846 -0.154685,0.373413 -0.0955669,0.0955669 -0.227594,0.154685 -0.373409,0.154685 -0.145815,0 -0.277843,-0.0591181 -0.373409,-0.154685 -0.0955669,-0.0955669 -0.154685,-0.227598 -0.154685,-0.373413 0,-0.145815 0.0591181,-0.277843 0.154685,-0.373409 0.095563,-0.0955669 0.227591,-0.154685 0.373409,-0.154685zm0.222575 0.30552c-0.0569488,-0.0569488 -0.135646,-0.0921811 -0.222575,-0.0921811 -0.0869291,0 -0.165626,0.0352283 -0.222575,0.0921811 -0.0569488,0.0569488 -0.0921811,0.135646 -0.0921811,0.222575 0,0.0869291 0.0352323,0.16563 0.0921811,0.222579 0.0569488,0.0569488 0.135646,0.0921811 0.222575,0.0921811 0.0869291,0 0.165626,-0.0352323 0.222575,-0.0921811 0.0569488,-0.0569488 0.0921811,-0.13565 0.0921811,-0.222579 0,-0.0869291 -0.0352323,-0.165626 -0.0921811,-0.222575z"/>
   <path id="_267728576" class="fil0" d="M4.26588 3.88901c0.145819,0 0.277846,0.0591181 0.373409,0.154685 0.0955669,0.0955669 0.154685,0.227594 0.154685,0.373409 0,0.145815 -0.0591181,0.277846 -0.154685,0.373413 -0.0955669,0.0955669 -0.227594,0.154685 -0.373409,0.154685 -0.145815,0 -0.277843,-0.0591181 -0.373409,-0.154685 -0.0955669,-0.0955669 -0.154685,-0.227598 -0.154685,-0.373413 0,-0.145815 0.0591181,-0.277843 0.154685,-0.373409 0.0955669,-0.0955669 0.227594,-0.154685 0.373409,-0.154685zm0.222575 0.30552c-0.0569488,-0.0569528 -0.135646,-0.0921811 -0.222575,-0.0921811 -0.0869291,0 -0.165626,0.0352323 -0.222575,0.0921811 -0.0569488,0.0569488 -0.0921811,0.135646 -0.0921811,0.222575 0,0.0869291 0.0352323,0.16563 0.0921811,0.222579 0.0569488,0.0569488 0.135646,0.0921811 0.222575,0.0921811 0.0869291,0 0.165626,-0.0352323 0.222575,-0.0921811 0.0569488,-0.0569488 0.0921811,-0.13565 0.0921811,-0.222579 0,-0.0869291 -0.0352323,-0.165626 -0.0921811,-0.222575z"/>
   <path id="_267728288" class="fil0" d="M3.85632 2.85552c0.0248504,0.0531575 0.0880945,0.0761024 0.141252,0.051252 0.0531575,-0.0248504 0.0761024,-0.0880945 0.051252,-0.141252l-0.384815 -0.822787c-0.0248504,-0.0531575 -0.0880945,-0.0761024 -0.141252,-0.051252 -0.0531575,0.0248504 -0.0761024,0.0880945 -0.051252,0.141252l0.384815 0.822787z"/>
   <polygon id="_267727976" class="fil0" points="3.80829,3.13294 3.31061,2.77098 3.43561,2.59847 3.93329,2.96044 "/>
   <path id="_267727328" class="fil0" d="M3.49143 2.38844c0.0641535,0.0457874 0.091374,0.12239 0.0835,0.209232 -0.00607874,0.067122 -0.0342913,0.142902 -0.0831772,0.211402 -0.0490433,0.0687165 -0.111646,0.120154 -0.173193,0.147748 -0.0794528,0.035622 -0.160614,0.0348071 -0.224634,-0.0108819 -0.0641575,-0.0457874 -0.0913661,-0.122398 -0.0835,-0.209236 0.00608661,-0.067126 0.0342953,-0.142894 0.0831772,-0.211394l3.93701e-006 -7.87402e-006c0.0490394,-0.0687087 0.111642,-0.12015 0.173189,-0.147744 0.0794488,-0.0356142 0.160614,-0.034811 0.224634,0.0108819zm-0.128169 0.190067c0.00105906,-0.0117126 0.00691732,-0.015252 0.00483858,-0.0167362 -0.00194488,-0.00138583 -0.00379528,0.00509449 -0.0146339,0.00995276 -0.0287402,0.0128858 -0.0598622,0.0395472 -0.0865236,0.0769055l-3.93701e-006 7.87402e-006c-0.0268189,0.0375787 -0.0419961,0.075811 -0.0448425,0.107232 -0.00105906,0.0117126 -0.00691732,0.0152559 -0.00483858,0.0167402 0.00194094,0.00138583 0.00379528,-0.00509449 0.0146339,-0.00995276 0.0287441,-0.0128858 0.0598622,-0.0395472 0.0865315,-0.0769134 0.0268189,-0.0375787 0.0419921,-0.075811 0.0448386,-0.107236z"/>
   <path id="_267727352" class="fil0" d="M2.32478 2.85552c0.0248504,0.0531575 0.0880945,0.0761024 0.141252,0.051252 0.0531575,-0.0248504 0.0761024,-0.0880945 0.051252,-0.141252l-0.384811 -0.822787c-0.0248504,-0.0531575 -0.0880945,-0.0761024 -0.141252,-0.051252 -0.0531575,0.0248504 -0.0761024,0.0880945 -0.051252,0.141252l0.384811 0.822787z"/>
  </g>
 </g>
 <rect class="fil1" width="6.82666" height="6.82666"/>
</svg>
