<?xml version="1.0" encoding="UTF-8"?>
<!DOCTYPE svg PUBLIC "-//W3C//DTD SVG 1.1//EN" "http://www.w3.org/Graphics/SVG/1.1/DTD/svg11.dtd">
<!-- Creator: CorelDRAW -->
<svg xmlns="http://www.w3.org/2000/svg" xml:space="preserve" width="6.82666in" height="6.82666in" style="shape-rendering:geometricPrecision; text-rendering:geometricPrecision; image-rendering:optimizeQuality; fill-rule:evenodd; clip-rule:evenodd"
viewBox="0 0 6.82666 6.82666"
 xmlns:xlink="http://www.w3.org/1999/xlink">
 <defs>
  <style type="text/css">
   <![CDATA[
    .fil1 {fill:none}
    .fil0 {fill:#212121;fill-rule:nonzero}
   ]]>
  </style>
 </defs>
 <g id="Layer_x0020_1">
  <metadata id="CorelCorpID_0Corel-Layer"/>
  <path class="fil0" d="M4.84949 2.95277c0.0589094,0 0.106669,-0.0477598 0.106669,-0.106669 0,-0.0589094 -0.0477598,-0.106669 -0.106669,-0.106669l-1.54292 0 -0.181661 -0.272496 -0.088752 0.0591654 0.088752 -0.0591693c-0.0206772,-0.0310197 -0.0547953,-0.0477047 -0.0894803,-0.0475l-0.425941 0c-0.0375079,0 -0.0704961,0.0193661 -0.0895118,0.0486417l-0.180531 0.270803c-0.477559,0.00577559 -0.972197,0.328898 -1.22397,0.667776 -0.0897126,0.120756 -0.150634,0.245878 -0.17198,0.362945 -0.024185,0.132614 0.000688976,0.254508 0.0877402,0.351248 0.122902,0.136575 0.371126,0.210181 0.784646,0.1655l0.00230709 -0.000102362 1.1811e-005 9.44882e-005 0.00122441 -0.000149606 1.22132 -0.0538346 -0.00458268 -0.106252 0.00469685 0.106563c0.00472835,-0.000208661 0.00936614,-0.000720472 0.0139055,-0.00151969 0.174346,-0.0216693 0.322291,-0.0949252 0.44465,-0.218138 0.107185,-0.107929 0.193,-0.253472 0.258063,-0.435476l1.17209 -0.25385c0.0575276,-0.0124252 0.0940906,-0.0691378 0.0816654,-0.126665 -0.0124252,-0.0575276 -0.0691378,-0.0940906 -0.126665,-0.0816654l-1.22609 0.265543c-0.0380787,0.00643307 -0.0713307,0.0333898 -0.0839094,0.0727087l0.000311024 9.84252e-005c-0.0567795,0.177457 -0.132008,0.314362 -0.226299,0.409307 -0.088689,0.0893031 -0.19628,0.142083 -0.323378,0.157122l-1.21498 0.0535591c-0.00497244,-0.000161417 -0.0100157,1.5748e-005 -0.0151063,0.000570866l2.3622e-005 0.000232283c-0.337472,0.0367008 -0.526079,-0.00781496 -0.605571,-0.0961496 -0.0390709,-0.0434213 -0.049315,-0.103185 -0.0369055,-0.17124 0.0152441,-0.0836063 0.0626535,-0.178217 0.13365,-0.27378 0.22715,-0.305732 0.676787,-0.596945 1.09762,-0.581232 0.0384843,0.00440945 0.0780197,-0.012374 0.100984,-0.0468189l-0.088752 -0.0591693 0.088752 0.0591654 0.181661 -0.272496 0.312504 0 0.180902 0.271358c0.0190157,0.0292756 0.0520039,0.0486417 0.0895118,0.0486417l1.6 0z"/>
  <path class="fil0" d="M5.26176 2.46714l-0.248472 0.386075 0.00269291 0.230504 0.66624 -0.0607717 -0.0420394 -0.210476 -0.141252 -0.348579 -0.237169 0.00324803zm-0.444677 0.297555l0.296382 -0.46052 0.0308661 -0.0479646 0.0574646 -0.000787402 0.367386 -0.0050315 0.072752 -0.000996063 0.027252 0.067248 0.172449 0.425575 0.00583071 0.0191654 0.0670709 0.335783 0.0231457 0.115894 -0.118146 0.0107756 -0.898878 0.0819961 -0.114488 0.0104449 -0.00134646 -0.115445 -0.00440945 -0.377803 0.0166693 -0.0583346z"/>
  <polygon class="fil0" points="1.96741,4.2536 1.86074,4.78693 1.65158,4.74526 1.75824,4.21193 "/>
  <polygon class="fil0" points="2.77722,4.14221 2.77722,4.77048 2.56388,4.77048 2.56388,4.14221 "/>
  <path class="fil0" d="M1.21783 4.5211l0.0677835 0.216839 2.07055 0 0 0.213339 -2.14661 0c-0.046248,0.00096063 -0.0894843,-0.0284724 -0.103976,-0.0748425l0.101811 -0.0318268 -0.101665 0.0316654 -0.0912283 -0.291843 0.203331 -0.0633307z"/>
  <polygon class="fil0" points="2.9295,1.98205 2.9295,2.5261 2.71616,2.5261 2.71616,1.98205 "/>
  <path class="fil0" d="M1.32949 1.93467c-0.0589094,0 -0.106669,0.0477598 -0.106669,0.106669 0,0.0589094 0.0477598,0.106669 0.106669,0.106669l2.98667 0c0.0589094,0 0.106669,-0.0477598 0.106669,-0.106669 0,-0.0589094 -0.0477598,-0.106669 -0.106669,-0.106669l-2.98667 0z"/>
  <path class="fil0" d="M1.45498 3.1661c-0.0589094,0 -0.106669,0.0477598 -0.106669,0.106669 0,0.0589094 0.0477598,0.106669 0.106669,0.106669l0.994484 0 0 0.213327 -1.3333 0c-0.0589094,0 -0.106669,0.0477598 -0.106669,0.106669 0,0.0589094 0.0477598,0.106669 0.106669,0.106669l1.43997 0c0.0589094,0 0.106669,-0.0477598 0.106669,-0.106669l0 -0.426665c0,-0.0589094 -0.0477598,-0.106669 -0.106669,-0.106669l-1.10115 0z"/>
  <polygon class="fil0" points="1.94281,3.27277 1.94281,3.69943 1.72948,3.69943 1.72948,3.27277 "/>
 </g>
 <rect class="fil1" width="6.82666" height="6.82666"/>
</svg>
