<?xml version="1.0" encoding="UTF-8"?>
<!DOCTYPE svg PUBLIC "-//W3C//DTD SVG 1.1//EN" "http://www.w3.org/Graphics/SVG/1.1/DTD/svg11.dtd">
<!-- Creator: CorelDRAW -->
<svg xmlns="http://www.w3.org/2000/svg" xml:space="preserve" width="6.82666in" height="6.82666in" style="shape-rendering:geometricPrecision; text-rendering:geometricPrecision; image-rendering:optimizeQuality; fill-rule:evenodd; clip-rule:evenodd"
viewBox="0 0 6.82666 6.82666"
 xmlns:xlink="http://www.w3.org/1999/xlink">
 <defs>
  <style type="text/css">
   <![CDATA[
    .fil1 {fill:none}
    .fil0 {fill:#212121;fill-rule:nonzero}
   ]]>
  </style>
 </defs>
 <g id="Layer_x0020_1">
  <metadata id="CorelCorpID_0Corel-Layer"/>
  <path class="fil0" d="M3.80381 1.26819c0.146362,0.333016 0.137323,0.79761 0.12752,1.30152 -0.00229921,0.118122 -0.00464567,0.238713 -0.00464567,0.390591 0,0.675913 -0.0483976,1.28909 -0.126638,1.73404 -0.0868071,0.493661 -0.229232,0.799 -0.406701,0.799 -0.177461,0 -0.319894,-0.305339 -0.406697,-0.799 -0.0782402,-0.444949 -0.126638,-1.05813 -0.126638,-1.73404 0,-0.149244 -0.00172047,-0.259157 -0.00340551,-0.367008 -0.0080315,-0.513657 -0.015437,-0.986941 0.126256,-1.32798 0.0512441,-0.123339 0.114236,-0.213516 0.18337,-0.272094 0.0692244,-0.0586614 0.144929,-0.0868189 0.222717,-0.086126 0.0768346,0.000685039 0.151409,0.0296732 0.219614,0.085311 0.0741299,0.0604724 0.141457,0.153398 0.195248,0.275783zm-0.0849843 1.29819c0.00932677,-0.479323 0.0179252,-0.921256 -0.110016,-1.21235 -0.0401535,-0.0913583 -0.0863583,-0.157417 -0.134413,-0.196618 -0.0302992,-0.0247165 -0.0598898,-0.0375669 -0.0871181,-0.0378071 -0.0262795,-0.000232283 -0.0545787,0.0115827 -0.0835433,0.036126 -0.0439843,0.0372717 -0.0864409,0.100366 -0.124205,0.19126 -0.12515,0.30122 -0.118087,0.752839 -0.110421,1.24298 0.00209843,0.134283 0.00424016,0.271114 0.00424016,0.370339 0,0.664126 0.047122,1.26415 0.123299,1.69737 0.0676102,0.384504 0.138524,0.622331 0.196697,0.622331 0.0581772,0 0.129087,-0.237827 0.196701,-0.622331 0.0761772,-0.433217 0.123299,-1.03324 0.123299,-1.69737 0,-0.112421 0.00276772,-0.254575 0.00548031,-0.393921z"/>
  <path class="fil0" d="M3.03452 2.66039l-1.4363 0.952913 -0.137957 0.117047 -0.013752 0.00958268c-0.014437,0.00875197 -0.0230709,0.0303307 -0.0283819,0.0592047 -0.00699213,0.0380118 -0.00700394,0.0859921 -0.00436614,0.137736 0.0196024,-0.00425984 0.0470472,-0.0153425 0.0823701,-0.0332874l0.00875197 -0.00375197c0.306728,-0.122413 0.584343,-0.225035 0.828406,-0.304846 0.247673,-0.0809882 0.465047,-0.140031 0.648118,-0.174217l0.0383307 0.209165c-0.171748,0.0320709 -0.380043,0.0888898 -0.620614,0.167555 -0.242465,0.0792913 -0.513598,0.179315 -0.80963,0.297343 -0.0842913,0.0424764 -0.155846,0.0609409 -0.214724,0.0555394 -0.0886654,-0.00812205 -0.14465,-0.0568622 -0.168181,-0.145917l-0.00333465 -0.02c-0.00526378,-0.0783071 -0.00696457,-0.154752 0.00570866,-0.22365 0.015122,-0.0822205 0.0496969,-0.150886 0.117693,-0.196268l0.13874 -0.117709 0.01 -0.0075 1.44161 -0.956445 0.117504 0.177504z"/>
  <path class="fil0" d="M3.90965 2.48288l1.44161 0.956445 0.01 0.0075 0.13874 0.117709c0.0679961,0.0453819 0.102571,0.114047 0.117693,0.196268 0.0126732,0.0688976 0.0109724,0.145343 0.00570866,0.22365l-0.00333465 0.02c-0.0235315,0.0890551 -0.0795157,0.137795 -0.168181,0.145917 -0.058878,0.00540157 -0.130433,-0.013063 -0.214724,-0.0555394 -0.296031,-0.118028 -0.567165,-0.218051 -0.80963,-0.297343 -0.240571,-0.0786654 -0.448866,-0.135484 -0.620614,-0.167555l0.0383307 -0.209165c0.183071,0.034185 0.400445,0.0932283 0.648118,0.174217 0.244063,0.079811 0.521677,0.182433 0.828406,0.304846l0.00875197 0.00375197c0.0353228,0.0179449 0.0627677,0.0290276 0.0823701,0.0332874 0.0026378,-0.0517441 0.00262598,-0.0997244 -0.00436614,-0.137736 -0.00531102,-0.028874 -0.0139449,-0.0504528 -0.0283819,-0.0592047l-0.013752 -0.00958268 -0.137957 -0.117047 -1.4363 -0.952913 0.117504 -0.177504z"/>
  <path class="fil0" d="M3.50122 5.38667c0,-0.0589094 -0.0477598,-0.106669 -0.106669,-0.106669 -0.0589094,0 -0.106669,0.0477598 -0.106669,0.106669l0 0.426665c0,0.0589094 0.0477598,0.106669 0.106669,0.106669 0.0589094,0 0.106669,-0.0477598 0.106669,-0.106669l0 -0.426665z"/>
  <path class="fil0" d="M3.1296 4.77315c-0.0780906,0.0756969 -0.190028,0.18687 -0.274654,0.305087 -0.0346063,0.0483425 -0.0644291,0.0971102 -0.0841693,0.143138 0.0244331,-0.0173583 0.050378,-0.0363543 0.0765,-0.0554803 0.0917441,-0.0671732 0.185429,-0.135776 0.256197,-0.163114l0.0766693 0.198331c-0.0437677,0.0169094 -0.126256,0.077311 -0.207031,0.136453 -0.0793701,0.0581181 -0.157299,0.115177 -0.217382,0.143642 -0.0919606,0.0435669 -0.16428,0.0374685 -0.205291,-0.0491181l-0.00666535 -0.0191654c-0.0384961,-0.150016 0.0327402,-0.312035 0.137843,-0.45885 0.0935669,-0.130709 0.21502,-0.251386 0.299654,-0.333425l0.148331 0.152504z"/>
  <path class="fil0" d="M3.76722 4.62064c0.0846339,0.0820394 0.206087,0.202717 0.299654,0.333425 0.105102,0.146815 0.176339,0.308835 0.137843,0.45885l-0.00666535 0.0191654c-0.0410118,0.0865866 -0.113331,0.092685 -0.205291,0.0491181 -0.0600827,-0.0284646 -0.138012,-0.0855236 -0.217382,-0.143642 -0.0807756,-0.0591417 -0.163264,-0.119543 -0.207031,-0.136453l0.0766693 -0.198331c0.0707677,0.0273386 0.164453,0.0959409 0.256197,0.163114 0.026122,0.019126 0.0520669,0.038122 0.0765,0.0554803 -0.0197402,-0.0460276 -0.049563,-0.0947953 -0.0841693,-0.143138 -0.084626,-0.118217 -0.196563,-0.22939 -0.274654,-0.305087l0.148331 -0.152504z"/>
  <path class="fil0" d="M2.92425 1.50039c0.30772,-0.136126 0.615453,-0.133488 0.923169,0l-0.0841654 0.195c-0.251051,-0.108906 -0.502114,-0.111059 -0.753169,0l-0.0858346 -0.195z"/>
 </g>
 <rect class="fil1" width="6.82666" height="6.82666"/>
</svg>
