<?xml version="1.0" encoding="UTF-8"?>
<!DOCTYPE svg PUBLIC "-//W3C//DTD SVG 1.1//EN" "http://www.w3.org/Graphics/SVG/1.1/DTD/svg11.dtd">
<!-- Creator: CorelDRAW -->
<svg xmlns="http://www.w3.org/2000/svg" xml:space="preserve" width="6.82666in" height="6.82666in" style="shape-rendering:geometricPrecision; text-rendering:geometricPrecision; image-rendering:optimizeQuality; fill-rule:evenodd; clip-rule:evenodd"
viewBox="0 0 6.82666 6.82666"
 xmlns:xlink="http://www.w3.org/1999/xlink">
 <defs>
  <style type="text/css">
   <![CDATA[
    .fil1 {fill:none}
    .fil0 {fill:#212121;fill-rule:nonzero}
   ]]>
  </style>
 </defs>
 <g id="Layer_x0020_1">
  <metadata id="CorelCorpID_0Corel-Layer"/>
  <path class="fil0" d="M2.57766 1.36264l1.08061 0c0.0317913,0 0.0603307,0.0139173 0.079874,0.0359843l0.0322913 0.0314685c0.392063,0.382134 0.620575,0.60485 1.00686,0.908539l0.799362 0.129677c0.107354,0.0174134 0.207106,0.0598346 0.278941,0.124488 0.0727047,0.065437 0.117728,0.15165 0.117728,0.256516l0 0.552c0,0.107425 -0.0480669,0.204398 -0.125504,0.274091 -0.0153465,0.013811 -0.0318661,0.0265433 -0.0493898,0.0380512 -0.0375236,-0.0610118 -0.0805787,-0.11826 -0.128476,-0.171031 0.0128701,-0.00727165 0.0247323,-0.0157835 0.0353622,-0.0253504 0.0337283,-0.0303583 0.0546693,-0.0713898 0.0546693,-0.11576l0 -0.552c0,-0.0389882 -0.0179331,-0.072122 -0.0468937,-0.098185 -0.0410472,-0.0369449 -0.101937,-0.0618189 -0.169768,-0.0728189l-0.818417 -0.132768c-0.0201929,-0.00157874 -0.0401614,-0.00890945 -0.0573071,-0.0223189l0.000244094 -0.000311024c-0.410024,-0.320701 -0.642157,-0.546953 -1.04574,-0.940315l-0.00679134 -0.00661811 -1.03766 0c-0.128681,0 -0.245744,0.0527205 -0.330677,0.13765 -0.0849291,0.0849331 -0.13765,0.201996 -0.13765,0.330677l0 0.529004c0,0.0589094 -0.0477598,0.106669 -0.106669,0.106669l-0.736 0c-0.0572047,0 -0.10861,0.0205197 -0.145335,0.0535709 -0.0337244,0.0303543 -0.0546614,0.0713858 -0.0546614,0.115764l0 0.552c0,0.0443701 0.020937,0.0854055 0.0546654,0.11576 0.0106299,0.00956693 0.0224921,0.0180827 0.0353661,0.0253543 -0.0478976,0.0527717 -0.0909567,0.110016 -0.12848,0.171028 -0.0175276,-0.0115118 -0.0340433,-0.0242402 -0.0493898,-0.0380512 -0.0774331,-0.069689 -0.1255,-0.166661 -0.1255,-0.274091l0 -0.552c0,-0.107433 0.0480669,-0.204406 0.125496,-0.274094 0.074437,-0.0669961 0.176378,-0.108579 0.287839,-0.108579l0.629331 0 0 -0.422335c0,-0.187567 0.0766575,-0.358012 0.200154,-0.481512 0.1235,-0.123496 0.293945,-0.200154 0.481512,-0.200154zm1.22139 2.42134l-0.771433 0c-0.039937,-0.0765787 -0.088248,-0.148094 -0.143713,-0.213339l1.05886 0c-0.0554646,0.0652441 -0.103776,0.13676 -0.143713,0.213339z"/>
  <path class="fil0" d="M4.96222 2.57417l-2.2389 0c-0.0892402,0 -0.171299,-0.0320512 -0.231598,-0.0836811 -0.0648268,-0.0555079 -0.105067,-0.133287 -0.105067,-0.219917l0 -0.236331c0,-0.0866378 0.0402402,-0.164417 0.105067,-0.219917 0.0602992,-0.0516299 0.142358,-0.0836811 0.231598,-0.0836811l1.31003 0 0 0.213339 -1.31003 0c-0.037248,0 -0.0702008,0.0122598 -0.0932677,0.0320118 -0.0185433,0.015874 -0.0300591,0.0365748 -0.0300591,0.058248l0 0.236331c0,0.0216732 0.0115157,0.0423701 0.0300591,0.058248 0.0230669,0.019752 0.0560197,0.0320118 0.0932677,0.0320118l2.2389 0 0 0.213339z"/>
  <polygon class="fil0" points="2.984,2.71198 3.352,2.71198 3.352,2.92531 2.984,2.92531 "/>
  <path class="fil0" d="M2.00791 3.16535c0.317366,0 0.604701,0.12865 0.812693,0.336642 0.207992,0.207996 0.336642,0.495331 0.336642,0.812697 0,0.317366 -0.12865,0.604701 -0.336642,0.812693 -0.207992,0.207992 -0.495331,0.336642 -0.812693,0.336642 -0.317366,0 -0.604701,-0.12865 -0.812697,-0.336642 -0.207992,-0.207992 -0.336642,-0.495327 -0.336642,-0.812693 0,-0.317366 0.12865,-0.604701 0.336642,-0.812697 0.207992,-0.207992 0.495331,-0.336642 0.812697,-0.336642zm0.661858 0.487476c-0.169374,-0.169374 -0.403378,-0.274138 -0.661858,-0.274138 -0.25848,0 -0.492488,0.104764 -0.661862,0.274138 -0.169374,0.169378 -0.274138,0.403382 -0.274138,0.661862 0,0.25848 0.104764,0.492484 0.274138,0.661858 0.169378,0.169374 0.403382,0.274138 0.661862,0.274138 0.258476,0 0.492484,-0.104764 0.661858,-0.274138 0.169374,-0.169374 0.274138,-0.403378 0.274138,-0.661858 0,-0.25848 -0.104764,-0.492484 -0.274138,-0.661862z"/>
  <path class="fil0" d="M4.81875 3.16535c0.317366,0 0.604705,0.12865 0.812697,0.336642 0.207992,0.207996 0.336642,0.495331 0.336642,0.812697 0,0.317366 -0.12865,0.604701 -0.336642,0.812693 -0.207996,0.207992 -0.495331,0.336642 -0.812697,0.336642 -0.317362,0 -0.604701,-0.12865 -0.812693,-0.336642 -0.207992,-0.207992 -0.336642,-0.495327 -0.336642,-0.812693 0,-0.317366 0.12865,-0.604701 0.336642,-0.812697 0.207992,-0.207992 0.495327,-0.336642 0.812693,-0.336642zm0.661862 0.487476c-0.169374,-0.169374 -0.403382,-0.274138 -0.661862,-0.274138 -0.25848,0 -0.492484,0.104764 -0.661858,0.274138 -0.169374,0.169378 -0.274138,0.403382 -0.274138,0.661862 0,0.25848 0.104764,0.492484 0.274138,0.661858 0.169374,0.169374 0.403382,0.274138 0.661858,0.274138 0.25848,0 0.492484,-0.104764 0.661862,-0.274138 0.169374,-0.169374 0.274138,-0.403378 0.274138,-0.661858 0,-0.25848 -0.104764,-0.492484 -0.274138,-0.661862z"/>
  <path class="fil0" d="M2.00791 3.90135c0.114118,0 0.217461,0.0462717 0.292264,0.121071 0.0747992,0.0748031 0.121071,0.178146 0.121071,0.292264 0,0.114126 -0.0462717,0.217461 -0.121071,0.292264 -0.0747992,0.0747992 -0.178146,0.121071 -0.292264,0.121071 -0.114126,0 -0.217465,-0.0462717 -0.292264,-0.121071 -0.0747992,-0.0747992 -0.121071,-0.178138 -0.121071,-0.292264 0,-0.114118 0.0462717,-0.217465 0.121071,-0.292264 0.0748031,-0.0747992 0.178138,-0.121071 0.292264,-0.121071zm0.141429 0.271906c-0.036185,-0.0361811 -0.0861929,-0.0585669 -0.141429,-0.0585669 -0.0552362,0 -0.105244,0.0223858 -0.141429,0.0585669 -0.0361811,0.0361811 -0.0585669,0.0861929 -0.0585669,0.141429 0,0.0552402 0.0223858,0.105248 0.0585669,0.141429 0.0361811,0.0361811 0.086189,0.0585669 0.141429,0.0585669 0.0552362,0 0.105248,-0.0223858 0.141429,-0.0585669 0.0361811,-0.036185 0.0585669,-0.0861929 0.0585669,-0.141429 0,-0.0552362 -0.0223858,-0.105244 -0.0585669,-0.141429z"/>
  <polygon class="fil0" points="1.04207,2.89456 1.4714,2.89456 1.4714,3.1079 1.04207,3.1079 "/>
  <polygon class="fil0" points="5.38414,2.89456 5.81346,2.89456 5.81346,3.1079 5.38414,3.1079 "/>
  <path class="fil0" d="M4.81875 3.90135c0.114126,0 0.217461,0.0462717 0.292264,0.121071 0.0747992,0.0747992 0.121071,0.178146 0.121071,0.292264 0,0.114126 -0.0462717,0.217465 -0.121071,0.292264 -0.0747992,0.0747992 -0.178138,0.121071 -0.292264,0.121071 -0.114118,0 -0.217465,-0.0462717 -0.292264,-0.121071 -0.0747992,-0.0748031 -0.121071,-0.178138 -0.121071,-0.292264 0,-0.114118 0.0462717,-0.217461 0.121071,-0.292264 0.0748031,-0.0747992 0.178146,-0.121071 0.292264,-0.121071zm0.141429 0.271906c-0.036185,-0.0361811 -0.0861929,-0.0585669 -0.141429,-0.0585669 -0.0552362,0 -0.105244,0.0223858 -0.141429,0.0585669 -0.0361811,0.036185 -0.0585669,0.0861929 -0.0585669,0.141429 0,0.0552362 0.0223858,0.105244 0.0585669,0.141429 0.0361811,0.0361811 0.0861929,0.0585669 0.141429,0.0585669 0.0552402,0 0.105248,-0.0223858 0.141429,-0.0585669 0.0361811,-0.0361811 0.0585669,-0.086189 0.0585669,-0.141429 0,-0.0552362 -0.0223858,-0.105248 -0.0585669,-0.141429z"/>
 </g>
 <rect class="fil1" width="6.82666" height="6.82666"/>
</svg>
