<?xml version="1.0" encoding="UTF-8"?>
<!DOCTYPE svg PUBLIC "-//W3C//DTD SVG 1.1//EN" "http://www.w3.org/Graphics/SVG/1.1/DTD/svg11.dtd">
<!-- Creator: CorelDRAW -->
<svg xmlns="http://www.w3.org/2000/svg" xml:space="preserve" width="6.82666in" height="6.82666in" style="shape-rendering:geometricPrecision; text-rendering:geometricPrecision; image-rendering:optimizeQuality; fill-rule:evenodd; clip-rule:evenodd"
viewBox="0 0 6.82666 6.82666"
 xmlns:xlink="http://www.w3.org/1999/xlink">
 <defs>
  <style type="text/css">
   <![CDATA[
    .fil1 {fill:none}
    .fil0 {fill:#212121;fill-rule:nonzero}
   ]]>
  </style>
 </defs>
 <g id="Layer_x0020_1">
  <metadata id="CorelCorpID_0Corel-Layer"/>
  <path class="fil0" d="M2.69161 4.58504c0.024622,-0.0533858 0.00130315,-0.116626 -0.0520827,-0.141248 -0.0533858,-0.024622 -0.116626,-0.00130315 -0.141248,0.0520827l-0.613795 1.32621c-0.024622,0.0533858 -0.00130315,0.116626 0.0520827,0.141248 0.0533858,0.024622 0.116626,0.00130315 0.141248,-0.0520827l0.613795 -1.32621z"/>
  <path class="fil0" d="M4.22609 4.49587c-0.024622,-0.0533858 -0.0878622,-0.0767047 -0.141248,-0.0520827 -0.0533858,0.024622 -0.0767047,0.0878622 -0.0520827,0.141248l0.613791 1.32621c0.024622,0.0533858 0.0878622,0.0767047 0.141248,0.0520827 0.0533858,-0.024622 0.0767047,-0.0878622 0.0520827,-0.141248l-0.613791 -1.32621z"/>
  <path class="fil0" d="M2.28805 4.74068c-0.0589094,0 -0.106669,0.0477598 -0.106669,0.106669 0,0.0589094 0.0477598,0.106669 0.106669,0.106669l2.25057 0c0.0589094,0 0.106669,-0.0477598 0.106669,-0.106669 0,-0.0589094 -0.0477598,-0.106669 -0.106669,-0.106669l-2.25057 0z"/>
  <path class="fil0" d="M2.08345 5.04757c-0.0589094,0 -0.106669,0.0477598 -0.106669,0.106669 0,0.0589094 0.0477598,0.106669 0.106669,0.106669l2.65977 0c0.0589094,0 0.106669,-0.0477598 0.106669,-0.106669 0,-0.0589094 -0.0477598,-0.106669 -0.106669,-0.106669l-2.65977 0z"/>
  <path class="fil0" d="M1.87885 5.45678c-0.0589094,0 -0.106669,0.0477598 -0.106669,0.106669 0,0.0589094 0.0477598,0.106669 0.106669,0.106669l3.06896 0c0.0589094,0 0.106669,-0.0477598 0.106669,-0.106669 0,-0.0589094 -0.0477598,-0.106669 -0.106669,-0.106669l-3.06896 0z"/>
  <path class="fil0" d="M2.51182 1.26252l1.80302 0c0.0909764,0 0.173614,0.0371496 0.233453,0.0969882 0.0598425,0.0598425 0.0969921,0.142488 0.0969921,0.233457l0 2.69812c0,0.0909685 -0.0371575,0.17361 -0.0969961,0.233449 -0.0598386,0.0598386 -0.14248,0.0969961 -0.233449,0.0969961l-1.80302 0c-0.0909685,0 -0.173614,-0.0371496 -0.233457,-0.0969921 -0.0598386,-0.0598386 -0.0969882,-0.142476 -0.0969882,-0.233453l0 -2.69812c0,-0.0909803 0.0371457,-0.173622 0.0969843,-0.233461 0.0598386,-0.0598386 0.14248,-0.0969843 0.233461,-0.0969843zm1.80302 0.213339l-1.80302 0c-0.0320945,0 -0.0613543,0.0132087 -0.082626,0.0344803 -0.0212717,0.0212717 -0.0344803,0.0505315 -0.0344803,0.082626l0 2.69812c0,0.0320906 0.0132126,0.0613465 0.0344843,0.0826181 0.0212756,0.0212756 0.0505394,0.0344882 0.082622,0.0344882l1.80302 0c0.0320827,0 0.0613346,-0.0132126 0.0826142,-0.0344921 0.0212795,-0.0212795 0.0344921,-0.0505315 0.0344921,-0.0826142l0 -2.69812c0,-0.0320827 -0.0132126,-0.0613465 -0.0344882,-0.082622 -0.0212717,-0.0212717 -0.0505276,-0.0344843 -0.0826181,-0.0344843z"/>
  <path class="fil0" d="M2.38597 1.0623c0,0.0589094 0.0477598,0.106669 0.106669,0.106669 0.0574449,0 0.10428,-0.0454173 0.106575,-0.102299l-0.106575 0 0 -0.00437008 0.106669 0c0,0.00146457 -3.93701e-005,0.00291732 -9.44882e-005,0.00437008l1.62823 0c0.00229528,0.0568819 0.0491299,0.102299 0.106575,0.102299 0.0589094,0 0.106669,-0.0477598 0.106669,-0.106669l0 -0.102299c0,-0.0589094 -0.0477598,-0.106669 -0.106669,-0.106669l-1.84138 0c-0.0589094,0 -0.106669,0.0477598 -0.106669,0.106669l0 0.102299zm1.94805 0l0 0.00437008 -0.106575 0c-5.51181e-005,-0.00145276 -9.44882e-005,-0.00290551 -9.44882e-005,-0.00437008l0.106669 0zm0.0302874 0c-0.00960236,0.00283858 -0.0197638,0.00437008 -0.0302874,0.00437008l0 -0.00437008 0.0302874 0z"/>
  <polygon class="fil0" points="3.52,0.96 3.52,1.36919 3.30666,1.36919 3.30666,0.96 "/>
  <path class="fil0" d="M3.41333 1.29846c0.100531,0 0.191559,0.0407559 0.257445,0.10665 0.0658937,0.0658858 0.10665,0.156909 0.10665,0.257441 0,0.100528 -0.0407559,0.191551 -0.10665,0.257445 -0.0658858,0.0658858 -0.156917,0.10665 -0.257445,0.10665 -0.100528,0 -0.191555,-0.0407638 -0.257441,-0.10665 -0.0658937,-0.0658937 -0.10665,-0.156917 -0.10665,-0.257445 0,-0.100531 0.0407559,-0.191555 0.10665,-0.257441 0.0658858,-0.0658937 0.156909,-0.10665 0.257441,-0.10665zm0.10661 0.257484c-0.0272717,-0.0272717 -0.0649764,-0.0441457 -0.10661,-0.0441457 -0.0416339,0 -0.0793346,0.016874 -0.106606,0.0441457 -0.0272717,0.0272717 -0.0441457,0.0649724 -0.0441457,0.106606 0,0.0416417 0.0168701,0.0793346 0.0441457,0.10661 0.0272717,0.0272717 0.0649646,0.0441457 0.106606,0.0441457 0.0416417,0 0.0793386,-0.016874 0.10661,-0.0441457 0.0272756,-0.0272756 0.0441457,-0.0649685 0.0441457,-0.10661 0,-0.0416339 -0.016874,-0.0793346 -0.0441457,-0.106606z"/>
  <polygon class="fil0" points="2.32846,3.29126 2.61743,3.4108 4.20683,3.4108 4.4982,3.29126 4.57904,3.48793 4.26735,3.6158 4.22693,3.62414 2.59716,3.62414 2.55674,3.6158 2.24763,3.48793 "/>
  <path class="fil0" d="M2.59494 3.71769l0.409193 0c0.0589094,0 0.106669,0.0477598 0.106669,0.106669l0 0.306898c0,0.0589094 -0.0477598,0.106669 -0.106669,0.106669l-0.409193 0c-0.0589094,0 -0.106669,-0.0477598 -0.106669,-0.106669l0 -0.306898c0,-0.0589094 0.0477598,-0.106669 0.106669,-0.106669zm0.302524 0.213339l-0.195854 0 0 0.0935591 0.195854 0 0 -0.0935591z"/>
  <path class="fil0" d="M3.82253 3.71769l0.409193 0c0.0589094,0 0.106669,0.0477598 0.106669,0.106669l0 0.306898c0,0.0589094 -0.0477598,0.106669 -0.106669,0.106669l-0.409193 0c-0.0589094,0 -0.106669,-0.0477598 -0.106669,-0.106669l0 -0.306898c0,-0.0589094 0.0477598,-0.106669 0.106669,-0.106669zm0.302524 0.213339l-0.195854 0 0 0.0935591 0.195854 0 0 -0.0935591z"/>
  <polygon class="fil0" points="2.28805,1.85229 4.53862,1.85229 4.53862,2.06563 2.28805,2.06563 "/>
 </g>
 <rect class="fil1" width="6.82666" height="6.82666"/>
</svg>
