<?xml version="1.0" encoding="UTF-8"?>
<!DOCTYPE svg PUBLIC "-//W3C//DTD SVG 1.1//EN" "http://www.w3.org/Graphics/SVG/1.1/DTD/svg11.dtd">
<!-- Creator: CorelDRAW -->
<svg xmlns="http://www.w3.org/2000/svg" xml:space="preserve" width="6.82666in" height="6.82666in" style="shape-rendering:geometricPrecision; text-rendering:geometricPrecision; image-rendering:optimizeQuality; fill-rule:evenodd; clip-rule:evenodd"
viewBox="0 0 6.82666 6.82666"
 xmlns:xlink="http://www.w3.org/1999/xlink">
 <defs>
  <style type="text/css">
   <![CDATA[
    .fil1 {fill:none}
    .fil0 {fill:#212121;fill-rule:nonzero}
   ]]>
  </style>
 </defs>
 <g id="Layer_x0020_1">
  <metadata id="CorelCorpID_0Corel-Layer"/>
  <path class="fil0" d="M1.44 2.55999l2.82667 0c0.0870984,0 0.963409,0.936449 1.13792,1.09458 0.0888858,0.0805512 0.178232,0.125295 0.254358,0.163413 0.255453,0.127925 0.399591,0.200114 0.23039,0.848673 -0.0246575,0.0945157 -0.0887677,0.181508 -0.169799,0.243882 -0.0815315,0.0627598 -0.182311,0.102787 -0.279535,0.102787l-0.427606 0c0.00061811,-0.0105079 0.000940945,-0.0210945 0.000940945,-0.0317559 0,-0.0637598 -0.0112008,-0.124902 -0.0317244,-0.181583l0.45839 0c0.0495866,0 0.103705,-0.0225 0.149535,-0.0577795 0.0460472,-0.0354449 0.0816457,-0.0816575 0.0939646,-0.128882 0.125862,-0.482437 0.0373346,-0.526776 -0.119555,-0.605343 -0.0881024,-0.0441142 -0.191504,-0.0958976 -0.301862,-0.195909 -0.133409,-0.12089 -0.992882,-1.03875 -0.995417,-1.03875l-2.82667 0c-0.0438898,0 -0.0838701,0.0180354 -0.112917,0.0470787 -0.0290433,0.0290472 -0.0470787,0.0690276 -0.0470787,0.112917l0 1.70667c0,0.0438898 0.0180354,0.0838701 0.0470787,0.112917 0.0290472,0.0290433 0.0690276,0.0470787 0.112917,0.0470787l0.191724 0c-0.0205236,0.0566811 -0.0317244,0.117823 -0.0317244,0.181583 0,0.0106614 0.000322835,0.021248 0.000940945,0.0317559l-0.160941 0c-0.102776,0 -0.196138,-0.0419724 -0.263752,-0.109583 -0.0676102,-0.0676142 -0.109583,-0.160976 -0.109583,-0.263752l0 -1.70667c0,-0.102776 0.0419724,-0.196138 0.109583,-0.263752 0.0676142,-0.0676102 0.160976,-0.109583 0.263752,-0.109583zm1.19494 2.24l1.34344 0c-0.0205236,0.0566811 -0.0317244,0.117823 -0.0317244,0.181583 0,0.0106614 0.000322835,0.021248 0.000940945,0.0317559l-1.28188 0c0.00061811,-0.0105079 0.000940945,-0.0210945 0.000940945,-0.0317559 0,-0.0637598 -0.0112008,-0.124902 -0.0317244,-0.181583z"/>
  <path class="fil0" d="M5.43853 3.94667l-1.33187 0c-0.102776,0 -0.196138,-0.0419724 -0.263752,-0.109583 -0.0676102,-0.0676142 -0.109583,-0.160976 -0.109583,-0.263752l0 -0.320004c0,-0.102776 0.0419724,-0.196138 0.109583,-0.263752 0.0676142,-0.0676102 0.160976,-0.109583 0.263752,-0.109583l0.454469 0 0 0.213339 -0.454469 0c-0.0438898,0 -0.0838701,0.0180354 -0.112917,0.0470787 -0.0290433,0.0290472 -0.0470787,0.0690276 -0.0470787,0.112917l0 0.320004c0,0.0438898 0.0180354,0.0838701 0.0470787,0.112917 0.0290472,0.0290433 0.0690276,0.0470787 0.112917,0.0470787l1.33187 0 0 0.213339z"/>
  <path class="fil0" d="M2.13333 4.44824c0.147264,0 0.280602,0.0597008 0.377114,0.15622 0.0965197,0.0965118 0.15622,0.22985 0.15622,0.377114 0,0.147268 -0.0597008,0.280602 -0.15622,0.377114 -0.0965118,0.0965197 -0.22985,0.15622 -0.377114,0.15622 -0.147268,0 -0.280602,-0.0597008 -0.377114,-0.15622 -0.0965197,-0.0965118 -0.15622,-0.229846 -0.15622,-0.377114 0,-0.147264 0.0597008,-0.280602 0.15622,-0.377114 0.0965118,-0.0965197 0.229846,-0.15622 0.377114,-0.15622zm0.22628 0.307055c-0.0578976,-0.0578976 -0.137906,-0.0937165 -0.22628,-0.0937165 -0.088378,0 -0.168382,0.0358189 -0.22628,0.0937165 -0.0578976,0.0578976 -0.0937165,0.137906 -0.0937165,0.22628 0,0.088378 0.0358189,0.168382 0.0937165,0.22628 0.0578976,0.0578976 0.137902,0.0937165 0.22628,0.0937165 0.088374,0 0.168382,-0.0358189 0.22628,-0.0937165 0.0578976,-0.0578976 0.0937165,-0.137902 0.0937165,-0.22628 0,-0.088374 -0.0358189,-0.168382 -0.0937165,-0.22628z"/>
  <path class="fil0" d="M4.48 4.44824c0.147268,0 0.280602,0.0597008 0.377114,0.15622 0.0965197,0.0965118 0.15622,0.22985 0.15622,0.377114 0,0.147268 -0.0597008,0.280602 -0.15622,0.377114 -0.0965118,0.0965197 -0.229846,0.15622 -0.377114,0.15622 -0.147264,0 -0.280602,-0.0597008 -0.377114,-0.15622 -0.0965197,-0.0965118 -0.15622,-0.229846 -0.15622,-0.377114 0,-0.147264 0.0597008,-0.280602 0.15622,-0.377114 0.0965118,-0.0965197 0.22985,-0.15622 0.377114,-0.15622zm0.22628 0.307055c-0.0578976,-0.0578976 -0.137902,-0.0937165 -0.22628,-0.0937165 -0.088374,0 -0.168382,0.0358189 -0.22628,0.0937165 -0.0578976,0.0578976 -0.0937165,0.137906 -0.0937165,0.22628 0,0.088378 0.0358189,0.168382 0.0937165,0.22628 0.0578976,0.0578976 0.137906,0.0937165 0.22628,0.0937165 0.088378,0 0.168382,-0.0358189 0.22628,-0.0937165 0.0578976,-0.0578976 0.0937165,-0.137902 0.0937165,-0.22628 0,-0.088374 -0.0358189,-0.168382 -0.0937165,-0.22628z"/>
  <path class="fil0" d="M2.88 2.66666l0 -0.340004c0,-0.195575 0.113283,-0.32098 0.258283,-0.376039 0.0537205,-0.0204016 0.111346,-0.0306063 0.168386,-0.0306063 0.0570394,0 0.114665,0.0102047 0.168386,0.0306063 0.145,0.0550591 0.258283,0.180465 0.258283,0.376039l0 0.340004 -0.213339 0 0 -0.340004c0,-0.0924016 -0.0526102,-0.151307 -0.119945,-0.176874 -0.0288425,-0.0109528 -0.0608268,-0.0164331 -0.0933858,-0.0164331 -0.0325591,0 -0.0645433,0.00548031 -0.0933858,0.0164331 -0.0673346,0.0255669 -0.119945,0.0844724 -0.119945,0.176874l0 0.340004 -0.213339 0z"/>
  <path class="fil0" d="M3.41333 1.38666c0,-0.0589094 -0.0477598,-0.106669 -0.106669,-0.106669 -0.0589094,0 -0.106669,0.0477598 -0.106669,0.106669l0 0.330028c0,0.0589094 0.0477598,0.106669 0.106669,0.106669 0.0589094,0 0.106669,-0.0477598 0.106669,-0.106669l0 -0.330028z"/>
  <path class="fil0" d="M3.90792 1.58043c0.0292244,-0.0508543 0.011689,-0.115776 -0.0391654,-0.145 -0.0508543,-0.0292244 -0.115776,-0.011689 -0.145,0.0391654l-0.165012 0.285811c-0.0292244,0.0508543 -0.011689,0.115776 0.0391654,0.145 0.0508543,0.0292244 0.115776,0.011689 0.145,-0.0391654l0.165012 -0.285811z"/>
  <path class="fil0" d="M2.88957 1.4746c-0.0292244,-0.0508543 -0.0941457,-0.0683898 -0.145,-0.0391654 -0.0508543,0.0292244 -0.0683898,0.0941457 -0.0391654,0.145l0.165012 0.285811c0.0292244,0.0508543 0.0941457,0.0683898 0.145,0.0391654 0.0508543,-0.0292244 0.0683898,-0.0941457 0.0391654,-0.145l-0.165012 -0.285811z"/>
  <g id="_267734336">
   <polygon id="_267734240" class="fil0" points="2.42578,3.03999 2.42578,4.21333 2.21244,4.21333 2.21244,3.03999 "/>
   <polygon id="_267734768" class="fil0" points="1.73245,3.51999 2.90578,3.51999 2.90578,3.73333 1.73245,3.73333 "/>
  </g>
 </g>
 <rect class="fil1" width="6.82666" height="6.82666"/>
</svg>
