<?xml version="1.0" encoding="UTF-8"?>
<!DOCTYPE svg PUBLIC "-//W3C//DTD SVG 1.1//EN" "http://www.w3.org/Graphics/SVG/1.1/DTD/svg11.dtd">
<!-- Creator: CorelDRAW -->
<svg xmlns="http://www.w3.org/2000/svg" xml:space="preserve" width="6.82666in" height="6.82666in" style="shape-rendering:geometricPrecision; text-rendering:geometricPrecision; image-rendering:optimizeQuality; fill-rule:evenodd; clip-rule:evenodd"
viewBox="0 0 6.82666 6.82666"
 xmlns:xlink="http://www.w3.org/1999/xlink">
 <defs>
  <style type="text/css">
   <![CDATA[
    .fil1 {fill:none}
    .fil0 {fill:#212121;fill-rule:nonzero}
   ]]>
  </style>
 </defs>
 <g id="Layer_x0020_1">
  <metadata id="CorelCorpID_0Corel-Layer"/>
  <path class="fil0" d="M1.30167 2.68126l1.1115 0 0.106669 0 0 0.106669 0 1.27865 0 0.106669 -0.106669 0 -0.318587 0c-0.0209528,-0.0464252 -0.0501339,-0.0883386 -0.0856772,-0.123882 -0.0377362,-0.0377362 -0.0826496,-0.0682953 -0.132516,-0.0894567l0.43011 0 0 -1.06531 -0.986913 0c-0.00393307,0.00741732 -0.00807087,0.0169764 -0.0122047,0.0267874l-0.187925 0.445933 0.00217323 0.592587 0.428272 0c-0.0498622,0.0211614 -0.0947756,0.0517205 -0.132508,0.0894567 -0.0355433,0.0355433 -0.0647244,0.0774567 -0.0856772,0.123882l-0.224083 0c-0.0544173,0 -0.104012,-0.0223976 -0.140213,-0.0585039l-0.000208661 0.000208661c-0.0356614,-0.0356614 -0.0578386,-0.0853976 -0.0580354,-0.140579l-0.00230315 -0.628339 0.00833465 -0.041252 0.196339 -0.465898c0.0132205,-0.0313819 0.0275039,-0.0627638 0.0503071,-0.0902953 0.0335669,-0.0405433 0.0772441,-0.0673268 0.139815,-0.0673268z"/>
  <path class="fil0" d="M2.93687 2.77962l2.38263 0c0.0351811,0 0.0680197,0.0136339 0.0925354,0.0355827 0.027689,0.0247756 0.0448661,0.0596417 0.0448661,0.0985906l0 1.12529c0,0.0389567 -0.0172008,0.073811 -0.0448661,0.0985827 -0.0245394,0.021937 -0.0573543,0.0355866 -0.0925354,0.0355866l-0.231 0c-0.0209528,-0.0464252 -0.0501339,-0.0883386 -0.0856772,-0.123882 -0.0377362,-0.0377362 -0.0826496,-0.0682953 -0.132516,-0.0894567l0.373256 0 0 -0.966953 -2.30669 0c-0.0155276,0 -0.028815,0.00494094 -0.0377047,0.0128976 -0.00574409,0.0051378 -0.00931102,0.0115472 -0.00931102,0.0179685l0 0.936087 1.65397 0c-0.0498661,0.0211614 -0.0947795,0.0517205 -0.132516,0.0894567 -0.0355433,0.0355433 -0.0647244,0.0774567 -0.0856772,0.123882l-1.54244 0 -0.106669 0 0 -0.106669 0 -1.04276c0,-0.0692205 0.0310118,-0.131591 0.0809803,-0.176299 0.046811,-0.0418937 0.110374,-0.0679055 0.179374,-0.0679055z"/>
  <polygon class="fil0" points="2.48811,3.27141 2.78319,3.27141 2.78319,3.48475 2.48811,3.48475 "/>
  <polygon class="fil0" points="2.48811,3.9599 2.78319,3.9599 2.78319,4.17324 2.48811,4.17324 "/>
  <polygon class="fil0" points="2.83836,3.07469 5.35024,3.07469 5.35024,3.28803 2.83836,3.28803 "/>
  <polygon class="fil0" points="1.06998,3.20079 2.36782,3.20079 2.36782,3.41413 1.06998,3.41413 "/>
  <polygon class="fil0" points="1.90991,2.83927 1.90991,3.30746 1.69657,3.30746 1.69657,2.83927 "/>
  <path class="fil0" d="M1.71314 3.92685c0.115488,0 0.220067,0.0468268 0.29576,0.12252 0.0756929,0.0756929 0.12252,0.180264 0.12252,0.295752 0,0.115492 -0.0468268,0.220067 -0.12252,0.29576 -0.0756929,0.0756929 -0.180272,0.12252 -0.29576,0.12252 -0.115492,0 -0.220063,-0.0468268 -0.295752,-0.12252 -0.0756929,-0.0756929 -0.12252,-0.180268 -0.12252,-0.29576 0,-0.115488 0.0468268,-0.220059 0.12252,-0.295752 0.075689,-0.0756929 0.18026,-0.12252 0.295752,-0.12252zm0.144925 0.273354c-0.0370748,-0.0370748 -0.0883228,-0.0600157 -0.144925,-0.0600157 -0.0566024,0 -0.107843,0.022937 -0.144917,0.0600157 -0.0370748,0.0370748 -0.0600157,0.088315 -0.0600157,0.144917 0,0.0566063 0.0229409,0.10785 0.0600157,0.144925 0.0370748,0.0370787 0.088315,0.0600157 0.144917,0.0600157 0.0566024,0 0.10785,-0.0229409 0.144925,-0.0600157 0.0370748,-0.0370748 0.0600157,-0.0883189 0.0600157,-0.144925 0,-0.0566024 -0.0229409,-0.107843 -0.0600157,-0.144917z"/>
  <path class="fil0" d="M4.70707 3.92685c0.115488,0 0.220067,0.0468268 0.29576,0.12252 0.0756929,0.0756929 0.12252,0.180264 0.12252,0.295752 0,0.115492 -0.0468268,0.220067 -0.12252,0.29576 -0.0756929,0.0756929 -0.180268,0.12252 -0.29576,0.12252 -0.115488,0 -0.220063,-0.0468268 -0.295756,-0.12252 -0.0756929,-0.0756929 -0.12252,-0.180272 -0.12252,-0.29576 0,-0.115488 0.0468268,-0.220059 0.12252,-0.295752 0.0756929,-0.0756929 0.180268,-0.12252 0.295756,-0.12252zm0.144925 0.273354c-0.0370748,-0.0370748 -0.0883228,-0.0600157 -0.144925,-0.0600157 -0.0566024,0 -0.107846,0.0229409 -0.144921,0.0600157 -0.0370748,0.0370748 -0.0600157,0.088315 -0.0600157,0.144917 0,0.0566024 0.0229409,0.10785 0.0600157,0.144925 0.0370748,0.0370748 0.0883189,0.0600157 0.144921,0.0600157 0.0566063,0 0.10785,-0.0229409 0.144925,-0.0600157 0.0370748,-0.0370748 0.0600157,-0.0883189 0.0600157,-0.144925 0,-0.0566024 -0.0229409,-0.107843 -0.0600157,-0.144917z"/>
  <polygon class="fil0" points="5.762,3.49607 5.762,4.12916 5.54866,4.12916 5.54866,3.49607 "/>
  <polygon class="fil0" points="5.4443,3.3894 5.91979,3.3894 5.91979,3.60274 5.4443,3.60274 "/>
  <polygon class="fil0" points="1.3083,1.95701 5.41026,2.12366 5.40193,2.33616 1.29996,2.16951 "/>
  <polygon class="fil0" points="1.28735,2.37989 5.38931,2.54654 5.38098,2.75904 1.27902,2.59239 "/>
  <polygon class="fil0" points="1.92931,2.09473 1.87796,2.48992 1.66712,2.46325 1.71847,2.06806 "/>
  <polygon class="fil0" points="2.37114,2.07737 2.31979,2.47255 2.10896,2.44588 2.16031,2.0507 "/>
  <polygon class="fil0" points="2.81298,2.16718 2.76163,2.56237 2.55079,2.5357 2.60214,2.14051 "/>
  <polygon class="fil0" points="3.25481,2.14981 3.20346,2.545 2.99262,2.51833 3.04398,2.12314 "/>
  <polygon class="fil0" points="3.69665,2.13244 3.64529,2.52763 3.43446,2.50096 3.48581,2.10578 "/>
  <polygon class="fil0" points="4.13848,2.20008 4.08713,2.59527 3.87629,2.5686 3.92765,2.17341 "/>
  <polygon class="fil0" points="4.58031,2.18271 4.52896,2.5779 4.31813,2.55123 4.36948,2.15604 "/>
  <polygon class="fil0" points="5.02215,2.27832 4.9708,2.67351 4.75996,2.64684 4.81131,2.25165 "/>
  <path class="fil0" d="M1.11823 3.60043c-0.0589094,0 -0.106669,0.0477598 -0.106669,0.106669 0,0.0589094 0.0477598,0.106669 0.106669,0.106669l0.177539 0c0.0589094,0 0.106669,-0.0477598 0.106669,-0.106669 0,-0.0589094 -0.0477598,-0.106669 -0.106669,-0.106669l-0.177539 0z"/>
  <path class="fil0" d="M4.95023 3.60043c-0.0589094,0 -0.106669,0.0477598 -0.106669,0.106669 0,0.0589094 0.0477598,0.106669 0.106669,0.106669l0.177535 0c0.0589094,0 0.106669,-0.0477598 0.106669,-0.106669 0,-0.0589094 -0.0477598,-0.106669 -0.106669,-0.106669l-0.177535 0z"/>
 </g>
 <rect class="fil1" width="6.82666" height="6.82666"/>
</svg>
