<?xml version="1.0" encoding="UTF-8"?>
<!DOCTYPE svg PUBLIC "-//W3C//DTD SVG 1.1//EN" "http://www.w3.org/Graphics/SVG/1.1/DTD/svg11.dtd">
<!-- Creator: CorelDRAW -->
<svg xmlns="http://www.w3.org/2000/svg" xml:space="preserve" width="6.82666in" height="6.82666in" style="shape-rendering:geometricPrecision; text-rendering:geometricPrecision; image-rendering:optimizeQuality; fill-rule:evenodd; clip-rule:evenodd"
viewBox="0 0 6.82666 6.82666"
 xmlns:xlink="http://www.w3.org/1999/xlink">
 <defs>
  <style type="text/css">
   <![CDATA[
    .fil1 {fill:none}
    .fil0 {fill:#212121;fill-rule:nonzero}
   ]]>
  </style>
 </defs>
 <g id="Layer_x0020_1">
  <metadata id="CorelCorpID_0Corel-Layer"/>
  <g id="_267738224">
   <path id="_267738872" class="fil0" d="M1.07084 2.93254l4.42635 0c0.128909,0 0.246693,0.0484803 0.332606,0.126583 0.0885591,0.0805157 0.143535,0.192319 0.143535,0.315972l0 0.577732c0,0.105177 -0.0466614,0.200193 -0.121831,0.268528 -0.0725197,0.0659291 -0.171831,0.10685 -0.280417,0.10685l-0.23813 0c-0.025189,-0.0798386 -0.0669961,-0.152303 -0.121358,-0.213339l0.359488 0c0.0539724,0 0.102465,-0.0195394 0.137087,-0.0510157 0.0319724,-0.0290669 0.0518228,-0.0684173 0.0518228,-0.111024l0 -0.577732c0,-0.0610787 -0.0281654,-0.117224 -0.0735276,-0.158469 -0.0480157,-0.0436496 -0.114976,-0.070748 -0.189276,-0.070748l-4.42635 0c-0.00163386,0 -0.00303937,0.000173228 -0.00416929,0.000480315l0 0.739295c0,0.0610787 0.0281654,0.117224 0.0735276,0.158465 0.0480157,0.0436496 0.114976,0.070748 0.189276,0.070748l0.285594 0c-0.0543622,0.0610354 -0.0961693,0.1335 -0.121358,0.213339l-0.164236 0c-0.128909,0 -0.246693,-0.0484803 -0.332606,-0.126583 -0.0885591,-0.0805118 -0.143535,-0.192319 -0.143535,-0.315969l0 -0.745685c0,-0.0589961 0.025878,-0.112024 0.067563,-0.149913 0.0390394,-0.0354882 0.0921654,-0.0575157 0.149945,-0.0575157zm3.14297 1.39567l-1.60096 0c-0.025189,-0.0798386 -0.0669961,-0.152303 -0.121358,-0.213339l1.84367 0c-0.0543622,0.0610354 -0.0961693,0.1335 -0.121358,0.213339z"/>
   <path id="_267739016" class="fil0" d="M2.91409 1.62843l0.843787 0c0.0699213,0 0.264976,0.164224 0.492031,0.38161 0.36702,0.351386 0.850945,0.852327 0.948004,0.956669l0.166657 0.179169 -0.244575 0 -2.56 0 -0.106669 0 0 -0.106669 0 -0.950016c0,-0.126819 0.0518071,-0.242039 0.135264,-0.3255 0.0834606,-0.0834567 0.198681,-0.135264 0.3255,-0.135264zm0.843787 0.213339l-0.843787 0c-0.0679331,0 -0.129772,0.0278661 -0.174665,0.0727598 -0.0448937,0.0448937 -0.0727598,0.106732 -0.0727598,0.174665l0 0.843346 2.20405 0c-0.196724,-0.203283 -0.511606,-0.523402 -0.768307,-0.769169 -0.191354,-0.183205 -0.338083,-0.321602 -0.344528,-0.321602z"/>
   <polygon id="_267738920" class="fil0" points="3.52,1.73509 3.52,3.0392 3.30667,3.0392 3.30667,1.73509 "/>
   <path id="_267739136" class="fil0" d="M5.86667 3.59782c0.0589094,0 0.106669,-0.0477598 0.106669,-0.106669 0,-0.0589094 -0.0477598,-0.106669 -0.106669,-0.106669l-0.533331 0c-0.0589094,0 -0.106669,0.0477598 -0.106669,0.106669 0,0.0589094 0.0477598,0.106669 0.106669,0.106669l0.533331 0z"/>
   <path id="_267738944" class="fil0" d="M3.84 3.59782c0.0589094,0 0.106669,-0.0477598 0.106669,-0.106669 0,-0.0589094 -0.0477598,-0.106669 -0.106669,-0.106669l-0.319996 0c-0.0589094,0 -0.106669,0.0477598 -0.106669,0.106669 0,0.0589094 0.0477598,0.106669 0.106669,0.106669l0.319996 0z"/>
   <path id="_267738344" class="fil0" d="M2.05328 3.91824c0.161988,0 0.308657,0.0656693 0.414831,0.171839 0.106169,0.106173 0.171839,0.252843 0.171839,0.414831 0,0.161988 -0.0656732,0.308661 -0.171839,0.414827 -0.106173,0.106169 -0.252843,0.171839 -0.414831,0.171839 -0.161988,0 -0.308661,-0.0656732 -0.414827,-0.171839 -0.106165,-0.106165 -0.171839,-0.252839 -0.171839,-0.414827 0,-0.161988 0.0656693,-0.308657 0.171839,-0.414831 0.106165,-0.106165 0.252839,-0.171839 0.414827,-0.171839zm0.263996 0.322673c-0.0675551,-0.0675512 -0.160894,-0.109335 -0.263996,-0.109335 -0.103102,0 -0.196445,0.0417874 -0.263992,0.109335 -0.0675512,0.0675551 -0.109335,0.160894 -0.109335,0.263996 0,0.103102 0.0417874,0.196445 0.109335,0.263992 0.0675472,0.0675472 0.16089,0.109335 0.263992,0.109335 0.103102,0 0.196441,-0.0417835 0.263996,-0.109335 0.0675472,-0.0675472 0.109335,-0.16089 0.109335,-0.263992 0,-0.103102 -0.0417835,-0.196441 -0.109335,-0.263996z"/>
   <path id="_267738680" class="fil0" d="M4.77338 3.91824c0.161992,0 0.308665,0.0656732 0.414831,0.171839 0.106169,0.106173 0.171839,0.252843 0.171839,0.414831 0,0.161988 -0.0656732,0.308661 -0.171839,0.414827 -0.106173,0.106169 -0.252843,0.171839 -0.414831,0.171839 -0.161988,0 -0.308661,-0.0656732 -0.414827,-0.171839 -0.106165,-0.106165 -0.171839,-0.252839 -0.171839,-0.414827 0,-0.161988 0.0656693,-0.308657 0.171839,-0.414831 0.106165,-0.106165 0.252839,-0.171839 0.414827,-0.171839zm0.263996 0.322673c-0.0675472,-0.0675472 -0.16089,-0.109335 -0.263996,-0.109335 -0.103102,0 -0.196445,0.0417874 -0.263992,0.109335 -0.0675512,0.0675551 -0.109335,0.160894 -0.109335,0.263996 0,0.103102 0.0417874,0.196445 0.109335,0.263992 0.0675472,0.0675472 0.16089,0.109335 0.263992,0.109335 0.103102,0 0.196441,-0.0417835 0.263996,-0.109335 0.0675472,-0.0675472 0.109335,-0.16089 0.109335,-0.263992 0,-0.103102 -0.0417835,-0.196441 -0.109335,-0.263996z"/>
  </g>
 </g>
 <rect class="fil1" width="6.82666" height="6.82666"/>
</svg>
