<?xml version="1.0" encoding="UTF-8"?>
<!DOCTYPE svg PUBLIC "-//W3C//DTD SVG 1.1//EN" "http://www.w3.org/Graphics/SVG/1.1/DTD/svg11.dtd">
<!-- Creator: CorelDRAW -->
<svg xmlns="http://www.w3.org/2000/svg" xml:space="preserve" width="6.82666in" height="6.82666in" style="shape-rendering:geometricPrecision; text-rendering:geometricPrecision; image-rendering:optimizeQuality; fill-rule:evenodd; clip-rule:evenodd"
viewBox="0 0 6.82666 6.82666"
 xmlns:xlink="http://www.w3.org/1999/xlink">
 <defs>
  <style type="text/css">
   <![CDATA[
    .fil2 {fill:none}
    .fil1 {fill:#212121}
    .fil0 {fill:#212121;fill-rule:nonzero}
   ]]>
  </style>
 </defs>
 <g id="Layer_x0020_1">
  <metadata id="CorelCorpID_0Corel-Layer"/>
  <path class="fil0" d="M1.94325 3.20972l3.42975 -0.110992c0.0135197,-0.000437008 0.0163858,-0.000649606 0.0177913,-0.000649606 0.154693,0 0.294717,0.0649055 0.397169,0.168382 0.10148,0.102492 0.166039,0.243291 0.170984,0.396283 0.000448819,0.0137008 0.000669291,0.0178346 0.000669291,0.0188504l0 0.0635472c0,0.00101575 -0.000220472,0.00515748 -0.000669291,0.0188543 -0.00494882,0.152996 -0.0695079,0.293791 -0.170984,0.39628 -0.102449,0.103476 -0.242472,0.168378 -0.397165,0.168378 -0.00141339,0 -0.00426378,-0.000212598 -0.0177953,-0.000649606l-3.47124 -0.112335c0.0460748,-0.0696299 0.0838661,-0.139331 0.112976,-0.209063l3.36493 0.108894c0.00385433,0.000122047 0.000106299,-0.000185039 0.011126,-0.000185039 0.0955394,0 0.182425,-0.0404921 0.246331,-0.105039 0.0648819,-0.0655315 0.106161,-0.155409 0.109315,-0.252949 0.000110236,-0.00337795 -0.000165354,-0.000791339 -0.000165354,-0.012185l0 -0.0635472c0,-0.0113937 0.000275591,-0.00879921 0.000165354,-0.0121811 -0.00315354,-0.0975394 -0.0444331,-0.187421 -0.109315,-0.252953 -0.0639134,-0.0645512 -0.150795,-0.105043 -0.246335,-0.105043 -0.0110118,0 -0.00727559,-0.000307087 -0.011122,-0.000185039l-3.33409 0.107898c-0.023563,-0.0706378 -0.0575276,-0.140465 -0.102327,-0.209409zm-0.562594 0.953937c-0.212559,-0.0472638 -0.35926,-0.123866 -0.443173,-0.21235 -0.067,-0.0706575 -0.0989724,-0.150024 -0.0974173,-0.231874 0.00153543,-0.0808583 0.0355669,-0.159114 0.100626,-0.228811 0.0864528,-0.0926181 0.235055,-0.173657 0.439965,-0.22378l0 0.218303c-0.133382,0.037937 -0.228728,0.091122 -0.28413,0.150476 -0.0285827,0.030622 -0.0434488,0.0603819 -0.0439567,0.0871417 -0.000488189,0.0257677 0.0123425,0.0536772 0.0390787,0.081874 0.0535906,0.0565118 0.148913,0.106681 0.289008,0.142217l0 0.216803z"/>
  <circle class="fil1" cx="5.18608" cy="3.67239" r="0.101676"/>
  <circle class="fil1" cx="4.83617" cy="3.67239" r="0.101676"/>
  <circle class="fil1" cx="4.48627" cy="3.67239" r="0.101676"/>
  <circle class="fil1" cx="4.13636" cy="3.67239" r="0.101676"/>
  <circle class="fil1" cx="3.78646" cy="3.67239" r="0.101676"/>
  <circle class="fil1" cx="3.43655" cy="3.67239" r="0.101676"/>
  <circle class="fil1" cx="3.08665" cy="3.67239" r="0.101676"/>
  <circle class="fil1" cx="2.73674" cy="3.67239" r="0.101676"/>
  <path class="fil0" d="M1.38066 3.71401l0 -0.814059 0 -0.209878 0.169587 0.124043c0.105083,0.0768661 0.194303,0.155748 0.268343,0.236472l0.000208661 -0.000192913c0.178882,0.195114 0.264602,0.398039 0.267378,0.607098 0.00274016,0.206535 -0.0762953,0.413307 -0.227028,0.619374 -0.0800906,0.109492 -0.180535,0.218972 -0.299736,0.328256l-0.178752 0.163882 0 -0.242217 0 -0.81278zm0.213339 -0.588657l0 0.588657 0 0.553102c0.034126,-0.038874 0.065315,-0.0775748 0.0934803,-0.116079 0.123476,-0.168807 0.188291,-0.332969 0.186193,-0.491035 -0.00206299,-0.155539 -0.0698819,-0.310921 -0.211543,-0.465437l0 -0.000417323c-0.0209961,-0.0229016 -0.0437008,-0.0458307 -0.0681299,-0.0687913z"/>
  <path class="fil0" d="M4.42946 2.1932c0.0589094,0 0.106669,-0.0477598 0.106669,-0.106669 0,-0.0589094 -0.0477598,-0.106669 -0.106669,-0.106669l-0.305031 0c-0.0589094,0 -0.106669,0.0477598 -0.106669,0.106669l0 0.610067c0,0.0589094 0.0477598,0.106669 0.106669,0.106669 0.0589094,0 0.106669,-0.0477598 0.106669,-0.106669l0 -0.503398 0.198362 0z"/>
  <path class="fil0" d="M3.71273 3.30666l0 -0.419421c0,-0.0818701 0.0334213,-0.156224 0.087252,-0.210059 0.0538346,-0.0538346 0.128193,-0.087252 0.210059,-0.087252l0.22878 0c0.0818701,0 0.156224,0.0334173 0.210059,0.087252 0.0538346,0.0538346 0.087252,0.128189 0.087252,0.210059l0 0.419421 -0.213339 0 0 -0.419421c0,-0.0229843 -0.00948031,-0.0439567 -0.024748,-0.0592244 -0.0152677,-0.0152677 -0.0362402,-0.024748 -0.0592244,-0.024748l-0.22878 0c-0.0229803,0 -0.0439567,0.00948031 -0.0592244,0.024748 -0.0152677,0.0152677 -0.024748,0.0362402 -0.024748,0.0592244l0 0.419421 -0.213339 0z"/>
 </g>
 <rect class="fil2" width="6.82666" height="6.82666"/>
</svg>
