<?xml version="1.0" encoding="UTF-8"?>
<!DOCTYPE svg PUBLIC "-//W3C//DTD SVG 1.1//EN" "http://www.w3.org/Graphics/SVG/1.1/DTD/svg11.dtd">
<!-- Creator: CorelDRAW -->
<svg xmlns="http://www.w3.org/2000/svg" xml:space="preserve" width="6.82666in" height="6.82666in" style="shape-rendering:geometricPrecision; text-rendering:geometricPrecision; image-rendering:optimizeQuality; fill-rule:evenodd; clip-rule:evenodd"
viewBox="0 0 6.82666 6.82666"
 xmlns:xlink="http://www.w3.org/1999/xlink">
 <defs>
  <style type="text/css">
   <![CDATA[
    .fil1 {fill:none}
    .fil0 {fill:#212121;fill-rule:nonzero}
   ]]>
  </style>
 </defs>
 <g id="Layer_x0020_1">
  <metadata id="CorelCorpID_0Corel-Layer"/>
  <g id="_267709640">
   <path id="_267709544" class="fil0" d="M1.13685 2.56l2.7472 0c0.0780748,0 0.148984,0.0318701 0.200319,0.0832047 0.0513346,0.0513346 0.0832047,0.122248 0.0832047,0.200319l0 2.16946c0,0.0780709 -0.0318701,0.148976 -0.0832047,0.200319 -0.0513425,0.0513346 -0.122248,0.0832047 -0.200319,0.0832047l-1.68676 0c-0.00566535,-0.0778504 -0.030185,-0.15048 -0.0689961,-0.213339l1.75576 0c0.019185,0 0.0367126,-0.00792913 0.0494843,-0.0207008 0.0127717,-0.0127717 0.0207008,-0.0302992 0.0207008,-0.0494843l0 -2.16946c0,-0.019185 -0.00792913,-0.0367126 -0.0207008,-0.0494843 -0.0127717,-0.0127717 -0.0302953,-0.0207008 -0.0494843,-0.0207008l-2.7472 0c-0.0191929,0 -0.0367205,0.00792913 -0.0494882,0.0206969 -0.0127677,0.0127677 -0.0206969,0.0302953 -0.0206969,0.0494882l0 2.16946c0,0.019189 0.00792913,0.0367126 0.0207008,0.0494843 0.0127717,0.0127717 0.0302992,0.0207008 0.0494843,0.0207008l0.185878 0c-0.038811,0.0628583 -0.0633268,0.135484 -0.0689921,0.213339l-0.116886 0c-0.0780709,0 -0.148984,-0.0318701 -0.200319,-0.0832047 -0.0513346,-0.0513346 -0.0832047,-0.122244 -0.0832047,-0.200319l0 -2.16946c0,-0.0780787 0.0318661,-0.148988 0.0832008,-0.200323 0.0513346,-0.0513346 0.122244,-0.0832008 0.200323,-0.0832008z"/>
   <path id="_267709472" class="fil0" d="M4.06091 4.10274l1.59943 0c0.086185,0 0.164461,0.0351929 0.221134,0.0918661 0.0566811,0.0566811 0.0918661,0.134969 0.0918661,0.221138l0 0.567768c0,0.0861654 -0.0351929,0.164445 -0.091874,0.221126 -0.0566811,0.0566811 -0.134961,0.091874 -0.221126,0.091874l-0.314091 0c-0.00566535,-0.0778543 -0.0301811,-0.15048 -0.0689921,-0.213339l0.383083 0c0.0272795,0 0.0521772,-0.0112559 0.0702913,-0.0293701 0.0181142,-0.0181142 0.0293701,-0.0430118 0.0293701,-0.0702913l0 -0.567768c0,-0.0272913 -0.011248,-0.052189 -0.0293622,-0.0703031 -0.0181142,-0.0181142 -0.0430079,-0.0293622 -0.0702992,-0.0293622l-1.59943 0 0 -0.213339zm0.34178 1.19377l-0.695488 0 0 -0.213339 0.76448 0c-0.038815,0.0628622 -0.0633268,0.135488 -0.0689921,0.213339z"/>
   <path id="_267709256" class="fil0" d="M4.06091 3.19668c-0.0589094,0 -0.106669,0.0477598 -0.106669,0.106669 0,0.0589094 0.0477598,0.106669 0.106669,0.106669l0.70939 0 0.540087 0.815142c0.0324449,0.0490157 0.0984882,0.0624449 0.147504,0.03 0.0490157,-0.0324449 0.0624449,-0.0984882 0.03,-0.147504l-0.567862 -0.857063c-0.0183583,-0.0322008 -0.0530039,-0.0539134 -0.0927244,-0.0539134l-0.766394 0z"/>
   <path id="_267709232" class="fil0" d="M4.87446 4.85828c0.130614,0 0.248882,0.0529567 0.334488,0.138563 0.0856063,0.0856063 0.138559,0.20387 0.138559,0.334484 0,0.130614 -0.0529528,0.248878 -0.138559,0.334484 -0.0856102,0.0856063 -0.203874,0.138559 -0.334488,0.138559 -0.130614,0 -0.248878,-0.0529528 -0.334484,-0.138559 -0.0856063,-0.0856063 -0.138559,-0.20387 -0.138559,-0.334484 0,-0.130614 0.0529528,-0.248878 0.138559,-0.334488 0.0856063,-0.0856063 0.20387,-0.138559 0.334484,-0.138559zm0.183654 0.289398c-0.0469882,-0.0469882 -0.111925,-0.0760591 -0.183654,-0.0760591 -0.0717283,0 -0.136661,0.0290669 -0.18365,0.0760551 -0.0469882,0.0469921 -0.0760551,0.111925 -0.0760551,0.183654 0,0.0717283 0.0290669,0.136661 0.0760551,0.18365 0.0469882,0.0469882 0.111921,0.0760551 0.18365,0.0760551 0.0717283,0 0.136661,-0.0290669 0.183654,-0.0760551 0.0469882,-0.0469882 0.0760551,-0.111921 0.0760551,-0.18365 0,-0.0717283 -0.0290669,-0.136661 -0.0760551,-0.18365z"/>
   <path id="_267709160" class="fil0" d="M1.72552 4.85828c0.130618,0 0.248882,0.0529567 0.334484,0.138563 0.0856063,0.0856024 0.138563,0.203866 0.138563,0.334484 0,0.130614 -0.0529528,0.248878 -0.138559,0.334484 -0.0856102,0.0856063 -0.203874,0.138559 -0.334488,0.138559 -0.130614,0 -0.248874,-0.0529528 -0.334484,-0.138559 -0.0856063,-0.0856063 -0.138559,-0.20387 -0.138559,-0.334484 0,-0.130614 0.0529528,-0.248878 0.138559,-0.334484 0.0856063,-0.0856063 0.20387,-0.138563 0.334484,-0.138563zm0.18365 0.289398c-0.0469843,-0.0469882 -0.111921,-0.0760591 -0.18365,-0.0760591 -0.0717283,0 -0.136661,0.0290709 -0.18365,0.0760591 -0.0469882,0.0469882 -0.0760551,0.111921 -0.0760551,0.18365 0,0.0717283 0.0290669,0.136661 0.0760551,0.18365 0.0469921,0.0469882 0.111925,0.0760551 0.18365,0.0760551 0.0717283,0 0.136661,-0.0290669 0.183654,-0.0760551 0.0469882,-0.0469882 0.0760551,-0.111921 0.0760551,-0.18365 0,-0.0717283 -0.0290709,-0.136665 -0.0760591,-0.18365z"/>
   <path id="_267709088" class="fil0" d="M5.86667 4.67259c0.0589094,0 0.106669,-0.0477598 0.106669,-0.106669 0,-0.0589094 -0.0477598,-0.106669 -0.106669,-0.106669l-0.473417 0c-0.0589094,0 -0.106669,0.0477598 -0.106669,0.106669 0,0.0589094 0.0477598,0.106669 0.106669,0.106669l0.473417 0z"/>
  </g>
  <path class="fil0" d="M2.10022 1.64163l0.390972 -0.506697 0.064937 -0.0841535 0.0842283 0.0649882c0.163071,0.125827 0.259744,0.306051 0.284193,0.495693 0.0244094,0.189331 -0.0234291,0.388012 -0.149299,0.551142 -0.125831,0.163079 -0.306055,0.259748 -0.495701,0.284193 -0.189331,0.0244055 -0.388012,-0.0234331 -0.551134,-0.149299l-0.0841535 -0.0649331 0.0649882 -0.0842323 0.390969 -0.506701zm0.487902 -0.284161l-0.319571 0.414161 -0.319504 0.414083c0.0958976,0.0472441 0.201748,0.0634055 0.303835,0.050248 0.135244,-0.0174331 0.263949,-0.0866024 0.354039,-0.203358 0.0900551,-0.116709 0.124272,-0.258921 0.106795,-0.394472 -0.0131299,-0.101819 -0.0555827,-0.199941 -0.125594,-0.280661z"/>
  <polygon class="fil0" points="1.77167,1.25385 2.24939,1.62246 2.11939,1.79079 1.64167,1.42218 "/>
  <path class="fil0" d="M2.26186 2.66666l0 -0.217803c0.00590551,-0.00061811 0.0118031,-0.00130709 0.0176929,-0.00206693 0.0670551,-0.00864173 0.132933,-0.0263307 0.195646,-0.0527756l0 0.272646 -0.213339 0zm0.563713 -0.577941l0.58776 0 0.106669 0 0 0.106669 0 0.471272 -0.213339 0 0 -0.364602 -0.672039 0c0.0517165,-0.039126 0.0991339,-0.0856811 0.14063,-0.139461 0.0184488,-0.0239094 0.0352047,-0.0485827 0.0503189,-0.073878z"/>
 </g>
 <rect class="fil1" width="6.82666" height="6.82666"/>
</svg>
