<?xml version="1.0" encoding="UTF-8"?>
<!DOCTYPE svg PUBLIC "-//W3C//DTD SVG 1.1//EN" "http://www.w3.org/Graphics/SVG/1.1/DTD/svg11.dtd">
<!-- Creator: CorelDRAW -->
<svg xmlns="http://www.w3.org/2000/svg" xml:space="preserve" width="6.82666in" height="6.82666in" style="shape-rendering:geometricPrecision; text-rendering:geometricPrecision; image-rendering:optimizeQuality; fill-rule:evenodd; clip-rule:evenodd"
viewBox="0 0 6.82666 6.82666"
 xmlns:xlink="http://www.w3.org/1999/xlink">
 <defs>
  <style type="text/css">
   <![CDATA[
    .fil1 {fill:none}
    .fil0 {fill:#212121;fill-rule:nonzero}
   ]]>
  </style>
 </defs>
 <g id="Layer_x0020_1">
  <metadata id="CorelCorpID_0Corel-Layer"/>
  <g id="_267712712">
   <path id="_267711992" class="fil0" d="M0.961059 4.43646l4.9056 0 0.111906 0 -0.00565354 0.111669c-0.0366535,0.723705 -0.803417,1.14825 -1.73546,1.29965 -0.333894,0.0542362 -0.689618,0.073752 -1.03956,0.0596063 -0.350276,-0.0141535 -0.695315,-0.0621024 -1.00746,-0.14276 -0.785677,-0.20302 -1.36725,-0.615988 -1.33564,-1.22692l0.00524016 -0.101256 0.101012 3.93701e-006zm4.78571 0.213339l-4.67684 0c0.045189,0.435516 0.532484,0.743268 1.17385,0.908996 0.297307,0.0768268 0.626953,0.122531 0.962457,0.136091 0.335846,0.0135748 0.677039,-0.00512205 0.997059,-0.0571024 0.784972,-0.127508 1.43865,-0.45263 1.54348,-0.987984z"/>
   <path id="_267712016" class="fil0" d="M2.7469 4.54313l0 -3.52198 0 -0.209815 0.169587 0.12398c0.436209,0.318906 0.764335,0.633587 0.993236,0.942063 0.273091,0.368028 0.405776,0.728291 0.412736,1.0775 0.00700394,0.351433 -0.113039,0.68739 -0.345276,1.00505 -0.170394,0.233071 -0.401677,0.456346 -0.687752,0.668622l-0.126669 -0.170835c0.268673,-0.199366 0.484854,-0.407646 0.642752,-0.623622 0.20463,-0.279898 0.310472,-0.57252 0.304441,-0.875047 -0.0060748,-0.304756 -0.125358,-0.623866 -0.371067,-0.954992 -0.185858,-0.250469 -0.443555,-0.507126 -0.77865,-0.768961l0 3.30804 -0.213339 0z"/>
  </g>
 </g>
 <rect class="fil1" width="6.82666" height="6.82666"/>
</svg>
