<?xml version="1.0" encoding="UTF-8"?>
<!DOCTYPE svg PUBLIC "-//W3C//DTD SVG 1.1//EN" "http://www.w3.org/Graphics/SVG/1.1/DTD/svg11.dtd">
<!-- Creator: CorelDRAW -->
<svg xmlns="http://www.w3.org/2000/svg" xml:space="preserve" width="6.82666in" height="6.82666in" style="shape-rendering:geometricPrecision; text-rendering:geometricPrecision; image-rendering:optimizeQuality; fill-rule:evenodd; clip-rule:evenodd"
viewBox="0 0 6.82666 6.82666"
 xmlns:xlink="http://www.w3.org/1999/xlink">
 <defs>
  <style type="text/css">
   <![CDATA[
    .fil1 {fill:none}
    .fil0 {fill:#212121;fill-rule:nonzero}
   ]]>
  </style>
 </defs>
 <g id="Layer_x0020_1">
  <metadata id="CorelCorpID_0Corel-Layer"/>
  <g id="_267713216">
   <path id="_267712808" class="fil0" d="M3.41333 1.84057c0.116028,0 0.221083,0.0470394 0.297134,0.123091 0.0760512,0.0760472 0.123091,0.181102 0.123091,0.297134 0,0.116024 -0.0470394,0.221083 -0.123091,0.29713 -0.0760512,0.0760512 -0.181106,0.123091 -0.297134,0.123091 -0.116028,0 -0.221083,-0.0470394 -0.297134,-0.123091 -0.0760512,-0.0760472 -0.123091,-0.181106 -0.123091,-0.29713 0,-0.116031 0.0470394,-0.221087 0.123091,-0.297134 0.0760512,-0.0760512 0.181106,-0.123091 0.297134,-0.123091zm0.146299 0.273925c-0.0374291,-0.0374291 -0.0891575,-0.0605866 -0.146299,-0.0605866 -0.0571417,0 -0.10887,0.0231575 -0.146299,0.0605866 -0.0374331,0.0374291 -0.0605866,0.0891575 -0.0605866,0.146299 0,0.0571339 0.0231535,0.108866 0.0605866,0.146295 0.0374291,0.0374291 0.0891575,0.0605866 0.146299,0.0605866 0.0571417,0 0.10887,-0.0231575 0.146299,-0.0605866 0.0374331,-0.0374291 0.0605866,-0.0891614 0.0605866,-0.146295 0,-0.0571417 -0.0231535,-0.10887 -0.0605866,-0.146299z"/>
   <polygon id="_267712976" class="fil0" points="3.37056,5.03052 3.37056,5.86667 3.15722,5.86667 3.15722,5.03052 "/>
   <polygon id="_267713120" class="fil0" points="3.63185,5.03052 3.63185,5.86667 3.41852,5.86667 3.41852,5.03052 "/>
   <path id="_267713456" class="fil0" d="M3.33585 4.76707l0.154969 0c0.0201535,-0.0505748 0.0388898,-0.0986457 0.0562244,-0.14426 0.0256654,-0.0675354 0.050689,-0.135803 0.0750787,-0.204768l0.0427126 -0.120776 0.111039 0.0641102 0.494673 0.285598 0.0305866 -0.305894 -0.460736 -0.422343 -0.0473071 -0.0433661 0.0160551 -0.0616339c0.168461,-0.646791 0.196594,-1.18028 0.108232,-1.63397 -0.0792559,-0.406949 -0.25313,-0.751039 -0.504043,-1.05661 -0.250913,0.305571 -0.424787,0.649661 -0.504043,1.05661 -0.0883622,0.453693 -0.0602283,0.987181 0.108232,1.63397l0.0160551 0.0616339 -0.0473071 0.0433661 -0.46074 0.422343 0.0305906 0.305898 0.494673 -0.285602 0.111039 -0.0641102 0.0427126 0.120776c0.0243898,0.0689646 0.0494134,0.137232 0.0750787,0.204768 0.0173346,0.0456142 0.0360709,0.093685 0.0562244,0.14426zm0.226921 0.213339l-0.298874 0 -0.0717205 0 -0.0270315 -0.0666693c-0.0280157,-0.0691024 -0.056248,-0.141114 -0.084685,-0.215929 -0.0114134,-0.0300394 -0.0224882,-0.0595748 -0.0332244,-0.088626l-0.527205 0.304382 -0.14276 0.0824213 -0.0164094 -0.164087 -0.0522598 -0.522591 -0.00525984 -0.0526102 0.0394291 -0.0361417 0.453134 -0.41537c-0.162815,-0.651894 -0.187106,-1.1965 -0.0957795,-1.66542 0.0952244,-0.488925 0.315067,-0.893906 0.634043,-1.25061l0.0791654 -0.0885276 0.0791654 0.0885276c0.318976,0.356705 0.538819,0.761685 0.634043,1.25061 0.0913268,0.468921 0.0670354,1.01353 -0.0957795,1.66542l0.45313 0.41537 0.0394291 0.0361417 -0.00525984 0.0526102 -0.0522559 0.522591 -0.0164094 0.164087 -0.14276 -0.0824213 -0.527205 -0.304382c-0.0107362,0.0290512 -0.021811,0.0585866 -0.0332244,0.088626 -0.028437,0.074815 -0.0566693,0.146827 -0.084685,0.215929l-0.0270315 0.0666693 -0.0717205 0z"/>
  </g>
 </g>
 <rect class="fil1" width="6.82666" height="6.82666"/>
</svg>
