<?xml version="1.0" encoding="UTF-8"?>
<!DOCTYPE svg PUBLIC "-//W3C//DTD SVG 1.1//EN" "http://www.w3.org/Graphics/SVG/1.1/DTD/svg11.dtd">
<!-- Creator: CorelDRAW -->
<svg xmlns="http://www.w3.org/2000/svg" xml:space="preserve" width="6.82666in" height="6.82666in" style="shape-rendering:geometricPrecision; text-rendering:geometricPrecision; image-rendering:optimizeQuality; fill-rule:evenodd; clip-rule:evenodd"
viewBox="0 0 6.82666 6.82666"
 xmlns:xlink="http://www.w3.org/1999/xlink">
 <defs>
  <style type="text/css">
   <![CDATA[
    .fil1 {fill:none}
    .fil0 {fill:#212121;fill-rule:nonzero}
   ]]>
  </style>
 </defs>
 <g id="Layer_x0020_1">
  <metadata id="CorelCorpID_0Corel-Layer"/>
  <g id="_267713312">
   <path id="_267713816" class="fil0" d="M2.36407 3.39065c0.370236,0.169732 0.739291,0.246567 1.10728,0.242539 0.368492,-0.0040315 0.737768,-0.0889291 1.1077,-0.242657 0.122898,-0.123705 0.221776,-0.267925 0.289783,-0.426327 0.0677283,-0.157748 0.104976,-0.330126 0.104976,-0.510874 0,-0.381567 -0.167039,-0.727386 -0.437091,-0.978028 -0.272024,-0.252472 -0.648591,-0.408634 -1.06522,-0.408634 -0.416626,0 -0.793193,0.156161 -1.06522,0.408634 -0.270051,0.250642 -0.437091,0.596461 -0.437091,0.978028 0,0.18063 0.0371929,0.352886 0.104831,0.510531 0.0680472,0.158602 0.167016,0.302992 0.290039,0.426787zm1.10895 0.455043c-0.405465,0.00443701 -0.810516,-0.0807638 -1.21505,-0.269146l-0.0295827 -0.0208307c-0.14885,-0.145909 -0.268512,-0.318134 -0.350193,-0.508524 -0.0789331,-0.183969 -0.122335,-0.38437 -0.122335,-0.593862 0,-0.443173 0.193154,-0.844031 0.505429,-1.13386 0.310299,-0.288 0.738228,-0.466138 1.21022,-0.466138 0.471988,0 0.899917,0.178138 1.21022,0.466138 0.312276,0.289831 0.505429,0.690689 0.505429,1.13386 0,0.20963 -0.0434567,0.41015 -0.12248,0.594205 -0.0817953,0.190512 -0.201591,0.362799 -0.350594,0.508717l-0.0333307 0.0220827c-0.401276,0.169319 -0.803787,0.262937 -1.20772,0.267358z"/>
   <path id="_267713792" class="fil0" d="M2.70409 4.90666l1.53485 0c0.0155236,0 0.0319055,0.00283465 0.048311,0.00806299 0.0295827,0.00940945 0.0575669,0.027374 0.0778386,0.0503976 0.0241339,0.0274252 0.0397559,0.0627677 0.0397559,0.102335 0,0.0138701 -0.00233858,0.0287677 -0.00738583,0.044622l-0.229079 0.720004c-0.00835827,0.0262717 -0.0190236,0.0528622 -0.0363465,0.0766299 -0.0284961,0.0390906 -0.0670472,0.064622 -0.122177,0.064622l-1.07669 0c-0.0551142,0 -0.0936732,-0.0255197 -0.122169,-0.0646063 -0.0173228,-0.0237717 -0.0279921,-0.0503583 -0.0363504,-0.0766457l-0.229079 -0.720004c-0.00503937,-0.0158622 -0.00738976,-0.0307717 -0.00738976,-0.0446417 0,-0.0395906 0.0156181,-0.0749134 0.039748,-0.102323 0.0202795,-0.0230236 0.0482598,-0.0409724 0.0778268,-0.0503858 0.0164173,-0.00522441 0.0328071,-0.00806693 0.0483346,-0.00806693zm1.46793 0.213339l-1.401 0 0.203622 0.639996 0.99376 0 0.203622 -0.639996z"/>
   <polygon id="_267713576" class="fil0" points="2.38791,3.47518 2.75057,5.04924 2.54307,5.09674 2.18041,3.52268 "/>
   <polygon id="_267713768" class="fil0" points="4.77015,3.46919 4.39814,5.07922 4.19064,5.03171 4.56264,3.42168 "/>
   <polygon id="_267713744" class="fil0" points="3.57657,3.73946 3.57657,5.01333 3.36323,5.01333 3.36323,3.73946 "/>
  </g>
 </g>
 <rect class="fil1" width="6.82666" height="6.82666"/>
</svg>
