<?xml version="1.0" encoding="UTF-8"?>
<!DOCTYPE svg PUBLIC "-//W3C//DTD SVG 1.1//EN" "http://www.w3.org/Graphics/SVG/1.1/DTD/svg11.dtd">
<!-- Creator: CorelDRAW -->
<svg xmlns="http://www.w3.org/2000/svg" xml:space="preserve" width="6.82666in" height="6.82666in" style="shape-rendering:geometricPrecision; text-rendering:geometricPrecision; image-rendering:optimizeQuality; fill-rule:evenodd; clip-rule:evenodd"
viewBox="0 0 6.82666 6.82666"
 xmlns:xlink="http://www.w3.org/1999/xlink">
 <defs>
  <style type="text/css">
   <![CDATA[
    .fil1 {fill:none}
    .fil0 {fill:#212121;fill-rule:nonzero}
   ]]>
  </style>
 </defs>
 <g id="Layer_x0020_1">
  <metadata id="CorelCorpID_0Corel-Layer"/>
  <path class="fil0" d="M1.13685 1.79115l2.7472 0c0.0780748,0 0.148984,0.0318701 0.200319,0.0832047 0.0513346,0.0513346 0.0832047,0.122248 0.0832047,0.200319l0 2.16946c0,0.0780709 -0.0318701,0.148976 -0.0832047,0.200319 -0.0513425,0.0513346 -0.122248,0.0832047 -0.200319,0.0832047l-1.68676 0c-0.00566535,-0.0778504 -0.030185,-0.15048 -0.0689961,-0.213339l1.75576 0c0.019185,0 0.0367126,-0.00792913 0.0494843,-0.0207008 0.0127717,-0.0127717 0.0207008,-0.0302992 0.0207008,-0.0494843l0 -2.16946c0,-0.019185 -0.00792913,-0.0367126 -0.0207008,-0.0494843 -0.0127717,-0.0127717 -0.0302953,-0.0207008 -0.0494843,-0.0207008l-2.7472 0c-0.0191929,0 -0.0367205,0.00792913 -0.0494882,0.0206969 -0.0127677,0.0127677 -0.0206969,0.0302953 -0.0206969,0.0494882l0 2.16946c0,0.019189 0.00792913,0.0367126 0.0207008,0.0494843 0.0127717,0.0127717 0.0302992,0.0207008 0.0494843,0.0207008l0.185878 0c-0.038811,0.0628583 -0.0633268,0.135484 -0.0689921,0.213339l-0.116886 0c-0.0780709,0 -0.148984,-0.0318701 -0.200319,-0.0832047 -0.0513346,-0.0513346 -0.0832047,-0.122244 -0.0832047,-0.200319l0 -2.16946c0,-0.0780787 0.0318661,-0.148988 0.0832008,-0.200323 0.0513346,-0.0513346 0.122244,-0.0832008 0.200323,-0.0832008z"/>
  <path class="fil0" d="M4.06091 3.33389l1.59943 0c0.086185,0 0.164461,0.0351929 0.221134,0.0918661 0.0566811,0.0566811 0.0918661,0.134969 0.0918661,0.221138l0 0.567768c0,0.0861654 -0.0351929,0.164445 -0.091874,0.221126 -0.0566811,0.0566811 -0.134961,0.091874 -0.221126,0.091874l-0.314091 0c-0.00566535,-0.0778543 -0.0301811,-0.15048 -0.0689921,-0.213339l0.383083 0c0.0272795,0 0.0521772,-0.0112559 0.0702913,-0.0293701 0.0181142,-0.0181142 0.0293701,-0.0430118 0.0293701,-0.0702913l0 -0.567768c0,-0.0272913 -0.011248,-0.052189 -0.0293622,-0.0703031 -0.0181142,-0.0181142 -0.0430079,-0.0293622 -0.0702992,-0.0293622l-1.59943 0 0 -0.213339zm0.34178 1.19377l-0.695488 0 0 -0.213339 0.76448 0c-0.038815,0.0628622 -0.0633268,0.135488 -0.0689921,0.213339z"/>
  <path class="fil0" d="M4.06091 2.42783c-0.0589094,0 -0.106669,0.0477598 -0.106669,0.106669 0,0.0589094 0.0477598,0.106669 0.106669,0.106669l0.70939 0 0.540087 0.815142c0.0324449,0.0490157 0.0984882,0.0624449 0.147504,0.03 0.0490157,-0.0324449 0.0624449,-0.0984882 0.03,-0.147504l-0.567862 -0.857063c-0.0183583,-0.0322008 -0.0530039,-0.0539134 -0.0927244,-0.0539134l-0.766394 0z"/>
  <path class="fil0" d="M4.87446 4.08943c0.130614,0 0.248882,0.0529567 0.334488,0.138563 0.0856063,0.0856063 0.138559,0.20387 0.138559,0.334484 0,0.130614 -0.0529528,0.248878 -0.138559,0.334484 -0.0856102,0.0856063 -0.203874,0.138559 -0.334488,0.138559 -0.130614,0 -0.248878,-0.0529528 -0.334484,-0.138559 -0.0856063,-0.0856063 -0.138559,-0.20387 -0.138559,-0.334484 0,-0.130614 0.0529528,-0.248878 0.138559,-0.334488 0.0856063,-0.0856063 0.20387,-0.138559 0.334484,-0.138559zm0.183654 0.289398c-0.0469882,-0.0469882 -0.111925,-0.0760591 -0.183654,-0.0760591 -0.0717283,0 -0.136661,0.0290669 -0.18365,0.0760551 -0.0469882,0.0469921 -0.0760551,0.111925 -0.0760551,0.183654 0,0.0717283 0.0290669,0.136661 0.0760551,0.18365 0.0469882,0.0469882 0.111921,0.0760551 0.18365,0.0760551 0.0717283,0 0.136661,-0.0290669 0.183654,-0.0760551 0.0469882,-0.0469882 0.0760551,-0.111921 0.0760551,-0.18365 0,-0.0717283 -0.0290669,-0.136661 -0.0760551,-0.18365z"/>
  <path class="fil0" d="M1.72551 4.08943c0.130618,0 0.248882,0.0529567 0.334484,0.138563 0.0856063,0.0856024 0.138563,0.203866 0.138563,0.334484 0,0.130614 -0.0529528,0.248878 -0.138559,0.334484 -0.0856102,0.0856063 -0.203874,0.138559 -0.334488,0.138559 -0.130614,0 -0.248874,-0.0529528 -0.334484,-0.138559 -0.0856063,-0.0856063 -0.138559,-0.20387 -0.138559,-0.334484 0,-0.130614 0.0529528,-0.248878 0.138559,-0.334484 0.0856063,-0.0856063 0.20387,-0.138563 0.334484,-0.138563zm0.18365 0.289398c-0.0469843,-0.0469882 -0.111921,-0.0760591 -0.18365,-0.0760591 -0.0717283,0 -0.136661,0.0290709 -0.18365,0.0760591 -0.0469882,0.0469882 -0.0760551,0.111921 -0.0760551,0.18365 0,0.0717283 0.0290669,0.136661 0.0760551,0.18365 0.0469921,0.0469882 0.111925,0.0760551 0.18365,0.0760551 0.0717283,0 0.136661,-0.0290669 0.183654,-0.0760551 0.0469882,-0.0469882 0.0760551,-0.111921 0.0760551,-0.18365 0,-0.0717283 -0.0290709,-0.136665 -0.0760591,-0.18365z"/>
  <path class="fil0" d="M5.86666 3.90374c0.0589094,0 0.106669,-0.0477598 0.106669,-0.106669 0,-0.0589094 -0.0477598,-0.106669 -0.106669,-0.106669l-0.473417 0c-0.0589094,0 -0.106669,0.0477598 -0.106669,0.106669 0,0.0589094 0.0477598,0.106669 0.106669,0.106669l0.473417 0z"/>
  <polygon class="fil0" points="0.96,2.24 4.05333,2.24 4.05333,2.45333 0.96,2.45333 "/>
  <path class="fil0" d="M1.51071 2.24l1.89281 0 0.106669 0 0 0.106669 0 1.47823 0 0.106669 -0.106669 0 -1.89281 0 -0.106669 0 0 -0.106669 0 -1.47823 0 -0.106669 0.106669 0zm1.78614 0.213339l-1.67947 0 0 1.26489 1.67947 0 0 -1.26489z"/>
  <path class="fil0" d="M2.24344 2.99496c0.0292244,-0.0508543 0.011689,-0.115776 -0.0391654,-0.145 -0.0508543,-0.0292244 -0.115776,-0.011689 -0.145,0.0391654l-0.170465 0.295256c-0.0292244,0.0508543 -0.011689,0.115776 0.0391654,0.145 0.0508543,0.0292244 0.115776,0.011689 0.145,-0.0391654l0.170465 -0.295256z"/>
  <path class="fil0" d="M2.74618 3.51872l0.189441 -0.525 -0.378882 0 0.189441 0.525zm0.315154 -0.560417l-0.265154 0.734815 -0.1 0 -0.265154 -0.734815 -0.0257087 -0.071252 0.0757087 0 0.530307 0 0.0757126 0 -0.0257126 0.071252z"/>
  <path class="fil0" d="M2.51278 2.94622c-0.011878,-0.106933 0.0062874,-0.187287 0.0468031,-0.254354 0.0393583,-0.0651614 0.0984291,-0.114736 0.17076,-0.163055l0.0400157 -0.0267323 0.0306063 0.0371496c0.0215039,0.0260984 0.0507835,0.050063 0.0785866,0.0728189 0.109969,0.0900118 0.202709,0.165925 0.0398543,0.365512l-0.0824961 -0.0670787c0.095685,-0.117268 0.0405394,-0.162413 -0.0248543,-0.215937 -0.0195984,-0.0160394 -0.0398504,-0.0326181 -0.0594646,-0.0515551 -0.0432756,0.0319803 -0.0783071,0.0650591 -0.101756,0.103878 -0.0286457,0.0474173 -0.0412441,0.106461 -0.0322205,0.187685l-0.105835 0.0116693z"/>
  <polygon class="fil0" points="3.03711,3.00556 2.64689,3.34383 2.5773,3.26341 2.96753,2.92515 "/>
 </g>
 <rect class="fil1" width="6.82666" height="6.82666"/>
</svg>
