<?xml version="1.0" encoding="UTF-8"?>
<!DOCTYPE svg PUBLIC "-//W3C//DTD SVG 1.1//EN" "http://www.w3.org/Graphics/SVG/1.1/DTD/svg11.dtd">
<!-- Creator: CorelDRAW -->
<svg xmlns="http://www.w3.org/2000/svg" xml:space="preserve" width="6.82666in" height="6.82666in" style="shape-rendering:geometricPrecision; text-rendering:geometricPrecision; image-rendering:optimizeQuality; fill-rule:evenodd; clip-rule:evenodd"
viewBox="0 0 6.82666 6.82666"
 xmlns:xlink="http://www.w3.org/1999/xlink">
 <defs>
  <style type="text/css">
   <![CDATA[
    .fil1 {fill:none}
    .fil0 {fill:#212121;fill-rule:nonzero}
   ]]>
  </style>
 </defs>
 <g id="Layer_x0020_1">
  <metadata id="CorelCorpID_0Corel-Layer"/>
  <path class="fil0" d="M2.11783 2.74603l0.956386 0 0.106669 0 0 0.106669 0 1.37719 0 0.106669 -0.106669 0 -0.2135 0c-0.0098937,-0.0756654 -0.0320709,-0.147465 -0.0644685,-0.213339l0.171299 0 0 -1.16385 -0.849717 0c-0.233563,0 -0.445972,0.0956299 -0.600028,0.249685 -0.154059,0.154055 -0.249685,0.366469 -0.249685,0.600028l0 0.181717c0,0.0363071 0.0149331,0.0693976 0.0389803,0.0934449 0.0240472,0.0240472 0.0571378,0.0389803 0.0934449,0.0389803l0.159303 0c-0.0323976,0.065874 -0.0545748,0.137673 -0.0644685,0.213339l-0.0948346 0c-0.0951929,0 -0.181661,-0.0388701 -0.24428,-0.101484 -0.0626142,-0.0626181 -0.101484,-0.149087 -0.101484,-0.24428l0 -0.181717c0,-0.292445 0.119563,-0.55824 0.312189,-0.750862 0.192622,-0.192622 0.458413,-0.312189 0.750862,-0.312189z"/>
  <path class="fil0" d="M1.41094 2.45814c-0.0589094,0 -0.106669,0.0477598 -0.106669,0.106669 0,0.0589094 0.0477598,0.106669 0.106669,0.106669l1.74644 0c0.0589094,0 0.106669,-0.0477598 0.106669,-0.106669 0,-0.0589094 -0.0477598,-0.106669 -0.106669,-0.106669l-1.74644 0z"/>
  <path class="fil0" d="M3.07422 4.12322c-0.0589094,0 -0.106669,0.0477598 -0.106669,0.106669 0,0.0589094 0.0477598,0.106669 0.106669,0.106669l0.807409 0c0.0431102,0 0.0802441,-0.0255787 0.0970669,-0.0623858l0.703854 -1.21912c0.0292244,-0.0508543 0.011689,-0.115776 -0.0391654,-0.145 -0.0508543,-0.0292244 -0.115776,-0.011689 -0.145,0.0391654l-0.677803 1.174 -0.746362 0z"/>
  <path class="fil0" d="M3.42672 1.60481c-0.0589094,0 -0.106669,0.0477598 -0.106669,0.106669 0,0.0589094 0.0477598,0.106669 0.106669,0.106669l0.674307 0 0.662437 1.79498c0.020248,0.0552283 0.081437,0.0835827 0.136665,0.0633346 0.0552283,-0.020248 0.0835827,-0.081437 0.0633346,-0.136665l-0.686197 -1.85935c-0.0132953,-0.0437677 -0.0539606,-0.0756299 -0.102075,-0.0756299l-0.748472 0z"/>
  <path class="fil0" d="M2.17805 3.73814c0.190114,0 0.362248,0.0770709 0.48685,0.201673 0.124602,0.124602 0.201673,0.296736 0.201673,0.48685 0,0.190114 -0.0770709,0.362248 -0.201673,0.48685 -0.124602,0.124602 -0.296736,0.201673 -0.48685,0.201673 -0.190114,0 -0.362248,-0.0770709 -0.48685,-0.201673 -0.124602,-0.124602 -0.201673,-0.296736 -0.201673,-0.48685 0,-0.190114 0.0770709,-0.362248 0.201673,-0.48685 0.124602,-0.124602 0.296736,-0.201673 0.48685,-0.201673zm0.336016 0.352508c-0.0859843,-0.0859843 -0.204787,-0.139169 -0.336016,-0.139169 -0.131228,0 -0.250031,0.053185 -0.336016,0.139169 -0.0859843,0.0859843 -0.139169,0.204787 -0.139169,0.336016 0,0.131228 0.053185,0.250031 0.139169,0.336016 0.0859843,0.0859843 0.204787,0.139169 0.336016,0.139169 0.131228,0 0.250031,-0.053185 0.336016,-0.139169 0.0859843,-0.0859843 0.139169,-0.204787 0.139169,-0.336016 0,-0.131228 -0.053185,-0.250031 -0.139169,-0.336016z"/>
  <path class="fil0" d="M5.19003 3.73814c0.190114,0 0.362248,0.0770709 0.48685,0.201673 0.124602,0.124602 0.201673,0.296736 0.201673,0.48685 0,0.190114 -0.0770709,0.362248 -0.201673,0.48685 -0.124602,0.124602 -0.296736,0.201673 -0.48685,0.201673 -0.190114,0 -0.362248,-0.0770709 -0.48685,-0.201673 -0.124602,-0.124602 -0.201673,-0.296736 -0.201673,-0.48685 0,-0.190114 0.0770709,-0.362248 0.201673,-0.48685 0.124602,-0.124602 0.296736,-0.201673 0.48685,-0.201673zm0.336016 0.352508c-0.0859843,-0.0859843 -0.204787,-0.139169 -0.336016,-0.139169 -0.131228,0 -0.250031,0.053185 -0.336016,0.139169 -0.0859843,0.0859843 -0.139169,0.204787 -0.139169,0.336016 0,0.131228 0.053185,0.250031 0.139169,0.336016 0.0859843,0.0859843 0.204787,0.139169 0.336016,0.139169 0.131228,0 0.250031,-0.053185 0.336016,-0.139169 0.0859843,-0.0859843 0.139169,-0.204787 0.139169,-0.336016 0,-0.131228 -0.053185,-0.250031 -0.139169,-0.336016z"/>
  <path class="fil0" d="M4.21411 4.29766c-0.00759449,0.0582165 0.0334488,0.111575 0.0916654,0.119169 0.0582165,0.00759449 0.111575,-0.0334488 0.119169,-0.0916654 0.0253819,-0.19174 0.119858,-0.359287 0.25635,-0.478898 0.136315,-0.119457 0.314902,-0.191028 0.508728,-0.191028 0.0585827,0 0.115909,0.0063622 0.170925,0.0188386 0.0560512,0.0127165 0.110445,0.0315591 0.162134,0.0562795 0.0529252,0.025311 0.116358,0.0029252 0.141669,-0.05 0.025311,-0.0529252 0.0029252,-0.116358 -0.05,-0.141669 -0.0666024,-0.0318543 -0.136094,-0.056 -0.207134,-0.0721142 -0.0720591,-0.0163425 -0.145043,-0.0246732 -0.217594,-0.0246732 -0.246579,0 -0.47435,0.0915551 -0.648728,0.244366 -0.174193,0.15265 -0.294772,0.366543 -0.327185,0.611394z"/>
  <polygon class="fil0" points="4.53117,2.51302 3.69895,3.58981 3.66674,3.63148 3.61478,3.63148 3.07422,3.63148 3.07422,3.41814 3.56282,3.41814 4.36284,2.38302 "/>
 </g>
 <rect class="fil1" width="6.82666" height="6.82666"/>
</svg>
