<?xml version="1.0" encoding="UTF-8"?>
<!DOCTYPE svg PUBLIC "-//W3C//DTD SVG 1.1//EN" "http://www.w3.org/Graphics/SVG/1.1/DTD/svg11.dtd">
<!-- Creator: CorelDRAW -->
<svg xmlns="http://www.w3.org/2000/svg" xml:space="preserve" width="6.82666in" height="6.82666in" style="shape-rendering:geometricPrecision; text-rendering:geometricPrecision; image-rendering:optimizeQuality; fill-rule:evenodd; clip-rule:evenodd"
viewBox="0 0 6.82666 6.82666"
 xmlns:xlink="http://www.w3.org/1999/xlink">
 <defs>
  <style type="text/css">
   <![CDATA[
    .fil1 {fill:none}
    .fil0 {fill:#212121;fill-rule:nonzero}
   ]]>
  </style>
 </defs>
 <g id="Layer_x0020_1">
  <metadata id="CorelCorpID_0Corel-Layer"/>
  <g id="_267713336">
   <path id="_678614440" class="fil0" d="M1.40981 4.03981c0.153654,0 0.29278,0.0622913 0.393488,0.163 0.100709,0.100709 0.163,0.239835 0.163,0.393488 0,0.153657 -0.0622913,0.29278 -0.163,0.393488 -0.100709,0.100709 -0.239835,0.163 -0.393488,0.163 -0.153657,0 -0.29278,-0.0622913 -0.393488,-0.163 -0.100709,-0.100709 -0.163,-0.239831 -0.163,-0.393488 0,-0.153654 0.0622913,-0.29278 0.163,-0.393488 0.100709,-0.100709 0.239831,-0.163 0.393488,-0.163zm0.242654 0.313835c-0.0620906,-0.0620906 -0.147886,-0.100496 -0.242654,-0.100496 -0.0947717,0 -0.180563,0.0384055 -0.242654,0.100496 -0.0620906,0.0620906 -0.100496,0.147886 -0.100496,0.242654 0,0.0947717 0.0384055,0.180563 0.100496,0.242654 0.0620906,0.0620906 0.147882,0.100496 0.242654,0.100496 0.0947677,0 0.180563,-0.0384055 0.242654,-0.100496 0.0620906,-0.0620906 0.100496,-0.147882 0.100496,-0.242654 0,-0.0947677 -0.0384055,-0.180563 -0.100496,-0.242654z"/>
   <path id="_678614056" class="fil0" d="M5.28981 4.03981c0.153657,0 0.29278,0.0622913 0.393488,0.163 0.100709,0.100709 0.163,0.239835 0.163,0.393488 0,0.153657 -0.0622913,0.29278 -0.163,0.393488 -0.100709,0.100709 -0.239831,0.163 -0.393488,0.163 -0.153654,0 -0.29278,-0.0622913 -0.393488,-0.163 -0.100709,-0.100709 -0.163,-0.239831 -0.163,-0.393488 0,-0.153654 0.0622913,-0.29278 0.163,-0.393488 0.100709,-0.100709 0.239835,-0.163 0.393488,-0.163zm0.242654 0.313835c-0.0620906,-0.0620906 -0.147882,-0.100496 -0.242654,-0.100496 -0.0947677,0 -0.180563,0.0384055 -0.242654,0.100496 -0.0620906,0.0620906 -0.100496,0.147886 -0.100496,0.242654 0,0.0947717 0.0384055,0.180563 0.100496,0.242654 0.0620906,0.0620906 0.147886,0.100496 0.242654,0.100496 0.0947717,0 0.180563,-0.0384055 0.242654,-0.100496 0.0620906,-0.0620906 0.100496,-0.147882 0.100496,-0.242654 0,-0.0947677 -0.0384055,-0.180563 -0.100496,-0.242654z"/>
   <path id="_678613936" class="fil0" d="M5.18314 4.5963c0,0.0589094 0.0477598,0.106669 0.106669,0.106669 0.0589094,0 0.106669,-0.0477598 0.106669,-0.106669l0 -2.74889c0,-0.0589094 -0.0477598,-0.106669 -0.106669,-0.106669 -0.0589094,0 -0.106669,0.0477598 -0.106669,0.106669l0 2.74889z"/>
   <path id="_678614392" class="fil0" d="M1.85963 4.48963c-0.0589094,0 -0.106669,0.0477598 -0.106669,0.106669 0,0.0589094 0.0477598,0.106669 0.106669,0.106669l2.10572 0c0.0266575,0 0.0510315,-0.00977953 0.0697283,-0.0259449l1.28737 -0.930791c0.0476339,-0.0342835 0.0584528,-0.100701 0.0241693,-0.148335 -0.0342835,-0.0476339 -0.100701,-0.0584528 -0.148335,-0.0241693l-1.26678 0.915902 -2.07188 0z"/>
   <path id="_267716768" class="fil0" d="M1.40981 4.44219c0.0425354,0 0.0810748,0.0172598 0.108961,0.0451457 0.0278858,0.0278858 0.0451457,0.0664252 0.0451457,0.108961 0,0.0425433 -0.0172598,0.0810709 -0.0451457,0.108957l-0.000208661 -0.000208661c-0.028122,0.0280315 -0.0666024,0.0453543 -0.108752,0.0453543 -0.0420551,0 -0.080437,-0.0172402 -0.108535,-0.0451496l-3.93701e-006 3.93701e-006 -0.000208661 -0.000208661 -0.000208661 -0.000208661 3.93701e-006 -3.93701e-006c-0.0279094,-0.0280984 -0.0451496,-0.0664803 -0.0451496,-0.108535 0,-0.0421496 0.0173228,-0.0806299 0.0453543,-0.108752l-0.000208661 -0.000208661c0.0278858,-0.0278858 0.0664134,-0.0451457 0.108957,-0.0451457zm0.0392598 0.114846l-0.0392598 0.0392598 0 -3.93701e-006 -9.05512e-005 -9.05512e-005 9.05512e-005 -9.05512e-005 0 -0.0555906c-0.00747638,0.00522441 -0.0301339,0.0147087 -0.0392283,0.0165118l0.00568898 0.00572047 -0.0057126 -0.0057126 -0.00034252 6.29921e-005 0.0394094 0.0391929 9.44882e-005 -9.44882e-005 -0.0334488 -0.0334488 0.0333543 0.0335433 -0.0333543 0.0335394 0.0334488 -0.0334488 -9.05512e-005 -9.05512e-005 -3.93701e-006 0 3.93701e-006 0 0.000181102 0 -9.05512e-005 9.05512e-005 9.05512e-005 9.05512e-005 0 -0.000181102 3.93701e-006 0 9.05512e-005 9.05512e-005 9.05512e-005 -9.05512e-005 -0.000181102 0m-0.0396102 0.0396378c0.00875984,0.00148819 0.0319291,0.0109055 0.0396063,0.016122l0 -0.0555748 9.44882e-005 -9.44882e-005 0.0334488 0.0334488 -0.0335433 -0.0333543 -0.0335394 0.0333543 0.0335394 -0.0333543 0 -3.93701e-006m0 -0.000185039l0 -0.000181102 0.0389252 -0.0391457c-0.00927953,-0.00194882 -0.0315276,-0.0112835 -0.0389252,-0.0164488l0 3.93701e-006m0.0557795 0.0557756l-3.93701e-006 0c-0.00522441,0.00747638 -0.0147087,0.0301339 -0.0165118,0.0392283l-0.00572047 -0.00568898 0.0057126 0.0057126 -6.29921e-005 0.00034252 -0.0391929 -0.0394094 0 0.0555748c0.00754724,-0.00513386 0.0301063,-0.0143346 0.0391732,-0.0160433l1.9685e-005 -0.000122047m0.0165827 -0.0395945l-0.0555906 0 0.0391457 -0.0389252 -7.08661e-005 -0.000334646 -0.000334646 -7.08661e-005m-0.0391102 0.0393307l-0.0555748 0c0.00521654,0.00767717 0.0146339,0.0308465 0.016122,0.0396063l0.00609843 -0.00606693 -0.00606693 0.00609843m-0.000110236 -0.078811c-0.00170866,0.00906693 -0.0109094,0.031622 -0.0160433,0.0391732m0.0161654 -0.0391929l-0.000122047 1.9685e-005m0.000122047 -1.9685e-005l0.0394094 0.0391929m0.0559646 0c-0.00516535,-0.00739764 -0.0145,-0.0296457 -0.0164488,-0.0389252"/>
   <path id="_267722816" class="fil0" d="M4.66715 1.67388c-0.0589094,0 -0.106669,0.0477598 -0.106669,0.106669 0,0.0589094 0.0477598,0.106669 0.106669,0.106669l1.19952 0c0.0589094,0 0.106669,-0.0477598 0.106669,-0.106669 0,-0.0589094 -0.0477598,-0.106669 -0.106669,-0.106669l-1.19952 0z"/>
  </g>
 </g>
 <rect class="fil1" width="6.82666" height="6.82666"/>
</svg>
