<?xml version="1.0" encoding="UTF-8"?>
<!DOCTYPE svg PUBLIC "-//W3C//DTD SVG 1.1//EN" "http://www.w3.org/Graphics/SVG/1.1/DTD/svg11.dtd">
<!-- Creator: CorelDRAW -->
<svg xmlns="http://www.w3.org/2000/svg" xml:space="preserve" width="6.82666in" height="6.82666in" style="shape-rendering:geometricPrecision; text-rendering:geometricPrecision; image-rendering:optimizeQuality; fill-rule:evenodd; clip-rule:evenodd"
viewBox="0 0 6.82666 6.82666"
 xmlns:xlink="http://www.w3.org/1999/xlink">
 <defs>
  <style type="text/css">
   <![CDATA[
    .fil1 {fill:none}
    .fil0 {fill:#212121;fill-rule:nonzero}
   ]]>
  </style>
 </defs>
 <g id="Layer_x0020_1">
  <metadata id="CorelCorpID_0Corel-Layer"/>
  <path class="fil0" d="M2.01824 1.91999l2.79019 0c0.203126,0 0.387717,0.0830236 0.521469,0.216776 0.133752,0.133752 0.216776,0.318343 0.216776,0.521469l0 2.57685c0,0.203126 -0.0830236,0.387717 -0.216776,0.521469 -0.133752,0.133752 -0.318343,0.216776 -0.521469,0.216776l-2.79019 0c-0.203126,0 -0.387717,-0.0830236 -0.521469,-0.216776 -0.133752,-0.133752 -0.216776,-0.318343 -0.216776,-0.521469l0 -2.57685c0,-0.203126 0.0830236,-0.387717 0.216776,-0.521469 0.133752,-0.133752 0.318343,-0.216776 0.521469,-0.216776zm2.79019 0.213339l-2.79019 0c-0.14424,0 -0.275449,0.0590866 -0.370634,0.154272 -0.095185,0.095185 -0.154272,0.226394 -0.154272,0.370634l0 2.57685c0,0.14424 0.0590866,0.275449 0.154272,0.370634 0.095185,0.095185 0.226394,0.154272 0.370634,0.154272l2.79019 0c0.14424,0 0.275449,-0.0590866 0.370634,-0.154272 0.095185,-0.095185 0.154272,-0.226394 0.154272,-0.370634l0 -2.57685c0,-0.14424 -0.0590866,-0.275449 -0.154272,-0.370634 -0.095185,-0.095185 -0.226394,-0.154272 -0.370634,-0.154272z"/>
  <path class="fil0" d="M5.54667 4.44912c0,0.125933 -0.0514449,0.24035 -0.134319,0.323224 -0.082874,0.082874 -0.197291,0.134319 -0.323224,0.134319l-3.35159 0c-0.125933,0 -0.24035,-0.0514449 -0.323224,-0.134319 -0.082874,-0.082874 -0.134319,-0.197291 -0.134319,-0.323224l0.213339 0c0,0.0670472 0.0275039,0.128079 0.071815,0.17239 0.044311,0.044311 0.105343,0.071815 0.17239,0.071815l3.35159 0c0.0670472,0 0.128079,-0.0275039 0.17239,-0.071815 0.044311,-0.044311 0.071815,-0.105343 0.071815,-0.17239l0.213339 0zm-4.26668 -1.43159c0,-0.125933 0.0514449,-0.24035 0.134319,-0.323224 0.082874,-0.082874 0.197291,-0.134319 0.323224,-0.134319l3.35159 0c0.125933,0 0.24035,0.0514449 0.323224,0.134319 0.082874,0.082874 0.134319,0.197291 0.134319,0.323224l-0.213339 0c0,-0.0670472 -0.0275039,-0.128079 -0.071815,-0.17239 -0.044311,-0.044311 -0.105343,-0.071815 -0.17239,-0.071815l-3.35159 0c-0.0670472,0 -0.128079,0.0275039 -0.17239,0.071815 -0.044311,0.044311 -0.071815,0.105343 -0.071815,0.17239l-0.213339 0z"/>
  <polygon class="fil0" points="3.52,2.66666 3.52,4.8 3.30666,4.8 3.30666,2.66666 "/>
  <polygon class="fil0" points="3.52,0.959996 3.52,2.02666 3.30666,2.02666 3.30666,0.959996 "/>
  <polygon class="fil0" points="1.17333,0.853327 5.65333,0.853327 5.65333,1.06667 1.17333,1.06667 "/>
 </g>
 <rect class="fil1" width="6.82666" height="6.82666"/>
</svg>
