<?xml version="1.0" encoding="UTF-8"?>
<!DOCTYPE svg PUBLIC "-//W3C//DTD SVG 1.1//EN" "http://www.w3.org/Graphics/SVG/1.1/DTD/svg11.dtd">
<!-- Creator: CorelDRAW -->
<svg xmlns="http://www.w3.org/2000/svg" xml:space="preserve" width="6.82666in" height="6.82666in" style="shape-rendering:geometricPrecision; text-rendering:geometricPrecision; image-rendering:optimizeQuality; fill-rule:evenodd; clip-rule:evenodd"
viewBox="0 0 6.82666 6.82666"
 xmlns:xlink="http://www.w3.org/1999/xlink">
 <defs>
  <style type="text/css">
   <![CDATA[
    .fil2 {fill:none}
    .fil1 {fill:#212121}
    .fil0 {fill:#212121;fill-rule:nonzero}
   ]]>
  </style>
 </defs>
 <g id="Layer_x0020_1">
  <metadata id="CorelCorpID_0Corel-Layer"/>
  <path class="fil0" d="M0.973366 3.80667l4.87993 0 0.141476 0 -0.0393937 0.136252 -0.266661 0.922224c-0.0284921,0.0985433 -0.0811772,0.191346 -0.160744,0.257654 -0.071874,0.0598976 -0.163059,0.0972087 -0.274669,0.0972087l-3.67994 0c-0.111626,0 -0.202799,-0.0373031 -0.274677,-0.0972008 -0.079563,-0.0662953 -0.132236,-0.159091 -0.160736,-0.257661l-0.266661 -0.922224 -0.0393937 -0.136252 0.141476 0zm4.73845 0.213339l-4.59697 0 0.227264 0.785972c0.017622,0.0609449 0.0480984,0.116579 0.0924055,0.153496 0.0348976,0.0290827 0.0807795,0.0471929 0.138843,0.0471929l3.67994 0c0.0580551,0 0.103937,-0.0181181 0.138835,-0.0472008 0.044311,-0.0369291 0.0747992,-0.092563 0.0924134,-0.153488l0.227264 -0.785972z"/>
  <circle class="fil1" cx="1.68229" cy="4.30226" r="0.109386"/>
  <circle class="fil1" cx="2.04275" cy="4.30226" r="0.109386"/>
  <circle class="fil1" cx="2.40322" cy="4.30226" r="0.109386"/>
  <circle class="fil1" cx="2.76368" cy="4.30226" r="0.109386"/>
  <circle class="fil1" cx="3.12415" cy="4.30226" r="0.109386"/>
  <circle class="fil1" cx="3.48461" cy="4.30226" r="0.109386"/>
  <circle class="fil1" cx="3.84507" cy="4.30226" r="0.109386"/>
  <circle class="fil1" cx="4.20554" cy="4.30226" r="0.109386"/>
  <circle class="fil1" cx="4.566" cy="4.30226" r="0.109386"/>
  <circle class="fil1" cx="4.92647" cy="4.30226" r="0.109386"/>
  <circle class="fil1" cx="5.28693" cy="4.30226" r="0.109386"/>
  <path class="fil0" d="M1.48666 3.07333l0.533343 0c0.0564528,0 0.107992,0.0232087 0.145618,0.0606299l3.93701e-006 -3.93701e-006 0.000208661 0.000208661 0.000208661 0.000208661 -3.93701e-006 3.93701e-006c0.0374173,0.037622 0.0606299,0.0891654 0.0606299,0.145618l0 0.533343c0,0.0564528 -0.0232126,0.107996 -0.0606299,0.145618l3.93701e-006 3.93701e-006 -0.000208661 0.000208661 -0.000208661 0.000208661 -3.93701e-006 -3.93701e-006c-0.037626,0.0374213 -0.0891654,0.0606299 -0.145618,0.0606299l-0.533343 0c-0.0564528,0 -0.107996,-0.0232126 -0.145618,-0.0606299l-3.93701e-006 3.93701e-006 -0.000208661 -0.000208661 -0.000208661 -0.000208661 3.93701e-006 -3.93701e-006c-0.0374173,-0.037622 -0.0606299,-0.0891654 -0.0606299,-0.145618l0 -0.533343c0,-0.0564528 0.0232126,-0.107996 0.0606299,-0.145618l-3.93701e-006 -3.93701e-006 0.000208661 -0.000208661 0.000208661 -0.000208661 3.93701e-006 3.93701e-006c0.037622,-0.0374173 0.0891654,-0.0606299 0.145618,-0.0606299zm0.526669 0.213339l-0.519996 0 0 0.519996 0.519996 0 0 -0.519996z"/>
  <path class="fil0" d="M2.74667 3.28667l-0.519996 0 0 0.519996 0.519996 0 0 -0.519996zm-0.526669 -0.213339l0.533343 0c0.0564567,0 0.107996,0.0232087 0.145618,0.0606299l3.93701e-006 -3.93701e-006 0.000208661 0.000208661 0.000208661 0.000208661 -3.93701e-006 3.93701e-006c0.0374173,0.037622 0.0606299,0.0891654 0.0606299,0.145618l0 0.533343c0,0.0564567 -0.0232126,0.108 -0.0606299,0.145618l3.93701e-006 3.93701e-006 -0.000208661 0.000208661 -0.000208661 0.000208661 -3.93701e-006 -3.93701e-006c-0.037626,0.0374213 -0.0891654,0.0606299 -0.145618,0.0606299l-0.533343 0c-0.0564567,0 -0.108,-0.0232126 -0.145618,-0.0606299l-3.93701e-006 3.93701e-006 -0.000208661 -0.000208661 -0.000208661 -0.000208661 3.93701e-006 -3.93701e-006c-0.0374173,-0.037622 -0.0606299,-0.0891654 -0.0606299,-0.145618l0 -0.533343c0,-0.0564567 0.0232126,-0.108 0.0606299,-0.145618l-3.93701e-006 -3.93701e-006 0.000208661 -0.000208661 0.000208661 -0.000208661 3.93701e-006 3.93701e-006c0.037622,-0.0374173 0.0891654,-0.0606299 0.145618,-0.0606299z"/>
  <path class="fil0" d="M4.21333 3.28667l-0.519996 0 0 0.519996 0.519996 0 0 -0.519996zm-0.526669 -0.213339l0.533343 0c0.0564567,0 0.108,0.0232126 0.145618,0.0606299l3.93701e-006 -3.93701e-006 0.000208661 0.000208661 0.000208661 0.000208661 -3.93701e-006 3.93701e-006c0.0374173,0.037622 0.0606299,0.0891654 0.0606299,0.145618l0 0.533343c0,0.0564567 -0.0232126,0.108 -0.0606299,0.145618l3.93701e-006 3.93701e-006 -0.000208661 0.000208661 -0.000208661 0.000208661 -3.93701e-006 -3.93701e-006c-0.037622,0.0374173 -0.0891654,0.0606299 -0.145618,0.0606299l-0.533343 0c-0.0564567,0 -0.107996,-0.0232087 -0.145618,-0.0606299l-3.93701e-006 3.93701e-006 -0.000208661 -0.000208661 -0.000208661 -0.000208661 3.93701e-006 -3.93701e-006c-0.0374173,-0.037622 -0.0606299,-0.0891654 -0.0606299,-0.145618l0 -0.533343c0,-0.0564567 0.0232126,-0.108 0.0606299,-0.145618l-3.93701e-006 -3.93701e-006 0.000208661 -0.000208661 0.000208661 -0.000208661 3.93701e-006 3.93701e-006c0.037626,-0.0374213 0.0891654,-0.0606299 0.145618,-0.0606299z"/>
  <path class="fil0" d="M1.49333 3.07333l0.519996 0 0 -0.519996 -0.519996 0 0 0.519996zm0.526669 0.213339l-0.533343 0c-0.0564567,0 -0.108,-0.0232126 -0.145618,-0.0606299l-3.93701e-006 3.93701e-006 -0.000208661 -0.000208661 -0.000208661 -0.000208661 3.93701e-006 -3.93701e-006c-0.0374213,-0.037626 -0.0606299,-0.0891654 -0.0606299,-0.145618l0 -0.533343c0,-0.0564567 0.0232126,-0.108 0.0606299,-0.145618l-3.93701e-006 -3.93701e-006 0.000208661 -0.000208661 0.000208661 -0.000208661 3.93701e-006 3.93701e-006c0.037622,-0.0374173 0.0891654,-0.0606299 0.145618,-0.0606299l0.533343 0c0.0564567,0 0.107996,0.0232087 0.145618,0.0606299l3.93701e-006 -3.93701e-006 0.000208661 0.000208661 0.000208661 0.000208661 -3.93701e-006 3.93701e-006c0.0374173,0.037622 0.0606299,0.0891654 0.0606299,0.145618l0 0.533343c0,0.0564567 -0.0232087,0.107996 -0.0606299,0.145618l3.93701e-006 3.93701e-006 -0.000208661 0.000208661 -0.000208661 0.000208661 -3.93701e-006 -3.93701e-006c-0.037626,0.0374213 -0.0891654,0.0606299 -0.145618,0.0606299z"/>
  <path class="fil0" d="M2.96 3.07333l0.519996 0 0 -0.519996 -0.519996 0 0 0.519996zm0.526669 0.213339l-0.533343 0c-0.0564567,0 -0.108,-0.0232126 -0.145618,-0.0606299l-3.93701e-006 3.93701e-006 -0.000208661 -0.000208661 -0.000208661 -0.000208661 3.93701e-006 -3.93701e-006c-0.0374213,-0.037626 -0.0606299,-0.0891654 -0.0606299,-0.145618l0 -0.533343c0,-0.0564567 0.0232126,-0.108 0.0606299,-0.145618l-3.93701e-006 -3.93701e-006 0.000208661 -0.000208661 0.000208661 -0.000208661 3.93701e-006 3.93701e-006c0.037622,-0.0374173 0.0891654,-0.0606299 0.145618,-0.0606299l0.533343 0c0.0564567,0 0.108,0.0232126 0.145618,0.0606299l3.93701e-006 -3.93701e-006 0.000208661 0.000208661 0.000208661 0.000208661 -3.93701e-006 3.93701e-006c0.0374173,0.037622 0.0606299,0.0891654 0.0606299,0.145618l0 0.533343c0,0.0564567 -0.0232087,0.107996 -0.0606299,0.145618l3.93701e-006 3.93701e-006 -0.000208661 0.000208661 -0.000208661 0.000208661 -3.93701e-006 -3.93701e-006c-0.037622,0.0374173 -0.0891654,0.0606299 -0.145618,0.0606299z"/>
  <path class="fil0" d="M1.48666 1.60666l0.533343 0c0.0564528,0 0.107992,0.0232087 0.145618,0.0606299l3.93701e-006 -3.93701e-006 0.000208661 0.000208661 0.000208661 0.000208661 -3.93701e-006 3.93701e-006c0.0374173,0.037622 0.0606299,0.0891654 0.0606299,0.145618l0 0.533343c0,0.0564528 -0.0232087,0.107992 -0.0606299,0.145618l3.93701e-006 3.93701e-006 -0.000208661 0.000208661 -0.000208661 0.000208661 -3.93701e-006 -3.93701e-006c-0.037626,0.0374213 -0.0891654,0.0606299 -0.145618,0.0606299l-0.533343 0c-0.0564528,0 -0.107996,-0.0232126 -0.145618,-0.0606299l-3.93701e-006 3.93701e-006 -0.000208661 -0.000208661 -0.000208661 -0.000208661 3.93701e-006 -3.93701e-006c-0.0374213,-0.037626 -0.0606299,-0.0891654 -0.0606299,-0.145618l0 -0.533343c0,-0.0564528 0.0232126,-0.107996 0.0606299,-0.145618l-3.93701e-006 -3.93701e-006 0.000208661 -0.000208661 0.000208661 -0.000208661 3.93701e-006 3.93701e-006c0.037622,-0.0374173 0.0891654,-0.0606299 0.145618,-0.0606299zm0.526669 0.213339l-0.519996 0 0 0.519996 0.519996 0 0 -0.519996z"/>
  <path class="fil0" d="M2.74667 1.82l-0.519996 0 0 0.519996 0.519996 0 0 -0.519996zm-0.526669 -0.213339l0.533343 0c0.0564567,0 0.107996,0.0232087 0.145618,0.0606299l3.93701e-006 -3.93701e-006 0.000208661 0.000208661 0.000208661 0.000208661 -3.93701e-006 3.93701e-006c0.0374173,0.037622 0.0606299,0.0891654 0.0606299,0.145618l0 0.533343c0,0.0564567 -0.0232087,0.107996 -0.0606299,0.145618l3.93701e-006 3.93701e-006 -0.000208661 0.000208661 -0.000208661 0.000208661 -3.93701e-006 -3.93701e-006c-0.037626,0.0374213 -0.0891654,0.0606299 -0.145618,0.0606299l-0.533343 0c-0.0564567,0 -0.108,-0.0232126 -0.145618,-0.0606299l-3.93701e-006 3.93701e-006 -0.000208661 -0.000208661 -0.000208661 -0.000208661 3.93701e-006 -3.93701e-006c-0.0374213,-0.037626 -0.0606299,-0.0891654 -0.0606299,-0.145618l0 -0.533343c0,-0.0564567 0.0232126,-0.108 0.0606299,-0.145618l-3.93701e-006 -3.93701e-006 0.000208661 -0.000208661 0.000208661 -0.000208661 3.93701e-006 3.93701e-006c0.037622,-0.0374173 0.0891654,-0.0606299 0.145618,-0.0606299z"/>
 </g>
 <rect class="fil2" width="6.82666" height="6.82666"/>
</svg>
