<?xml version="1.0" encoding="UTF-8"?>
<!DOCTYPE svg PUBLIC "-//W3C//DTD SVG 1.1//EN" "http://www.w3.org/Graphics/SVG/1.1/DTD/svg11.dtd">
<!-- Creator: CorelDRAW -->
<svg xmlns="http://www.w3.org/2000/svg" xml:space="preserve" width="6.82666in" height="6.82666in" style="shape-rendering:geometricPrecision; text-rendering:geometricPrecision; image-rendering:optimizeQuality; fill-rule:evenodd; clip-rule:evenodd"
viewBox="0 0 6.82666 6.82666"
 xmlns:xlink="http://www.w3.org/1999/xlink">
 <defs>
  <style type="text/css">
   <![CDATA[
    .fil1 {fill:none}
    .fil0 {fill:#212121;fill-rule:nonzero}
   ]]>
  </style>
 </defs>
 <g id="Layer_x0020_1">
  <metadata id="CorelCorpID_0Corel-Layer"/>
  <path class="fil0" d="M1.38666 3.51999l4.05334 0c0.146776,0 0.280142,0.0599724 0.376748,0.156587 0.0966142,0.0966102 0.156587,0.229969 0.156587,0.376748 0,0.205437 -0.0839724,0.392138 -0.219252,0.527417 -0.135283,0.13528 -0.321984,0.219252 -0.527421,0.219252l-3.62666 0c-0.205437,0 -0.392138,-0.0839724 -0.527421,-0.219252 -0.13528,-0.13528 -0.219252,-0.32198 -0.219252,-0.527417 0,-0.14678 0.0599724,-0.280138 0.156587,-0.376748 0.0966063,-0.0966142 0.229972,-0.156587 0.376748,-0.156587zm4.05334 0.213339l-4.05334 0c-0.0878858,0 -0.167866,0.0360354 -0.225913,0.0940827 -0.0580472,0.0580433 -0.0940827,0.138024 -0.0940827,0.225913 0,0.146555 0.0600354,0.27987 0.156748,0.376583 0.0967165,0.0967126 0.230031,0.156748 0.376587,0.156748l3.62666 0c0.146555,0 0.27987,-0.0600354 0.376587,-0.156748 0.0967126,-0.0967126 0.156748,-0.230028 0.156748,-0.376583 0,-0.0878898 -0.0360354,-0.16787 -0.0940827,-0.225913 -0.0580472,-0.0580472 -0.138028,-0.0940827 -0.225913,-0.0940827z"/>
  <path class="fil0" d="M1.63393 3.65703c0,-0.49135 0.199169,-0.936201 0.521181,-1.25821 0.322012,-0.322012 0.766866,-0.521181 1.25822,-0.521181 0.49135,0 0.936205,0.199169 1.25822,0.521181 0.322012,0.322012 0.521181,0.766862 0.521181,1.25821l-0.213339 0c0,-0.432465 -0.175283,-0.823984 -0.458677,-1.10738 -0.283394,-0.283394 -0.674913,-0.458677 -1.10738,-0.458677 -0.432469,0 -0.823988,0.175283 -1.10738,0.458677 -0.283394,0.283394 -0.458677,0.674913 -0.458677,1.10738l-0.213339 0z"/>
  <polygon class="fil0" points="3.52,1.28 3.52,1.9843 3.30667,1.9843 3.30667,1.28 "/>
  <path class="fil0" d="M3.41333 0.853327c0.0835236,0 0.15915,0.0338622 0.21389,0.0886102 0.054748,0.0547402 0.0886102,0.130366 0.0886102,0.21389 0,0.0835157 -0.0338622,0.159146 -0.0886102,0.21389 -0.0547402,0.0547402 -0.130366,0.0886102 -0.21389,0.0886102 -0.0835236,0 -0.15915,-0.0338701 -0.21389,-0.0886102 -0.054748,-0.0547441 -0.0886102,-0.130374 -0.0886102,-0.21389 0,-0.0835236 0.0338622,-0.15915 0.0886102,-0.21389 0.0547402,-0.054748 0.130366,-0.0886102 0.21389,-0.0886102zm0.0630551 0.239445c-0.016126,-0.0161299 -0.0384252,-0.0261063 -0.0630551,-0.0261063 -0.0246299,0 -0.0469291,0.00997638 -0.0630551,0.0261063 -0.0161299,0.016126 -0.0261063,0.0384252 -0.0261063,0.0630551 0,0.0246299 0.00998031,0.0469291 0.0261063,0.0630551 0.016126,0.016126 0.0384252,0.0261063 0.0630551,0.0261063 0.0246299,0 0.0469291,-0.00998031 0.0630551,-0.0261063 0.016126,-0.016126 0.0261063,-0.0384252 0.0261063,-0.0630551 0,-0.0246299 -0.00997638,-0.0469291 -0.0261063,-0.0630551z"/>
  <polygon class="fil0" points="2.30129,4.74624 1.73709,5.72346 1.55293,5.61763 2.11712,4.64041 "/>
  <path class="fil0" d="M1.58453 5.43999c0.0755787,0 0.144016,0.0306457 0.193559,0.080189 0.0495433,0.0495433 0.080189,0.11798 0.080189,0.193559 0,0.0755827 -0.0306496,0.144024 -0.080189,0.193559 -0.0495433,0.0495433 -0.11798,0.080189 -0.193559,0.080189 -0.0755827,0 -0.144024,-0.0306496 -0.193559,-0.080189 -0.0495394,-0.0495354 -0.080189,-0.117976 -0.080189,-0.193559 0,-0.0755787 0.0306457,-0.144016 0.080189,-0.193559 0.0495354,-0.0495394 0.117976,-0.080189 0.193559,-0.080189zm0.0427244 0.231024c-0.0109252,-0.0109252 -0.0260315,-0.017685 -0.0427244,-0.017685 -0.016689,0 -0.0318031,0.00676378 -0.0427244,0.017685 -0.0109252,0.0109252 -0.017685,0.0260315 -0.017685,0.0427244 0,0.016689 0.00676378,0.0318031 0.017685,0.0427244 0.0109213,0.0109213 0.0260354,0.017685 0.0427244,0.017685 0.0166929,0 0.0317992,-0.00675984 0.0427244,-0.017685 0.0109213,-0.0109213 0.017685,-0.0260354 0.017685,-0.0427244 0,-0.0166929 -0.00675984,-0.0317992 -0.017685,-0.0427244z"/>
  <polygon class="fil0" points="4.70954,4.64041 5.27373,5.61763 5.08957,5.72346 4.52537,4.74624 "/>
  <path class="fil0" d="M5.24213 5.65333c-0.0166929,0 -0.0317992,0.00675984 -0.0427244,0.017685 -0.0109252,0.0109252 -0.017685,0.0260315 -0.017685,0.0427244 0,0.016689 0.00676378,0.0318031 0.017685,0.0427244 0.0109252,0.0109252 0.0260315,0.017685 0.0427244,0.017685 0.016689,0 0.0318031,-0.00676378 0.0427244,-0.017685 0.0109213,-0.0109213 0.017685,-0.0260354 0.017685,-0.0427244 0,-0.0166929 -0.00675984,-0.0317992 -0.017685,-0.0427244 -0.0109213,-0.0109213 -0.0260354,-0.017685 -0.0427244,-0.017685zm-0.193559 -0.13315c0.0495433,-0.0495433 0.11798,-0.080189 0.193559,-0.080189 0.0755827,0 0.144024,0.0306496 0.193559,0.080189 0.0495433,0.0495433 0.080189,0.11798 0.080189,0.193559 0,0.0755827 -0.0306496,0.144024 -0.080189,0.193559 -0.0495354,0.0495394 -0.117976,0.080189 -0.193559,0.080189 -0.0755787,0 -0.144016,-0.0306457 -0.193559,-0.080189 -0.0495394,-0.0495354 -0.080189,-0.117976 -0.080189,-0.193559 0,-0.0755787 0.0306457,-0.144016 0.080189,-0.193559z"/>
 </g>
 <rect class="fil1" width="6.82666" height="6.82666"/>
</svg>
