<?xml version="1.0" encoding="UTF-8"?>
<!DOCTYPE svg PUBLIC "-//W3C//DTD SVG 1.1//EN" "http://www.w3.org/Graphics/SVG/1.1/DTD/svg11.dtd">
<!-- Creator: CorelDRAW -->
<svg xmlns="http://www.w3.org/2000/svg" xml:space="preserve" width="6.82666in" height="6.82666in" style="shape-rendering:geometricPrecision; text-rendering:geometricPrecision; image-rendering:optimizeQuality; fill-rule:evenodd; clip-rule:evenodd"
viewBox="0 0 6.82666 6.82666"
 xmlns:xlink="http://www.w3.org/1999/xlink">
 <defs>
  <style type="text/css">
   <![CDATA[
    .fil1 {fill:none}
    .fil0 {fill:#212121;fill-rule:nonzero}
   ]]>
  </style>
 </defs>
 <g id="Layer_x0020_1">
  <metadata id="CorelCorpID_0Corel-Layer"/>
  <path class="fil0" d="M1.72665 2.26398l3.06669 0 0.0472323 0 0.0319331 0.0354173 0.939988 1.04268 0.0642323 0.071252 -0.0642323 0.071252 -0.939988 1.04268 -0.0319331 0.0354173 -0.0472323 0 -3.06669 0 -0.0536614 0 -0.0321732 -0.043752 -0.766657 -1.04268 -0.0462598 -0.0629173 0.0462598 -0.0629173 0.766657 -1.04268 0.0321732 -0.043752 0.0536614 0zm3.01945 0.213339l-2.96579 0 -0.688228 0.936008 0.688228 0.936008 2.96579 0 0.843823 -0.936008 -0.843823 -0.936008z"/>
  <path class="fil0" d="M2.03329 2.97732l-0.320591 0.436012 0.320591 0.436012 2.49039 0 0.393071 -0.436012 -0.393071 -0.436012 -2.49039 0zm-0.53852 0.373094l0.39902 -0.542681 0.0321732 -0.043752 0.0536614 0 2.59129 0 0.0472323 0 0.0319331 0.0354173 0.489236 0.542681 0.0642323 0.071252 -0.0642323 0.071252 -0.489236 0.542681 -0.0319331 0.0354173 -0.0472323 0 -2.59129 0 -0.0536614 0 -0.0321732 -0.043752 -0.39902 -0.542681 -0.0462598 -0.0629173 0.0462598 -0.0629173z"/>
  <polygon class="fil0" points="2.48987,2.37065 2.48987,2.87065 2.27653,2.87065 2.27653,2.37065 "/>
  <polygon class="fil0" points="2.48987,3.95601 2.48987,4.45601 2.27653,4.45601 2.27653,3.95601 "/>
  <polygon class="fil0" points="4.37334,2.37065 4.37334,2.87065 4.16,2.87065 4.16,2.37065 "/>
  <polygon class="fil0" points="4.37334,3.95601 4.37334,4.45601 4.16,4.45601 4.16,3.95601 "/>
  <polygon class="fil0" points="1.42154,2.78181 1.83954,3.08126 1.71538,3.25459 1.29738,2.95514 "/>
  <polygon class="fil0" points="5.28875,2.95514 4.87075,3.25459 4.74658,3.08126 5.16458,2.78181 "/>
  <polygon class="fil0" points="1.29738,3.85999 1.71538,3.56054 1.83954,3.73387 1.42154,4.03332 "/>
  <polygon class="fil0" points="5.16458,4.03332 4.74658,3.73387 4.87075,3.56054 5.28875,3.85999 "/>
  <g id="_678619576">
   <polygon id="_678620392" class="fil0" points="1.49333,1.49333 4.16,1.49333 4.16,1.70667 1.49333,1.70667 "/>
   <path id="_678619264" class="fil0" d="M4.4 1.25333l0.373335 0c0.0954409,0 0.182138,0.0389724 0.244917,0.101752 0.0627795,0.0627795 0.101752,0.149476 0.101752,0.244917 0,0.0954409 -0.0389724,0.182138 -0.101752,0.244917 -0.0627795,0.0627795 -0.149476,0.101752 -0.244917,0.101752l-0.373335 0c-0.0954409,0 -0.182138,-0.0389724 -0.244917,-0.101752 -0.0627795,-0.0627795 -0.101752,-0.149476 -0.101752,-0.244917 0,-0.0954409 0.0389724,-0.182138 0.101752,-0.244917 0.0627795,-0.0627795 0.149476,-0.101752 0.244917,-0.101752zm0.373335 0.213339l-0.373335 0c-0.0365551,0 -0.0698701,0.0150354 -0.0940827,0.039248 -0.0242126,0.0242126 -0.039248,0.0575276 -0.039248,0.0940827 0,0.0365551 0.0150354,0.0698701 0.039248,0.0940827 0.0242126,0.0242126 0.0575276,0.039248 0.0940827,0.039248l0.373335 0c0.0365551,0 0.0698701,-0.0150354 0.0940827,-0.039248 0.0242126,-0.0242126 0.039248,-0.0575276 0.039248,-0.0940827 0,-0.0365551 -0.0150354,-0.0698701 -0.039248,-0.0940827 -0.0242126,-0.0242126 -0.0575276,-0.039248 -0.0940827,-0.039248z"/>
  </g>
  <g id="_678619240">
   <polygon id="_678619504" class="fil0" points="1.49333,5.09333 4.16,5.09333 4.16,5.30667 1.49333,5.30667 "/>
   <path id="_678619312" class="fil0" d="M4.4 4.85333l0.373335 0c0.0954409,0 0.182138,0.0389724 0.244917,0.101752 0.0627795,0.0627795 0.101752,0.149476 0.101752,0.244917 0,0.0954409 -0.0389724,0.182138 -0.101752,0.244917 -0.0627795,0.0627795 -0.149476,0.101752 -0.244917,0.101752l-0.373335 0c-0.0954409,0 -0.182138,-0.0389724 -0.244917,-0.101752 -0.0627795,-0.0627795 -0.101752,-0.149476 -0.101752,-0.244917 0,-0.0954409 0.0389724,-0.182138 0.101752,-0.244917 0.0627795,-0.0627795 0.149476,-0.101752 0.244917,-0.101752zm0.373335 0.213339l-0.373335 0c-0.0365551,0 -0.0698701,0.0150354 -0.0940827,0.039248 -0.0242126,0.0242126 -0.039248,0.0575276 -0.039248,0.0940827 0,0.0365551 0.0150354,0.0698701 0.039248,0.0940827 0.0242126,0.0242126 0.0575276,0.039248 0.0940827,0.039248l0.373335 0c0.0365551,0 0.0698701,-0.0150354 0.0940827,-0.039248 0.0242126,-0.0242126 0.039248,-0.0575276 0.039248,-0.0940827 0,-0.0365551 -0.0150354,-0.0698701 -0.039248,-0.0940827 -0.0242126,-0.0242126 -0.0575276,-0.039248 -0.0940827,-0.039248z"/>
  </g>
 </g>
 <rect class="fil1" width="6.82666" height="6.82666"/>
</svg>
