<?xml version="1.0" encoding="UTF-8"?>
<!DOCTYPE svg PUBLIC "-//W3C//DTD SVG 1.1//EN" "http://www.w3.org/Graphics/SVG/1.1/DTD/svg11.dtd">
<!-- Creator: CorelDRAW -->
<svg xmlns="http://www.w3.org/2000/svg" xml:space="preserve" width="6.82666in" height="6.82666in" style="shape-rendering:geometricPrecision; text-rendering:geometricPrecision; image-rendering:optimizeQuality; fill-rule:evenodd; clip-rule:evenodd"
viewBox="0 0 6.82666 6.82666"
 xmlns:xlink="http://www.w3.org/1999/xlink">
 <defs>
  <style type="text/css">
   <![CDATA[
    .fil1 {fill:none}
    .fil0 {fill:#212121;fill-rule:nonzero}
   ]]>
  </style>
 </defs>
 <g id="Layer_x0020_1">
  <metadata id="CorelCorpID_0Corel-Layer"/>
  <g id="_678621256">
   <path id="_678621232" class="fil0" d="M1.51673 1.89093c-0.0250984,-0.0479488 -0.051063,-0.0811535 -0.0758268,-0.100913 -0.0113465,-0.00905512 -0.0203622,-0.0139803 -0.0267992,-0.0150039 -0.00419685,0.00374803 -0.00852756,0.0105945 -0.0128189,0.0205315l-2.75591e-005 -1.1811e-005 -0.328091 0.905016 3.93701e-006 0c-0.0145906,0.0462835 -0.00508661,0.100953 0.0418307,0.168614 0.0601811,0.0867795 0.174287,0.187953 0.361409,0.308594 0.471098,0.241638 0.970917,0.462004 1.49241,0.666291 0.52213,0.204539 1.06653,0.392787 1.62592,0.570051l0.00166929 0.000830709c0.268197,0.089622 0.522035,0.168 0.740461,0.218654 0.167343,0.0388071 0.311327,0.0610197 0.420839,0.0587559 0.0123268,-0.139268 -0.0232992,-0.266957 -0.0954488,-0.379874 -0.0965394,-0.151075 -0.258457,-0.278618 -0.460094,-0.375299l-3.20115 -1.14273c-0.0806496,-0.0214764 -0.154894,-0.0472008 -0.214756,-0.0824724 -0.0779213,-0.0459055 -0.132075,-0.106594 -0.148823,-0.190504l0 -0.000834646 -0.120705 -0.629697zm0.0566772 -0.267583c0.05,0.0399016 0.0988071,0.101508 0.140535,0.185965l0.00916535 0.0270827 0.123339 0.643429 0.000153543 -3.14961e-005c0.00342913,0.0171811 0.0208504,0.0333425 0.0471614,0.0488425 0.042311,0.0249291 0.101913,0.0446535 0.168878,0.0621575l0.00916929 0.0025 3.20548 1.14427 0.00958268 0.00416535c0.239346,0.113563 0.434421,0.268559 0.554559,0.456571 0.114736,0.179559 0.160902,0.386697 0.113106,0.614287l-0.0150236 0.0715197 -0.0720591 0.011815c-0.144461,0.0236811 -0.344,-0.000551181 -0.578083,-0.0548346 -0.224394,-0.0520354 -0.484323,-0.13224 -0.758713,-0.223906l-7.87402e-005 0.000248031c-0.561268,-0.177858 -1.10976,-0.367626 -1.63926,-0.575051 -0.527587,-0.206673 -1.03585,-0.431079 -1.51848,-0.678992l-0.00916535 -0.005c-0.213264,-0.137244 -0.347579,-0.258657 -0.423677,-0.36839 -0.0895945,-0.129201 -0.104063,-0.24524 -0.0701614,-0.35278l0.00166535 -0.00458661 0.331862 -0.915421 0.00208268 -0.00583071c0.0182402,-0.0422362 0.0432992,-0.0761496 0.0734173,-0.101043 0.0435039,-0.0359685 0.0949921,-0.0523898 0.150594,-0.0479843 0.0482047,0.00381496 0.0973701,0.0238346 0.143945,0.0609961z"/>
   <path id="_678621160" class="fil0" d="M3.02504 4.04554l-1.30967 0.881563c0.0716024,0.0536063 0.136732,0.093626 0.200315,0.112488 0.0855866,0.0253898 0.178969,0.0124055 0.302142,-0.0589843l0.013752 -0.00666929 1.78721 -0.72128 0.0791654 0.197504 -1.78003 0.718382c-0.177705,0.101358 -0.321933,0.116839 -0.46224,0.0752126 -0.132402,-0.0392835 -0.249575,-0.128024 -0.387638,-0.241689l-0.110134 -0.0906732 0.118469 -0.0797441 1.43032 -0.96278 0.118331 0.176669z"/>
   <path id="_678621088" class="fil0" d="M2.92193 3.11139l-0.43978 -1.39103 -0.0445079 -0.14078 0.147839 0.00244488c0.14924,0.0024685 0.295358,0.0087126 0.428098,0.0615866 0.141996,0.0565551 0.259528,0.16076 0.332591,0.356075l0.602228 1.29762 -0.193331 0.0891654 -0.60413 -1.30172 -0.00333465 -0.00791732c-0.0486063,-0.131776 -0.123307,-0.200252 -0.212354,-0.23572 -0.0602126,-0.0239843 -0.129917,-0.0352283 -0.204217,-0.0408386l0.394228 1.24695 -0.203331 0.0641654z"/>
   <path id="_678620704" class="fil0" d="M4.61396 4.5117c0.100276,0 0.191071,0.0406535 0.256799,0.106382 0.0657244,0.0657244 0.106382,0.15652 0.106382,0.256795 0,0.10028 -0.0406535,0.191075 -0.106382,0.256799 -0.0657244,0.0657283 -0.15652,0.106382 -0.256799,0.106382 -0.100276,0 -0.191071,-0.0406575 -0.256795,-0.106382 -0.0657283,-0.0657283 -0.106382,-0.156524 -0.106382,-0.256799 0,-0.100272 0.0406575,-0.191071 0.106382,-0.256795 0.0657244,-0.0657244 0.156524,-0.106382 0.256795,-0.106382zm0.105965 0.257217c-0.0271063,-0.0271063 -0.0645787,-0.043878 -0.105965,-0.043878 -0.0413858,0 -0.0788543,0.0167717 -0.105961,0.043878 -0.0271063,0.0271063 -0.043878,0.0645748 -0.043878,0.105961 0,0.0413858 0.0167717,0.0788583 0.043878,0.105965 0.0271063,0.0271063 0.0645748,0.043878 0.105961,0.043878 0.0413858,0 0.0788583,-0.0167677 0.105965,-0.043878 0.0271102,-0.0271063 0.043878,-0.0645787 0.043878,-0.105965 0,-0.0413858 -0.0167717,-0.0788543 -0.043878,-0.105961z"/>
  </g>
 </g>
 <rect class="fil1" width="6.82666" height="6.82666"/>
</svg>
