<?xml version="1.0" encoding="UTF-8"?>
<!DOCTYPE svg PUBLIC "-//W3C//DTD SVG 1.1//EN" "http://www.w3.org/Graphics/SVG/1.1/DTD/svg11.dtd">
<!-- Creator: CorelDRAW -->
<svg xmlns="http://www.w3.org/2000/svg" xml:space="preserve" width="6.82666in" height="6.82666in" style="shape-rendering:geometricPrecision; text-rendering:geometricPrecision; image-rendering:optimizeQuality; fill-rule:evenodd; clip-rule:evenodd"
viewBox="0 0 6.82666 6.82666"
 xmlns:xlink="http://www.w3.org/1999/xlink">
 <defs>
  <style type="text/css">
   <![CDATA[
    .fil1 {fill:none}
    .fil0 {fill:#212121;fill-rule:nonzero}
   ]]>
  </style>
 </defs>
 <g id="Layer_x0020_1">
  <metadata id="CorelCorpID_0Corel-Layer"/>
  <g id="_678622144">
   <path id="_678622408" class="fil0" d="M5.57636 3.8387c-0.370169,0.162693 -0.888736,0.152602 -1.45117,0.141661 -0.133449,-0.00259449 -0.26961,-0.00524803 -0.437287,-0.00524803 -0.755693,0 -1.44109,-0.0540827 -1.93831,-0.141516 -0.545937,-0.096 -0.88361,-0.25113 -0.88361,-0.442622 0,-0.191492 0.337673,-0.346618 0.883614,-0.442618 0.497224,-0.0874331 1.18261,-0.141516 1.93831,-0.141516 0.164087,0 0.288626,-0.00195276 0.410902,-0.0038622 0.573413,-0.00896457 1.10176,-0.0172323 1.48102,0.140346 0.136094,0.0565433 0.23539,0.125807 0.299681,0.201677 0.0636181,0.0750709 0.0941496,0.156965 0.0934016,0.240949 -0.000740157,0.0830276 -0.0322126,0.163799 -0.0926417,0.237874 -0.0664016,0.0814055 -0.168783,0.155484 -0.303906,0.214874zm-1.44784 -0.0708425c0.537858,0.0104646 1.03376,0.0201142 1.36201,-0.124157 0.104087,-0.045748 0.179606,-0.0987087 0.22474,-0.154039 0.0295039,-0.0361654 0.0448425,-0.0719567 0.0451378,-0.105378 0.000287402,-0.0324764 -0.0139016,-0.0669646 -0.0434016,-0.101776 -0.0429764,-0.0507165 -0.115197,-0.0994488 -0.218846,-0.142512 -0.339453,-0.141035 -0.84613,-0.13311 -1.39602,-0.124512 -0.148697,0.00232283 -0.30028,0.00469685 -0.414232,0.00469685 -0.743902,0 -1.41615,0.0528071 -1.90164,0.138177 -0.436783,0.0768071 -0.706945,0.160417 -0.706945,0.232618 0,0.0722047 0.270161,0.155815 0.706941,0.232622 0.485492,0.0853701 1.15774,0.138177 1.90164,0.138177 0.128087,0 0.285945,0.0030748 0.440618,0.00608268z"/>
   <path id="_678621880" class="fil0" d="M4.03408 2.98243l-1.06679 -1.60793 -0.131453 -0.154941 -0.00958268 -0.013752c-0.0119646,-0.0197323 -0.0390669,-0.0310945 -0.0747913,-0.0376654 -0.0471614,-0.00867323 -0.106988,-0.00803937 -0.170984,-0.00433465 0.00211417,0.0241575 0.0155945,0.0607283 0.0405118,0.109783l0.00375197 0.00875197c0.136791,0.34276 0.251528,0.653169 0.340843,0.926291 0.0904961,0.27674 0.156433,0.519453 0.194563,0.723646l-0.209165 0.0383307c-0.0360157,-0.192874 -0.0997283,-0.426508 -0.187902,-0.696142 -0.0887953,-0.271535 -0.200933,-0.575457 -0.333335,-0.907508 -0.0465591,-0.092315 -0.0668425,-0.170209 -0.0610157,-0.233744 0.00854724,-0.093311 0.0599567,-0.152268 0.153913,-0.177094l0.02 -0.00333465c0.0867992,-0.00583465 0.171406,-0.00774803 0.24715,0.00618898 0.0890669,0.0163819 0.163287,0.0537165 0.211921,0.127055l0.132047 0.155646 0.0075 0.01 1.07032 1.61325 -0.177504 0.117504z"/>
   <path id="_678622000" class="fil0" d="M4.21158 3.96174l-1.07032 1.61325 -0.0075 0.01 -0.132047 0.155646c-0.0486339,0.0733386 -0.122854,0.110673 -0.211921,0.127055 -0.0757441,0.013937 -0.16035,0.0120236 -0.24715,0.00618898l-0.02 -0.00333465c-0.0939567,-0.0248268 -0.145366,-0.0837835 -0.153913,-0.177094 -0.00582677,-0.0635354 0.0144567,-0.141429 0.0610157,-0.233744 0.132402,-0.332051 0.244539,-0.635972 0.333335,-0.907508 0.0881732,-0.269634 0.151886,-0.503268 0.187902,-0.696142l0.209165 0.0383307c-0.0381299,0.204193 -0.104067,0.446906 -0.194563,0.723646 -0.089315,0.273122 -0.204051,0.583531 -0.340843,0.926291l-0.00375197 0.00875197c-0.0249173,0.0490551 -0.0383976,0.085626 -0.0405118,0.109783 0.0639961,0.00370472 0.123823,0.00433858 0.170984,-0.00433465 0.0357244,-0.00657087 0.0628268,-0.0179331 0.0747913,-0.0376654l0.00958268 -0.013752 0.131453 -0.154941 1.06679 -1.60793 0.177504 0.117504z"/>
   <path id="_678621784" class="fil0" d="M1.66829 3.08698c-0.0850945,-0.0877756 -0.210063,-0.213606 -0.343094,-0.308839 -0.0683228,-0.0489094 -0.137638,-0.0894016 -0.201323,-0.110043 0.0250906,0.0366181 0.0552087,0.0777441 0.0856142,0.119272 0.0746969,0.102012 0.150976,0.206185 0.180949,0.283768l-0.198331 0.0766693c-0.0195394,-0.0505827 -0.087622,-0.143559 -0.154287,-0.234602 -0.0646811,-0.0883386 -0.128181,-0.175055 -0.159504,-0.241185 -0.0453976,-0.0958307 -0.039685,-0.170898 0.0489173,-0.212862l0.0191654 -0.00666535c0.16348,-0.0419567 0.341327,0.0366102 0.502965,0.152319 0.145524,0.104173 0.28,0.23952 0.371433,0.333839l-0.152504 0.148331z"/>
   <path id="_678622024" class="fil0" d="M1.82079 3.80053c-0.0914331,0.0943189 -0.225909,0.229665 -0.371433,0.333839 -0.161638,0.115709 -0.339488,0.194272 -0.502965,0.152323l-0.0191654 -0.00666535c-0.0886024,-0.0419843 -0.0943071,-0.117051 -0.0489094,-0.212874 0.0313307,-0.0661378 0.0948268,-0.152854 0.1595,-0.241177 0.0666614,-0.0910433 0.134744,-0.18402 0.154283,-0.234602l0.198331 0.0766693c-0.0299724,0.0775866 -0.106252,0.181756 -0.180945,0.283768 -0.0304055,0.0415236 -0.0605236,0.0826535 -0.0856142,0.119272 0.063685,-0.0206417 0.132996,-0.0611339 0.201319,-0.110043 0.133031,-0.0952323 0.258,-0.221063 0.343094,-0.308839l0.152504 0.148331z"/>
   <path id="_678622168" class="fil0" d="M5.31001 2.87113c0.150843,0.340984 0.147921,0.681976 0,1.02296l-0.195 -0.0841654c0.123339,-0.284315 0.125776,-0.568642 0,-0.852961l0.195 -0.0858346z"/>
  </g>
 </g>
 <rect class="fil1" width="6.82666" height="6.82666"/>
</svg>
