<?xml version="1.0" encoding="UTF-8"?>
<!DOCTYPE svg PUBLIC "-//W3C//DTD SVG 1.1//EN" "http://www.w3.org/Graphics/SVG/1.1/DTD/svg11.dtd">
<!-- Creator: CorelDRAW -->
<svg xmlns="http://www.w3.org/2000/svg" xml:space="preserve" width="6.82666in" height="6.82666in" style="shape-rendering:geometricPrecision; text-rendering:geometricPrecision; image-rendering:optimizeQuality; fill-rule:evenodd; clip-rule:evenodd"
viewBox="0 0 6.82666 6.82666"
 xmlns:xlink="http://www.w3.org/1999/xlink">
 <defs>
  <style type="text/css">
   <![CDATA[
    .fil1 {fill:none}
    .fil0 {fill:#212121;fill-rule:nonzero}
   ]]>
  </style>
 </defs>
 <g id="Layer_x0020_1">
  <metadata id="CorelCorpID_0Corel-Layer"/>
  <g id="_678622456">
   <path id="_678622480" class="fil0" d="M0.96 3.6374l4.85376 0 0.106669 0 0 0.106669 0 3.93701e-006c0,0.277776 -0.113563,0.530228 -0.296512,0.713181 -0.182953,0.182949 -0.435406,0.296512 -0.713181,0.296512l-3.04771 0c-0.277776,0 -0.530228,-0.113563 -0.713181,-0.296512 -0.182949,-0.182953 -0.296512,-0.435406 -0.296512,-0.713181l0 -3.93701e-006 0 -0.106669 0.106669 0zm4.73989 0.213339l-4.62603 0c0.0239213,0.17648 0.106276,0.335142 0.226815,0.455681 0.144386,0.144382 0.343457,0.234008 0.562346,0.234008l3.04771 0c0.21889,0 0.417961,-0.089626 0.562346,-0.234008 0.120539,-0.120539 0.202894,-0.279201 0.226815,-0.455681z"/>
   <polygon id="_678622360" class="fil0" points="4.01767,3.73389 3.61337,2.20665 3.53817,1.92261 3.77795,2.0929 5.92833,3.62015 5.805,3.79348 3.89439,2.43653 4.2235,3.67973 "/>
   <path id="_678622816" class="fil0" d="M3.91844 3.16998c0.0589094,0 0.106669,-0.0477598 0.106669,-0.106669 0,-0.0589094 -0.0477598,-0.106669 -0.106669,-0.106669l-1.03951 0c-0.0505079,0 -0.092811,0.0351063 -0.103854,0.0822441l-0.0675157 0.209421 -0.355185 0 -0.311075 -0.258547 -0.0679173 0.0816654 0.0681811 -0.0820315c-0.0199409,-0.0165748 -0.0441339,-0.0246457 -0.0681811,-0.0246339l0 -3.93701e-006 -0.674744 0c-0.0589094,0 -0.106669,0.0477598 -0.106669,0.106669 0,0.0242559 0.0081063,0.0466181 0.0217441,0.0645394l0.402472 0.57939c0.0335945,0.0483228 0.100012,0.0602598 0.148335,0.0266654 0.0483228,-0.0335945 0.0602598,-0.100012 0.0266654,-0.148335l-0.288689 -0.415591 0.433051 0 0.303567 0.252307c0.0193031,0.0193031 0.0459724,0.0312441 0.0754252,0.0312441l0.468307 0c0.0458386,0.000897638 0.0887835,-0.0280591 0.103575,-0.0739409l-0.101524 -0.0327283 0.101252 0.0325 0.0701181 -0.217496 0.962169 0z"/>
   <path id="_678622216" class="fil0" d="M3.83826 2.84714c0.0568386,0.015185 0.115232,-0.0185787 0.130417,-0.0754173 0.015185,-0.0568386 -0.0185787,-0.115232 -0.0754173,-0.130417l-0.904953 -0.24248c-0.0568386,-0.015185 -0.115232,0.0185787 -0.130417,0.0754173 -0.015185,0.0568386 0.0185787,0.115232 0.0754173,0.130417l0.904953 0.24248z"/>
  </g>
 </g>
 <rect class="fil1" width="6.82666" height="6.82666"/>
</svg>
