<?xml version="1.0" encoding="UTF-8"?>
<!DOCTYPE svg PUBLIC "-//W3C//DTD SVG 1.1//EN" "http://www.w3.org/Graphics/SVG/1.1/DTD/svg11.dtd">
<!-- Creator: CorelDRAW -->
<svg xmlns="http://www.w3.org/2000/svg" xml:space="preserve" width="6.82666in" height="6.82666in" style="shape-rendering:geometricPrecision; text-rendering:geometricPrecision; image-rendering:optimizeQuality; fill-rule:evenodd; clip-rule:evenodd"
viewBox="0 0 6.82666 6.82666"
 xmlns:xlink="http://www.w3.org/1999/xlink">
 <defs>
  <style type="text/css">
   <![CDATA[
    .fil2 {fill:none}
    .fil1 {fill:#212121}
    .fil0 {fill:#212121;fill-rule:nonzero}
   ]]>
  </style>
 </defs>
 <g id="Layer_x0020_1">
  <metadata id="CorelCorpID_0Corel-Layer"/>
  <g id="_678623728">
   <path id="_678624088" class="fil0" d="M1.0425 2.50983c-0.0372756,-0.045563 -0.104437,-0.0522756 -0.15,-0.015 -0.045563,0.0372756 -0.0522756,0.104437 -0.015,0.15l0.522228 0.637717 0.0825 -0.0675 -0.0825276 0.0675827c0.0210709,0.0257323 0.0516732,0.039063 0.0825276,0.0390827l0 3.93701e-006 3.84057 0c0.0346693,0 0.0654764,-0.0165472 0.0849567,-0.0421693l0.541406 -0.661134c0.0372756,-0.045563 0.030563,-0.112724 -0.015,-0.15 -0.045563,-0.0372756 -0.112724,-0.030563 -0.15,0.015l-0.511787 0.624965 -3.73972 0 -0.490154 -0.598547z"/>
   <path id="_678623464" class="fil0" d="M2.14508 3.35739c0.141504,0 0.269638,0.0573701 0.36239,0.150118 0.092748,0.092752 0.150118,0.220886 0.150118,0.36239 0,0.141512 -0.057374,0.269646 -0.150118,0.36239 -0.092752,0.092752 -0.220878,0.150122 -0.36239,0.150122 -0.141512,0 -0.269642,-0.0573701 -0.362394,-0.150118 -0.092748,-0.092752 -0.150118,-0.220882 -0.150118,-0.362394 0,-0.141512 0.0573701,-0.269638 0.150122,-0.36239 0.0927441,-0.0927441 0.220878,-0.150118 0.36239,-0.150118zm0.211555 0.300953c-0.0541339,-0.0541299 -0.128933,-0.0876142 -0.211555,-0.0876142 -0.082626,0 -0.157429,0.0334882 -0.211555,0.0876142 -0.0541339,0.0541339 -0.0876181,0.128929 -0.0876181,0.211555 0,0.082626 0.0334843,0.157425 0.0876142,0.211559 0.0541339,0.0541299 0.128933,0.0876142 0.211559,0.0876142 0.082626,0 0.157421,-0.0334843 0.211555,-0.0876181 0.054126,-0.054126 0.0876142,-0.128929 0.0876142,-0.211555 0,-0.082622 -0.0334843,-0.157421 -0.0876142,-0.211555z"/>
   <path id="_678623248" class="fil0" d="M4.68159 3.35739c0.141512,0 0.269646,0.057374 0.36239,0.150118 0.092752,0.092752 0.150122,0.220878 0.150122,0.36239 0,0.141512 -0.0573701,0.269642 -0.150118,0.362394 -0.092752,0.092748 -0.220882,0.150118 -0.362394,0.150118 -0.141512,0 -0.269638,-0.0573701 -0.36239,-0.150122 -0.0927441,-0.0927441 -0.150118,-0.220878 -0.150118,-0.36239 0,-0.141504 0.0573701,-0.269638 0.150118,-0.36239 0.092752,-0.092748 0.220886,-0.150118 0.36239,-0.150118zm0.211555 0.300953c-0.054126,-0.054126 -0.128929,-0.0876142 -0.211555,-0.0876142 -0.082622,0 -0.157421,0.0334843 -0.211555,0.0876142 -0.0541299,0.0541339 -0.0876142,0.128933 -0.0876142,0.211555 0,0.082626 0.0334882,0.157429 0.0876142,0.211555 0.0541339,0.0541339 0.128929,0.0876181 0.211555,0.0876181 0.082626,0 0.157425,-0.0334843 0.211559,-0.0876142 0.0541299,-0.0541339 0.0876142,-0.128933 0.0876142,-0.211559 0,-0.082626 -0.0334843,-0.157421 -0.0876181,-0.211555z"/>
   <circle id="_678623152" class="fil1" cx="2.14508" cy="3.8699" r="0.101459"/>
   <circle id="_678623560" class="fil1" cx="4.68159" cy="3.8699" r="0.101459"/>
  </g>
 </g>
 <rect class="fil2" width="6.82666" height="6.82666"/>
</svg>
