<?xml version="1.0" encoding="UTF-8"?>
<!DOCTYPE svg PUBLIC "-//W3C//DTD SVG 1.1//EN" "http://www.w3.org/Graphics/SVG/1.1/DTD/svg11.dtd">
<!-- Creator: CorelDRAW -->
<svg xmlns="http://www.w3.org/2000/svg" xml:space="preserve" width="6.82666in" height="6.82666in" style="shape-rendering:geometricPrecision; text-rendering:geometricPrecision; image-rendering:optimizeQuality; fill-rule:evenodd; clip-rule:evenodd"
viewBox="0 0 6.82666 6.82666"
 xmlns:xlink="http://www.w3.org/1999/xlink">
 <defs>
  <style type="text/css">
   <![CDATA[
    .fil2 {fill:none}
    .fil1 {fill:#212121}
    .fil0 {fill:#212121;fill-rule:nonzero}
   ]]>
  </style>
 </defs>
 <g id="Layer_x0020_1">
  <metadata id="CorelCorpID_0Corel-Layer"/>
  <g id="_678624208">
   <path id="_678625048" class="fil0" d="M4.87939 2.84137l0.645583 -0.445673 -4.07491 0 0 0.841236 2.05562 0c0.0656772,0 0.167539,0.00129921 0.257508,0.00244094 0.493378,0.00627953 0.529909,0.00674803 1.1162,-0.398004zm1.04769 -0.464843l-0.92685 0.639843c-0.641862,0.443118 -0.683063,0.442594 -1.23954,0.435508 -0.0592047,-0.000751969 -0.126161,-0.0016063 -0.255004,-0.0016063l-2.16229 0 -0.106669 0 0 -0.106669 0 -1.05457 0 -0.106669 0.106669 0 4.52326 0 0.341681 0 -0.281264 0.194169z"/>
   <path id="_678624760" class="fil0" d="M3.85338 2.33028l-0.320264 -0.762681c-0.0110669,-0.0263583 -0.0222992,-0.0517874 -0.0336063,-0.0654331 -0.00129134,-0.00155906 -0.0010315,-0.00259449 -0.00150787,-0.00259449l-1.13769 0c-0.00200394,0 -0.00384646,0.0010315 -0.00548819,0.00267323 -0.0107677,0.0107677 -0.0191811,0.0304331 -0.0254567,0.0528543l-0.213512 0.762681 -0.205 -0.0575039 0.213512 -0.762681c0.015252,-0.0544882 0.0405236,-0.107087 0.079622,-0.146185 0.0401142,-0.040122 0.0914213,-0.0651772 0.156323,-0.0651772l1.13769 0c0.073878,0 0.125705,0.0318543 0.165673,0.0800984 0.0299567,0.0361535 0.0487677,0.0774567 0.0661102,0.118764l0.320264 0.762681 -0.196669 0.0825039z"/>
   <polygon id="_678625000" class="fil0" points="3.69985,1.94764 2.197,1.94764 2.197,1.7343 3.69985,1.7343 "/>
   <path id="_678624856" class="fil0" d="M1.3434 2.92298c0.0589094,0 0.106669,-0.0477598 0.106669,-0.106669 0,-0.0589094 -0.0477598,-0.106669 -0.106669,-0.106669l-0.383402 0c-0.0589094,0 -0.106669,0.0477598 -0.106669,0.106669 0,0.0589094 0.0477598,0.106669 0.106669,0.106669l0.383402 0z"/>
   <path id="_678624352" class="fil0" d="M5.12083 3.89526c0.101839,-0.96748 -0.0425157,-2.0149 -0.218299,-2.53398 -0.0377795,-0.111563 -0.0744488,-0.193988 -0.107457,-0.24002 -0.0607913,0.138299 -0.10174,0.475469 -0.10174,1.07817l-0.213339 0c0,-0.640094 0.0493858,-1.00797 0.122492,-1.16925 0.0826575,-0.18237 0.191213,-0.20228 0.311929,-0.0932402 0.0663465,0.0599252 0.131661,0.184366 0.189783,0.356012 0.182839,0.539917 0.333398,1.62553 0.228299,2.62398l-0.211669 -0.0216693zm-0.345063 -2.79716c-0.00129134,-0.00128346 -0.00257874,-0.0025 -0.00385433,-0.00365354 -0.00700394,-0.00632677 -0.00288189,-0.00254724 0.00385433,0.00365354z"/>
   <path id="_678624280" class="fil0" d="M5.51059 5.73081l-0.17261 -0.298976 -0.0327323 -0.0566929 0.0356496 -0.0545591c0.181858,-0.278339 0.236504,-0.543307 0.205213,-0.777996 -0.0325197,-0.243898 -0.157803,-0.457906 -0.329378,-0.621665 -0.171575,0.16376 -0.296858,0.377768 -0.329378,0.621665 -0.0312913,0.234689 0.0233543,0.499657 0.205213,0.777996l0.0356457 0.0545591 -0.0327283 0.0566929 -0.17261 0.298976 0.587717 0zm0.043622 -0.349268l0.232681 0.40302 0.0921339 0.159587 -0.184217 0 -0.956157 0 -0.18422 0 0.0921378 -0.159587 0.232681 -0.40302c-0.184189,-0.305169 -0.238232,-0.600173 -0.202732,-0.866461 0.044315,-0.332378 0.228197,-0.616472 0.472713,-0.818248l0.0675 -0.0557047 0.0675 0.0557047c0.244516,0.201776 0.428398,0.48587 0.472713,0.818248 0.0355,0.266287 -0.0185433,0.561291 -0.202732,0.866461z"/>
   <circle id="_678624064" class="fil1" cx="5.22667" cy="4.2261" r="0.106665"/>
  </g>
 </g>
 <rect class="fil2" width="6.82666" height="6.82666"/>
</svg>
