<?xml version="1.0" encoding="UTF-8"?>
<!DOCTYPE svg PUBLIC "-//W3C//DTD SVG 1.1//EN" "http://www.w3.org/Graphics/SVG/1.1/DTD/svg11.dtd">
<!-- Creator: CorelDRAW -->
<svg xmlns="http://www.w3.org/2000/svg" xml:space="preserve" width="6.82666in" height="6.82666in" style="shape-rendering:geometricPrecision; text-rendering:geometricPrecision; image-rendering:optimizeQuality; fill-rule:evenodd; clip-rule:evenodd"
viewBox="0 0 6.82666 6.82666"
 xmlns:xlink="http://www.w3.org/1999/xlink">
 <defs>
  <style type="text/css">
   <![CDATA[
    .fil1 {fill:none}
    .fil0 {fill:#212121;fill-rule:nonzero}
   ]]>
  </style>
 </defs>
 <g id="Layer_x0020_1">
  <metadata id="CorelCorpID_0Corel-Layer"/>
  <path class="fil0" d="M2.69161 4.58504c0.024622,-0.0533858 0.00130315,-0.116626 -0.0520827,-0.141248 -0.0533858,-0.024622 -0.116626,-0.00130315 -0.141248,0.0520827l-0.613795 1.32621c-0.024622,0.0533858 -0.00130315,0.116626 0.0520827,0.141248 0.0533858,0.024622 0.116626,0.00130315 0.141248,-0.0520827l0.613795 -1.32621z"/>
  <path class="fil0" d="M4.22609 4.49587c-0.024622,-0.0533858 -0.0878622,-0.0767047 -0.141248,-0.0520827 -0.0533858,0.024622 -0.0767047,0.0878622 -0.0520827,0.141248l0.613791 1.32621c0.024622,0.0533858 0.0878622,0.0767047 0.141248,0.0520827 0.0533858,-0.024622 0.0767047,-0.0878622 0.0520827,-0.141248l-0.613791 -1.32621z"/>
  <path class="fil0" d="M2.28804 4.74068c-0.0589094,0 -0.106669,0.0477598 -0.106669,0.106669 0,0.0589094 0.0477598,0.106669 0.106669,0.106669l2.25057 0c0.0589094,0 0.106669,-0.0477598 0.106669,-0.106669 0,-0.0589094 -0.0477598,-0.106669 -0.106669,-0.106669l-2.25057 0z"/>
  <path class="fil0" d="M2.08344 5.04757c-0.0589094,0 -0.106669,0.0477598 -0.106669,0.106669 0,0.0589094 0.0477598,0.106669 0.106669,0.106669l2.65977 0c0.0589094,0 0.106669,-0.0477598 0.106669,-0.106669 0,-0.0589094 -0.0477598,-0.106669 -0.106669,-0.106669l-2.65977 0z"/>
  <path class="fil0" d="M1.87885 5.45678c-0.0589094,0 -0.106669,0.0477598 -0.106669,0.106669 0,0.0589094 0.0477598,0.106669 0.106669,0.106669l3.06896 0c0.0589094,0 0.106669,-0.0477598 0.106669,-0.106669 0,-0.0589094 -0.0477598,-0.106669 -0.106669,-0.106669l-3.06896 0z"/>
  <path class="fil0" d="M2.51182 0.853327l1.80302 0c0.0932047,0 0.177272,0.0423425 0.237618,0.110539 0.0572717,0.0647205 0.0928268,0.152949 0.0928268,0.249016l0 3.04909c0,0.096063 -0.0355591,0.184287 -0.0928307,0.249008 -0.0603504,0.0682008 -0.144417,0.110547 -0.237614,0.110547l-1.80302 0c-0.0931929,0 -0.177268,-0.0423386 -0.237622,-0.110543 -0.0572677,-0.0647165 -0.0928228,-0.152937 -0.0928228,-0.249012l0 -3.04909c0,-0.0960787 0.0355512,-0.184303 0.0928189,-0.24902 0.0603504,-0.0682008 0.144417,-0.110535 0.237626,-0.110535zm1.80302 0.213339l-1.80302 0c-0.0298661,0 -0.0576969,0.0145669 -0.0784606,0.0380315 -0.0238425,0.0269449 -0.0386457,0.0651811 -0.0386457,0.108185l0 3.04909c0,0.043 0.0148031,0.0812323 0.0386496,0.108177 0.0207677,0.0234685 0.0485945,0.0380394 0.0784567,0.0380394l1.80302 0c0.0298543,0 0.0576811,-0.0145748 0.0784488,-0.0380433 0.0238504,-0.0269528 0.0386575,-0.065189 0.0386575,-0.108173l0 -3.04909c0,-0.0429921 -0.0148071,-0.0812323 -0.0386535,-0.108181 -0.0207638,-0.0234646 -0.0485906,-0.0380354 -0.0784528,-0.0380354z"/>
  <path class="fil0" d="M3.41333 0.893933c0.102756,0 0.195209,0.0464173 0.26161,0.121457 0.063315,0.0715551 0.102484,0.169252 0.102484,0.276122 0,0.10687 -0.0391693,0.204567 -0.102484,0.276122 -0.0664016,0.0750394 -0.158854,0.121457 -0.26161,0.121457 -0.102756,0 -0.195209,-0.0464213 -0.261606,-0.121457 -0.0633189,-0.0715551 -0.102484,-0.169256 -0.102484,-0.276122 0,-0.106866 0.0391654,-0.204567 0.102484,-0.276122 0.0663976,-0.0750354 0.15885,-0.121457 0.261606,-0.121457zm0.102445 0.262291c-0.0267598,-0.0302441 -0.0630276,-0.0489528 -0.102445,-0.0489528 -0.0394173,0 -0.0756811,0.0187126 -0.102441,0.0489528 -0.0298465,0.0337323 -0.048311,0.0814961 -0.048311,0.135287 0,0.0537913 0.0184646,0.101559 0.048311,0.135287 0.0267598,0.0302402 0.0630236,0.0489528 0.102441,0.0489528 0.0394173,0 0.075685,-0.0187087 0.102445,-0.0489528 0.0298425,-0.0337283 0.048311,-0.0814921 0.048311,-0.135287 0,-0.0537913 -0.0184685,-0.101559 -0.048311,-0.135287z"/>
  <polygon class="fil0" points="2.33304,3.14697 2.61987,3.28106 4.20393,3.28106 4.49403,3.14656 4.5832,3.33989 4.27151,3.48439 4.22693,3.49439 2.59715,3.49439 2.55215,3.48398 2.24304,3.33947 "/>
  <polygon class="fil0" points="2.28804,1.51981 4.53861,1.51981 4.53861,1.73315 2.28804,1.73315 "/>
  <g id="_678625216">
   <polygon id="_678626032" class="fil0" points="4.07282,3.73333 4.07282,4.16 3.85948,4.16 3.85948,3.73333 "/>
   <polygon id="_678624592" class="fil0" points="3.02579,3.73333 3.02579,4.16 2.81245,4.16 2.81245,3.73333 "/>
  </g>
 </g>
 <rect class="fil1" width="6.82666" height="6.82666"/>
</svg>
