<?xml version="1.0" encoding="UTF-8"?>
<!DOCTYPE svg PUBLIC "-//W3C//DTD SVG 1.1//EN" "http://www.w3.org/Graphics/SVG/1.1/DTD/svg11.dtd">
<!-- Creator: CorelDRAW -->
<svg xmlns="http://www.w3.org/2000/svg" xml:space="preserve" width="6.82666in" height="6.82666in" style="shape-rendering:geometricPrecision; text-rendering:geometricPrecision; image-rendering:optimizeQuality; fill-rule:evenodd; clip-rule:evenodd"
viewBox="0 0 6.82666 6.82666"
 xmlns:xlink="http://www.w3.org/1999/xlink">
 <defs>
  <style type="text/css">
   <![CDATA[
    .fil1 {fill:none}
    .fil0 {fill:#212121;fill-rule:nonzero}
   ]]>
  </style>
 </defs>
 <g id="Layer_x0020_1">
  <metadata id="CorelCorpID_0Corel-Layer"/>
  <g id="_678628480">
   <path id="_678628552" class="fil0" d="M4.59461 3.22833c-0.365736,-0.220201 -0.707217,-0.340953 -1.10207,-0.370189 -0.401453,-0.0297283 -0.861496,0.0336654 -1.45895,0.182091 -0.0514291,0.0127717 -0.129543,0.0220039 -0.205673,0.0309921 -0.0613858,0.00724803 -0.121409,0.0143425 -0.154827,0.0214213l-0.0175 0.00208661c-0.113449,0.00499213 -0.213307,0.0328504 -0.292713,0.0763583 -0.0612362,0.0335472 -0.109378,0.0758898 -0.140878,0.123382 -0.0288268,0.0434646 -0.0437323,0.0915551 -0.0415591,0.140921 0.00161811,0.036752 0.0125866,0.0753898 0.0341457,0.114744l0.021252 0.0387874 -0.0125039 0.0420472c-0.0127165,0.0427717 -0.00864961,0.070122 0.00906299,0.0849016 0.0295157,0.024626 0.0845,0.0397402 0.159819,0.0472402 -0.00364173,0.0224252 -0.00554331,0.045437 -0.00554331,0.0688898 0,0.0514094 0.00909843,0.100701 0.0257677,0.146346l-0.000326772 0c-0.137181,-0.00911417 -0.245512,-0.0400118 -0.316386,-0.0991457 -0.0775866,-0.0647402 -0.109705,-0.151917 -0.0870433,-0.266114 -0.0250945,-0.0561929 -0.0382953,-0.112803 -0.040748,-0.168531 -0.00422441,-0.0959921 0.0232441,-0.187205 0.0765591,-0.267591 0.0506457,-0.0763543 0.124429,-0.142449 0.215878,-0.192547 0.104272,-0.0571299 0.232717,-0.0940551 0.376445,-0.10172 0.0442992,-0.00875984 0.104555,-0.015878 0.166098,-0.0231457 0.0707638,-0.00835433 0.143362,-0.0169331 0.179839,-0.0259921 0.619508,-0.153906 1.09991,-0.21939 1.52479,-0.187925 0.419531,0.031063 0.781669,0.155335 1.16436,0.38072 0.193697,-0.0221575 0.437677,0.0376929 0.652071,0.13222 0.258547,0.113996 0.482827,0.285315 0.536035,0.431827l-0.000834646 0.0750039 -0.0472008 0.12024c0.0279961,0.041185 0.0468701,0.0811535 0.0484882,0.119728 0.00430315,0.102563 -0.0511181,0.158244 -0.205232,0.13889l-0.454646 -0.00707087c0.0334646,-0.0608898 0.0525079,-0.130819 0.0525079,-0.205193 0,-0.0021811 -2.3622e-005,-0.00435827 -5.51181e-005,-0.00653543l0.324598 0.00505118 -0.00809449 -0.0100236 0.0225315 -0.0573937 0.0517441 -0.131815c-0.0568622,-0.0877362 -0.217902,-0.194917 -0.405677,-0.277709 -0.196417,-0.0865984 -0.414921,-0.140437 -0.569354,-0.111917l-0.0741654 -0.0133307zm-0.148579 0.79713l-2.23652 -0.0347913c0.0196654,-0.0490512 0.0304921,-0.102594 0.0304921,-0.158665 0,-0.0181063 -0.00113386,-0.0359449 -0.00332283,-0.0534567l2.16352 0.0336575c-0.000299213,0.00656299 -0.00046063,0.0131614 -0.00046063,0.0197992 0,0.0696378 0.016689,0.135386 0.0462874,0.193457z"/>
   <path id="_678629056" class="fil0" d="M4.82641 3.40534c0.117807,0 0.224476,0.0477638 0.301693,0.124976 0.0772165,0.0772165 0.124976,0.183886 0.124976,0.301693 0,0.117807 -0.0477598,0.224476 -0.124976,0.301693 -0.0772165,0.0772165 -0.183886,0.124976 -0.301693,0.124976 -0.117807,0 -0.224476,-0.0477598 -0.301693,-0.124976 -0.0772126,-0.0772165 -0.124976,-0.183886 -0.124976,-0.301693 0,-0.117807 0.0477638,-0.224476 0.124976,-0.301693 0.0772165,-0.0772126 0.183886,-0.124976 0.301693,-0.124976zm0.150858 0.275811c-0.0385984,-0.0385945 -0.0919409,-0.0624724 -0.150858,-0.0624724 -0.0589173,0 -0.11226,0.023878 -0.150858,0.0624724 -0.0385945,0.0385984 -0.0624724,0.0919409 -0.0624724,0.150858 0,0.0589173 0.023878,0.11226 0.0624724,0.150858 0.0385984,0.0385984 0.0919409,0.0624724 0.150858,0.0624724 0.0589173,0 0.11226,-0.023874 0.150858,-0.0624724 0.0385984,-0.0385984 0.0624724,-0.0919409 0.0624724,-0.150858 0,-0.0589173 -0.023874,-0.11226 -0.0624724,-0.150858z"/>
   <path id="_678628432" class="fil0" d="M1.81333 3.40534c0.117807,0 0.224476,0.0477638 0.301693,0.124976 0.0772126,0.0772165 0.124976,0.183886 0.124976,0.301693 0,0.117807 -0.0477638,0.224476 -0.124976,0.301693 -0.0772165,0.0772165 -0.183886,0.124976 -0.301693,0.124976 -0.117807,0 -0.224476,-0.0477598 -0.301693,-0.124976 -0.0772165,-0.0772165 -0.124976,-0.183886 -0.124976,-0.301693 0,-0.117807 0.0477598,-0.224476 0.124976,-0.301693 0.0772165,-0.0772126 0.183886,-0.124976 0.301693,-0.124976zm0.150858 0.275811c-0.0385984,-0.0385945 -0.0919409,-0.0624724 -0.150858,-0.0624724 -0.0589173,0 -0.11226,0.023878 -0.150858,0.0624724 -0.0385984,0.0385984 -0.0624724,0.0919409 -0.0624724,0.150858 0,0.0589173 0.023874,0.11226 0.0624724,0.150858 0.0385984,0.0385984 0.0919409,0.0624724 0.150858,0.0624724 0.0589173,0 0.11226,-0.023874 0.150858,-0.0624724 0.0385945,-0.0385984 0.0624724,-0.0919409 0.0624724,-0.150858 0,-0.0589173 -0.023878,-0.11226 -0.0624724,-0.150858z"/>
   <polygon id="_678628960" class="fil0" points="2.54291,2.75299 2.81897,2.99216 4.34978,3.19627 4.59419,3.04625 4.70503,3.22792 4.42875,3.3975 4.35958,3.41208 2.75958,3.19874 2.70375,3.17374 2.40375,2.91383 "/>
  </g>
 </g>
 <rect class="fil1" width="6.82666" height="6.82666"/>
</svg>
