<?xml version="1.0" encoding="UTF-8"?>
<!DOCTYPE svg PUBLIC "-//W3C//DTD SVG 1.1//EN" "http://www.w3.org/Graphics/SVG/1.1/DTD/svg11.dtd">
<!-- Creator: CorelDRAW -->
<svg xmlns="http://www.w3.org/2000/svg" xml:space="preserve" width="6.82666in" height="6.82666in" style="shape-rendering:geometricPrecision; text-rendering:geometricPrecision; image-rendering:optimizeQuality; fill-rule:evenodd; clip-rule:evenodd"
viewBox="0 0 6.82666 6.82666"
 xmlns:xlink="http://www.w3.org/1999/xlink">
 <defs>
  <style type="text/css">
   <![CDATA[
    .fil1 {fill:none}
    .fil0 {fill:#212121;fill-rule:nonzero}
   ]]>
  </style>
 </defs>
 <g id="Layer_x0020_1">
  <metadata id="CorelCorpID_0Corel-Layer"/>
  <path class="fil0" d="M1.47292 2.77333l2.60083 0c0.141161,0 0.269421,0.0576732 0.362335,0.150587 0.0929094,0.0929173 0.150587,0.221169 0.150587,0.362331l0 0.574169c0,0.0405709 -0.00512598,0.0810118 -0.0147874,0.120642 -0.00984252,0.040374 -0.024252,0.078563 -0.0425984,0.113941l-0.0662677 0.127783 -0.102898 -0.100701c-0.0487165,-0.0476772 -0.106846,-0.0861575 -0.171484,-0.112524 -0.0620079,-0.0252992 -0.130039,-0.0392441 -0.201516,-0.0392441 -0.111295,0 -0.214169,0.0335827 -0.298988,0.0910669 -0.0879094,0.0595787 -0.157098,0.14461 -0.196921,0.244449l-0.0269291 0.0675039 -0.0718228 0 -1.02474 0 -0.0718228 0 -0.0269291 -0.0675039c-0.0398228,-0.0998386 -0.109012,-0.18487 -0.196921,-0.244449 -0.0848189,-0.0574843 -0.187693,-0.0910669 -0.298988,-0.0910669 -0.0962992,0 -0.186465,0.0253819 -0.26415,0.0697874 -0.0809055,0.0462441 -0.148524,0.112945 -0.195748,0.19298l-0.0618937 0.104898 -0.0956063 -0.0757283c-0.0606969,-0.0480787 -0.110311,-0.109323 -0.144268,-0.179185 -0.0329055,-0.0676929 -0.0513898,-0.143276 -0.0513898,-0.22265l0 -0.574169c0,-0.141161 0.0576772,-0.269413 0.150587,-0.362331 0.0929134,-0.0929134 0.221173,-0.150587 0.362335,-0.150587zm2.60083 0.213339l-2.60083 0c-0.0822756,0 -0.157154,0.0337362 -0.2115,0.0880827 -0.0543425,0.0543465 -0.0880827,0.129224 -0.0880827,0.211496l0 0.574169c0,0.0468386 0.0106929,0.091 0.0297205,0.130146 0.00318504,0.00655512 0.00659843,0.0129764 0.0102283,0.019252 0.054185,-0.0614291 0.118283,-0.113846 0.189783,-0.154713 0.109236,-0.0624409 0.235551,-0.098126 0.369984,-0.098126 0.154449,0 0.298406,0.0474134 0.418154,0.128571 0.102504,0.0694724 0.186827,0.163843 0.244331,0.274449l0.889098 0c0.0575039,-0.110606 0.141827,-0.20498 0.244331,-0.274449 0.119748,-0.0811575 0.263705,-0.128571 0.418154,-0.128571 0.0994291,0 0.194488,0.0195709 0.281516,0.0550787 0.0363819,0.0148425 0.0713583,0.0325079 0.104669,0.0527323l2.75591e-005 -0.00437008 0 -0.574169c0,-0.0822717 -0.0337402,-0.15715 -0.0880827,-0.211496 -0.0543465,-0.0543465 -0.129224,-0.0880827 -0.2115,-0.0880827z"/>
  <path class="fil0" d="M1.82417 1.27999l0.931461 0c0.24813,0 0.336394,0.192098 0.426047,0.387248l0.00394882 0.00858661 0.533323 1.16 0.0693465 0.150839 -0.166012 -3.93701e-006 -1.79811 0c-0.149756,0 -0.285827,-0.0611929 -0.384402,-0.159768 -0.0985787,-0.0985748 -0.159768,-0.23465 -0.159768,-0.384402l0 -0.618335c0,-0.14976 0.061189,-0.285827 0.159768,-0.384402 0.0985748,-0.0985787 0.234642,-0.159768 0.384402,-0.159768zm0.931461 0.213339l-0.931461 0c-0.0908701,0 -0.173559,0.037252 -0.233567,0.0972638 -0.0600118,0.0600079 -0.0972638,0.142697 -0.0972638,0.233567l0 0.618335c0,0.0908661 0.037252,0.173559 0.0972638,0.233567 0.0600118,0.0600118 0.142697,0.0972638 0.233567,0.0972638l1.6321 0 -0.463976 -1.00917 -0.00394882 -0.00858661c-0.0607126,-0.132154 -0.120484,-0.26224 -0.232717,-0.26224z"/>
  <path class="fil0" d="M1.77305 3.75697c0.206169,0 0.392839,0.0835787 0.527965,0.218705 0.135126,0.135126 0.218705,0.321795 0.218705,0.527965 0,0.206173 -0.0835787,0.392846 -0.218705,0.527965 -0.135126,0.135126 -0.321795,0.218705 -0.527965,0.218705 -0.206173,0 -0.392846,-0.0835787 -0.527965,-0.218705 -0.135126,-0.135118 -0.218705,-0.321791 -0.218705,-0.527965 0,-0.206169 0.0835787,-0.392839 0.218705,-0.527965 0.135118,-0.135126 0.321791,-0.218705 0.527965,-0.218705zm0.37713 0.369539c-0.0965079,-0.0965079 -0.229846,-0.156201 -0.37713,-0.156201 -0.147287,0 -0.280626,0.0596969 -0.37713,0.156201 -0.0965079,0.0965079 -0.156201,0.229846 -0.156201,0.37713 0,0.147287 0.0596969,0.280626 0.156201,0.37713 0.0965039,0.0965039 0.229843,0.156201 0.37713,0.156201 0.147283,0 0.280622,-0.0596929 0.37713,-0.156201 0.0965039,-0.0965039 0.156201,-0.229843 0.156201,-0.37713 0,-0.147283 -0.0596929,-0.280622 -0.156201,-0.37713z"/>
  <path class="fil0" d="M3.98712 3.75697c0.206173,0 0.392846,0.0835787 0.527965,0.218705 0.135126,0.135126 0.218705,0.321795 0.218705,0.527965 0,0.206173 -0.0835787,0.392846 -0.218705,0.527965 -0.135118,0.135126 -0.321791,0.218705 -0.527965,0.218705 -0.206169,0 -0.392839,-0.0835787 -0.527965,-0.218705 -0.135126,-0.135118 -0.218705,-0.321791 -0.218705,-0.527965 0,-0.206169 0.0835787,-0.392839 0.218705,-0.527965 0.135126,-0.135126 0.321795,-0.218705 0.527965,-0.218705zm0.37713 0.369539c-0.0965039,-0.0965039 -0.229843,-0.156201 -0.37713,-0.156201 -0.147283,0 -0.280622,0.0596929 -0.37713,0.156201 -0.0965079,0.0965079 -0.156201,0.229846 -0.156201,0.37713 0,0.147287 0.0596969,0.280626 0.156201,0.37713 0.0965079,0.0965079 0.229846,0.156201 0.37713,0.156201 0.147287,0 0.280626,-0.0596969 0.37713,-0.156201 0.0965039,-0.0965039 0.156201,-0.229843 0.156201,-0.37713 0,-0.147283 -0.0596929,-0.280622 -0.156201,-0.37713z"/>
  <path class="fil0" d="M5.10666 2.55999l0.666673 0c0.0844409,0 0.161138,0.0344724 0.216665,0.09 0.0555276,0.0555276 0.09,0.132224 0.09,0.216665l0 0.866669 -3.93701e-006 0.223673 -0.173748 -0.141173 -1.06667 -0.866669 -0.0395866 -0.0321614 0 -0.0503386c0,-0.0844409 0.0344724,-0.161138 0.09,-0.216665 0.0555276,-0.0555276 0.132224,-0.09 0.216665,-0.09zm0.666673 0.213339l-0.666673 0c-0.0255551,0 -0.0488661,0.0105315 -0.0658307,0.0274961 -0.00694882,0.00694882 -0.0128189,0.0149646 -0.0173268,0.0237598l0.843157 0.685067 0 -0.642996c0,-0.0255551 -0.0105315,-0.0488661 -0.0274961,-0.0658307 -0.0169646,-0.0169646 -0.0402756,-0.0274961 -0.0658307,-0.0274961z"/>
  <polygon class="fil0" points="3.30228,2.20791 4.73487,1.38081 4.81284,1.33579 4.87028,1.40539 5.85542,2.59916 5.69125,2.73416 4.76356,1.61 3.40895,2.39208 "/>
  <polygon class="fil0" points="3.5552,2.7975 4.73292,1.8375 4.82187,1.76499 4.8875,1.85916 5.40787,2.60583 5.23287,2.7275 4.77813,2.075 3.68936,2.9625 "/>
  <path class="fil0" d="M3.42759 2.56l-1.16 0c-0.118012,0 -0.226201,-0.0430276 -0.305413,-0.112346 -0.0830394,-0.0726575 -0.134587,-0.173843 -0.134587,-0.285988l0 -0.163335c0,-0.11215 0.0515472,-0.213331 0.134583,-0.285988 0.0792205,-0.0693189 0.187406,-0.112346 0.305417,-0.112346l0.782626 0 0 0.213339 -0.782626 0c-0.0653189,0 -0.123811,0.0226024 -0.165417,0.0590079 -0.0377835,0.0330591 -0.0612441,0.0777244 -0.0612441,0.125988l0 0.163335c0,0.0482638 0.0234606,0.0929252 0.061248,0.125988 0.0416063,0.0364055 0.100098,0.0590079 0.165413,0.0590079l1.16 0 0 0.213339z"/>
  <polygon class="fil0" points="2.76557,1.70666 2.76557,2.45333 2.55223,2.45333 2.55223,1.70666 "/>
 </g>
 <rect class="fil1" width="6.82666" height="6.82666"/>
</svg>
