<?xml version="1.0" encoding="UTF-8"?>
<!DOCTYPE svg PUBLIC "-//W3C//DTD SVG 1.1//EN" "http://www.w3.org/Graphics/SVG/1.1/DTD/svg11.dtd">
<!-- Creator: CorelDRAW -->
<svg xmlns="http://www.w3.org/2000/svg" xml:space="preserve" width="6.82666in" height="6.82666in" style="shape-rendering:geometricPrecision; text-rendering:geometricPrecision; image-rendering:optimizeQuality; fill-rule:evenodd; clip-rule:evenodd"
viewBox="0 0 6.82666 6.82666"
 xmlns:xlink="http://www.w3.org/1999/xlink">
 <defs>
  <style type="text/css">
   <![CDATA[
    .fil1 {fill:none}
    .fil0 {fill:#212121;fill-rule:nonzero}
   ]]>
  </style>
 </defs>
 <g id="Layer_x0020_1">
  <metadata id="CorelCorpID_0Corel-Layer"/>
  <path class="fil0" d="M1.75516 3.98474c0.20228,0 0.385437,0.0820079 0.518008,0.214579 0.132571,0.132571 0.214579,0.315728 0.214579,0.518008 0,0.20228 -0.0820079,0.385429 -0.214579,0.518008 -0.132571,0.132571 -0.315728,0.214579 -0.518008,0.214579 -0.20228,0 -0.385429,-0.0820079 -0.518008,-0.214579 -0.132571,-0.132579 -0.214579,-0.315728 -0.214579,-0.518008 0,-0.20228 0.0820079,-0.385437 0.214579,-0.518008 0.132579,-0.132571 0.315728,-0.214579 0.518008,-0.214579zm0.367173 0.365413c-0.0939528,-0.0939528 -0.223776,-0.152075 -0.367173,-0.152075 -0.143398,0 -0.273217,0.0581181 -0.367173,0.152075 -0.0939528,0.0939528 -0.152075,0.223776 -0.152075,0.367173 0,0.143398 0.0581181,0.273217 0.152075,0.367173 0.0939567,0.0939567 0.223776,0.152075 0.367173,0.152075 0.143398,0 0.27322,-0.058122 0.367173,-0.152075 0.0939567,-0.0939567 0.152075,-0.223776 0.152075,-0.367173 0,-0.143398 -0.058122,-0.27322 -0.152075,-0.367173z"/>
  <path class="fil0" d="M3.92051 3.98474c0.20228,0 0.385429,0.0820079 0.518008,0.214579 0.132571,0.132571 0.214579,0.315728 0.214579,0.518008 0,0.20228 -0.0820079,0.385429 -0.214579,0.518008 -0.132579,0.132571 -0.315728,0.214579 -0.518008,0.214579 -0.20228,0 -0.385437,-0.0820079 -0.518008,-0.214579 -0.132571,-0.132579 -0.214579,-0.315728 -0.214579,-0.518008 0,-0.20228 0.0820079,-0.385437 0.214579,-0.518008 0.132571,-0.132571 0.315728,-0.214579 0.518008,-0.214579zm0.367173 0.365413c-0.0939567,-0.0939567 -0.223776,-0.152075 -0.367173,-0.152075 -0.143398,0 -0.27322,0.058122 -0.367173,0.152075 -0.0939528,0.0939528 -0.152075,0.223776 -0.152075,0.367173 0,0.143398 0.0581181,0.273217 0.152075,0.367173 0.0939528,0.0939528 0.223776,0.152075 0.367173,0.152075 0.143398,0 0.273217,-0.0581181 0.367173,-0.152075 0.0939567,-0.0939567 0.152075,-0.223776 0.152075,-0.367173 0,-0.143398 -0.058122,-0.27322 -0.152075,-0.367173z"/>
  <path class="fil0" d="M1.123 3.15018l3.65765 0c0.0832323,0 0.158823,0.0339803 0.213551,0.0887087 0.0547323,0.0547362 0.0887126,0.130331 0.0887126,0.213555l0 0.756327c0,0.0832205 -0.0339803,0.158819 -0.0887126,0.213551 -0.0547362,0.0547323 -0.130331,0.0887126 -0.213551,0.0887126l-0.317984 0 -0.0612323 0 -0.0308504 -0.0533346c-0.0458937,-0.0793346 -0.111776,-0.145291 -0.190563,-0.190768 -0.0758661,-0.0437913 -0.164465,-0.0688543 -0.259512,-0.0688543 -0.0950512,0 -0.183646,0.025063 -0.259516,0.0688543 -0.0787874,0.0454764 -0.144669,0.111433 -0.190563,0.190768l-0.0308543 0.0533346 -0.0612283 0 -1.08103 0 -0.0612244 0 -0.0308583 -0.0533346c-0.0458976,-0.0793307 -0.111776,-0.145287 -0.190567,-0.190768 -0.0758661,-0.0437913 -0.164465,-0.0688543 -0.259512,-0.0688543 -0.0950472,0 -0.183646,0.025063 -0.259512,0.0688543 -0.0787874,0.0454764 -0.144669,0.111433 -0.190563,0.190768l-0.0308504 0.0533346 -0.0612323 0 -0.0900039 0c-0.0742598,0 -0.141709,-0.030311 -0.190535,-0.0791339 -0.0488228,-0.0488228 -0.0791339,-0.116268 -0.0791339,-0.190531l0 -0.82152c0,-0.0742677 0.0303071,-0.141717 0.0791299,-0.190539 0.0488228,-0.0488228 0.116272,-0.0791299 0.190539,-0.0791299zm3.65765 0.213339l-3.65765 0c-0.0153819,0 -0.0294488,0.00637008 -0.0397047,0.016626 -0.0102559,0.0102559 -0.016626,0.0243228 -0.016626,0.0397047l0 0.82152c0,0.015378 0.00637402,0.0294409 0.0166299,0.0396969 0.0102598,0.0102598 0.0243228,0.0166299 0.0397008,0.0166299l0.0319646 0c0.0613307,-0.0874882 0.141547,-0.161071 0.23485,-0.214929 0.108012,-0.0623465 0.232819,-0.0980276 0.365346,-0.0980276 0.132528,0 0.257335,0.0356811 0.365346,0.0980276 0.0932992,0.0538543 0.17352,0.127441 0.234854,0.214929l0.964949 0c0.0613346,-0.0874882 0.141551,-0.161075 0.23485,-0.214929 0.108016,-0.0623465 0.232823,-0.0980276 0.36535,-0.0980276 0.132528,0 0.257335,0.0356811 0.365346,0.0980276 0.0933031,0.0538543 0.173516,0.127441 0.23485,0.214929l0.259945 0c0.0243346,0 0.0465472,-0.0100433 0.0627165,-0.0262087 0.0161654,-0.0161654 0.0262087,-0.0383819 0.0262087,-0.0627165l0 -0.756327c0,-0.0243425 -0.0100433,-0.0465512 -0.0262087,-0.0627205 -0.0161654,-0.0161654 -0.038378,-0.0262047 -0.0627165,-0.0262047z"/>
  <path class="fil0" d="M4.31879 3.32227c-0.024248,-0.031122 -0.065874,-0.0876417 -0.120634,-0.161988 -0.210063,-0.285209 -0.618654,-0.839953 -0.631299,-0.839953l-2.46074 0c-0.00881102,0 -0.0173661,0.00462205 -0.0240315,0.0120551 -0.00951575,0.0106142 -0.0154252,0.0262283 -0.0154252,0.0442717l0 0.98452 -0.213339 0 0 -0.98452c0,-0.0715906 0.0269843,-0.137472 0.0704331,-0.185941 0.046311,-0.0516535 0.110839,-0.0837244 0.182362,-0.0837244l2.46074 0c0.119854,0 0.57102,0.612535 0.802969,0.927457 0.0574094,0.0779449 0.101059,0.137209 0.116469,0.156988l-0.167504 0.130835z"/>
  <polygon class="fil0" points="2.42281,2.21366 2.42281,3.25685 2.20947,3.25685 2.20947,2.21366 "/>
  <path class="fil0" d="M1.24689 1.37675l4.38138 0c0.0868228,0 0.165677,0.0354449 0.22278,0.0925394 0.0570984,0.0570945 0.0925433,0.135949 0.0925433,0.222772 0,0.0868189 -0.0354488,0.165669 -0.0925433,0.222764 -0.0571024,0.0570984 -0.135969,0.0925433 -0.22278,0.0925433l-4.38138 0c-0.086811,0 -0.165681,-0.0354449 -0.22278,-0.0925433 -0.0570984,-0.0570945 -0.0925472,-0.135945 -0.0925472,-0.222764 0,-0.0868228 0.0354449,-0.165677 0.0925433,-0.222772 0.0571024,-0.0570945 0.135961,-0.0925394 0.222783,-0.0925394zm4.38138 0.213339l-4.38138 0c-0.027937,0 -0.0534173,0.0115079 -0.0719488,0.0300354 -0.0185315,0.0185276 -0.0300394,0.0440079 -0.0300394,0.071937 0,0.0279252 0.0115079,0.0533976 0.0300433,0.0719291 0.0185315,0.0185315 0.0440118,0.0300394 0.0719449,0.0300394l4.38138 0c0.0279331,0 0.0534094,-0.0115079 0.0719449,-0.0300394 0.0185315,-0.0185315 0.0300394,-0.0440039 0.0300394,-0.0719291 0,-0.0279291 -0.0115079,-0.0534094 -0.0300394,-0.071937 -0.0185315,-0.0185276 -0.0440079,-0.0300354 -0.0719449,-0.0300354z"/>
  <polygon class="fil0" points="4.98616,1.48342 4.98616,1.9007 4.77282,1.9007 4.77282,1.48342 "/>
  <polygon class="fil0" points="5.65672,1.96839 5.65672,3.51014 5.44338,3.51014 5.44338,1.96839 "/>
  <path class="fil0" d="M5.96958 3.76077c-0.0214961,0.0802283 -0.068748,0.14835 -0.131484,0.196484 -0.0625984,0.0480354 -0.140461,0.0759803 -0.223346,0.0759803 -0.101457,0 -0.193331,-0.0411339 -0.259827,-0.107638 -0.0665039,-0.0665039 -0.107638,-0.15837 -0.107638,-0.259831 0,-0.101457 0.0411339,-0.193331 0.107638,-0.259827 0.0664961,-0.0665039 0.15837,-0.107638 0.259827,-0.107638l0 0.213339c-0.0425709,0 -0.0811102,0.017252 -0.108992,0.0451339 -0.0278819,0.0278819 -0.0451339,0.0664213 -0.0451339,0.108992 0,0.0425748 0.017248,0.0811102 0.0451339,0.108996 0.0278819,0.0278819 0.0664213,0.0451339 0.108992,0.0451339 0.0351496,0 0.0679764,-0.0117008 0.0941811,-0.0318071 0.0260669,-0.02 0.0457638,-0.0485354 0.054815,-0.0823189l0.205835 0.055z"/>
  <polygon class="fil0" points="2.3185,2.00502 2.3185,2.17722 2.10516,2.17722 2.10516,2.00502 "/>
  <polygon class="fil0" points="3.25738,2.00502 3.25738,2.17722 3.04404,2.17722 3.04404,2.00502 "/>
  <path class="fil0" d="M3.92051 4.40202c0.0870591,0 0.165882,0.0352992 0.222945,0.0923622 0.057063,0.057063 0.0923583,0.13589 0.0923583,0.222945 0,0.0870591 -0.0352992,0.165882 -0.0923622,0.222945 -0.0570551,0.0570591 -0.135886,0.0923622 -0.222941,0.0923622 -0.0870591,0 -0.165882,-0.0352992 -0.222945,-0.0923622 -0.057063,-0.057063 -0.0923622,-0.135886 -0.0923622,-0.222945 0,-0.0870591 0.0352992,-0.165882 0.0923622,-0.222945 0.057063,-0.057063 0.135886,-0.0923622 0.222945,-0.0923622zm0.0721102 0.243197c-0.0184449,-0.0184449 -0.0439449,-0.0298583 -0.0721102,-0.0298583 -0.0281654,0 -0.0536654,0.0114134 -0.0721102,0.0298583 -0.0184449,0.0184449 -0.0298583,0.0439449 -0.0298583,0.0721102 0,0.0281654 0.0114134,0.0536654 0.0298583,0.0721102 0.0184449,0.0184449 0.0439449,0.0298583 0.0721102,0.0298583 0.0281614,0 0.0536614,-0.0114134 0.0721063,-0.0298583 0.0184449,-0.0184449 0.0298583,-0.0439449 0.0298583,-0.0721102 0,-0.0281693 -0.0114094,-0.0536654 -0.0298543,-0.0721102z"/>
  <path class="fil0" d="M1.75516 4.40202c0.0870591,0 0.165882,0.0352992 0.222945,0.0923622 0.057063,0.057063 0.0923622,0.135886 0.0923622,0.222945 0,0.0870591 -0.0352992,0.165882 -0.0923622,0.222945 -0.057063,0.057063 -0.135886,0.0923622 -0.222945,0.0923622 -0.0870551,0 -0.165886,-0.0353031 -0.222941,-0.0923622 -0.057063,-0.057063 -0.0923622,-0.135886 -0.0923622,-0.222945 0,-0.0870551 0.0352953,-0.165882 0.0923583,-0.222945 0.057063,-0.057063 0.135886,-0.0923622 0.222945,-0.0923622zm0.0721102 0.243197c-0.0184449,-0.0184449 -0.0439449,-0.0298583 -0.0721102,-0.0298583 -0.0281654,0 -0.0536654,0.0114134 -0.0721102,0.0298583 -0.0184449,0.0184449 -0.0298543,0.0439409 -0.0298543,0.0721102 0,0.0281654 0.0114134,0.0536654 0.0298583,0.0721102 0.0184449,0.0184449 0.0439449,0.0298583 0.0721063,0.0298583 0.0281654,0 0.0536654,-0.0114134 0.0721102,-0.0298583 0.0184449,-0.0184449 0.0298583,-0.0439449 0.0298583,-0.0721102 0,-0.0281654 -0.0114134,-0.0536654 -0.0298583,-0.0721102z"/>
 </g>
 <rect class="fil1" width="6.82666" height="6.82666"/>
</svg>
