<?xml version="1.0" encoding="UTF-8"?>
<!DOCTYPE svg PUBLIC "-//W3C//DTD SVG 1.1//EN" "http://www.w3.org/Graphics/SVG/1.1/DTD/svg11.dtd">
<!-- Creator: CorelDRAW -->
<svg xmlns="http://www.w3.org/2000/svg" xml:space="preserve" width="6.82666in" height="6.82666in" style="shape-rendering:geometricPrecision; text-rendering:geometricPrecision; image-rendering:optimizeQuality; fill-rule:evenodd; clip-rule:evenodd"
viewBox="0 0 6.82666 6.82666"
 xmlns:xlink="http://www.w3.org/1999/xlink">
 <defs>
  <style type="text/css">
   <![CDATA[
    .fil2 {fill:none}
    .fil1 {fill:#212121}
    .fil0 {fill:#212121;fill-rule:nonzero}
   ]]>
  </style>
 </defs>
 <g id="Layer_x0020_1">
  <metadata id="CorelCorpID_0Corel-Layer"/>
  <g id="_678598720">
   <path id="_678600304" class="fil0" d="M3.59684 3.63452l-2.49486 0 0.000476378 0.000413386c0.00023622,7.48031e-005 0.000370079,0.000161417 0.000291339,0.000251969 -0.00395669,0.0045748 -0.00642126,0.0120079 -0.00642126,0.021185l0 0.786516 -0.213339 0 0 -0.786516c0,-0.0615039 0.0225669,-0.118339 0.0589252,-0.16035 0.0399567,-0.0461772 0.0961654,-0.0748386 0.158972,-0.0748386l2.49595 0 0 0.213339zm-2.49486 0l-0.00109449 0c-0.00125984,0 0.000759843,0.000153543 0.00157087,0.000413386l-0.000476378 -0.000413386z"/>
   <path id="_678599992" class="fil0" d="M3.86757 4.17152c-0.0323268,-0.0675315 -0.381512,-0.599268 -0.682008,-1.03959 -0.204374,-0.299472 -0.329839,-0.551461 -0.349488,-0.551461l-1.4704 0c-0.00564961,0.0139803 -0.00901969,0.0328858 -0.00901969,0.0547362l0 0.974909 -0.213339 0 0 -0.974909c0,-0.0624134 0.015122,-0.121055 0.0394567,-0.165232 0.0349488,-0.0634528 0.089815,-0.102843 0.156122,-0.102843l1.49718 0c0.0624055,0 0.286354,0.294638 0.525323,0.644799 0.304205,0.44576 0.661398,0.991783 0.697843,1.06793l-0.191669 0.0916693z"/>
   <polygon id="_678600280" class="fil0" points="2.42593,2.47379 2.42593,3.52785 2.21259,3.52785 2.21259,2.47379 "/>
   <path id="_678600640" class="fil0" d="M1.45222 4.04917l3.28 0c0.179776,0 0.343142,0.0734724 0.461504,0.191835 0.118362,0.118362 0.191835,0.281724 0.191835,0.4615l0 7.87402e-006c0,0.179776 -0.0734724,0.343138 -0.191835,0.4615 -0.118362,0.118362 -0.281728,0.191835 -0.461504,0.191835l-3.28 0c-0.179776,0 -0.343142,-0.0734724 -0.461504,-0.191835 -0.118362,-0.118362 -0.191835,-0.281724 -0.191835,-0.4615l0 -7.87402e-006c0,-0.179776 0.0734724,-0.343138 0.191835,-0.4615 0.118362,-0.118362 0.281728,-0.191835 0.461504,-0.191835zm3.28 0.213339l-3.28 0c-0.12089,0 -0.230874,0.0495354 -0.310669,0.129331 -0.0797953,0.0797953 -0.129331,0.189776 -0.129331,0.310665l0 7.87402e-006c0,0.12089 0.0495354,0.23087 0.129331,0.310665 0.0797953,0.0797953 0.18978,0.129331 0.310669,0.129331l3.28 0c0.12089,0 0.230874,-0.0495354 0.310669,-0.129331 0.0797953,-0.0797953 0.129331,-0.189776 0.129331,-0.310665l0 -7.87402e-006c0,-0.12089 -0.0495354,-0.23087 -0.129331,-0.310665 -0.0797953,-0.0797953 -0.18978,-0.129331 -0.310669,-0.129331z"/>
   <path id="_678600256" class="fil0" d="M1.57837 4.30148c0.110724,0 0.210984,0.0448937 0.283563,0.117469 0.0725748,0.0725787 0.117469,0.172839 0.117469,0.283563 0,0.110724 -0.0448937,0.210984 -0.117469,0.283559 -0.0725748,0.0725748 -0.172835,0.117469 -0.283563,0.117469 -0.110732,0 -0.210988,-0.0448937 -0.283559,-0.117469 -0.0725748,-0.0725709 -0.117469,-0.172827 -0.117469,-0.283559 0,-0.110728 0.0448937,-0.210988 0.117469,-0.283563 0.0725748,-0.0725748 0.172835,-0.117469 0.283559,-0.117469zm0.132728 0.268303c-0.0339606,-0.0339567 -0.0808898,-0.0549646 -0.132728,-0.0549646 -0.0518386,0 -0.0987677,0.0210079 -0.132724,0.0549646 -0.0339567,0.0339567 -0.0549646,0.0808858 -0.0549646,0.132728 0,0.0518425 0.0210079,0.0987717 0.0549646,0.132724 0.0339528,0.0339567 0.0808819,0.0549646 0.132724,0.0549646 0.0518425,0 0.0987717,-0.0210079 0.132728,-0.0549646 0.0339567,-0.0339567 0.0549646,-0.0808858 0.0549646,-0.132724 0,-0.0518386 -0.0210079,-0.0987677 -0.0549646,-0.132728z"/>
   <path id="_678600664" class="fil0" d="M2.3353 4.30148c0.110724,0 0.210984,0.0448937 0.283559,0.117469 0.0725748,0.0725748 0.117469,0.172835 0.117469,0.283563 0,0.110732 -0.0448937,0.210984 -0.117469,0.283559 -0.0725748,0.0725787 -0.172835,0.117469 -0.283559,0.117469 -0.110728,0 -0.210988,-0.0448937 -0.283563,-0.117469 -0.0725748,-0.0725748 -0.117469,-0.172835 -0.117469,-0.283559 0,-0.110724 0.0448937,-0.210984 0.117469,-0.283563 0.0725748,-0.0725748 0.172835,-0.117469 0.283563,-0.117469zm0.132724 0.268303c-0.0339567,-0.0339567 -0.0808858,-0.0549646 -0.132724,-0.0549646 -0.0518425,0 -0.0987717,0.0210079 -0.132728,0.0549646 -0.0339567,0.0339606 -0.0549646,0.0808898 -0.0549646,0.132728 0,0.0518386 0.0210079,0.0987677 0.0549646,0.132724 0.0339567,0.0339567 0.0808858,0.0549646 0.132728,0.0549646 0.0518386,0 0.0987717,-0.0210079 0.132724,-0.0549646 0.0339567,-0.0339567 0.0549646,-0.0808858 0.0549646,-0.132724 0,-0.0518425 -0.0210079,-0.0987717 -0.0549646,-0.132728z"/>
   <path id="_678599968" class="fil0" d="M3.09222 4.30148c0.110728,0 0.210988,0.0448937 0.283563,0.117469 0.0725748,0.0725748 0.117469,0.172835 0.117469,0.283563 0,0.110732 -0.0448937,0.210984 -0.117469,0.283559 -0.0725748,0.0725787 -0.172835,0.117469 -0.283563,0.117469 -0.110732,0 -0.210988,-0.0448937 -0.283559,-0.117469 -0.0725748,-0.0725709 -0.117469,-0.172827 -0.117469,-0.283559 0,-0.110728 0.0448937,-0.210988 0.117469,-0.283563 0.0725748,-0.0725748 0.172835,-0.117469 0.283559,-0.117469zm0.132728 0.268303c-0.0339567,-0.0339567 -0.0808858,-0.0549646 -0.132728,-0.0549646 -0.0518386,0 -0.0987677,0.0210079 -0.132724,0.0549646 -0.0339567,0.0339567 -0.0549646,0.0808858 -0.0549646,0.132728 0,0.0518425 0.0210079,0.0987717 0.0549646,0.132724 0.0339528,0.0339567 0.0808819,0.0549646 0.132724,0.0549646 0.0518425,0 0.0987756,-0.0210079 0.132728,-0.0549646 0.0339567,-0.0339567 0.0549646,-0.0808858 0.0549646,-0.132724 0,-0.0518425 -0.0210079,-0.0987717 -0.0549646,-0.132728z"/>
   <path id="_678600064" class="fil0" d="M3.84915 4.30148c0.110728,0 0.210988,0.0448937 0.283563,0.117469 0.0725748,0.0725787 0.117469,0.172839 0.117469,0.283563 0,0.110724 -0.0448937,0.210984 -0.117469,0.283559 -0.0725748,0.0725748 -0.172835,0.117469 -0.283563,0.117469 -0.110724,0 -0.210984,-0.0448898 -0.283559,-0.117469 -0.0725748,-0.0725748 -0.117469,-0.172827 -0.117469,-0.283559 0,-0.110728 0.0448937,-0.210988 0.117469,-0.283563 0.0725748,-0.0725748 0.172835,-0.117469 0.283559,-0.117469zm0.132728 0.268303c-0.0339567,-0.0339567 -0.0808858,-0.0549646 -0.132728,-0.0549646 -0.0518386,0 -0.0987677,0.0210079 -0.132724,0.0549646 -0.0339567,0.0339567 -0.0549646,0.0808858 -0.0549646,0.132728 0,0.0518386 0.0210079,0.0987677 0.0549646,0.132724 0.0339528,0.0339567 0.0808858,0.0549646 0.132724,0.0549646 0.0518425,0 0.0987717,-0.0210079 0.132728,-0.0549646 0.0339567,-0.0339567 0.0549646,-0.0808858 0.0549646,-0.132724 0,-0.0518386 -0.0210079,-0.0987677 -0.0549646,-0.132728z"/>
   <path id="_678599320" class="fil0" d="M4.60607 4.30148c0.110724,0 0.210984,0.0448937 0.283559,0.117469 0.0725748,0.0725748 0.117469,0.172835 0.117469,0.283563 0,0.110732 -0.0448937,0.210988 -0.117469,0.283559 -0.0725709,0.0725748 -0.172827,0.117469 -0.283559,0.117469 -0.110728,0 -0.210988,-0.0448937 -0.283563,-0.117469 -0.0725748,-0.0725748 -0.117469,-0.172835 -0.117469,-0.283559 0,-0.110724 0.0448937,-0.210984 0.117469,-0.283563 0.0725787,-0.0725748 0.172839,-0.117469 0.283563,-0.117469zm0.132724 0.268303c-0.0339567,-0.0339567 -0.0808858,-0.0549646 -0.132724,-0.0549646 -0.0518386,0 -0.0987677,0.0210079 -0.132728,0.0549646 -0.0339567,0.0339606 -0.0549646,0.0808898 -0.0549646,0.132728 0,0.0518386 0.0210079,0.0987677 0.0549646,0.132724 0.0339567,0.0339567 0.0808858,0.0549646 0.132728,0.0549646 0.0518425,0 0.0987717,-0.0210079 0.132724,-0.0549646 0.0339567,-0.0339528 0.0549646,-0.0808819 0.0549646,-0.132724 0,-0.0518425 -0.0210079,-0.0987717 -0.0549646,-0.132728z"/>
   <circle id="_678599872" class="fil1" cx="1.57295" cy="4.70934" r="0.0684813"/>
   <circle id="_678599632" class="fil1" cx="3.09222" cy="4.70251" r="0.0684813"/>
   <circle id="_678599704" class="fil1" cx="2.3353" cy="4.70251" r="0.0684813"/>
   <circle id="_678599608" class="fil1" cx="3.84915" cy="4.70251" r="0.0684813"/>
   <circle id="_678599584" class="fil1" cx="4.60607" cy="4.70251" r="0.0684813"/>
   <path id="_678599200" class="fil0" d="M3.35114 3.20405l1.95834 -1.61348c0.0835433,-0.0968228 0.188594,-0.130335 0.281626,-0.116752 0.0455945,0.00665748 0.0879646,0.0245591 0.123724,0.0519567 0.0357244,0.0273701 0.0647441,0.0640197 0.0836575,0.108169 0.0402402,0.0939331 0.0340866,0.221098 -0.0571063,0.357886l-0.00375197 0.005 -1.6705 2.20383 -0.17 -0.128331 1.667 -2.19922c0.0455748,-0.0685236 0.0529843,-0.122063 0.0385197,-0.155835 -0.00399606,-0.00933071 -0.00988583,-0.0168937 -0.0169882,-0.0223346 -0.00706693,-0.00541339 -0.0154843,-0.00896457 -0.0245591,-0.0102874 -0.0273031,-0.00398425 -0.0616339,0.0103071 -0.0934685,0.0488543l-0.0145827 0.0141654 -1.96691 1.62054 -0.135 -0.164165z"/>
   <polygon id="_678599536" class="fil0" points="5.66286,2.05989 5.66286,3.26559 5.44952,3.26559 5.44952,2.05989 "/>
   <path id="_678598528" class="fil0" d="M6.02778 3.43944c0,0.101461 -0.0411339,0.193327 -0.107638,0.259831 -0.0665039,0.0665039 -0.15837,0.107638 -0.259831,0.107638 -0.101457,0 -0.193331,-0.0411339 -0.259827,-0.107638 -0.0665039,-0.0665039 -0.107638,-0.15837 -0.107638,-0.259831 0,-0.101461 0.0411339,-0.193331 0.107638,-0.259827 0.0664961,-0.0665039 0.15837,-0.107638 0.259827,-0.107638l0 0.213339c-0.0425709,0 -0.0811102,0.017252 -0.108992,0.0451339 -0.0278858,0.0278819 -0.0451339,0.0664213 -0.0451339,0.108992 0,0.0425748 0.017248,0.0811102 0.0451339,0.108996 0.0278819,0.0278819 0.0664213,0.0451339 0.108992,0.0451339 0.0425748,0 0.0811102,-0.017248 0.108996,-0.0451339 0.0278858,-0.0278858 0.0451339,-0.0664213 0.0451339,-0.108996l0.213339 0z"/>
  </g>
 </g>
 <rect class="fil2" width="6.82666" height="6.82666"/>
</svg>
