<?xml version="1.0" encoding="UTF-8"?>
<!DOCTYPE svg PUBLIC "-//W3C//DTD SVG 1.1//EN" "http://www.w3.org/Graphics/SVG/1.1/DTD/svg11.dtd">
<!-- Creator: CorelDRAW -->
<svg xmlns="http://www.w3.org/2000/svg" xml:space="preserve" width="6.82666in" height="6.82666in" style="shape-rendering:geometricPrecision; text-rendering:geometricPrecision; image-rendering:optimizeQuality; fill-rule:evenodd; clip-rule:evenodd"
viewBox="0 0 6.82666 6.82666"
 xmlns:xlink="http://www.w3.org/1999/xlink">
 <defs>
  <style type="text/css">
   <![CDATA[
    .fil1 {fill:none}
    .fil0 {fill:#212121;fill-rule:nonzero}
   ]]>
  </style>
 </defs>
 <g id="Layer_x0020_1">
  <metadata id="CorelCorpID_0Corel-Layer"/>
  <path class="fil0" d="M1.38667 3.73332l0.533331 0 0.106669 0 0 0.106669 0 0.487543c0,0.173815 0.071189,0.331913 0.18587,0.446594 0.114677,0.114677 0.272776,0.185866 0.446591,0.185866 0.114823,0 0.25985,0.00777559 0.418386,0.0162677 0.182516,0.00977953 0.383795,0.0205709 0.591508,0.0205709 0.61889,0 1.23765,-0.10174 1.23765,-0.669299l0 -0.487543 0 -0.106669 0.106669 0 0.533331 0 0.106669 0 0 0.106669 0 1.26377c0,0.268571 -0.109799,0.512657 -0.286685,0.689547 -0.17689,0.176886 -0.420976,0.286685 -0.689547,0.286685l-2.42087 0c-0.268571,0 -0.512657,-0.109799 -0.689547,-0.286685 -0.176886,-0.17689 -0.286685,-0.420976 -0.286685,-0.689547l0 -1.26377 0 -0.106669 0.106669 0zm0.426661 0.213339l-0.319992 0 0 1.1571c0,0.209685 0.0858622,0.40039 0.224181,0.538713 0.138323,0.138319 0.329028,0.224181 0.538713,0.224181l2.42087 0c0.209685,0 0.40039,-0.0858622 0.538713,-0.224181 0.138319,-0.138323 0.224181,-0.329028 0.224181,-0.538713l0 -1.1571 -0.319992 0 0 0.380874c0,0.748469 -0.725413,0.882638 -1.45098,0.882638 -0.202972,0 -0.412425,-0.0112283 -0.602343,-0.0214055 -0.150398,-0.00805512 -0.28798,-0.0154331 -0.407551,-0.0154331 -0.232701,0 -0.444181,-0.095126 -0.597425,-0.24837 -0.153248,-0.153248 -0.248374,-0.364728 -0.248374,-0.597429l0 -0.380874z"/>
  <polygon class="fil0" points="1.47216,3.94666 0.874508,3.94666 0.874508,3.73332 1.47216,3.73332 "/>
  <polygon class="fil0" points="6.05883,3.94666 5.46117,3.94666 5.46117,3.73332 6.05883,3.73332 "/>
  <path class="fil0" d="M2.45333 2.13331l2.02667 0 0.0716181 0 0.0271339 0.0666693c0.163969,0.402937 0.251654,0.807201 0.254516,1.21291 0.0028622,0.405835 -0.0795315,0.811276 -0.255768,1.21625l-0.0279252 0.0641693 -0.0695748 0 -2.02667 0 -0.144744 0 0.0430787 -0.138335c0.121988,-0.391717 0.187976,-0.777882 0.190453,-1.1577 0.00247244,-0.378835 -0.0581181,-0.752988 -0.189205,-1.12188l-0.0504882 -0.142087 0.150906 0zm1.9543 0.213339l-1.80676 0c0.106598,0.345756 0.156067,0.696402 0.153752,1.05146 -0.00233465,0.357508 -0.0570827,0.718244 -0.158744,1.08186l1.81369 0c0.145528,-0.355799 0.213697,-0.711209 0.211193,-1.06625 -0.00249606,-0.354433 -0.0757874,-0.710173 -0.213134,-1.06708z"/>
  <polygon class="fil0" points="3.57333,4.58665 3.57333,5.00459 3.36,5.00459 3.36,4.58665 "/>
  <path class="fil0" d="M3.08958 2.21332c0.104461,0.399594 0.156921,0.799602 0.157028,1.2 0.000110236,0.400673 -0.052126,0.800823 -0.157028,1.20042l-0.205835 -0.0541654c0.100445,-0.382618 0.150465,-0.764713 0.150358,-1.14625 -0.000102362,-0.381811 -0.0503346,-0.764043 -0.150358,-1.14667l0.205835 -0.0533307z"/>
  <path class="fil0" d="M3.63804 2.21332c0.104465,0.399591 0.156921,0.799602 0.157028,1.2 0.000110236,0.400677 -0.052122,0.800823 -0.157028,1.20042l-0.205835 -0.0541654c0.100449,-0.382618 0.150465,-0.764709 0.150358,-1.14625 -0.000102362,-0.381811 -0.0503307,-0.764043 -0.150358,-1.14667l0.205835 -0.0533307z"/>
  <path class="fil0" d="M4.1865 2.21332c0.104465,0.399591 0.156921,0.799602 0.157028,1.2 0.000110236,0.400677 -0.052122,0.800823 -0.157028,1.20042l-0.205835 -0.0541654c0.100449,-0.382618 0.150465,-0.764709 0.150358,-1.14625 -0.000102362,-0.381811 -0.0503307,-0.764043 -0.150358,-1.14667l0.205835 -0.0533307z"/>
  <polygon class="fil0" points="3.20697,2.23998 3.20697,0.853327 3.42031,0.853327 3.42031,2.23998 "/>
  <path class="fil0" d="M3.34531 0.921661c-0.0561457,-0.0174882 -0.115843,0.0138543 -0.133331,0.07 -0.0174882,0.0561457 0.0138543,0.115843 0.07,0.133331l0.785949 0.246894 -0.796366 0.343524c-0.0540748,0.0232402 -0.0790748,0.0859252 -0.0558346,0.14 0.0232402,0.0540748 0.0859252,0.0790748 0.14,0.0558346l1.05587 -0.455465c0.0292992,-0.0112795 0.0533701,-0.0353228 0.0635079,-0.0675984 0.0176535,-0.0562008 -0.0135945,-0.116079 -0.0697953,-0.133732l-0.0319685 0.101764 0.0316654 -0.101665 -1.05969 -0.332886z"/>
 </g>
 <rect class="fil1" width="6.82666" height="6.82666"/>
</svg>
