<?xml version="1.0" encoding="UTF-8"?>
<!DOCTYPE svg PUBLIC "-//W3C//DTD SVG 1.1//EN" "http://www.w3.org/Graphics/SVG/1.1/DTD/svg11.dtd">
<!-- Creator: CorelDRAW -->
<svg xmlns="http://www.w3.org/2000/svg" xml:space="preserve" width="6.82666in" height="6.82666in" style="shape-rendering:geometricPrecision; text-rendering:geometricPrecision; image-rendering:optimizeQuality; fill-rule:evenodd; clip-rule:evenodd"
viewBox="0 0 6.82666 6.82666"
 xmlns:xlink="http://www.w3.org/1999/xlink">
 <defs>
  <style type="text/css">
   <![CDATA[
    .fil1 {fill:none}
    .fil0 {fill:#212121;fill-rule:nonzero}
   ]]>
  </style>
 </defs>
 <g id="Layer_x0020_1">
  <metadata id="CorelCorpID_0Corel-Layer"/>
  <path class="fil0" d="M1.06667 3.797l0 0.856902c0,0.019189 0.00792913,0.0367126 0.0207008,0.0494843 0.0127717,0.0127717 0.0302992,0.0207008 0.0494843,0.0207008l0.185878 0c-0.038811,0.0628583 -0.0633268,0.135484 -0.0689921,0.213339l-0.116886 0c-0.0780709,0 -0.148984,-0.0318701 -0.200319,-0.0832047 -0.0513346,-0.0513346 -0.0832047,-0.122244 -0.0832047,-0.200319l0 -0.856902 0.213339 0z"/>
  <path class="fil0" d="M4.16758 4.06367l0 0.59024c0,0.0780709 -0.0318701,0.148976 -0.0832047,0.200319 -0.0513425,0.0513346 -0.122248,0.0832047 -0.200319,0.0832047l-1.68676 0c-0.00566535,-0.0778504 -0.030185,-0.15048 -0.0689961,-0.213339l1.75576 0c0.019185,0 0.0367126,-0.00792913 0.0494843,-0.0207008 0.0127717,-0.0127717 0.0207008,-0.0302992 0.0207008,-0.0494843l0 -0.59024 0.213339 0z"/>
  <path class="fil0" d="M4.06091 3.74366l1.59943 0c0.086185,0 0.164461,0.0351929 0.221134,0.0918661 0.0566811,0.0566811 0.0918661,0.134969 0.0918661,0.221138l0 0.567768c0,0.0861654 -0.0351929,0.164445 -0.091874,0.221126 -0.0566811,0.0566811 -0.134961,0.091874 -0.221126,0.091874l-0.314091 0c-0.00566535,-0.0778543 -0.0301811,-0.15048 -0.0689921,-0.213339l0.383083 0c0.0272795,0 0.0521772,-0.0112559 0.0702913,-0.0293701 0.0181142,-0.0181142 0.0293701,-0.0430118 0.0293701,-0.0702913l0 -0.567768c0,-0.0272913 -0.011248,-0.052189 -0.0293622,-0.0703031 -0.0181142,-0.0181142 -0.0430079,-0.0293622 -0.0702992,-0.0293622l-1.59943 0 0 -0.213339zm0.34178 1.19377l-0.695488 0 0 -0.213339 0.76448 0c-0.038815,0.0628622 -0.0633268,0.135488 -0.0689921,0.213339z"/>
  <path class="fil0" d="M4.06091 2.8376c-0.0589094,0 -0.106669,0.0477598 -0.106669,0.106669 0,0.0589094 0.0477598,0.106669 0.106669,0.106669l0.70939 0 0.540087 0.815142c0.0324449,0.0490157 0.0984882,0.0624449 0.147504,0.03 0.0490157,-0.0324449 0.0624449,-0.0984882 0.03,-0.147504l-0.567862 -0.857063c-0.0183583,-0.0322008 -0.0530039,-0.0539134 -0.0927244,-0.0539134l-0.766394 0z"/>
  <path class="fil0" d="M4.87446 4.4992c0.130614,0 0.248882,0.0529567 0.334488,0.138563 0.0856063,0.0856063 0.138559,0.20387 0.138559,0.334484 0,0.130614 -0.0529528,0.248878 -0.138559,0.334484 -0.0856102,0.0856063 -0.203874,0.138559 -0.334488,0.138559 -0.130614,0 -0.248878,-0.0529528 -0.334484,-0.138559 -0.0856063,-0.0856063 -0.138559,-0.20387 -0.138559,-0.334484 0,-0.130614 0.0529528,-0.248878 0.138559,-0.334488 0.0856063,-0.0856063 0.20387,-0.138559 0.334484,-0.138559zm0.183654 0.289398c-0.0469882,-0.0469882 -0.111925,-0.0760591 -0.183654,-0.0760591 -0.0717283,0 -0.136661,0.0290669 -0.18365,0.0760551 -0.0469882,0.0469921 -0.0760551,0.111925 -0.0760551,0.183654 0,0.0717283 0.0290669,0.136661 0.0760551,0.18365 0.0469882,0.0469882 0.111921,0.0760551 0.18365,0.0760551 0.0717283,0 0.136661,-0.0290669 0.183654,-0.0760551 0.0469882,-0.0469882 0.0760551,-0.111921 0.0760551,-0.18365 0,-0.0717283 -0.0290669,-0.136661 -0.0760551,-0.18365z"/>
  <path class="fil0" d="M1.72552 4.4992c0.130618,0 0.248882,0.0529567 0.334484,0.138563 0.0856063,0.0856024 0.138563,0.203866 0.138563,0.334484 0,0.130614 -0.0529528,0.248878 -0.138559,0.334484 -0.0856102,0.0856063 -0.203874,0.138559 -0.334488,0.138559 -0.130614,0 -0.248874,-0.0529528 -0.334484,-0.138559 -0.0856063,-0.0856063 -0.138559,-0.20387 -0.138559,-0.334484 0,-0.130614 0.0529528,-0.248878 0.138559,-0.334484 0.0856063,-0.0856063 0.20387,-0.138563 0.334484,-0.138563zm0.18365 0.289398c-0.0469843,-0.0469882 -0.111921,-0.0760591 -0.18365,-0.0760591 -0.0717283,0 -0.136661,0.0290709 -0.18365,0.0760591 -0.0469882,0.0469882 -0.0760551,0.111921 -0.0760551,0.18365 0,0.0717283 0.0290669,0.136661 0.0760551,0.18365 0.0469921,0.0469882 0.111925,0.0760551 0.18365,0.0760551 0.0717283,0 0.136661,-0.0290669 0.183654,-0.0760551 0.0469882,-0.0469882 0.0760551,-0.111921 0.0760551,-0.18365 0,-0.0717283 -0.0290709,-0.136665 -0.0760591,-0.18365z"/>
  <path class="fil0" d="M5.86667 4.31351c0.0589094,0 0.106669,-0.0477598 0.106669,-0.106669 0,-0.0589094 -0.0477598,-0.106669 -0.106669,-0.106669l-0.473417 0c-0.0589094,0 -0.106669,0.0477598 -0.106669,0.106669 0,0.0589094 0.0477598,0.106669 0.106669,0.106669l0.473417 0z"/>
  <polygon class="fil0" points="4.16758,2.94427 4.16758,4.35878 3.95424,4.35878 3.95424,2.94427 "/>
  <polygon class="fil0" points="4.06091,3.957 0.853335,3.957 0.853335,3.74366 4.06091,3.74366 "/>
  <polygon class="fil0" points="2.00875,3.02852 1.42558,3.90908 1.24807,3.79157 1.83125,2.91102 "/>
  <path class="fil0" d="M1.89693 2.1441l0.421661 -0.229354 0.0934961 -0.0508543 0.0507598 0.093311 0.458709 0.843319 0.0508583 0.0934961 -0.093315 0.0507598 -0.421661 0.229358c-0.141957,0.0772126 -0.302205,0.0894567 -0.446004,0.0469843 -0.144091,-0.042563 -0.272114,-0.139913 -0.349268,-0.281748 -0.0772126,-0.141957 -0.0894567,-0.302205 -0.0469843,-0.446008 0.042563,-0.144087 0.139913,-0.272114 0.281748,-0.349264zm0.429961 0.00821654l-0.328165 0.1785c-0.090063,0.0489921 -0.151957,0.130535 -0.179098,0.222425 -0.0272283,0.092185 -0.0196693,0.19439 0.0292559,0.284335 0.0489921,0.090063 0.130535,0.151957 0.222425,0.179098 0.092185,0.0272283 0.19439,0.0196693 0.284335,-0.0292559l0.328343 -0.178598 -0.357094 -0.656504z"/>
  <polygon class="fil0" points="2.48842,2.00475 3.79853,1.28804 3.9002,1.4747 2.59009,2.19142 "/>
  <polygon class="fil0" points="2.64201,2.28549 3.95211,1.56878 4.05378,1.75545 2.74368,2.47216 "/>
  <polygon class="fil0" points="2.79559,2.56623 4.1057,1.84952 4.20737,2.03619 2.89726,2.7529 "/>
  <polygon class="fil0" points="2.61638,2.96524 3.10423,3.81023 2.92007,3.91606 2.43222,3.07108 "/>
 </g>
 <rect class="fil1" width="6.82666" height="6.82666"/>
</svg>
