<?xml version="1.0" encoding="UTF-8"?>
<!DOCTYPE svg PUBLIC "-//W3C//DTD SVG 1.1//EN" "http://www.w3.org/Graphics/SVG/1.1/DTD/svg11.dtd">
<!-- Creator: CorelDRAW -->
<svg xmlns="http://www.w3.org/2000/svg" xml:space="preserve" width="6.82666in" height="6.82666in" style="shape-rendering:geometricPrecision; text-rendering:geometricPrecision; image-rendering:optimizeQuality; fill-rule:evenodd; clip-rule:evenodd"
viewBox="0 0 6.82666 6.82666"
 xmlns:xlink="http://www.w3.org/1999/xlink">
 <defs>
  <style type="text/css">
   <![CDATA[
    .fil1 {fill:none}
    .fil0 {fill:#212121;fill-rule:nonzero}
   ]]>
  </style>
 </defs>
 <g id="Layer_x0020_1">
  <metadata id="CorelCorpID_0Corel-Layer"/>
  <path class="fil0" d="M2.73106 5.86667c0,0.0589094 0.0477598,0.106669 0.106669,0.106669 0.0589094,0 0.106669,-0.0477598 0.106669,-0.106669l0 -3.30217 0.475319 -1.29531 0.475315 1.29531 0 3.30217c0,0.0589094 0.0477598,0.106669 0.106669,0.106669 0.0589094,0 0.106669,-0.0477598 0.106669,-0.106669l0 -3.31852c0.00026378,-0.0128937 -0.00182283,-0.0260551 -0.0065315,-0.0388937l-0.000145669 5.51181e-005 -0.580008 -1.58061c-0.0094685,-0.0307598 -0.0326811,-0.0569016 -0.0652244,-0.0688425 -0.0553031,-0.0202913 -0.116591,0.00809055 -0.136882,0.0633937l0.100138 0.0367441 -0.1 -0.0366654 -0.579846 1.58017c-0.00566142,0.0130236 -0.00881102,0.0273937 -0.00881102,0.0425l0 3.32067z"/>
  <polygon class="fil0" points="4.05504,2.83536 5.65298,3.75794 5.70632,3.78873 5.70632,3.85002 5.70632,4.34424 5.70632,4.45091 5.59965,4.45091 4.0017,4.45091 4.0017,4.23757 5.49298,4.23757 5.49298,3.91131 3.94837,3.01952 "/>
  <polygon class="fil0" points="2.8783,3.01952 1.33368,3.91131 1.33368,4.23757 2.82496,4.23757 2.82496,4.45091 1.22701,4.45091 1.12034,4.45091 1.12034,4.34424 1.12034,3.85002 1.12034,3.78873 1.17368,3.75794 2.77163,2.83536 "/>
  <polygon class="fil0" points="4.07628,4.58164 4.88204,5.37695 4.91413,5.40862 4.91413,5.45279 4.91413,5.74263 4.91413,5.88697 4.77621,5.84429 3.41429,5.42283 2.05087,5.85081 1.91253,5.89423 1.91253,5.74915 1.91253,5.4593 1.91253,5.41514 1.94462,5.38347 2.75038,4.58815 2.89954,4.73982 2.12587,5.50347 2.12587,5.60406 3.3822,5.2097 3.44511,5.2097 4.70079,5.59828 4.70079,5.49695 3.92712,4.73331 "/>
  <path class="fil0" d="M4.71588 2.74425c0,-0.0589094 -0.0477598,-0.106669 -0.106669,-0.106669 -0.0589094,0 -0.106669,0.0477598 -0.106669,0.106669l0 0.511378c0,0.0589094 0.0477598,0.106669 0.106669,0.106669 0.0589094,0 0.106669,-0.0477598 0.106669,-0.106669l0 -0.511378z"/>
  <path class="fil0" d="M5.2115 3.04162c0,-0.0589094 -0.0477598,-0.106669 -0.106669,-0.106669 -0.0589094,0 -0.106669,0.0477598 -0.106669,0.106669l0 0.508957c0,0.0589094 0.0477598,0.106669 0.106669,0.106669 0.0589094,0 0.106669,-0.0477598 0.106669,-0.106669l0 -0.508957z"/>
  <path class="fil0" d="M2.23776 2.74425c0,-0.0589094 -0.0477598,-0.106669 -0.106669,-0.106669 -0.0589094,0 -0.106669,0.0477598 -0.106669,0.106669l0 0.511378c0,0.0589094 0.0477598,0.106669 0.106669,0.106669 0.0589094,0 0.106669,-0.0477598 0.106669,-0.106669l0 -0.511378z"/>
  <path class="fil0" d="M1.74214 3.04162c0,-0.0589094 -0.0477598,-0.106669 -0.106669,-0.106669 -0.0589094,0 -0.106669,0.0477598 -0.106669,0.106669l0 0.508957c0,0.0589094 0.0477598,0.106669 0.106669,0.106669 0.0589094,0 0.106669,-0.0477598 0.106669,-0.106669l0 -0.508957z"/>
 </g>
 <rect class="fil1" width="6.82666" height="6.82666"/>
</svg>
