<?xml version="1.0" encoding="UTF-8"?>
<!DOCTYPE svg PUBLIC "-//W3C//DTD SVG 1.1//EN" "http://www.w3.org/Graphics/SVG/1.1/DTD/svg11.dtd">
<!-- Creator: CorelDRAW -->
<svg xmlns="http://www.w3.org/2000/svg" xml:space="preserve" width="6.82666in" height="6.82666in" style="shape-rendering:geometricPrecision; text-rendering:geometricPrecision; image-rendering:optimizeQuality; fill-rule:evenodd; clip-rule:evenodd"
viewBox="0 0 6.82666 6.82666"
 xmlns:xlink="http://www.w3.org/1999/xlink">
 <defs>
  <style type="text/css">
   <![CDATA[
    .fil1 {fill:none}
    .fil0 {fill:#212121;fill-rule:nonzero}
   ]]>
  </style>
 </defs>
 <g id="Layer_x0020_1">
  <metadata id="CorelCorpID_0Corel-Layer"/>
  <path class="fil0" d="M1.63113 2.45756l0.198406 -0.985063 0.104165 0.0208346 -0.104567 -0.021063c0.0108465,-0.0538583 0.0605079,-0.0899961 0.113996,-0.085189l1.3902 -3.93701e-006 0 -0.000413386c0.0423071,0 0.0788583,0.0246299 0.0961024,0.0603386l0.870732 1.43299 1.23317 0c0.12111,0 0.231138,0.0494724 0.310835,0.129169 0.0796969,0.0796969 0.129169,0.189732 0.129169,0.310835l0 0.746673c0,0.0844409 -0.0344724,0.16113 -0.09,0.216665 -0.0555354,0.0555276 -0.132224,0.09 -0.216665,0.09l-0.204047 0c-0.036122,-0.0777165 -0.0829409,-0.149461 -0.138555,-0.213339l0.342602 0c0.0255551,0 0.0488661,-0.0105354 0.0658307,-0.0274961 0.0169606,-0.0169646 0.0274961,-0.0402756 0.0274961,-0.0658307l0 -0.746673c0,-0.0622205 -0.0255354,-0.11887 -0.0666654,-0.16 -0.0411299,-0.0411299 -0.0977756,-0.0666654 -0.16,-0.0666654l-1.29154 0c-0.0363622,0.000326772 -0.0719685,-0.0179488 -0.0922244,-0.0512795l0.0911575 -0.0553898 -0.0908346 0.055 -0.876256 -1.44208 -1.25298 3.93701e-006 -0.181878 0.903016c-0.0150787,0.124673 -0.121102,0.169256 -0.255925,0.225921 -0.169929,0.0714134 -0.40952,0.172106 -0.40952,0.524811l0 0.633815c-0.0256181,0.0214291 -0.0502795,0.0439646 -0.073878,0.067563 -0.051811,0.051811 -0.0985551,0.108685 -0.139461,0.169799l0 -0.871177c0,-0.49439 0.316134,-0.627248 0.540354,-0.72148 0.0711457,-0.0299016 0.126976,-0.0533661 0.127146,-0.0549646l0.105835 0.011252 -0.106059 -0.0113701c0.000708661,-0.00662598 0.00201575,-0.0130433 0.00385433,-0.0192087zm2.18626 1.91577l-0.869713 0c-0.0265512,-0.0751142 -0.0609055,-0.146547 -0.102055,-0.213339l1.11032 0c-0.0556142,0.063878 -0.102433,0.135622 -0.138555,0.213339z"/>
  <path class="fil0" d="M1.89141 3.4217c0.309264,0 0.589268,0.125366 0.791953,0.328051 0.202685,0.202685 0.328051,0.482689 0.328051,0.791953 0,0.309268 -0.125366,0.589268 -0.328051,0.791953 -0.202685,0.202685 -0.482689,0.328051 -0.791953,0.328051 -0.309268,0 -0.589268,-0.125366 -0.791953,-0.328051 -0.202685,-0.202685 -0.328051,-0.482685 -0.328051,-0.791953 0,-0.309264 0.125366,-0.589268 0.328051,-0.791953 0.202685,-0.202685 0.482685,-0.328051 0.791953,-0.328051zm0.641118 0.478886c-0.164067,-0.164067 -0.39074,-0.265547 -0.641118,-0.265547 -0.250382,0 -0.477051,0.10148 -0.641118,0.265547 -0.164067,0.164067 -0.265547,0.39074 -0.265547,0.641118 0,0.250382 0.10148,0.477051 0.265547,0.641118 0.164067,0.164067 0.390736,0.265547 0.641118,0.265547 0.250378,0 0.477051,-0.10148 0.641118,-0.265547 0.164067,-0.164067 0.265547,-0.390736 0.265547,-0.641118 0,-0.250378 -0.10148,-0.477051 -0.265547,-0.641118z"/>
  <path class="fil0" d="M4.64 3.84837c0.250354,0 0.477024,0.101488 0.641102,0.265567 0.164079,0.164079 0.265567,0.390748 0.265567,0.641102 0,0.250354 -0.101488,0.477024 -0.265567,0.641102 -0.164079,0.164079 -0.390748,0.265567 -0.641102,0.265567 -0.250354,0 -0.477024,-0.101488 -0.641102,-0.265567 -0.164079,-0.164079 -0.265567,-0.390748 -0.265567,-0.641102 0,-0.250354 0.101488,-0.477024 0.265567,-0.641102 0.164079,-0.164079 0.390748,-0.265567 0.641102,-0.265567zm0.490268 0.416402c-0.125461,-0.125461 -0.298799,-0.203063 -0.490268,-0.203063 -0.191469,0 -0.364807,0.0776024 -0.490268,0.203063 -0.125461,0.125461 -0.203063,0.298799 -0.203063,0.490268 0,0.191469 0.0776024,0.364807 0.203063,0.490268 0.125461,0.125461 0.298799,0.203063 0.490268,0.203063 0.191469,0 0.364807,-0.0776024 0.490268,-0.203063 0.125461,-0.125461 0.203063,-0.298799 0.203063,-0.490268 0,-0.191469 -0.0776024,-0.364807 -0.203063,-0.490268z"/>
  <path class="fil0" d="M4.11539 2.88705l-1.60206 0c-0.0752638,0 -0.14363,-0.0307244 -0.193122,-0.0802165 -0.0494882,-0.0494882 -0.0802126,-0.117843 -0.0802126,-0.193118l0 -0.626669c0,-0.0752756 0.0307205,-0.143638 0.0802087,-0.193126 0.0494882,-0.0494882 0.11785,-0.0802087 0.193126,-0.0802087l1.06 0 0 0.213339 -1.06 0c-0.0163898,0 -0.0313701,0.00678346 -0.0422913,0.0177047 -0.0109213,0.0109213 -0.0177047,0.0259016 -0.0177047,0.0422913l0 0.626669c0,0.0163819 0.0067874,0.0313622 0.0177087,0.0422835 0.0109252,0.0109252 0.0259094,0.0177126 0.0422874,0.0177126l1.60206 0 0 0.213339z"/>
  <polygon class="fil0" points="3.15,1.82038 3.15,2.78038 2.93666,2.78038 2.93666,1.82038 "/>
  <path class="fil0" d="M4.90667 2.96593l0 -0.712606c0,-0.12111 0.0494724,-0.231138 0.129165,-0.310835 0.0796969,-0.0796929 0.189732,-0.129165 0.310835,-0.129165l0.179283 0 0 0.213339 -0.179283 0c-0.0622205,0 -0.11887,0.0255315 -0.16,0.0666614 -0.0411299,0.0411299 -0.0666614,0.0977795 -0.0666614,0.16l0 0.712606 -0.213339 0z"/>
  <path class="fil0" d="M1.89141 3.95504c0.161988,0 0.308657,0.0656693 0.414831,0.171839 0.106169,0.106173 0.171839,0.252843 0.171839,0.414831 0,0.161992 -0.0656732,0.308665 -0.171839,0.414831 -0.106173,0.106169 -0.252843,0.171839 -0.414831,0.171839 -0.161992,0 -0.308665,-0.0656732 -0.414831,-0.171839 -0.106165,-0.106165 -0.171839,-0.252839 -0.171839,-0.414831 0,-0.161988 0.0656693,-0.308657 0.171839,-0.414831 0.106165,-0.106165 0.252839,-0.171839 0.414831,-0.171839zm0.263996 0.322673c-0.0675551,-0.0675512 -0.160894,-0.109335 -0.263996,-0.109335 -0.103106,0 -0.196449,0.0417874 -0.263996,0.109335 -0.0675512,0.0675551 -0.109335,0.160894 -0.109335,0.263996 0,0.103106 0.0417874,0.196449 0.109335,0.263996 0.0675472,0.0675472 0.16089,0.109335 0.263996,0.109335 0.103102,0 0.196441,-0.0417835 0.263996,-0.109335 0.0675472,-0.0675472 0.109335,-0.16089 0.109335,-0.263996 0,-0.103102 -0.0417835,-0.196441 -0.109335,-0.263996z"/>
  <path class="fil0" d="M4.64 4.39228c0.100157,0 0.190854,0.0406142 0.2565,0.10626 0.0656457,0.0656457 0.106256,0.156339 0.106256,0.256496 0,0.100157 -0.0406102,0.190854 -0.106256,0.2565 -0.0656457,0.0656457 -0.156343,0.106256 -0.2565,0.106256 -0.100157,0 -0.19085,-0.0406102 -0.256496,-0.106256 -0.0656457,-0.0656457 -0.10626,-0.156343 -0.10626,-0.2565 0,-0.100157 0.0406142,-0.19085 0.10626,-0.256496 0.0656457,-0.0656457 0.156339,-0.10626 0.256496,-0.10626zm0.105665 0.257094c-0.0270315,-0.0270315 -0.0643937,-0.0437559 -0.105665,-0.0437559 -0.0412717,0 -0.0786299,0.0167244 -0.105661,0.0437559 -0.0270315,0.0270315 -0.0437559,0.0643898 -0.0437559,0.105661 0,0.0412717 0.0167244,0.0786339 0.0437559,0.105665 0.0270315,0.0270315 0.0643898,0.043752 0.105661,0.043752 0.0412717,0 0.0786339,-0.0167205 0.105665,-0.043752 0.0270315,-0.0270315 0.043752,-0.0643937 0.043752,-0.105665 0,-0.0412717 -0.0167205,-0.0786299 -0.043752,-0.105661z"/>
 </g>
 <rect class="fil1" width="6.82666" height="6.82666"/>
</svg>
