<?xml version="1.0" encoding="UTF-8"?>
<!DOCTYPE svg PUBLIC "-//W3C//DTD SVG 1.1//EN" "http://www.w3.org/Graphics/SVG/1.1/DTD/svg11.dtd">
<!-- Creator: CorelDRAW -->
<svg xmlns="http://www.w3.org/2000/svg" xml:space="preserve" width="6.82666in" height="6.82666in" style="shape-rendering:geometricPrecision; text-rendering:geometricPrecision; image-rendering:optimizeQuality; fill-rule:evenodd; clip-rule:evenodd"
viewBox="0 0 6.82666 6.82666"
 xmlns:xlink="http://www.w3.org/1999/xlink">
 <defs>
  <style type="text/css">
   <![CDATA[
    .fil1 {fill:none}
    .fil0 {fill:#212121;fill-rule:nonzero}
   ]]>
  </style>
 </defs>
 <g id="Layer_x0020_1">
  <metadata id="CorelCorpID_0Corel-Layer"/>
  <path class="fil0" d="M2.39978 3.89333c0.114602,0.121567 0.184862,0.285406 0.184862,0.465642 0,0.187484 -0.0760039,0.357236 -0.198882,0.48011 -0.00482283,0.00482283 -0.00973228,0.00956693 -0.0146969,0.0142441l-0.415378 0 -0.0384134 -0.0288465c0.123976,-0.00303937 0.235937,-0.0545197 0.317654,-0.136232 0.0842598,-0.0842559 0.136378,-0.200677 0.136378,-0.329276 0,-0.128594 -0.052122,-0.245008 -0.136382,-0.329268 -0.0842598,-0.0842559 -0.200681,-0.136374 -0.32928,-0.136374l-0.49413 0c-0.103547,0.109843 -0.170886,0.254189 -0.182917,0.413957l0.226614 0.170189c-0.00992913,-0.0378386 -0.0152165,-0.0775512 -0.0152165,-0.118504 0,-0.128591 0.0521181,-0.245008 0.136378,-0.329268 0.0842598,-0.0842559 0.200677,-0.136374 0.329272,-0.136374l0.494138 0z"/>
  <path class="fil0" d="M1.90565 4.09231c0.073622,0 0.140291,0.0298543 0.188555,0.0781142 0.0482598,0.0482638 0.0781142,0.114933 0.0781142,0.188555 0,0.073626 -0.0298583,0.140299 -0.0781142,0.188555 -0.0482638,0.0482598 -0.114933,0.0781142 -0.188555,0.0781142 -0.073626,0 -0.140299,-0.0298583 -0.188555,-0.0781142 -0.0482559,-0.0482559 -0.0781142,-0.114929 -0.0781142,-0.188555 0,-0.073622 0.0298543,-0.140291 0.0781142,-0.188555 0.0482559,-0.0482559 0.114929,-0.0781142 0.188555,-0.0781142zm0.0377205 0.228949c-0.00964173,-0.00964173 -0.0229803,-0.0156102 -0.0377205,-0.0156102 -0.0147402,0 -0.0280787,0.0059685 -0.0377205,0.0156102 -0.00964173,0.00964173 -0.0156102,0.0229803 -0.0156102,0.0377205 0,0.0147402 0.0059685,0.0280787 0.0156102,0.0377205 0.00964173,0.00964173 0.0229803,0.0156102 0.0377205,0.0156102 0.0147402,0 0.0280787,-0.0059685 0.0377205,-0.0156102 0.00964173,-0.00964173 0.0156102,-0.0229803 0.0156102,-0.0377205 0,-0.0147402 -0.0059685,-0.0280787 -0.0156102,-0.0377205z"/>
  <path class="fil0" d="M3.23899 4.09231c0.073622,0 0.140291,0.0298543 0.188555,0.0781142 0.0482598,0.0482638 0.0781142,0.114933 0.0781142,0.188555 0,0.073626 -0.0298583,0.140299 -0.0781142,0.188555 -0.0482638,0.0482598 -0.114933,0.0781142 -0.188555,0.0781142 -0.073626,0 -0.140299,-0.0298583 -0.188555,-0.0781142 -0.0482559,-0.0482559 -0.0781142,-0.114929 -0.0781142,-0.188555 0,-0.073622 0.0298543,-0.140291 0.0781142,-0.188555 0.0482559,-0.0482559 0.114929,-0.0781142 0.188555,-0.0781142zm0.0377205 0.228949c-0.00964173,-0.00964173 -0.0229803,-0.0156102 -0.0377205,-0.0156102 -0.0147402,0 -0.0280787,0.0059685 -0.0377205,0.0156102 -0.00964173,0.00964173 -0.0156102,0.0229803 -0.0156102,0.0377205 0,0.0147402 0.0059685,0.0280787 0.0156102,0.0377205 0.00964173,0.00964173 0.0229803,0.0156102 0.0377205,0.0156102 0.0147402,0 0.0280787,-0.0059685 0.0377205,-0.0156102 0.00964173,-0.00964173 0.0156102,-0.0229803 0.0156102,-0.0377205 0,-0.0147402 -0.0059685,-0.0280787 -0.0156102,-0.0377205z"/>
  <path class="fil0" d="M4.57233 4.09231c0.073626,0 0.140299,0.0298583 0.188555,0.0781142 0.0482598,0.0482638 0.0781142,0.114933 0.0781142,0.188555 0,0.073626 -0.0298583,0.140299 -0.0781142,0.188555 -0.0482559,0.0482559 -0.114929,0.0781142 -0.188555,0.0781142 -0.073622,0 -0.140291,-0.0298543 -0.188555,-0.0781142 -0.0482559,-0.0482559 -0.0781142,-0.114929 -0.0781142,-0.188555 0,-0.073622 0.0298543,-0.140291 0.0781142,-0.188555 0.0482638,-0.0482598 0.114933,-0.0781142 0.188555,-0.0781142zm0.0377205 0.228949c-0.00964173,-0.00964173 -0.0229803,-0.0156102 -0.0377205,-0.0156102 -0.0147402,0 -0.0280787,0.0059685 -0.0377205,0.0156102 -0.00964173,0.00964173 -0.0156102,0.0229803 -0.0156102,0.0377205 0,0.0147402 0.0059685,0.0280787 0.0156102,0.0377205 0.00964173,0.00964173 0.0229803,0.0156102 0.0377205,0.0156102 0.0147402,0 0.0280787,-0.0059685 0.0377205,-0.0156102 0.00964173,-0.00964173 0.0156102,-0.0229803 0.0156102,-0.0377205 0,-0.0147402 -0.0059685,-0.0280787 -0.0156102,-0.0377205z"/>
  <path class="fil0" d="M1.34993 2.93333l3.91507 0c0.12111,0 0.231142,0.0494724 0.310839,0.129165 0.0796969,0.0796969 0.129169,0.189732 0.129169,0.310835l0 0.413335 0 0.106669 -0.106669 0 -4.58175 0 -0.106669 0 0 -0.106669 0 -0.413335c0,-0.121102 0.0494724,-0.231138 0.129169,-0.310835 0.0796969,-0.0796929 0.189728,-0.129165 0.310839,-0.129165zm3.91507 0.213339l-3.91507 0c-0.0622244,0 -0.118874,0.0255315 -0.160004,0.0666614 -0.0411299,0.0411299 -0.0666654,0.0977795 -0.0666654,0.16l0 0.306665 4.36841 0 0 -0.306665c0,-0.0622205 -0.0255354,-0.11887 -0.0666654,-0.16 -0.0411299,-0.0411299 -0.0977795,-0.0666614 -0.160004,-0.0666614z"/>
  <path class="fil0" d="M2.23515 1.76l0.680492 0c0.348787,0 0.484327,0.269256 0.635543,0.569685 0.0529567,0.105209 0.10811,0.214787 0.173209,0.310736l0.230661 0.339996 0.112787 0.166252 -0.200705 0 -2.58348 0 -0.200705 0 0.112787 -0.166252 0.230661 -0.339996c0.0651024,-0.0959606 0.120256,-0.205535 0.173213,-0.31074 0.15122,-0.300433 0.28674,-0.569681 0.635539,-0.569681zm0.680492 0.213339l-0.680492 0c-0.217941,0 -0.325512,0.213713 -0.445539,0.452177 -0.0552992,0.109858 -0.112894,0.22428 -0.187378,0.334071l-0.117874 0.173744 2.18207 0 -0.117874 -0.173744c-0.0744843,-0.10978 -0.132075,-0.224201 -0.187374,-0.334067 -0.120024,-0.238461 -0.227602,-0.452181 -0.445543,-0.452181z"/>
  <path class="fil0" d="M3.63648 2.50666c-0.0589094,0 -0.106669,0.0477598 -0.106669,0.106669 0,0.0589094 0.0477598,0.106669 0.106669,0.106669l2.12432 0c0.044252,0 0.0822126,-0.0269488 0.0983622,-0.0653307 0.0340276,-0.0676299 0.0564016,-0.136953 0.059378,-0.209055 0.00327953,-0.079437 -0.0167756,-0.158209 -0.0697913,-0.236l0.000188976 -0.000129921c-0.0208307,-0.0305591 -0.0547441,-0.0468819 -0.0891496,-0.0465866l-2.34565 0c-0.0589094,0 -0.106669,0.0477598 -0.106669,0.106669 0,0.0589094 0.0477598,0.106669 0.106669,0.106669l2.28274 0c0.00722047,0.0206063 0.00999606,0.0409409 0.00916535,0.0610472 -0.000917323,0.0222559 -0.00604724,0.0454567 -0.0144173,0.069378l-2.05514 0z"/>
  <path class="fil0" d="M3.23898 3.67999c0.187484,0 0.35724,0.0760079 0.480114,0.198878 0.122874,0.122874 0.198886,0.292622 0.198886,0.480102 0,0.187484 -0.0760039,0.357236 -0.198882,0.48011 -0.122882,0.122878 -0.292634,0.198882 -0.480118,0.198882 -0.18748,0 -0.357236,-0.0760079 -0.48011,-0.198882 -0.12287,-0.122874 -0.198878,-0.292626 -0.198878,-0.48011 0,-0.187472 0.0760079,-0.357228 0.198882,-0.480102 0.122874,-0.12287 0.292626,-0.198878 0.480106,-0.198878zm0.32928 0.349713c-0.0842598,-0.0842559 -0.200681,-0.136374 -0.32928,-0.136374 -0.128594,0 -0.245012,0.0521181 -0.329272,0.136374 -0.0842598,0.0842598 -0.136378,0.200677 -0.136378,0.329268 0,0.128598 0.0521181,0.245016 0.136374,0.329276 0.0842598,0.0842598 0.200681,0.136378 0.329276,0.136378 0.128598,0 0.24502,-0.0521181 0.329283,-0.136378 0.0842598,-0.0842559 0.136378,-0.200677 0.136378,-0.329276 0,-0.128594 -0.052122,-0.245008 -0.136382,-0.329268z"/>
  <path class="fil0" d="M5.06647 3.89333c0.114602,0.121567 0.184862,0.285406 0.184862,0.465642 0,0.0206614 -0.000925197,0.0411102 -0.00273228,0.0613031l-0.313079 0.230173c0.0641102,-0.0797835 0.102472,-0.181146 0.102472,-0.291476 0,-0.128594 -0.052122,-0.245008 -0.136382,-0.329268 -0.0842598,-0.0842559 -0.200681,-0.136374 -0.32928,-0.136374l-0.49413 0c-0.114602,0.121571 -0.184858,0.285413 -0.184858,0.465642 0,0.187484 0.0760079,0.357236 0.198878,0.48011 0.00482283,0.00482283 0.00973228,0.00956693 0.0146969,0.0142441l0.552654 0 0.0823622 -0.0605551c-0.0525551,0.0205591 -0.10976,0.0318543 -0.169602,0.0318543 -0.128594,0 -0.245016,-0.0521181 -0.329276,-0.136378 -0.0842559,-0.0842598 -0.136374,-0.200677 -0.136374,-0.329276 0,-0.128591 0.0521181,-0.245008 0.136378,-0.329268 0.0842598,-0.0842559 0.200677,-0.136374 0.329272,-0.136374l0.494138 0z"/>
  <path class="fil0" d="M1.01413 3.67999l4.58667 0c0.0589094,0 0.106669,0.0477598 0.106669,0.106669 0,0.00411024 -0.000240157,0.00816535 -0.000692913,0.0121535l-0.016 0.509909 -0.106252 -0.00333465 0.106614 0.00334646c-0.00114961,0.0366496 -0.0206575,0.0683937 -0.0494252,0.0867008l-0.884528 0.650303 0.000145669 0.00019685c-0.0190512,0.0140118 -0.0412165,0.0207402 -0.063185,0.0207244l0 3.93701e-006 -0.000787402 0 -2.77258 0c-0.0274094,0 -0.0523976,-0.0103425 -0.0712913,-0.0273307l-0.895835 -0.672764 0.063752 -0.085 -0.0640551 0.0852913c-0.0303937,-0.0228268 -0.045126,-0.0587638 -0.0422559,-0.0940433l-0.00322047 -0.485453 -0.000413386 3.93701e-006c-0.000389764,-0.0589094 0.0470472,-0.106984 0.105957,-0.107374l0.000708661 3.93701e-006 0 -7.87402e-006zm4.47697 0.213339l-4.37001 0 0.00222047 0.334894 0.83237 0.625102 2.70389 0 0.820331 -0.603106 0.0111969 -0.35689z"/>
 </g>
 <rect class="fil1" width="6.82666" height="6.82666"/>
</svg>
