<?xml version="1.0" encoding="UTF-8"?>
<!DOCTYPE svg PUBLIC "-//W3C//DTD SVG 1.1//EN" "http://www.w3.org/Graphics/SVG/1.1/DTD/svg11.dtd">
<!-- Creator: CorelDRAW -->
<svg xmlns="http://www.w3.org/2000/svg" xml:space="preserve" width="6.82666in" height="6.82666in" style="shape-rendering:geometricPrecision; text-rendering:geometricPrecision; image-rendering:optimizeQuality; fill-rule:evenodd; clip-rule:evenodd"
viewBox="0 0 6.82666 6.82666"
 xmlns:xlink="http://www.w3.org/1999/xlink">
 <defs>
  <style type="text/css">
   <![CDATA[
    .fil2 {fill:none}
    .fil1 {fill:#212121}
    .fil0 {fill:#212121;fill-rule:nonzero}
   ]]>
  </style>
 </defs>
 <g id="Layer_x0020_1">
  <metadata id="CorelCorpID_0Corel-Layer"/>
  <g id="_678608032">
   <path id="_678609832" class="fil0" d="M3.97949 3.14569l-2.80033 0c-0.00210236,0 -0.00490945,0.00201969 -0.00772047,0.00526772 -0.00641732,0.00741339 -0.0104055,0.0187677 -0.0104055,0.032252l0 0.882433 -0.213339 0 0 -0.882433c0,-0.0658228 0.0240984,-0.126571 0.0629094,-0.171417 0.0424173,-0.0490118 0.102028,-0.0794409 0.168555,-0.0794409l2.80033 0 0 0.213339z"/>
   <path id="_678609688" class="fil0" d="M3.86154 3.08179c-0.193528,-0.291157 -0.413657,-0.61576 -0.578031,-0.848382 -0.113886,-0.161181 -0.133539,-0.270331 -0.157555,-0.270331l-1.65805 0c-0.00916142,0.0178583 -0.0147953,0.043937 -0.0147953,0.0744213l0 1.0938 -0.213339 0 0 -1.0938c0,-0.0678268 0.0163346,-0.131382 0.0426378,-0.179134 0.0369213,-0.0670197 0.0944882,-0.108626 0.16378,-0.108626l1.67977 0c0.0549449,0 0.179567,0.145827 0.33172,0.361165 0.164551,0.232874 0.386087,0.559587 0.58137,0.853382l-0.177504 0.117504z"/>
   <polygon id="_678609664" class="fil0" points="2.65277,1.85641 2.65277,3.03902 2.43943,3.03902 2.43943,1.85641 "/>
   <path id="_678609232" class="fil0" d="M1.57333 3.63692l3.68 0c0.19811,0 0.378142,0.0809724 0.508587,0.211417 0.130445,0.130449 0.211417,0.310476 0.211417,0.508587 0,0.19811 -0.0809724,0.378138 -0.211417,0.508587 -0.130445,0.130445 -0.310476,0.211417 -0.508587,0.211417l-3.68 0c-0.19811,0 -0.378142,-0.0809724 -0.508587,-0.211417 -0.130449,-0.130449 -0.211421,-0.310476 -0.211421,-0.508587 0,-0.19811 0.0809724,-0.378138 0.211421,-0.508587 0.130445,-0.130445 0.310476,-0.211417 0.508587,-0.211417zm3.68 0.213339l-3.68 0c-0.139224,0 -0.26587,0.0570315 -0.357752,0.148913 -0.0918819,0.0918819 -0.148917,0.218528 -0.148917,0.357752 0,0.139224 0.0570354,0.26587 0.148917,0.357752 0.0918819,0.0918819 0.218528,0.148913 0.357752,0.148913l3.68 0c0.139224,0 0.26587,-0.0570315 0.357752,-0.148913 0.091878,-0.0918819 0.148913,-0.218528 0.148913,-0.357752 0,-0.139224 -0.0570354,-0.26587 -0.148913,-0.357752 -0.0918819,-0.0918819 -0.218528,-0.148913 -0.357752,-0.148913z"/>
   <path id="_678609640" class="fil0" d="M1.71487 3.92c0.120638,0 0.229878,0.0489094 0.308945,0.127984 0.0790748,0.0790669 0.127984,0.188307 0.127984,0.308945 0,0.120638 -0.0489134,0.229878 -0.12798,0.308945 -0.0790787,0.0790709 -0.188307,0.12798 -0.308949,0.12798 -0.120642,0 -0.229878,-0.0489134 -0.308945,-0.12798 -0.0790669,-0.0790669 -0.12798,-0.188303 -0.12798,-0.308945 0,-0.120642 0.0489094,-0.22987 0.12798,-0.308949 0.0790669,-0.0790669 0.188307,-0.12798 0.308945,-0.12798zm0.15811 0.278819c-0.0404528,-0.0404567 -0.0963583,-0.0654803 -0.15811,-0.0654803 -0.061752,0 -0.117661,0.0250276 -0.15811,0.0654764 -0.0404528,0.0404567 -0.0654764,0.0963583 -0.0654764,0.158114 0,0.0617559 0.0250276,0.117661 0.0654764,0.15811 0.0404488,0.0404488 0.0963543,0.0654764 0.15811,0.0654764 0.0617559,0 0.117657,-0.0250236 0.158114,-0.0654764 0.0404488,-0.0404488 0.0654764,-0.0963583 0.0654764,-0.15811 0,-0.061752 -0.0250236,-0.117657 -0.0654803,-0.15811z"/>
   <path id="_678609256" class="fil0" d="M2.5641 3.92c0.120638,0 0.229878,0.0489134 0.308945,0.12798 0.0790709,0.0790787 0.12798,0.188307 0.12798,0.308949 0,0.120642 -0.0489134,0.229878 -0.12798,0.308945 -0.0790669,0.0790669 -0.188307,0.12798 -0.308945,0.12798 -0.120642,0 -0.229874,-0.0489134 -0.308949,-0.12798 -0.0790669,-0.0790669 -0.12798,-0.188307 -0.12798,-0.308945 0,-0.120638 0.0489094,-0.229878 0.127984,-0.308945 0.0790669,-0.0790748 0.188299,-0.127984 0.308945,-0.127984zm0.15811 0.278815c-0.0404488,-0.0404488 -0.0963583,-0.0654764 -0.15811,-0.0654764 -0.0617559,0 -0.117657,0.0250236 -0.15811,0.0654803 -0.0404567,0.0404528 -0.0654803,0.0963583 -0.0654803,0.15811 0,0.061752 0.0250276,0.117661 0.0654764,0.15811 0.0404567,0.0404528 0.0963583,0.0654764 0.158114,0.0654764 0.061752,0 0.117661,-0.0250276 0.15811,-0.0654764 0.0404488,-0.0404488 0.0654764,-0.0963543 0.0654764,-0.15811 0,-0.0617559 -0.0250236,-0.117657 -0.0654764,-0.158114z"/>
   <path id="_678609568" class="fil0" d="M3.41333 3.92c0.120646,0 0.229878,0.0489094 0.308945,0.127984 0.0790748,0.0790669 0.127984,0.188307 0.127984,0.308945 0,0.120638 -0.0489134,0.229878 -0.12798,0.308945 -0.0790748,0.0790669 -0.188307,0.12798 -0.308949,0.12798 -0.120638,0 -0.22987,-0.0489134 -0.308945,-0.12798 -0.0790669,-0.0790669 -0.12798,-0.188307 -0.12798,-0.308945 0,-0.120638 0.0489134,-0.229878 0.12798,-0.308945 0.0790748,-0.0790748 0.188307,-0.127984 0.308945,-0.127984zm0.15811 0.278819c-0.0404528,-0.0404567 -0.0963543,-0.0654803 -0.15811,-0.0654803 -0.061752,0 -0.117657,0.0250276 -0.15811,0.0654803 -0.0404488,0.0404488 -0.0654764,0.0963583 -0.0654764,0.15811 0,0.061752 0.0250276,0.117661 0.0654764,0.15811 0.0404567,0.0404528 0.0963583,0.0654764 0.15811,0.0654764 0.0617559,0 0.117657,-0.0250236 0.158114,-0.0654764 0.0404488,-0.0404488 0.0654764,-0.0963583 0.0654764,-0.15811 0,-0.061752 -0.0250236,-0.117657 -0.0654803,-0.15811z"/>
   <path id="_678608656" class="fil0" d="M4.26256 3.92c0.120638,0 0.229878,0.0489134 0.308945,0.12798 0.0790709,0.0790787 0.12798,0.188307 0.12798,0.308949 0,0.120642 -0.0489134,0.229878 -0.12798,0.308945 -0.0790669,0.0790669 -0.188303,0.12798 -0.308945,0.12798 -0.120638,0 -0.229878,-0.0489134 -0.308945,-0.12798 -0.0790669,-0.0790669 -0.12798,-0.188303 -0.12798,-0.308945 0,-0.120642 0.0489094,-0.22987 0.12798,-0.308949 0.0790669,-0.0790669 0.188307,-0.12798 0.308945,-0.12798zm0.15811 0.278815c-0.0404488,-0.0404488 -0.0963583,-0.0654764 -0.15811,-0.0654764 -0.061752,0 -0.117661,0.0250276 -0.15811,0.0654764 -0.0404528,0.0404567 -0.0654764,0.0963583 -0.0654764,0.158114 0,0.0617559 0.0250276,0.117661 0.0654764,0.15811 0.0404488,0.0404488 0.0963583,0.0654764 0.15811,0.0654764 0.0617559,0 0.117661,-0.0250276 0.15811,-0.0654764 0.0404488,-0.0404488 0.0654764,-0.0963543 0.0654764,-0.15811 0,-0.0617559 -0.0250236,-0.117657 -0.0654764,-0.158114z"/>
   <path id="_678608776" class="fil0" d="M5.1118 3.92c0.120638,0 0.22987,0.0489094 0.308945,0.127984 0.0790669,0.0790669 0.12798,0.188307 0.12798,0.308945 0,0.120638 -0.0489134,0.229878 -0.12798,0.308945 -0.0790748,0.0790669 -0.188307,0.12798 -0.308945,0.12798 -0.120642,0 -0.22987,-0.0489094 -0.308949,-0.12798 -0.0790669,-0.0790669 -0.12798,-0.188307 -0.12798,-0.308945 0,-0.120638 0.0489094,-0.229878 0.127984,-0.308945 0.0790669,-0.0790748 0.188307,-0.127984 0.308945,-0.127984zm0.15811 0.278819c-0.0404528,-0.0404528 -0.0963583,-0.0654803 -0.15811,-0.0654803 -0.061752,0 -0.117657,0.0250236 -0.15811,0.0654803 -0.0404567,0.0404528 -0.0654803,0.0963583 -0.0654803,0.15811 0,0.061752 0.0250276,0.117661 0.0654764,0.15811 0.0404567,0.0404528 0.0963583,0.0654764 0.158114,0.0654764 0.061752,0 0.117654,-0.0250236 0.15811,-0.0654764 0.0404488,-0.0404488 0.0654764,-0.0963583 0.0654764,-0.15811 0,-0.061752 -0.0250276,-0.117661 -0.0654764,-0.15811z"/>
   <circle id="_678609136" class="fil1" cx="1.70878" cy="4.36458" r="0.0768327"/>
   <circle id="_678608608" class="fil1" cx="3.41333" cy="4.35692" r="0.0768327"/>
   <circle id="_678608968" class="fil1" cx="2.5641" cy="4.35692" r="0.0768327"/>
   <circle id="_678609064" class="fil1" cx="4.26256" cy="4.35692" r="0.0768327"/>
   <circle id="_678608848" class="fil1" cx="5.11179" cy="4.35692" r="0.0768327"/>
   <path id="_678608536" class="fil0" d="M3.89002 2.93235l1.43786 0c0.0637874,0 0.112961,0.0414331 0.140772,0.108193 0.0160354,0.0384685 0.0259882,0.0891181 0.0259882,0.142665l0 0.57537 -0.213339 0 0 -0.57537c0,-0.0139488 -0.00104724,-0.0266299 -0.00292126,-0.0375197l-1.38836 0 0 -0.213339z"/>
   <path id="_678608752" class="fil0" d="M4.56325 3.0841l0 -0.525937c0,-0.0970945 0.0396496,-0.185295 0.103516,-0.249165 0.0638701,-0.0638661 0.152071,-0.103516 0.249165,-0.103516l0.132319 0 0 0.213339 -0.132319 0c-0.0382126,0 -0.0730276,0.0157126 -0.0983307,0.0410118 -0.0252992,0.0253031 -0.0410118,0.060122 -0.0410118,0.0983307l0 0.525937 -0.213339 0z"/>
  </g>
 </g>
 <rect class="fil2" width="6.82666" height="6.82666"/>
</svg>
