<?xml version="1.0" encoding="UTF-8"?>
<!DOCTYPE svg PUBLIC "-//W3C//DTD SVG 1.1//EN" "http://www.w3.org/Graphics/SVG/1.1/DTD/svg11.dtd">
<!-- Creator: CorelDRAW -->
<svg xmlns="http://www.w3.org/2000/svg" xml:space="preserve" width="6.82666in" height="6.82666in" style="shape-rendering:geometricPrecision; text-rendering:geometricPrecision; image-rendering:optimizeQuality; fill-rule:evenodd; clip-rule:evenodd"
viewBox="0 0 6.82666 6.82666"
 xmlns:xlink="http://www.w3.org/1999/xlink">
 <defs>
  <style type="text/css">
   <![CDATA[
    .fil2 {fill:none}
    .fil1 {fill:#212121}
    .fil0 {fill:#212121;fill-rule:nonzero}
   ]]>
  </style>
 </defs>
 <g id="Layer_x0020_1">
  <metadata id="CorelCorpID_0Corel-Layer"/>
  <path class="fil0" d="M4.30401 4.70184c-0.0354134,0.0373543 -0.0781772,0.0675551 -0.125807,0.0881339 -0.0461693,0.0199409 -0.0968898,0.0310118 -0.149929,0.0310118l-0.190862 0c-0.0165197,-0.0786929 -0.0500079,-0.151142 -0.0964685,-0.213339l0.287331 0c0.0234134,0 0.0456535,-0.00482283 0.0657638,-0.0135079 0.0212638,-0.00918504 0.0402362,-0.0225433 0.0558071,-0.0389685l0.154165 0.146669zm-1.53331 0.119146l-0.400693 0c-0.0165197,-0.0786929 -0.0500079,-0.151142 -0.0964685,-0.213339l0.593626 0c-0.0464606,0.0621969 -0.0799449,0.134646 -0.0964646,0.213339zm-1.46741 0l-0.0693425 0c-0.10478,0 -0.199965,-0.0427913 -0.268902,-0.111724 -0.0689331,-0.0689331 -0.111724,-0.164118 -0.111724,-0.268894l0 -1.09581c0,-0.10478 0.0427913,-0.199965 0.111724,-0.268898 0.0689331,-0.0689331 0.164118,-0.111724 0.268902,-0.111724l1.36976 0 0.0734094 0 0.0261732 0.0691693 0.182343 0.481858 1.14263 -0.00271654c0.0558583,-0.000129921 0.108717,0.0117953 0.156114,0.0332717 0.0498307,0.0225787 0.0938701,0.0554134 0.129303,0.0956496l-0.16 0.140835c-0.0158504,-0.018 -0.0352087,-0.0325315 -0.0568071,-0.0423189 -0.0212677,-0.0096378 -0.0445276,-0.0149882 -0.0686102,-0.0149331l-1.21613 0.00288976 -0.0734961 0.000173228 -0.0260866 -0.0689252 -0.182252 -0.481614 -1.29635 0c-0.0458937,0 -0.0877008,0.0188543 -0.118067,0.0492205 -0.0303661,0.0303661 -0.0492205,0.0721693 -0.0492205,0.118063l0 1.09581c0,0.0458898 0.0188543,0.0876929 0.0492205,0.118059 0.0303701,0.0303661 0.0721732,0.0492205 0.118067,0.0492205l0.165807 0c-0.0464606,0.0621969 -0.0799449,0.134646 -0.0964646,0.213339z"/>
  <polygon class="fil0" points="4.35411,1.97479 4.35411,4.93639 5.97333,4.93639 5.97333,5.14973 4.24744,5.14973 4.14077,5.14973 4.14077,5.04306 4.14077,1.97479 "/>
  <path class="fil0" d="M1.6204 3.0706l0 -1.1917c0,-0.123614 0.0504961,-0.235921 0.131843,-0.317268 0.0813465,-0.0813465 0.193654,-0.131843 0.317264,-0.131843l1.06739 0 0.106669 0 0 0.106669 0 0.357732 0 0.106669 -0.106669 0 -0.818488 0c-0.0427677,0 -0.0817323,0.0175748 -0.110039,0.0458819 -0.0283071,0.0283071 -0.0458819,0.0672677 -0.0458819,0.110035l0 0.913819 -0.213339 0 0 -0.913819c0,-0.101654 0.0415118,-0.193996 0.108386,-0.26087 0.066874,-0.066874 0.15922,-0.108386 0.260874,-0.108386l0.711819 0 0 -0.144394 -0.960717 0c-0.0647244,0 -0.12365,0.0265591 -0.166429,0.0693386 -0.0427795,0.0427795 -0.0693386,0.101705 -0.0693386,0.166433l0 1.1917 -0.213339 0z"/>
  <polygon class="fil0" points="3.23523,1.67491 4.01703,3.57809 3.82036,3.65892 3.03856,1.75575 "/>
  <path class="fil0" d="M4.57618 2.63519l1.20539 0 0.106669 0 0 0.106669 0 1.97246 0 0.106669 -0.106669 0 -1.20539 0 -0.106669 0 0 -0.106669 0 -1.97246 0 -0.106669 0.106669 0zm1.09872 0.213339l-0.992055 0 0 1.75912 0.992055 0 0 -1.75912z"/>
  <path class="fil0" d="M1.83665 4.38849c0.15048,0 0.286732,0.0610039 0.385362,0.159634 0.098622,0.098622 0.159634,0.234878 0.159634,0.385358 0,0.15048 -0.0610079,0.286728 -0.159634,0.385358 -0.0986299,0.098626 -0.234882,0.159634 -0.385362,0.159634 -0.150484,0 -0.286736,-0.0610039 -0.385358,-0.159634 -0.0986299,-0.098622 -0.159634,-0.234874 -0.159634,-0.385358 0,-0.150484 0.0610039,-0.286736 0.159634,-0.385358 0.098622,-0.0986299 0.23487,-0.159634 0.385358,-0.159634zm0.234528 0.310469c-0.0600118,-0.0600118 -0.142933,-0.0971299 -0.234528,-0.0971299 -0.0915984,0 -0.174516,0.037122 -0.234524,0.0971299 -0.0600079,0.0600079 -0.0971299,0.142929 -0.0971299,0.234524 0,0.0915945 0.037122,0.174516 0.0971299,0.234524 0.0600079,0.0600079 0.142929,0.0971299 0.234524,0.0971299 0.0915945,0 0.17452,-0.037122 0.234528,-0.0971299 0.0600079,-0.0600118 0.0971299,-0.142929 0.0971299,-0.234524 0,-0.0915945 -0.037122,-0.174516 -0.0971299,-0.234524z"/>
  <path class="fil0" d="M3.30406 4.38849c0.15048,0 0.286732,0.0610039 0.385362,0.159634 0.098622,0.098622 0.159634,0.234878 0.159634,0.385358 0,0.15048 -0.0610079,0.286728 -0.159634,0.385358 -0.0986299,0.098626 -0.234882,0.159634 -0.385362,0.159634 -0.150484,0 -0.286736,-0.0610039 -0.385358,-0.159634 -0.0986299,-0.098622 -0.159634,-0.234874 -0.159634,-0.385358 0,-0.150484 0.0610039,-0.286736 0.159634,-0.385358 0.098622,-0.0986299 0.234874,-0.159634 0.385358,-0.159634zm0.234528 0.310469c-0.0600118,-0.0600118 -0.142933,-0.0971299 -0.234528,-0.0971299 -0.0915945,0 -0.174516,0.037122 -0.234524,0.0971299 -0.0600079,0.0600079 -0.0971299,0.142929 -0.0971299,0.234524 0,0.0915945 0.037122,0.174516 0.0971299,0.234524 0.0600079,0.0600079 0.142929,0.0971299 0.234524,0.0971299 0.0915945,0 0.174516,-0.037122 0.234528,-0.0971299 0.0600079,-0.0600118 0.0971299,-0.142929 0.0971299,-0.234524 0,-0.0915945 -0.037122,-0.174516 -0.0971299,-0.234524z"/>
  <circle class="fil1" cx="1.83665" cy="4.93348" r="0.10958"/>
  <circle class="fil1" cx="3.30406" cy="4.93348" r="0.10958"/>
 </g>
 <rect class="fil2" width="6.82666" height="6.82666"/>
</svg>
