<?xml version="1.0" encoding="UTF-8"?>
<!DOCTYPE svg PUBLIC "-//W3C//DTD SVG 1.1//EN" "http://www.w3.org/Graphics/SVG/1.1/DTD/svg11.dtd">
<!-- Creator: CorelDRAW -->
<svg xmlns="http://www.w3.org/2000/svg" xml:space="preserve" width="6.82666in" height="6.82666in" style="shape-rendering:geometricPrecision; text-rendering:geometricPrecision; image-rendering:optimizeQuality; fill-rule:evenodd; clip-rule:evenodd"
viewBox="0 0 6.82666 6.82666"
 xmlns:xlink="http://www.w3.org/1999/xlink">
 <defs>
  <style type="text/css">
   <![CDATA[
    .fil1 {fill:none}
    .fil0 {fill:#212121;fill-rule:nonzero}
   ]]>
  </style>
 </defs>
 <g id="Layer_x0020_1">
  <metadata id="CorelCorpID_0Corel-Layer"/>
  <path class="fil0" d="M2.98 2.23999l0.760008 0c0.0569409,0 0.108638,0.0232205 0.146039,0.060622 0.0374094,0.0374094 0.060626,0.0890945 0.060626,0.146039l0 2.25335c0,0.0569449 -0.0232165,0.10863 -0.060626,0.146039 -0.0374016,0.0374016 -0.0890984,0.060622 -0.146039,0.060622l-0.760008 0c-0.0569409,0 -0.108638,-0.0232205 -0.146039,-0.060622 -0.0374094,-0.0374094 -0.060626,-0.0890945 -0.060626,-0.146039l0 -2.25335c0,-0.0569449 0.0232165,-0.10863 0.060626,-0.146039 0.0374016,-0.0374016 0.0890984,-0.060622 0.146039,-0.060622zm0.753335 0.213339l-0.746661 0 0 2.24 0.746661 0 0 -2.24z"/>
  <path class="fil0" d="M3.84 2.87561l2.13333 0 0.106669 0 0 0.106669 0 1.28 0 0.106669 -0.106669 0 -2.13333 0 -0.106669 0 0 -0.106669 0 -1.28 0 -0.106669 0.106669 0zm2.02667 0.213339l-1.92 0 0 1.06666 1.92 0 0 -1.06666z"/>
  <path class="fil0" d="M2.77333 3.08895l-1.92 0 0 1.06666 1.92 0 0 -1.06666zm-2.02667 -0.213339l2.13333 0 0.106669 0 0 0.106669 0 1.28 0 0.106669 -0.106669 0 -2.13333 0 -0.106669 0 0 -0.106669 0 -1.28 0 -0.106669 0.106669 0z"/>
  <polygon class="fil0" points="0.746665,3.29132 2.88,3.29132 2.88,3.50466 0.746665,3.50466 "/>
  <polygon class="fil0" points="0.746665,3.7399 2.88,3.7399 2.88,3.95324 0.746665,3.95324 "/>
  <polygon class="fil0" points="3.84,3.29132 5.97333,3.29132 5.97333,3.50466 3.84,3.50466 "/>
  <polygon class="fil0" points="3.84,3.7399 5.97333,3.7399 5.97333,3.95324 3.84,3.95324 "/>
  <polygon class="fil0" points="4.64236,2.98228 4.64236,4.26228 4.42902,4.26228 4.42902,2.98228 "/>
  <polygon class="fil0" points="5.38431,2.98228 5.38431,4.26228 5.17098,4.26228 5.17098,2.98228 "/>
  <polygon class="fil0" points="1.54903,2.98228 1.54903,4.26228 1.33569,4.26228 1.33569,2.98228 "/>
  <polygon class="fil0" points="2.29098,2.98228 2.29098,4.26228 2.07765,4.26228 2.07765,2.98228 "/>
  <path class="fil0" d="M3.09381 4.69333l0.532382 0 0.106669 0 0 0.106669 0 0.266193c0,0.10265 -0.0419173,0.195894 -0.109445,0.263413 -0.0675197,0.0675276 -0.160764,0.109445 -0.263413,0.109445l-3.93701e-006 0c-0.10265,0 -0.195894,-0.0419173 -0.263413,-0.109445 -0.0675276,-0.0675197 -0.109445,-0.160764 -0.109445,-0.263413l0 -0.266193 0 -0.106669 0.106669 0zm0.425713 0.213339l-0.319043 0 0 0.159524c0,0.0437559 0.0179764,0.0836181 0.0469409,0.112579 0.0289606,0.0289646 0.0688228,0.0469409 0.112579,0.0469409l3.93701e-006 0c0.0437559,0 0.0836181,-0.0179764 0.112579,-0.0469409 0.0289646,-0.0289606 0.0469409,-0.0688228 0.0469409,-0.112579l0 -0.159524z"/>
  <path class="fil0" d="M3.36 2.20337l0.522264 -0.470039 -1.04453 0 0.522264 0.470039zm0.871252 -0.497543l-0.795654 0.716091c-0.0398189,0.040063 -0.104508,0.0422323 -0.146957,0.00402756l0.0713583 -0.0792835 -0.071252 0.0791654 -0.795713 -0.716142c-0.0242126,-0.0195551 -0.0397047,-0.0494803 -0.0397047,-0.0830236 0,-0.0589094 0.0477598,-0.106669 0.106669,-0.106669l1.6 0 0 7.87402e-006c0.0291732,7.87402e-006 0.0582283,0.0119134 0.0792835,0.0353031 0.0394094,0.0437835 0.0358583,0.111232 -0.0079252,0.150642l-0.000106299 -0.00011811z"/>
 </g>
 <rect class="fil1" width="6.82666" height="6.82666"/>
</svg>
