<?xml version="1.0" encoding="UTF-8"?>
<!DOCTYPE svg PUBLIC "-//W3C//DTD SVG 1.1//EN" "http://www.w3.org/Graphics/SVG/1.1/DTD/svg11.dtd">
<!-- Creator: CorelDRAW -->
<svg xmlns="http://www.w3.org/2000/svg" xml:space="preserve" width="6.82666in" height="6.82666in" style="shape-rendering:geometricPrecision; text-rendering:geometricPrecision; image-rendering:optimizeQuality; fill-rule:evenodd; clip-rule:evenodd"
viewBox="0 0 6.82666 6.82666"
 xmlns:xlink="http://www.w3.org/1999/xlink">
 <defs>
  <style type="text/css">
   <![CDATA[
    .fil1 {fill:none}
    .fil0 {fill:#212121;fill-rule:nonzero}
   ]]>
  </style>
 </defs>
 <g id="Layer_x0020_1">
  <metadata id="CorelCorpID_0Corel-Layer"/>
  <path class="fil0" d="M4.16 3.52369l0 -0.474165c0,-0.193173 -0.0791063,-0.36887 -0.206543,-0.496311 -0.127437,-0.127437 -0.303134,-0.206543 -0.496307,-0.206543l-0.194291 0c-0.193173,0 -0.36887,0.0791063 -0.496307,0.206543 -0.127437,0.127441 -0.206543,0.303138 -0.206543,0.496311l0 0.474165c0.0255157,-0.00244488 0.0503071,-0.00369291 0.0742795,-0.00369291l1.45143 0c0.0239724,0 0.0487638,0.00124803 0.0742795,0.00369291zm0.213339 -0.474165l0 0.600539 0 0.138161 -0.133752 -0.0352441c-0.0256535,-0.00675984 -0.0510118,-0.011815 -0.0758898,-0.0150315 -0.0235276,-0.00303937 -0.0495157,-0.00461417 -0.0779764,-0.00461417l-1.45143 0c-0.0284606,0 -0.0544488,0.0015748 -0.0779764,0.00461417 -0.024878,0.00321654 -0.0502362,0.00827165 -0.0758898,0.0150315l-0.133752 0.0352441 0 -0.138161 0 -0.600539c0,-0.252059 0.103043,-0.481138 0.269047,-0.647146 0.166004,-0.166004 0.395083,-0.269047 0.647142,-0.269047l0.194291 0c0.252059,0 0.481138,0.103043 0.647142,0.269047 0.166004,0.166008 0.269047,0.395087 0.269047,0.647146z"/>
  <path class="fil0" d="M0.8 4.05333c-0.0589094,0 -0.106669,0.0477598 -0.106669,0.106669 0,0.0589094 0.0477598,0.106669 0.106669,0.106669l1.1434 0c0.0589094,0 0.106669,-0.0477598 0.106669,-0.106669 0,-0.0589094 -0.0477598,-0.106669 -0.106669,-0.106669l-1.1434 0zm3.9766 0c-0.0589094,0 -0.106669,0.0477598 -0.106669,0.106669 0,0.0589094 0.0477598,0.106669 0.106669,0.106669l1.1434 0c0.0589094,0 0.106669,-0.0477598 0.106669,-0.106669 0,-0.0589094 -0.0477598,-0.106669 -0.106669,-0.106669l-1.1434 0z"/>
  <polygon class="fil0" points="3.25333,2.24 3.25333,1.55611 3.46667,1.55611 3.46667,2.24 "/>
  <g id="_678613408">
   <path id="_678613384" class="fil0" d="M2.73663 5.36389c0.0416496,-0.0416496 0.0416496,-0.109185 0,-0.150835 -0.0416496,-0.0416496 -0.109185,-0.0416496 -0.150835,0l-0.397469 0.397469 -7.87402e-006 -7.87402e-006c-0.0208268,0.0208268 -0.0312402,0.048126 -0.0312402,0.0754252l-3.93701e-006 0 0 0.287382c0,0.0589094 0.0477598,0.106669 0.106669,0.106669 0.0589094,0 0.106669,-0.0477598 0.106669,-0.106669l0 -0.243217 0.366217 -0.366217z"/>
   <path id="_678613576" class="fil0" d="M4.1342 5.21306c-0.0416496,-0.0416496 -0.109185,-0.0416496 -0.150835,0 -0.0416496,0.0416496 -0.0416496,0.109185 0,0.150835l0.366217 0.366217 0 0.243217c0,0.0589094 0.0477598,0.106669 0.106669,0.106669 0.0589094,0 0.106669,-0.0477598 0.106669,-0.106669l0 -0.287382 -3.93701e-006 0c0,-0.0272992 -0.0104134,-0.0545984 -0.0312402,-0.0754252l-7.87402e-006 7.87402e-006 -0.397469 -0.397469z"/>
  </g>
  <path class="fil0" d="M2.27714 5.11999l2.16572 0c0.0687717,0 0.13137,-0.0282126 0.176815,-0.0736575 0.0454449,-0.0454449 0.0736575,-0.108043 0.0736575,-0.176815l0 -0.528575c0,-0.166984 -0.0683898,-0.31887 -0.178567,-0.429047 -0.110177,-0.110173 -0.262063,-0.178567 -0.429047,-0.178567l-1.45143 0c-0.166984,0 -0.31887,0.0683937 -0.429047,0.178567 -0.110177,0.110177 -0.178567,0.262063 -0.178567,0.429047l0 0.528575c0,0.0687717 0.0282126,0.13137 0.0736575,0.176815 0.0454449,0.0454449 0.108043,0.0736575 0.176815,0.0736575zm2.16572 0.213339l-2.16572 0c-0.127657,0 -0.243638,-0.0521496 -0.32765,-0.136161 -0.0840118,-0.0840118 -0.136161,-0.199992 -0.136161,-0.32765l0 -0.528575c0,-0.22587 0.0923268,-0.431138 0.241071,-0.579882 0.148744,-0.14874 0.354012,-0.241071 0.579882,-0.241071l1.45143 0c0.22587,0 0.431138,0.0923307 0.579882,0.241071 0.148744,0.148744 0.241071,0.354012 0.241071,0.579882l0 0.528575c0,0.127657 -0.0521496,0.243638 -0.136161,0.32765 -0.0840118,0.0840118 -0.199992,0.136161 -0.32765,0.136161z"/>
  <polygon class="fil0" points="5.33333,4.26666 5.33333,4.46467 5.11999,4.46467 5.11999,4.26666 "/>
  <path class="fil0" d="M5.22666 4.42272c0.0813346,0 0.154984,0.0329803 0.208299,0.0862913 0.053315,0.053315 0.0862913,0.126965 0.0862913,0.208299 0,0.0813346 -0.0329764,0.154984 -0.0862913,0.208299 -0.053315,0.053315 -0.126965,0.0862913 -0.208299,0.0862913 -0.0813346,0 -0.154984,-0.0329764 -0.208299,-0.0862913 -0.053311,-0.053315 -0.0862913,-0.126965 -0.0862913,-0.208299 0,-0.0813346 0.0329803,-0.154984 0.0862913,-0.208299 0.053315,-0.053311 0.126965,-0.0862913 0.208299,-0.0862913zm0.0574646 0.237126c-0.0146969,-0.0146929 -0.0350157,-0.0237874 -0.0574646,-0.0237874 -0.0224488,0 -0.0427677,0.00909449 -0.0574646,0.0237874 -0.0146929,0.0146969 -0.0237874,0.0350157 -0.0237874,0.0574646 0,0.0224488 0.00909449,0.0427677 0.0237874,0.0574646 0.0146929,0.0146929 0.0350157,0.0237874 0.0574646,0.0237874 0.0224488,0 0.0427717,-0.00909449 0.0574646,-0.0237874 0.0146929,-0.0146929 0.0237874,-0.0350157 0.0237874,-0.0574646 0,-0.0224488 -0.00909449,-0.0427717 -0.0237874,-0.0574646z"/>
  <path class="fil0" d="M5.76 4.26666c0,-0.0589094 -0.0477598,-0.106669 -0.106669,-0.106669 -0.0589094,0 -0.106669,0.0477598 -0.106669,0.106669l0 0.299594c0,0.0589094 0.0477598,0.106669 0.106669,0.106669 0.0589094,0 0.106669,-0.0477598 0.106669,-0.106669l0 -0.299594z"/>
  <polygon class="fil0" points="1.60001,4.26666 1.60001,4.46467 1.38667,4.46467 1.38667,4.26666 "/>
  <path class="fil0" d="M1.49334 4.63606c-0.0224488,0 -0.0427677,0.00909449 -0.0574646,0.0237874 -0.0146929,0.0146929 -0.0237874,0.0350157 -0.0237874,0.0574646 0,0.0224488 0.00909449,0.0427717 0.0237874,0.0574646 0.0146929,0.0146929 0.0350157,0.0237874 0.0574646,0.0237874 0.0224488,0 0.0427717,-0.00909449 0.0574646,-0.0237874 0.0146929,-0.0146969 0.0237874,-0.0350157 0.0237874,-0.0574646 0,-0.0224488 -0.00909449,-0.0427677 -0.0237874,-0.0574646 -0.0146969,-0.0146929 -0.0350157,-0.0237874 -0.0574646,-0.0237874zm-0.208299 -0.127047c0.053315,-0.053311 0.126965,-0.0862913 0.208299,-0.0862913 0.0813346,0 0.154984,0.0329803 0.208299,0.0862913 0.053311,0.053315 0.0862913,0.126965 0.0862913,0.208299 0,0.0813346 -0.0329803,0.154984 -0.0862913,0.208299 -0.053315,0.053315 -0.126965,0.0862913 -0.208299,0.0862913 -0.0813346,0 -0.154984,-0.0329764 -0.208299,-0.0862913 -0.053315,-0.053315 -0.0862913,-0.126965 -0.0862913,-0.208299 0,-0.0813346 0.0329764,-0.154984 0.0862913,-0.208299z"/>
  <path class="fil0" d="M1.17333 4.26666c0,-0.0589094 -0.0477598,-0.106669 -0.106669,-0.106669 -0.0589094,0 -0.106669,0.0477598 -0.106669,0.106669l0 0.299594c0,0.0589094 0.0477598,0.106669 0.106669,0.106669 0.0589094,0 0.106669,-0.0477598 0.106669,-0.106669l0 -0.299594z"/>
  <path class="fil0" d="M3.94667 4.58479l0 -0.199154c0,-0.0621417 -0.0496969,-0.123035 -0.12976,-0.171071 -0.0963425,-0.0578031 -0.231638,-0.093689 -0.382618,-0.093689l-0.148575 0c-0.15098,0 -0.286276,0.0358858 -0.382618,0.093689 -0.080063,0.0480354 -0.12976,0.108929 -0.12976,0.171071l0 0.199154 0.586665 0.195559 0.586665 -0.195559zm0.213339 -0.199154l0 0.275543 0 0.0763858 -0.0733346 0.0244488 -0.693335 0.231114 -0.0666693 0 -0.693335 -0.231114 -0.0733346 -0.0244488 0 -0.0763858 0 -0.275543c0,-0.142138 0.0895945,-0.266972 0.233933,-0.353575 0.128051,-0.0768307 0.302287,-0.124524 0.491783,-0.124524l0.148575 0c0.189496,0 0.363732,0.0476929 0.491783,0.124524 0.144339,0.0866024 0.233933,0.211437 0.233933,0.353575z"/>
  <path class="fil0" d="M1.13094 1.815c-0.0579882,0.00897244 -0.0977205,0.0632638 -0.088748,0.121252 0.00897244,0.0579882 0.0632638,0.0977205 0.121252,0.088748l4.42562 -0.69589c0.0579882,-0.00897244 0.0977205,-0.0632638 0.088748,-0.121252 -0.00897244,-0.0579882 -0.0632638,-0.0977205 -0.121252,-0.088748l-4.42562 0.69589z"/>
  <path class="fil0" d="M5.55656 2.025c0.0579882,0.00897244 0.11228,-0.0307598 0.121252,-0.088748 0.00897244,-0.0579882 -0.0307598,-0.11228 -0.088748,-0.121252l-4.42562 -0.69589c-0.0579882,-0.00897244 -0.11228,0.0307598 -0.121252,0.088748 -0.00897244,0.0579882 0.0307598,0.11228 0.088748,0.121252l4.42562 0.69589z"/>
 </g>
 <rect class="fil1" width="6.82666" height="6.82666"/>
</svg>
