<?xml version="1.0" encoding="UTF-8"?>
<!DOCTYPE svg PUBLIC "-//W3C//DTD SVG 1.1//EN" "http://www.w3.org/Graphics/SVG/1.1/DTD/svg11.dtd">
<!-- Creator: CorelDRAW -->
<svg xmlns="http://www.w3.org/2000/svg" xml:space="preserve" width="6.82666in" height="6.82666in" style="shape-rendering:geometricPrecision; text-rendering:geometricPrecision; image-rendering:optimizeQuality; fill-rule:evenodd; clip-rule:evenodd"
viewBox="0 0 6.82666 6.82666"
 xmlns:xlink="http://www.w3.org/1999/xlink">
 <defs>
  <style type="text/css">
   <![CDATA[
    .fil1 {fill:none}
    .fil0 {fill:#212121;fill-rule:nonzero}
   ]]>
  </style>
 </defs>
 <g id="Layer_x0020_1">
  <metadata id="CorelCorpID_0Corel-Layer"/>
  <g id="_678604696">
   <path id="_429130528" class="fil0" d="M1.14492 2.82157l3.61221 0 0.0491654 0.0120866 1.10954 0.57837 0.115858 0.0603937 -0.0825236 0.101272 -0.49313 0.60515 -0.0322598 0.0395866 -0.0502402 0 -0.480866 0 -0.0805197 0 -0.0219803 -0.0779173c-0.0159409,-0.0565118 -0.0502126,-0.105484 -0.0960354,-0.140138 -0.0445748,-0.0337126 -0.100272,-0.0537087 -0.160811,-0.0537087 -0.0605394,0 -0.116236,0.0199961 -0.160811,0.0537087 -0.0458228,0.0346535 -0.0800945,0.083626 -0.0960354,0.140138l-0.0219843 0.0779173 -0.0805157 0 -0.241303 0 -0.0805197 0 -0.0219803 -0.0779173c-0.0159409,-0.0565118 -0.0502126,-0.105484 -0.0960354,-0.140138 -0.0445748,-0.0337126 -0.100272,-0.0537087 -0.160811,-0.0537087 -0.0605394,0 -0.116236,0.0199961 -0.160811,0.0537087 -0.0458228,0.0346535 -0.0800945,0.083626 -0.0960354,0.140138l-0.0219803 0.0779173 -0.0805197 0 -0.241303 0 -0.0805157 0 -0.0219843 -0.0779173c-0.0159409,-0.0565118 -0.0502126,-0.105484 -0.0960354,-0.140138 -0.0445748,-0.0337126 -0.100272,-0.0537087 -0.160811,-0.0537087 -0.0605394,0 -0.116236,0.0199961 -0.160811,0.0537087 -0.0458228,0.0346535 -0.0800945,0.083626 -0.0960354,0.140138l-0.0219803 0.0779173 -0.0805197 0 -0.241303 0 -0.0805157 0 -0.0219843 -0.0779173c-0.0159409,-0.0565118 -0.0502126,-0.105484 -0.0960354,-0.140138 -0.0445748,-0.0337126 -0.100272,-0.0537087 -0.160811,-0.0537087 -0.0605394,0 -0.116236,0.0199961 -0.160811,0.0537087 -0.0458228,0.0346535 -0.0800945,0.083626 -0.0960354,0.140138l-0.0219803 0.0779173 -0.0805197 0 -0.149067 0c-0.0802874,0 -0.153217,-0.0327795 -0.206016,-0.0855787 -0.0527953,-0.0527953 -0.0855748,-0.125717 -0.0855748,-0.206016l0 -0.813669c0,-0.0802992 0.0327756,-0.153224 0.0855748,-0.20602 0.0527953,-0.0527992 0.125717,-0.0855748 0.206016,-0.0855748zm3.58623 0.213339l-3.58623 0c-0.0214055,0 -0.0409488,0.00883858 -0.0551811,0.0230709 -0.0142323,0.0142323 -0.0230709,0.0337795 -0.0230709,0.055185l0 0.813669c0,0.0214055 0.00883858,0.0409488 0.0230709,0.0551811 0.0142362,0.0142362 0.0337795,0.0230748 0.0551811,0.0230748l0.0760945 0c0.0333307,-0.0691024 0.0826693,-0.128957 0.143177,-0.174717 0.0805433,-0.0609134 0.180713,-0.0970472 0.289142,-0.0970472 0.108429,0 0.208598,0.0361339 0.289142,0.0970472 0.0605079,0.0457598 0.109846,0.105614 0.143177,0.174717l0.0953583 0c0.0333307,-0.0691024 0.0826693,-0.128957 0.143177,-0.174717 0.0805433,-0.0609134 0.180713,-0.0970472 0.289142,-0.0970472 0.108429,0 0.208598,0.0361339 0.289142,0.0970472 0.0605079,0.0457598 0.109846,0.105614 0.143177,0.174717l0.0953583 0c0.0333307,-0.0691024 0.0826693,-0.128957 0.143177,-0.174717 0.0805433,-0.0609134 0.180717,-0.0970472 0.289142,-0.0970472 0.108429,0 0.208598,0.0361339 0.289142,0.0970472 0.0605079,0.0457598 0.109846,0.105614 0.143177,0.174717l0.0953583 0c0.0333307,-0.0691024 0.0826693,-0.128957 0.143177,-0.174717 0.0805433,-0.0609134 0.180713,-0.0970472 0.289142,-0.0970472 0.108429,0 0.208598,0.0361339 0.289142,0.0970472 0.0605079,0.0457598 0.109846,0.105614 0.143177,0.174717l0.357654 0 0.378346 -0.464291 -0.970492 -0.50589z"/>
   <path id="_429131080" class="fil0" d="M1.65333 3.73333c0.132535,0 0.252543,0.0537362 0.339406,0.140598 0.0868622,0.0868622 0.140598,0.20687 0.140598,0.339406 0,0.132535 -0.0537362,0.252543 -0.140598,0.339406 -0.0868622,0.0868622 -0.20687,0.140598 -0.339406,0.140598 -0.132535,0 -0.252543,-0.0537362 -0.339406,-0.140598 -0.0868622,-0.0868622 -0.140598,-0.20687 -0.140598,-0.339406 0,-0.132535 0.0537362,-0.252543 0.140598,-0.339406 0.0868622,-0.0868622 0.20687,-0.140598 0.339406,-0.140598zm0.188571 0.291433c-0.0482441,-0.0482441 -0.114921,-0.0780945 -0.188571,-0.0780945 -0.0736496,0 -0.140327,0.0298504 -0.188571,0.0780945 -0.0482441,0.0482441 -0.0780945,0.114921 -0.0780945,0.188571 0,0.0736496 0.0298504,0.140327 0.0780945,0.188571 0.0482441,0.0482441 0.114921,0.0780945 0.188571,0.0780945 0.0736496,0 0.140327,-0.0298504 0.188571,-0.0780945 0.0482441,-0.0482441 0.0780945,-0.114921 0.0780945,-0.188571 0,-0.0736496 -0.0298504,-0.140327 -0.0780945,-0.188571z"/>
   <path id="_429130744" class="fil0" d="M2.61333 3.73333c0.132535,0 0.252543,0.0537362 0.339406,0.140598 0.0868622,0.0868622 0.140598,0.20687 0.140598,0.339406 0,0.132535 -0.0537362,0.252543 -0.140598,0.339406 -0.0868622,0.0868622 -0.20687,0.140598 -0.339406,0.140598 -0.132535,0 -0.252543,-0.0537362 -0.339406,-0.140598 -0.0868622,-0.0868622 -0.140598,-0.20687 -0.140598,-0.339406 0,-0.132535 0.0537362,-0.252543 0.140598,-0.339406 0.0868622,-0.0868622 0.20687,-0.140598 0.339406,-0.140598zm0.188571 0.291433c-0.0482441,-0.0482441 -0.114921,-0.0780945 -0.188571,-0.0780945 -0.0736496,0 -0.140327,0.0298504 -0.188571,0.0780945 -0.0482441,0.0482441 -0.0780945,0.114921 -0.0780945,0.188571 0,0.0736496 0.0298504,0.140327 0.0780945,0.188571 0.0482441,0.0482441 0.114921,0.0780945 0.188571,0.0780945 0.0736496,0 0.140327,-0.0298504 0.188571,-0.0780945 0.0482441,-0.0482441 0.0780945,-0.114921 0.0780945,-0.188571 0,-0.0736496 -0.0298504,-0.140327 -0.0780945,-0.188571z"/>
   <path id="_429131008" class="fil0" d="M3.57333 3.73333c0.132535,0 0.252543,0.0537362 0.339406,0.140598 0.0868622,0.0868622 0.140598,0.20687 0.140598,0.339406 0,0.132535 -0.0537362,0.252543 -0.140598,0.339406 -0.0868622,0.0868622 -0.20687,0.140598 -0.339406,0.140598 -0.132535,0 -0.252543,-0.0537362 -0.339406,-0.140598 -0.0868622,-0.0868622 -0.140598,-0.20687 -0.140598,-0.339406 0,-0.132535 0.0537362,-0.252543 0.140598,-0.339406 0.0868622,-0.0868622 0.20687,-0.140598 0.339406,-0.140598zm0.188571 0.291433c-0.0482441,-0.0482441 -0.114921,-0.0780945 -0.188571,-0.0780945 -0.0736496,0 -0.140327,0.0298504 -0.188571,0.0780945 -0.0482441,0.0482441 -0.0780945,0.114921 -0.0780945,0.188571 0,0.0736496 0.0298504,0.140327 0.0780945,0.188571 0.0482441,0.0482441 0.114921,0.0780945 0.188571,0.0780945 0.0736496,0 0.140327,-0.0298504 0.188571,-0.0780945 0.0482441,-0.0482441 0.0780945,-0.114921 0.0780945,-0.188571 0,-0.0736496 -0.0298504,-0.140327 -0.0780945,-0.188571z"/>
   <path id="_429130984" class="fil0" d="M4.53332 3.73333c0.132535,0 0.252543,0.0537362 0.339406,0.140598 0.0868622,0.0868622 0.140598,0.20687 0.140598,0.339406 0,0.132535 -0.0537362,0.252543 -0.140598,0.339406 -0.0868622,0.0868622 -0.20687,0.140598 -0.339406,0.140598 -0.132535,0 -0.252543,-0.0537362 -0.339406,-0.140598 -0.0868622,-0.0868622 -0.140598,-0.20687 -0.140598,-0.339406 0,-0.132535 0.0537362,-0.252543 0.140598,-0.339406 0.0868622,-0.0868622 0.20687,-0.140598 0.339406,-0.140598zm0.188571 0.291433c-0.0482441,-0.0482441 -0.114921,-0.0780945 -0.188571,-0.0780945 -0.0736496,0 -0.140327,0.0298504 -0.188571,0.0780945 -0.0482441,0.0482441 -0.0780945,0.114921 -0.0780945,0.188571 0,0.0736496 0.0298504,0.140327 0.0780945,0.188571 0.0482441,0.0482441 0.114921,0.0780945 0.188571,0.0780945 0.0736496,0 0.140327,-0.0298504 0.188571,-0.0780945 0.0482441,-0.0482441 0.0780945,-0.114921 0.0780945,-0.188571 0,-0.0736496 -0.0298504,-0.140327 -0.0780945,-0.188571z"/>
   <polygon id="_429130912" class="fil0" points="1.49333,3.2 1.81333,3.2 1.81333,3.41333 1.49333,3.41333 "/>
   <polygon id="_429131128" class="fil0" points="2.45333,3.2 2.77333,3.2 2.77333,3.41333 2.45333,3.41333 "/>
   <polygon id="_429130960" class="fil0" points="3.41333,3.2 3.73333,3.2 3.73333,3.41333 3.41333,3.41333 "/>
   <polygon id="_429130840" class="fil0" points="4.37332,3.2 4.69332,3.2 4.69332,3.41333 4.37332,3.41333 "/>
   <path id="_678611728" class="fil0" d="M1.88043 2.935l0.266661 -0.48c0.0071811,-0.0129291 0.0175197,-0.0326102 0.0277362,-0.0520709 0.0733937,-0.139776 0.141563,-0.269598 0.331846,-0.269598l0.479996 0c0.190283,0 0.258472,0.129862 0.331854,0.269614 0.0102205,0.0194646 0.0205748,0.0391772 0.0277283,0.0520551l0.266661 0.48 -0.185835 0.103331 -0.266661 -0.48c-0.0128189,-0.0230787 -0.0215709,-0.0397402 -0.0302244,-0.0562205 -0.0423071,-0.0805709 -0.0816181,-0.155441 -0.143524,-0.155441l-0.479996 0c-0.0619016,0 -0.101205,0.0748465 -0.143516,0.155425 -0.00866142,0.0164961 -0.017437,0.0332047 -0.0302323,0.0562362l-0.266661 0.48 -0.185835 -0.103331z"/>
   <polygon id="_678628168" class="fil0" points="1.17333,2.92824 1.17333,2.56 1.17333,2.45333 1.28,2.45333 1.81333,2.45333 1.92,2.45333 1.92,2.56 1.92,2.92824 1.70667,2.92824 1.70667,2.66667 1.38667,2.66667 1.38667,2.92824 "/>
   <polygon id="_678609520" class="fil0" points="3.25334,2.39999 4.69333,2.39999 4.69333,2.61333 3.25334,2.61333 "/>
  </g>
 </g>
 <rect class="fil1" width="6.82666" height="6.82666"/>
</svg>
