<?xml version="1.0" encoding="UTF-8"?>
<!DOCTYPE svg PUBLIC "-//W3C//DTD SVG 1.1//EN" "http://www.w3.org/Graphics/SVG/1.1/DTD/svg11.dtd">
<!-- Creator: CorelDRAW -->
<svg xmlns="http://www.w3.org/2000/svg" xml:space="preserve" width="6.82666in" height="6.82666in" style="shape-rendering:geometricPrecision; text-rendering:geometricPrecision; image-rendering:optimizeQuality; fill-rule:evenodd; clip-rule:evenodd"
viewBox="0 0 6.82666 6.82666"
 xmlns:xlink="http://www.w3.org/1999/xlink">
 <defs>
  <style type="text/css">
   <![CDATA[
    .fil1 {fill:none}
    .fil0 {fill:#212121;fill-rule:nonzero}
   ]]>
  </style>
 </defs>
 <g id="Layer_x0020_1">
  <metadata id="CorelCorpID_0Corel-Layer"/>
  <path class="fil0" d="M1.88896 3.80216c0.13026,0 0.248205,0.052811 0.333583,0.138189 0.085378,0.085378 0.138189,0.203323 0.138189,0.333583 0,0.130264 -0.052811,0.248209 -0.138189,0.333587 -0.085378,0.085378 -0.203323,0.138189 -0.333583,0.138189 -0.130268,0 -0.248213,-0.052811 -0.333583,-0.138189 -0.085378,-0.085378 -0.138189,-0.203323 -0.138189,-0.333587 0,-0.13026 0.052811,-0.248205 0.138189,-0.333583 0.0853701,-0.085378 0.203315,-0.138189 0.333583,-0.138189zm0.182748 0.289024c-0.0467598,-0.0467598 -0.111374,-0.075685 -0.182748,-0.075685 -0.071378,0 -0.135992,0.0289291 -0.182748,0.075685 -0.0467598,0.0467598 -0.075685,0.111374 -0.075685,0.182748 0,0.071378 0.0289252,0.135992 0.075685,0.182752 0.0467559,0.0467559 0.11137,0.075685 0.182748,0.075685 0.071374,0 0.135988,-0.0289252 0.182748,-0.075685 0.0467598,-0.0467598 0.075685,-0.111374 0.075685,-0.182752 0,-0.071374 -0.0289252,-0.135988 -0.075685,-0.182748z"/>
  <path class="fil0" d="M4.9377 3.80216c0.13026,0 0.248205,0.052811 0.333583,0.138189 0.085378,0.085378 0.138189,0.203323 0.138189,0.333583 0,0.130264 -0.052811,0.248209 -0.138189,0.333587 -0.085378,0.085378 -0.203323,0.138189 -0.333583,0.138189 -0.130264,0 -0.248209,-0.052811 -0.333587,-0.138189 -0.085378,-0.085378 -0.138189,-0.203323 -0.138189,-0.333587 0,-0.13026 0.052811,-0.248205 0.138189,-0.333583 0.085378,-0.085378 0.203323,-0.138189 0.333587,-0.138189zm0.182748 0.289024c-0.0467598,-0.0467598 -0.111374,-0.075685 -0.182748,-0.075685 -0.071378,0 -0.135992,0.0289252 -0.182752,0.075685 -0.0467598,0.0467598 -0.075685,0.111374 -0.075685,0.182748 0,0.071378 0.0289252,0.135992 0.075685,0.182752 0.0467598,0.0467598 0.111374,0.075685 0.182752,0.075685 0.071374,0 0.135988,-0.0289252 0.182748,-0.075685 0.0467598,-0.0467598 0.075685,-0.111374 0.075685,-0.182752 0,-0.071374 -0.0289252,-0.135988 -0.075685,-0.182748z"/>
  <path class="fil0" d="M1.22959 2.94484l4.36747 0c0.0994094,0 0.190949,0.0348543 0.258319,0.091 0.0727677,0.0606417 0.117945,0.145638 0.117945,0.240335l0 0.629063c0,0.0946929 -0.0451732,0.179689 -0.117949,0.240331 -0.0673701,0.0561457 -0.158902,0.091 -0.258315,0.091l-0.189055 0c-0.00611024,-0.0779724 -0.031189,-0.150622 -0.0706142,-0.213339l0.259669 0c0.0488583,0 0.0921339,-0.0157047 0.12248,-0.0409921 0.0249528,-0.0207953 0.0404449,-0.0481378 0.0404449,-0.077l0 -0.629063c0,-0.0288661 -0.0154921,-0.0562126 -0.0404409,-0.0770039 -0.0303465,-0.0252874 -0.073622,-0.0409921 -0.122484,-0.0409921l-4.36747 0c-0.0488622,0 -0.0921378,0.0157047 -0.122484,0.0409921 -0.0249528,0.0207913 -0.0404409,0.0481378 -0.0404409,0.0770039l0 0.629063c0,0.0288661 0.0154921,0.0562126 0.0404409,0.077 0.0303465,0.0252874 0.073622,0.0409921 0.122484,0.0409921l0.259669 0c-0.0394252,0.0627165 -0.0645039,0.135366 -0.0706142,0.213339l-0.189055 0c-0.0994094,0 -0.190949,-0.0348543 -0.258319,-0.091 -0.0727677,-0.0606378 -0.117945,-0.145634 -0.117945,-0.240331l0 -0.629063c0,-0.0946969 0.0451693,-0.179697 0.117945,-0.240335 0.0673701,-0.0561457 0.158902,-0.091 0.258319,-0.091zm3.23779 1.29173l-2.10811 0c-0.00611024,-0.0779724 -0.031189,-0.150622 -0.0706142,-0.213339l2.24934 0c-0.0394252,0.0627165 -0.0645039,0.135366 -0.0706142,0.213339z"/>
  <path class="fil0" d="M1.30453 2.98276c-0.0379685,0.0446417 -0.0325591,0.111618 0.0120827,0.149587 0.0446417,0.0379685 0.111618,0.0325591 0.149587,-0.0120827l0.793693 -0.932634 1.56428 0 1.0567 0.907386c0.0446417,0.0381969 0.111803,0.0329724 0.15,-0.0116693 0.0381969,-0.0446417 0.0329724,-0.111803 -0.0116693,-0.15l-1.08082 -0.928094c-0.0192795,-0.0191339 -0.0458268,-0.0309606 -0.0751339,-0.0309606l-1.65192 0 0 1.1811e-005c-0.0301732,1.1811e-005 -0.0601457,0.012752 -0.0812323,0.0375276l0.0812323 0.0691299 -0.0808346 -0.068752 -0.825961 0.970551z"/>
  <polygon class="fil0" points="3.27437,2.1888 3.27437,3.05151 3.06103,3.05151 3.06103,2.1888 "/>
  <path class="fil0" d="M5.44 3.35999c-0.0589094,0 -0.106669,0.0477598 -0.106669,0.106669 0,0.0589094 0.0477598,0.106669 0.106669,0.106669l0.319992 0c0.0589094,0 0.106669,-0.0477598 0.106669,-0.106669 0,-0.0589094 -0.0477598,-0.106669 -0.106669,-0.106669l-0.319992 0z"/>
  <path class="fil0" d="M1.06667 3.35999c-0.0589094,0 -0.106669,0.0477598 -0.106669,0.106669 0,0.0589094 0.0477598,0.106669 0.106669,0.106669l0.319992 0c0.0589094,0 0.106669,-0.0477598 0.106669,-0.106669 0,-0.0589094 -0.0477598,-0.106669 -0.106669,-0.106669l-0.319992 0z"/>
 </g>
 <rect class="fil1" width="6.82666" height="6.82666"/>
</svg>
